<svg xmlns="http://www.w3.org/2000/svg" width="128" height="128" viewBox="0 0 128 128">
  <g id="img17" transform="translate(-318.711 -5903)">
    <rect id="Rectangle_458254" data-name="Rectangle 458254" width="128" height="128" transform="translate(318.711 5903)" fill="#ffe79e"/>
    <g id="comparativo" transform="translate(335.711 5920)">
      <path id="Path_1030375" data-name="Path 1030375" d="M66.4,0V12.072H60.36V0H33.2V12.072H27.162V0H0V33.2H23.43a23.88,23.88,0,0,0,6.526,23.319c-.057.044-.124.075-.181.121l-3.385,2.707a4.527,4.527,0,0,0-3.756-2H0V81.487H22.635a4.525,4.525,0,0,0,3.756-2l3.385,2.707a10.6,10.6,0,0,0,6.6,2.315h2.861v1.509a7.545,7.545,0,0,0,15.09,0V84.5h1.509a4.508,4.508,0,0,0,3.35-7.545,4.458,4.458,0,0,0,0-6.036,4.458,4.458,0,0,0,0-6.036,4.428,4.428,0,0,0,.548-5.282A23.975,23.975,0,0,0,70.128,33.2h23.43V0ZM57.342,3.018V17.557a23.691,23.691,0,0,0-3.018-1.242V6.036H39.234V16.314a24.138,24.138,0,0,0-3.018,1.242V3.018ZM51.306,15.531a23.476,23.476,0,0,0-9.054,0V9.054h9.054ZM3.018,3.018H24.144V30.18H3.018ZM27.162,15.09H33.2v4.2a24.3,24.3,0,0,0-6.036,5.926ZM24.144,76.959a1.511,1.511,0,0,1-1.509,1.509H3.018V60.36H22.635a1.511,1.511,0,0,1,1.509,1.509Zm12.229,4.527a7.577,7.577,0,0,1-4.714-1.654l-4.5-3.6V62.6l4.5-3.6a7.573,7.573,0,0,1,4.713-1.654H52.815A3.021,3.021,0,0,1,49.8,60.36H39.936l-.448.672a8.638,8.638,0,0,1-7.2,3.856h-.6v3.018h.6a11.632,11.632,0,0,0,6.949-2.313V81.487ZM31.689,39.234A15.077,15.077,0,0,1,57.537,28.671H46.779v3.018h4.264l-5.858,6.834-5.952-5.95-7.5,7.5C31.716,39.8,31.689,39.518,31.689,39.234ZM55.833,60.36a1.509,1.509,0,0,1,0,3.018H49.8a6.016,6.016,0,0,0,5.2-3.018Zm1.509,7.545a1.511,1.511,0,0,1-1.509,1.509H49.8a1.509,1.509,0,1,1,0-3.018h6.036A1.511,1.511,0,0,1,57.342,67.905Zm0,6.036a1.511,1.511,0,0,1-1.509,1.509H49.8a1.509,1.509,0,1,1,0-3.018h6.036A1.511,1.511,0,0,1,57.342,73.941ZM40.743,38.35l3.018,3.018V54.02a14.947,14.947,0,0,1-3.018-.964ZM46.779,41.3,49.8,37.781v16.24a15.176,15.176,0,0,1-3.018.3Zm6.036,11.754v-18.8l4.756-5.55a15.061,15.061,0,0,1-4.756,24.346ZM37.725,38.35V51.278a15.13,15.13,0,0,1-5.358-7.569ZM51.306,86.014a4.527,4.527,0,0,1-9.054,0V63.378h3.3a4.485,4.485,0,0,0,.9,1.509,4.458,4.458,0,0,0,0,6.036,4.458,4.458,0,0,0,0,6.036A4.508,4.508,0,0,0,49.8,84.5h1.509Zm4.527-4.527H49.8a1.509,1.509,0,1,1,0-3.018h6.036a1.509,1.509,0,0,1,0,3.018Zm1.4-23.9a4.476,4.476,0,0,0-1.4-.243,3,3,0,0,0-.788-2.016,18.1,18.1,0,1,0-18.254-1h-.418a10.572,10.572,0,0,0-3.631.658,21.107,21.107,0,1,1,24.488,2.6Zm3.13-38.3v-4.2H66.4V25.213A24.316,24.316,0,0,0,60.36,19.288ZM90.541,30.18H69.414V3.018H90.541Z" fill="#344866"/>
      <path id="Path_1030376" data-name="Path 1030376" d="M4,4H19.09V7.018H4Z" transform="translate(2.036 2.036)" fill="#344866"/>
      <path id="Path_1030377" data-name="Path 1030377" d="M4,8H19.09v3.018H4Z" transform="translate(2.036 4.072)" fill="#344866"/>
      <path id="Path_1030378" data-name="Path 1030378" d="M4,21.054H19.09V12H4Zm3.018-6.036h9.054v3.018H7.018Z" transform="translate(2.036 6.108)" fill="#344866"/>
      <path id="Path_1030379" data-name="Path 1030379" d="M48,4H63.09V7.018H48Z" transform="translate(24.432 2.036)" fill="#344866"/>
      <path id="Path_1030380" data-name="Path 1030380" d="M48,8H63.09v3.018H48Z" transform="translate(24.432 4.072)" fill="#344866"/>
      <path id="Path_1030381" data-name="Path 1030381" d="M63.09,12H48v9.054H63.09Zm-3.018,6.036H51.018V15.018h9.054Z" transform="translate(24.432 6.108)" fill="#344866"/>
      <path id="Path_1030382" data-name="Path 1030382" d="M42,63.054H72.18V54H42Zm3.018-6.036H69.162v3.018H45.018Z" transform="translate(21.378 27.487)" fill="#344866"/>
      <path id="Path_1030383" data-name="Path 1030383" d="M42,55.054H72.18V46H42Zm3.018-6.036H69.162v3.018H45.018Z" transform="translate(21.378 23.414)" fill="#344866"/>
      <path id="Path_1030384" data-name="Path 1030384" d="M42,42H72.18v3.018H42Z" transform="translate(21.378 21.378)" fill="#344866"/>
      <path id="Path_1030385" data-name="Path 1030385" d="M42,38h6.036v3.018H42Z" transform="translate(21.378 19.342)" fill="#344866"/>
      <path id="Path_1030386" data-name="Path 1030386" d="M48,38H69.126v3.018H48Z" transform="translate(24.432 19.342)" fill="#344866"/>
    </g>
  </g>
</svg>
