<svg xmlns="http://www.w3.org/2000/svg" width="128" height="128" viewBox="0 0 128 128">
  <g id="img18" transform="translate(-318.711 -5903)">
    <rect id="Rectangle_458254" data-name="Rectangle 458254" width="128" height="128" transform="translate(318.711 5903)" fill="#ffe79e"/>
    <g id="codificacion" transform="translate(335.977 5920.266)">
      <path id="Path_1030387" data-name="Path 1030387" d="M47.523,46a4.523,4.523,0,1,0,4.523,4.523A4.528,4.528,0,0,0,47.523,46Zm0,6.03a1.508,1.508,0,1,1,1.508-1.508A1.508,1.508,0,0,1,47.523,52.03Z" transform="translate(21.824 23.347)" fill="#344866"/>
      <path id="Path_1030388" data-name="Path 1030388" d="M49.047,31.523a4.523,4.523,0,0,0-9.045,0h3.015a1.508,1.508,0,0,1,3.015,0Z" transform="translate(20.303 13.704)" fill="#344866"/>
      <path id="Path_1030389" data-name="Path 1030389" d="M93.468,43.79A22.7,22.7,0,0,0,81.407,23.76V4.523A4.528,4.528,0,0,0,76.885,0H4.523A4.528,4.528,0,0,0,0,4.523V55.779A4.528,4.528,0,0,0,4.523,60.3H6.03V79.9a4.528,4.528,0,0,0,4.523,4.523H43.719A4.528,4.528,0,0,0,48.241,79.9V60.3h6.185a7.5,7.5,0,0,0,1.859,3.579,6.022,6.022,0,0,0-3.522,5.466V85.93A7.546,7.546,0,0,0,60.3,93.468H78.392A7.546,7.546,0,0,0,85.93,85.93V69.347a6.016,6.016,0,0,0-4.152-5.7l.677-.406A22.8,22.8,0,0,0,93.468,43.79Zm-3.015,0A19.768,19.768,0,0,1,80.9,60.656L77.545,62.67a24.154,24.154,0,0,1-2.12-8.4,6.03,6.03,0,0,0-.045-12.06V39.2a4.528,4.528,0,0,0-4.523-4.523H52.764a1.508,1.508,0,0,1-1.508-1.508A9.054,9.054,0,0,1,60.3,24.121H70.784A19.691,19.691,0,0,1,90.453,43.79ZM57.29,54.272h5.772A4.531,4.531,0,0,1,58.8,57.287H57.29ZM58.8,60.3a7.546,7.546,0,0,0,7.538-7.538V51.257H56.4L54.9,49.747l.621-.621a5.989,5.989,0,0,0,1.771-4.268V39.2A1.508,1.508,0,0,1,58.8,37.689h12.06A1.508,1.508,0,0,1,72.365,39.2v6.03H75.38a3.015,3.015,0,1,1,0,6.03H72.364v1.508A27.162,27.162,0,0,0,74.51,63.317h-12.7A4.516,4.516,0,0,1,57.567,60.3Zm11.986-39.2H60.3a12.074,12.074,0,0,0-12.06,12.06,4.528,4.528,0,0,0,4.523,4.523h1.788a4.472,4.472,0,0,0-.277,1.508v5.662a3,3,0,0,1-.885,2.133l-2.759,2.753,3.644,3.645v3.9H47.964a4.516,4.516,0,0,0-4.245-3.015H33.166V52.764a4.522,4.522,0,0,0-8.139-2.714l-3.167,4.221H15.075v-39.2H78.392v7.37A22.541,22.541,0,0,0,70.784,21.106ZM4.523,3.015H76.885a1.508,1.508,0,0,1,1.508,1.508V12.06H3.015V4.523A1.508,1.508,0,0,1,4.523,3.015ZM3.015,55.779v-40.7H12.06v3.015H6.03v3.015h6.03v3.015H6.03v3.015h6.03v3.015H6.03v3.015h6.03v3.015H6.03V39.2h6.03v3.015H6.03v3.015h6.03v3.015H6.03v3.015h6.03v3.015H10.553a4.516,4.516,0,0,0-4.245,3.015H4.523A1.508,1.508,0,0,1,3.015,55.779ZM45.226,79.9a1.508,1.508,0,0,1-1.508,1.508H10.553A1.508,1.508,0,0,1,9.045,79.9V58.794a1.508,1.508,0,0,1,1.508-1.508H23.367l4.07-5.429a1.508,1.508,0,0,1,2.714.906v4.523H43.719a1.508,1.508,0,0,1,1.508,1.508ZM78.392,90.453H60.3a4.516,4.516,0,0,1-4.245-3.015h26.58A4.513,4.513,0,0,1,78.392,90.453Zm4.523-21.106V84.423H55.779V69.347a3.018,3.018,0,0,1,3.015-3.015H79.9A3.018,3.018,0,0,1,82.915,69.347Z" fill="#344866"/>
      <path id="Path_1030390" data-name="Path 1030390" d="M22.293,43.425l4.964,4.964-4.964,4.964,2.132,2.132,7.1-7.1-7.1-7.1Z" transform="translate(11.315 20.958)" fill="#344866"/>
      <path id="Path_1030391" data-name="Path 1030391" d="M14.682,41.293l-7.1,7.1,7.1,7.1,2.132-2.132-4.964-4.964,4.964-4.964Z" transform="translate(3.85 20.958)" fill="#344866"/>
      <path id="Path_1030392" data-name="Path 1030392" d="M0,0H19.069V3.014H0Z" transform="translate(22.725 77.941) rotate(-71.529)" fill="#344866"/>
      <path id="Path_1030393" data-name="Path 1030393" d="M12,4h3.015V7.015H12Z" transform="translate(6.091 2.03)" fill="#344866"/>
      <path id="Path_1030394" data-name="Path 1030394" d="M4,4H7.015V7.015H4Z" transform="translate(2.03 2.03)" fill="#344866"/>
      <path id="Path_1030395" data-name="Path 1030395" d="M8,4h3.015V7.015H8Z" transform="translate(4.06 2.03)" fill="#344866"/>
      <path id="Path_1030396" data-name="Path 1030396" d="M12,12H39.136v3.015H12Z" transform="translate(6.091 6.091)" fill="#344866"/>
      <path id="Path_1030397" data-name="Path 1030397" d="M28,16h3.015v3.015H28Z" transform="translate(14.211 8.121)" fill="#344866"/>
      <path id="Path_1030398" data-name="Path 1030398" d="M12,16H33.106v3.015H12Z" transform="translate(6.091 8.121)" fill="#344866"/>
      <path id="Path_1030399" data-name="Path 1030399" d="M12,20H39.136v3.015H12Z" transform="translate(6.091 10.151)" fill="#344866"/>
      <path id="Path_1030400" data-name="Path 1030400" d="M26,24h6.03v3.015H26Z" transform="translate(13.196 12.181)" fill="#344866"/>
      <path id="Path_1030401" data-name="Path 1030401" d="M22,24h3.015v3.015H22Z" transform="translate(11.166 12.181)" fill="#344866"/>
      <path id="Path_1030402" data-name="Path 1030402" d="M12,24H24.06v3.015H12Z" transform="translate(6.091 12.181)" fill="#344866"/>
      <path id="Path_1030403" data-name="Path 1030403" d="M12,28H39.136v3.015H12Z" transform="translate(6.091 14.211)" fill="#344866"/>
    </g>
  </g>
</svg>
