<svg xmlns="http://www.w3.org/2000/svg" xmlns:xlink="http://www.w3.org/1999/xlink" width="150" height="150" viewBox="0 0 150 150">
  <defs>
    <clipPath id="clip-path">
      <rect id="Rectangle_454829" data-name="Rectangle 454829" width="150" height="150" fill="#1e535a"/>
    </clipPath>
    <clipPath id="clip-path-2">
      <path id="path3234" d="M0-682.665H60.567V-622.1H0Z" transform="translate(0 682.665)" fill="#1e535a"/>
    </clipPath>
  </defs>
  <g id="img2" transform="translate(-186 -4323.945)">
    <g id="Group_1177591" data-name="Group 1177591" transform="translate(186 4323.945)">
      <g id="Group_1177589" data-name="Group 1177589" transform="translate(0 0)">
        <g id="Group_1177587" data-name="Group 1177587" clip-path="url(#clip-path)">
          <path id="Path_997422" data-name="Path 997422" d="M143.876,66.392A68.963,68.963,0,0,0,128.3,30.506a7.931,7.931,0,0,0-11.16-10.685A68.861,68.861,0,0,0,81.486,5.891,7.933,7.933,0,0,0,66.079,6.2,68.956,68.956,0,0,0,31.872,20.827,7.935,7.935,0,0,0,20.859,31.915,68.9,68.9,0,0,0,6.425,66.324a7.938,7.938,0,0,0-.19,15.546,68.878,68.878,0,0,0,13.982,35.106A7.934,7.934,0,0,0,31,128.179,68.951,68.951,0,0,0,66.016,143.5a7.935,7.935,0,0,0,15.546.313,68.892,68.892,0,0,0,35.914-14.188,7.933,7.933,0,0,0,11.1-10.74A68.98,68.98,0,0,0,144.062,81.8a7.935,7.935,0,0,0-.186-15.4M121.469,34.413a7.89,7.89,0,0,0,4.394-1.33,65.489,65.489,0,0,1,14.453,33.289,7.946,7.946,0,0,0-5.071,3.674l-20.281-7.6c.016-.222.032-.447.032-.677a7.935,7.935,0,0,0-3.361-6.484l8.871-20.93a8.6,8.6,0,0,0,.962.063m-4.287-1.263-8.816,20.791a7.853,7.853,0,0,0-8.741,5.047L62.936,50.537a7.72,7.72,0,0,0-.166-1.58l52.065-18.131a7.961,7.961,0,0,0,2.348,2.324M73.822,15.882a7.941,7.941,0,0,0,7.795-6.441,65.381,65.381,0,0,1,33.059,12.929,7.9,7.9,0,0,0-1.148,4.1,8.337,8.337,0,0,0,.075,1.049L61.277,45.739A7.965,7.965,0,0,0,59.84,44.3L73.565,15.87c.087,0,.17.012.257.012M66.1,9.754a7.943,7.943,0,0,0,3.994,5.2L56.637,42.817A7.963,7.963,0,0,0,55,42.647a7.883,7.883,0,0,0-4.525,1.421L34.524,30.747a7.894,7.894,0,0,0-.269-7.308A65.433,65.433,0,0,1,66.1,9.754M15.688,72.393,48.676,55.378a7.912,7.912,0,0,0,6.259,3.147L66.241,94.665a8.071,8.071,0,0,0-1.75,1.936l-48.9-20.376a7.888,7.888,0,0,0,.293-2.106,7.98,7.98,0,0,0-.194-1.726m7.791-38.111a7.935,7.935,0,0,0,8.864-.756L48.091,46.677a7.919,7.919,0,0,0-.875,5.487L14.172,69.2a7.939,7.939,0,0,0-4.2-2.755A65.4,65.4,0,0,1,23.479,34.282m3.286,79.246a7.918,7.918,0,0,0-3.943,1.053A65.346,65.346,0,0,1,9.786,81.835a7.948,7.948,0,0,0,4.121-2.486L63.3,99.926a8.514,8.514,0,0,0-.063.954,7.939,7.939,0,0,0,.475,2.684L33.839,117.875a7.94,7.94,0,0,0-7.074-4.347M66.17,139.96a65.5,65.5,0,0,1-32.675-14.295,7.858,7.858,0,0,0,1.211-4.2l0-.091,30.926-14.821a7.941,7.941,0,0,0,2.8,1.77l1.853,26.63a7.941,7.941,0,0,0-4.113,5m3.29-46.828L58.4,57.758a7.952,7.952,0,0,0,3.773-3.773L99.154,62.5a7.894,7.894,0,0,0,1.263,3.61L75.049,93.952a7.843,7.843,0,0,0-5.59-.819m12.094,47.136a7.938,7.938,0,0,0-7.731-6.152l-.059,0L72,108.782a7.927,7.927,0,0,0,4.853-2.355l36.978,16.31c0,.071-.012.135-.012.206A7.9,7.9,0,0,0,115,127.083a65.377,65.377,0,0,1-33.443,13.186m33.17-21-36.016-15.89a7.894,7.894,0,0,0-1.041-7.062l25.292-27.762a7.894,7.894,0,0,0,4.1,1.148,8.74,8.74,0,0,0,.974-.063l9.453,46.618a7.923,7.923,0,0,0-2.759,3.013m11.393-2.969a7.893,7.893,0,0,0-5.277-1.247l-9.457-46.638a7.973,7.973,0,0,0,2.5-2.613l20.269,7.6a7.042,7.042,0,0,0-.036.713A7.938,7.938,0,0,0,140.5,81.9a65.431,65.431,0,0,1-14.382,34.4" transform="translate(0 0.002)" fill="#1e535a"/>
        </g>
      </g>
    </g>
    <g id="Ellipse_13614" data-name="Ellipse 13614" transform="translate(210.273 4348.213)" fill="#fff" stroke="#1e535a" stroke-width="3">
      <ellipse cx="50.732" cy="50.733" rx="50.732" ry="50.733" stroke="none"/>
      <ellipse cx="50.732" cy="50.733" rx="49.232" ry="49.233" fill="none"/>
    </g>
    <g id="g3228" transform="translate(232.88 5051.996)">
      <g id="g3230" transform="translate(0 -682.665)">
        <g id="g3232" clip-path="url(#clip-path-2)">
          <g id="g3238" transform="translate(14.043 3.459)">
            <path id="path3240" d="M-292-145h-24.376a4.058,4.058,0,0,1-4.053-4.053v-7.309a4.058,4.058,0,0,1,4.053-4.053H-292a4.058,4.058,0,0,1,4.053,4.053v7.309A4.058,4.058,0,0,1-292-145Zm-24.376-13.049a1.689,1.689,0,0,0-1.687,1.687v7.309a1.689,1.689,0,0,0,1.687,1.687H-292a1.689,1.689,0,0,0,1.687-1.687v-7.309A1.689,1.689,0,0,0-292-158.046Z" transform="translate(320.429 160.412)" fill="#1e535a"/>
          </g>
          <g id="g3242" transform="translate(14.043 22.576)">
            <path id="path3244" d="M-292-145h-24.376a4.058,4.058,0,0,1-4.053-4.053v-7.309a4.058,4.058,0,0,1,4.053-4.053H-292a4.058,4.058,0,0,1,4.053,4.053v7.309A4.058,4.058,0,0,1-292-145Zm-24.376-13.049a1.689,1.689,0,0,0-1.687,1.687v7.309a1.689,1.689,0,0,0,1.687,1.687H-292a1.689,1.689,0,0,0,1.687-1.687v-7.309A1.689,1.689,0,0,0-292-158.046Z" transform="translate(320.429 160.412)" fill="#1e535a"/>
          </g>
          <g id="g3246" transform="translate(14.043 41.693)">
            <path id="path3248" d="M-211.118-145h-7.176a1.183,1.183,0,0,1-1.183-1.183,1.183,1.183,0,0,1,1.183-1.183h7.176a1.689,1.689,0,0,0,1.687-1.687v-7.309a1.689,1.689,0,0,0-1.687-1.687h-24.376a1.689,1.689,0,0,0-1.687,1.687v7.309a1.689,1.689,0,0,0,1.687,1.687h6.792a1.183,1.183,0,0,1,1.183,1.183A1.183,1.183,0,0,1-228.7-145h-6.792a4.058,4.058,0,0,1-4.053-4.053v-7.309a4.058,4.058,0,0,1,4.053-4.053h24.376a4.058,4.058,0,0,1,4.053,4.053v7.309A4.058,4.058,0,0,1-211.118-145Z" transform="translate(239.547 160.412)" fill="#1e535a"/>
          </g>
          <g id="g3250" transform="translate(44.159 10.115)">
            <path id="path3252" d="M-1.512,8.018H-7.32A1.183,1.183,0,0,1-8.5,6.835,1.183,1.183,0,0,1-7.32,5.652h5.808A2.224,2.224,0,0,0,.709,3.431V-8.746a2.224,2.224,0,0,0-2.222-2.222H-12.15a1.183,1.183,0,0,1-1.183-1.183,1.183,1.183,0,0,1,1.183-1.183H-1.512A4.593,4.593,0,0,1,3.075-8.746V3.431A4.593,4.593,0,0,1-1.512,8.018Z" transform="translate(13.333 13.333)" fill="#1e535a"/>
          </g>
          <g id="g3254" transform="translate(48.85 25.762)">
            <path id="path3256" d="M-46.441-79.545a1.179,1.179,0,0,1-.836-.346l-3.339-3.338a1.183,1.183,0,0,1-.346-.837,1.183,1.183,0,0,1,.347-.836l3.339-3.338a1.183,1.183,0,0,1,1.673,0,1.183,1.183,0,0,1,0,1.673l-2.5,2.5,2.5,2.5a1.183,1.183,0,0,1,0,1.673A1.179,1.179,0,0,1-46.441-79.545Z" transform="translate(50.963 88.588)" fill="#1e535a"/>
          </g>
          <g id="g3258" transform="translate(0 29.204)">
            <path id="path3260" d="M-161.215,8.018h-5.808a4.593,4.593,0,0,1-4.588-4.588V-8.746a4.593,4.593,0,0,1,4.588-4.588h10.638A1.183,1.183,0,0,1-155.2-12.15a1.183,1.183,0,0,1-1.183,1.183h-10.638a2.224,2.224,0,0,0-2.222,2.222V3.431a2.224,2.224,0,0,0,2.222,2.222h5.808a1.183,1.183,0,0,1,1.183,1.183A1.183,1.183,0,0,1-161.215,8.018Z" transform="translate(171.61 13.333)" fill="#1e535a"/>
          </g>
          <g id="g3262" transform="translate(6.013 44.852)">
            <path id="path3264" d="M-12.15-79.546a1.179,1.179,0,0,1-.836-.346,1.183,1.183,0,0,1,0-1.673l2.5-2.5-2.5-2.5a1.183,1.183,0,0,1,0-1.673,1.183,1.183,0,0,1,1.673,0L-7.975-84.9a1.183,1.183,0,0,1,.347.836,1.183,1.183,0,0,1-.346.836l-3.339,3.339A1.179,1.179,0,0,1-12.15-79.546Z" transform="translate(13.333 88.589)" fill="#1e535a"/>
          </g>
          <g id="g3266" transform="translate(30.165 55.925)">
            <path id="path3268" fill="#1e535a"/>
          </g>
          <g id="g3270" transform="translate(20.53 9.984)">
            <path id="path3272" d="M5.248-10.967h-17.4a1.183,1.183,0,0,1-1.183-1.183,1.183,1.183,0,0,1,1.183-1.183h17.4A1.183,1.183,0,0,1,6.431-12.15,1.183,1.183,0,0,1,5.248-10.967Z" transform="translate(13.333 13.333)" fill="#1e535a"/>
          </g>
          <g id="g3274" transform="translate(20.53 29.204)">
            <path id="path3276" d="M5.248-10.967h-17.4a1.183,1.183,0,0,1-1.183-1.183,1.183,1.183,0,0,1,1.183-1.183h17.4A1.183,1.183,0,0,1,6.431-12.15,1.183,1.183,0,0,1,5.248-10.967Z" transform="translate(13.333 13.333)" fill="#1e535a"/>
          </g>
          <g id="g3278" transform="translate(20.53 48.425)">
            <path id="path3280" d="M5.248-10.967h-17.4a1.183,1.183,0,0,1-1.183-1.183,1.183,1.183,0,0,1,1.183-1.183h17.4A1.183,1.183,0,0,1,6.431-12.15,1.183,1.183,0,0,1,5.248-10.967Z" transform="translate(13.333 13.333)" fill="#1e535a"/>
          </g>
          <g id="g3282" transform="translate(0 3.459)">
            <path id="path3284" d="M-148.653-79.33h-10.273a4.2,4.2,0,0,1-4.2-4.2v-3.639a1.183,1.183,0,0,1,1.183-1.183,1.183,1.183,0,0,1,1.183,1.183v3.639a1.836,1.836,0,0,0,1.834,1.833h10.273a1.183,1.183,0,0,1,1.183,1.183A1.183,1.183,0,0,1-148.653-79.33Z" transform="translate(163.126 88.352)" fill="#1e535a"/>
          </g>
        </g>
      </g>
    </g>
  </g>
</svg>
