<svg xmlns="http://www.w3.org/2000/svg" xmlns:xlink="http://www.w3.org/1999/xlink" width="500" height="263.5" viewBox="0 0 500 263.5">
  <defs>
    <clipPath id="clip-path">
      <rect id="Rectangle_458517" data-name="Rectangle 458517" width="500" height="263.5" fill="none"/>
    </clipPath>
    <clipPath id="clip-path-2">
      <rect id="Rectangle_458491" data-name="Rectangle 458491" width="446.562" height="263.499" fill="none"/>
    </clipPath>
    <clipPath id="clip-path-3">
      <path id="Path_1030583" data-name="Path 1030583" d="M294.943,11.015c-29.28,17.356-48.963,48.126-58.263,80.764q-1.537,5.385-2.645,10.849a144.131,144.131,0,0,0-2.407,41.613c3.687,41.546,25.854,80.054,66.418,99.557l180.012,1.947c41.648-11.261,53.622-40.425,63.648-69.957s10.747-62.88-1.281-91.631a102.36,102.36,0,0,0-11.748-20.788c-13.66-18.738-33.563-32.753-56.016-37.046a107,107,0,0,0-15.846-1.7c-5.869-.235-11.769-.137-17.674-.04-9.051.149-18.111.3-27.077-.748-18.6-2.177-36.2-9.406-54.212-14.566C347.3,6.245,335.6,3.792,324.13,3.792c-10.248,0-20.309,1.96-29.187,7.223" transform="translate(-231.075 -3.792)" fill="none"/>
    </clipPath>
    <clipPath id="clip-path-4">
      <rect id="Rectangle_458516" data-name="Rectangle 458516" width="500" height="263.499" fill="none"/>
    </clipPath>
    <clipPath id="clip-path-5">
      <rect id="Rectangle_458492" data-name="Rectangle 458492" width="5.246" height="56.639" fill="none"/>
    </clipPath>
    <clipPath id="clip-path-6">
      <rect id="Rectangle_458494" data-name="Rectangle 458494" width="85.264" height="60.372" fill="none"/>
    </clipPath>
    <clipPath id="clip-path-7">
      <rect id="Rectangle_458495" data-name="Rectangle 458495" width="36.958" height="37.186" fill="none"/>
    </clipPath>
    <clipPath id="clip-path-8">
      <rect id="Rectangle_458496" data-name="Rectangle 458496" width="12.698" height="12.926" fill="none"/>
    </clipPath>
    <clipPath id="clip-path-9">
      <rect id="Rectangle_458497" data-name="Rectangle 458497" width="6.99" height="12.741" fill="none"/>
    </clipPath>
    <clipPath id="clip-path-10">
      <rect id="Rectangle_458498" data-name="Rectangle 458498" width="6.172" height="12.631" fill="none"/>
    </clipPath>
    <clipPath id="clip-path-11">
      <rect id="Rectangle_458500" data-name="Rectangle 458500" width="16.261" height="24.284" fill="none"/>
    </clipPath>
    <clipPath id="clip-path-12">
      <rect id="Rectangle_458501" data-name="Rectangle 458501" width="12.915" height="4.37" fill="none"/>
    </clipPath>
    <clipPath id="clip-path-13">
      <rect id="Rectangle_458508" data-name="Rectangle 458508" width="50.124" height="4.25" fill="none"/>
    </clipPath>
    <clipPath id="clip-path-15">
      <rect id="Rectangle_458515" data-name="Rectangle 458515" width="38.716" height="22.7" fill="none"/>
    </clipPath>
  </defs>
  <g id="Group_1184809" data-name="Group 1184809" transform="translate(20.711)">
    <g id="Mask_Group_1184808" data-name="Mask Group 1184808" transform="translate(-20.711)" clip-path="url(#clip-path)">
      <g id="Group_1184770" data-name="Group 1184770" transform="translate(20.711 0.001)">
        <g id="Group_1184769" data-name="Group 1184769" clip-path="url(#clip-path-2)">
          <path id="Path_1030576" data-name="Path 1030576" d="M1648.2,836.684c-.039,0-.077,0-.116.005l.336-5.927H1618.8l1.427,25.143a8.82,8.82,0,0,0,8.737,8.395h9.289a8.82,8.82,0,0,0,8.737-8.395l.329-5.8c.288.028.58.045.877.045,4.324,0,7.842-3.02,7.842-6.732s-3.518-6.732-7.842-6.732m0,10.675a6.522,6.522,0,0,1-.719-.044l.444-7.832c.092,0,.182-.011.274-.011,2.813,0,5.1,1.769,5.1,3.943s-2.289,3.943-5.1,3.943" transform="translate(-1233.056 -629.244)" fill="#69d7e5"/>
          <path id="Path_1030577" data-name="Path 1030577" d="M1661.354,733.38a11.6,11.6,0,0,1-7.512-4.544,12.207,12.207,0,0,1-2.088-4.179c-.118-.38-.187-.77-.271-1.158-.052-.391-.127-.783-.147-1.177a12.984,12.984,0,0,1,.012-2.365,13.294,13.294,0,0,1,1.262-4.522,12.082,12.082,0,0,1,1.219-2.012,12.468,12.468,0,0,1,1.539-1.712c.522-.495,1.024-.921,1.454-1.349a7.466,7.466,0,0,0,.6-.636,4.269,4.269,0,0,0,.443-.64,3.115,3.115,0,0,0,.414-1.449,1.887,1.887,0,0,0-.413-1.329l.746-1.107a2.866,2.866,0,0,1,1.019.914,3.842,3.842,0,0,1,.539,1.252,5.055,5.055,0,0,1-.118,2.62,11.826,11.826,0,0,1-2.55,3.832,11.687,11.687,0,0,0-1.083,1.462c-.165.244-.3.512-.448.767-.125.271-.268.529-.376.808a11.927,11.927,0,0,0-.9,3.444,11.08,11.08,0,0,0,1.5,6.856,12.766,12.766,0,0,0,5.5,4.929Z" transform="translate(-1257.799 -534.141)" fill="#e5ecff"/>
          <path id="Path_1030578" data-name="Path 1030578" d="M1697.257,739.186a14.463,14.463,0,0,0,2.891-3.506,11.831,11.831,0,0,0,1.474-4,12.548,12.548,0,0,0-.065-4.261,16.077,16.077,0,0,0-1.489-4.317l.961-.92a9,9,0,0,1,3.376,4.374,10.734,10.734,0,0,1,.531,5.724,10.883,10.883,0,0,1-2.468,5.163,9.16,9.16,0,0,1-4.621,2.943Z" transform="translate(-1292.814 -547.003)" fill="#e5ecff"/>
          <path id="Path_1030579" data-name="Path 1030579" d="M447.118,269.42c-37.822-7.455-64.536-29.888-76.937-64.639-19.725-55.277,1.41-136.763,57.955-154.666,22.394-7.09,49.894,5.607,72.9,5.434,32.314-.243,61.372-20.429,93.472-17.855C636.3,41.044,666.848,80.236,674.684,120a119.554,119.554,0,0,1,.849,41.514,128.109,128.109,0,0,1-14.339,42.495c-6.232,11.146-20.642,25.9-32.9,28.874Z" transform="translate(-276.47 -28.379)" fill="none" stroke="#fbc343" stroke-miterlimit="10" stroke-width="3.82"/>
          <path id="Path_1030580" data-name="Path 1030580" d="M384,316.363c37.379-9.395,65.94-37.769,75.788-70.235,15.665-51.643-11.607-124.3-69.654-136.679-11.791-2.514-24.218-1.878-36.18-.471-19.541,2.3-39.586,5.188-59.278,4.548-19.151-.622-37.723-6.353-57.023-5.91-63.788,1.462-101.989,63.471-87.349,120.255a111.156,111.156,0,0,0,17.548,37.662c7.082,9.708,22.633,22.135,35.148,23.99Z" transform="translate(-112.11 -81.495)" fill="none" stroke="#fbc343" stroke-miterlimit="10" stroke-width="3.75"/>
        </g>
      </g>
      <g id="Group_1184772" data-name="Group 1184772" transform="translate(75.774 0.92)">
        <g id="Group_1184771" data-name="Group 1184771" clip-path="url(#clip-path-3)">
          <path id="Path_1030581" data-name="Path 1030581" d="M541.706,175.788c-10.026,29.533-22,58.7-63.648,69.957L298.046,243.8c-40.563-19.5-62.73-58.011-66.418-99.557a144.131,144.131,0,0,1,2.407-41.613q1.108-5.458,2.645-10.849c9.3-32.638,28.982-63.408,58.262-80.764,18.813-11.152,42.928-7.471,62.909-1.747,18.015,5.161,35.613,12.389,54.211,14.566,14.816,1.728,29.888.194,44.751.788a107.031,107.031,0,0,1,15.846,1.7c22.453,4.294,42.356,18.308,56.016,37.047a102.339,102.339,0,0,1,11.748,20.788c12.028,28.751,11.307,62.1,1.281,91.631" transform="translate(-231.075 -3.793)" fill="#ffeec7"/>
          <path id="Path_1030582" data-name="Path 1030582" d="M23.268,217.637c-.82-10.146,4.76-21.085,14.563-28.55,8.929-6.8,19.945-10.264,30.52-13,58.758-15.182,120.822-13.371,180.842-11.619,53.638,1.566,109.1,3.184,162.2-7.285,7.559-1.49,15.5-3.3,22.267-7.573,7.264-4.587,11.863-11.773,12-18.754.261-13.089-13.669-22.059-21.995-26.242-31.62-15.883-70.525-21.857-122.435-18.807a577.02,577.02,0,0,0-116.469,19.033c-8.589,2.322-17.313,4.889-25.75,7.372-30.206,8.889-61.438,18.08-93.293,18.08h-.479c-8.647-.025-19.749-1.807-23.533-10.158-2.67-5.894-.424-12.609,1.93-17.2C51.51,87.576,66.4,78.626,77.5,73.821c12.472-5.4,26.024-8.33,39.13-11.167q2.334-.505,4.664-1.014a871.029,871.029,0,0,0,86.981-23.87C221.767,33.3,228.693,27.489,229.445,20c.667-6.64-4.121-12.455-9.161-15.272C214.245,1.355,207.109.917,201.567.913h-.078a101.554,101.554,0,0,0-48,12.085c-5.454,2.937-10.717,6.431-15.807,9.811-6.738,4.473-13.706,9.1-21.216,12.5-14.523,6.579-31.717,9-51.1,7.2C50.389,41.123,38.98,37.381,30.477,31.074c-5.13-3.8-9.413-8.714-13.554-13.461C11.891,11.845,6.686,5.88,0,2l.442-.791c6.815,3.949,12.068,9.971,17.149,15.8,4.11,4.711,8.36,9.582,13.412,13.33,8.369,6.207,19.633,9.893,34.435,11.267,19.231,1.785,36.277-.613,50.66-7.128,7.445-3.372,14.382-7.978,21.091-12.432,5.107-3.39,10.387-6.9,15.877-9.853A102.449,102.449,0,0,1,201.489,0h.079c5.648,0,12.929.455,19.147,3.931,5.3,2.962,10.329,9.108,9.62,16.162-.792,7.882-7.918,13.947-21.786,18.541A872.014,872.014,0,0,1,121.479,62.53q-2.33.511-4.666,1.014C103.749,66.372,90.239,69.3,77.847,74.659,66.879,79.4,52.18,88.236,44.434,103.355c-2.262,4.414-4.429,10.843-1.911,16.4,3.586,7.916,14.337,9.606,22.724,9.63h.476c31.731,0,62.9-9.172,93.045-18.044,8.441-2.484,17.171-5.053,25.769-7.377A577.855,577.855,0,0,1,301.183,84.9c52.072-3.063,91.118,2.943,122.882,18.9,8.517,4.278,22.763,13.484,22.493,27.076-.145,7.285-4.906,14.76-12.424,19.508-6.891,4.351-14.927,6.186-22.568,7.693-53.2,10.488-108.712,8.869-162.4,7.3-59.958-1.749-121.959-3.559-180.6,11.591-10.485,2.709-21.4,6.14-30.2,12.843-9.559,7.279-15,17.911-14.208,27.747Z" transform="translate(-55.063 -0.922)" fill="#fff"/>
        </g>
      </g>
      <g id="Group_1184807" data-name="Group 1184807" transform="translate(0 0.001)">
        <g id="Group_1184806" data-name="Group 1184806" clip-path="url(#clip-path-4)">
          <path id="Path_1030584" data-name="Path 1030584" d="M1166.118,898.663c12.153,3.172,28.852,6.017,23.529,16.594l-30.278-.03Z" transform="translate(-862.391 -680.674)" fill="#e28b6d"/>
          <path id="Path_1030585" data-name="Path 1030585" d="M508.639,696H479.351a18.273,18.273,0,0,1-18.108-18.433V616.677a18.273,18.273,0,0,1,18.108-18.433h29.288a18.273,18.273,0,0,1,18.108,18.433v60.891A18.273,18.273,0,0,1,508.639,696" transform="translate(-330.622 -453.128)" fill="#102048"/>
          <g id="Group_1184775" data-name="Group 1184775" transform="translate(139.961 153.782)" opacity="0.8">
            <g id="Group_1184774" data-name="Group 1184774">
              <g id="Group_1184773" data-name="Group 1184773" clip-path="url(#clip-path-5)">
                <path id="Path_1030586" data-name="Path 1030586" d="M505.683,634.32a4.019,4.019,0,0,0-2.339,2.359,15.488,15.488,0,0,0-1.077,3.393,46.5,46.5,0,0,0-.862,7.158,132.3,132.3,0,0,0,.147,14.492c.27,4.831.705,9.654,1.278,14.46q.415,3.607.959,7.2c.349,2.395.741,4.784,1.22,7.155l-.341.079c-.57-2.36-1.058-4.74-1.495-7.129q-.626-3.589-1.118-7.2-.958-7.224-1.388-14.51a120.468,120.468,0,0,1-.016-14.593,45.7,45.7,0,0,1,1.027-7.249,15.979,15.979,0,0,1,1.24-3.472,6.5,6.5,0,0,1,1.068-1.531,3.3,3.3,0,0,1,1.617-.955Z" transform="translate(-500.437 -633.973)" fill="#fff"/>
              </g>
            </g>
          </g>
          <path id="Path_1030587" data-name="Path 1030587" d="M569.476,661.961A412.382,412.382,0,0,0,583,742.312h31.88Z" transform="translate(-413.064 -501.389)" fill="#1f3c88"/>
          <path id="Path_1030588" data-name="Path 1030588" d="M606.352,265.793a15.116,15.116,0,0,1-4.358-22.566q.845-1.031,1.881-2.084c8.938-9.063,3.369-18.131,2.12-38.983-1.248-20.832,21.549-26.521,21.594-26.531,1.075-.268,3.156-3.391,4.035-4.167,10.29-9.085,25.05-8.414,36.33-1.5,5.366,3.29,10.767,8.356,13.671,14.167,4.606,9.217,5.44,21.361,13.2,28.538,11.058,10.231,23.325,18.917,22.829,35.42-.176,5.862-1.617,12.056-5.127,16.755-3.059,4.1-7.718,6.842-11.923,9.491A101.7,101.7,0,0,1,678.92,285c-7.388,2.476-14.859,4.7-22.35,6.824q-1.062.3-2.125.6Z" transform="translate(-435.315 -124.755)" fill="#6f3428"/>
          <path id="Path_1030589" data-name="Path 1030589" d="M849.627,539.09c26.776-9.358,41.319,21.149,61.316,80.676l19.241,5.285-2.236,21.2-7.02,1.49-57.323.245Z" transform="translate(-626.457 -407.062)" fill="#708cd5"/>
          <rect id="Rectangle_458493" data-name="Rectangle 458493" width="500" height="14.285" transform="translate(0 233.898)" fill="#6cb9ff"/>
          <path id="Path_1030590" data-name="Path 1030590" d="M676.734,526.008l59.879,15.256L761.77,618l-84.043,2.607-5.559-56.738Z" transform="translate(-491.285 -398.415)" fill="#708cd5"/>
          <g id="Group_1184778" data-name="Group 1184778" transform="translate(177.275 160.572)" opacity="0.3">
            <g id="Group_1184777" data-name="Group 1184777">
              <g id="Group_1184776" data-name="Group 1184776" clip-path="url(#clip-path-6)">
                <path id="Path_1030591" data-name="Path 1030591" d="M667.311,661.961c14.712,15.076,11.458,37.169,24.026,39.361,8.32,1.451,31.965,4.891,43.246,9.675,2.281.968,8.579,5.736,7.6,9.966-.629,2.726-9.022.542-9.022.542l-62.833-6.42-13.306-31.34Z" transform="translate(-657.026 -661.961)" fill="#1f3c88"/>
              </g>
            </g>
          </g>
          <path id="Path_1030592" data-name="Path 1030592" d="M917.085,882.383c.428-.686,9.436-2.5,10.455-2.362a7.8,7.8,0,0,1,5.988,5.182l-13.33,7.157Z" transform="translate(-677.84 -666.548)" fill="#102048"/>
          <path id="Path_1030593" data-name="Path 1030593" d="M957.958,661.682l1.547,3.587c.508,1.2.984,2.412,1.478,3.618.949,2.427,1.866,4.868,2.725,7.33,1.741,4.916,3.283,9.9,4.729,14.915q2.131,7.531,3.828,15.181c.544,2.553,1.071,5.11,1.539,7.68s.85,5.155,1.184,7.746l-.331.048q-.629-3.855-1.44-7.676c-.515-2.552-1.089-5.091-1.68-7.626q-1.779-7.6-3.914-15.113c-1.4-5.012-2.954-9.977-4.6-14.912-.811-2.471-1.692-4.917-2.582-7.36-.455-1.217-.892-2.443-1.361-3.655l-1.431-3.628Z" transform="translate(-708.74 -501.178)" fill="#102048"/>
          <path id="Path_1030594" data-name="Path 1030594" d="M959.678,900.582s-2.52,3.032-10.473.079c-3.747.443-10.717.1-23.972-2.1,0,0,4.814,3.426,15.7,4.014,0,0-.465,3.263-6.2,3.117-6.9-.176-7.7-.6-13.994-.333-1.287.055-4.087-.006-7.119-.1-5.29-.176-11.3-.461-11.3-.461l-5.242-9.539,10.461-5.1a26.927,26.927,0,0,1,6.374-1.947c6.756-.976,11.021-1.753,15.864-.9,5.379.94,21.816,6.489,29.906,13.275" transform="translate(-662.597 -671.798)" fill="#f9b384"/>
          <path id="Path_1030595" data-name="Path 1030595" d="M913.908,909.051l-.292.164c-5.29-.176-11.3-.461-11.3-.461l-5.242-9.539,10.461-5.1a26.931,26.931,0,0,1,6.374-1.947c-3.845,1.595-6.994,5.78,0,16.883" transform="translate(-662.597 -675.755)" fill="#e28b6d"/>
          <path id="Path_1030596" data-name="Path 1030596" d="M610.119,537.689c-13.61-2.839-46.778-5.2-56.046,12.279-7.63,14.391,11.5,62.582,19.781,79.531,3.41,6.976,13.312,10.427,17.162,10.454l54.685-.32c-3.679-.869-8.394-20.964,3.988-20.4L604.4,612.815a6.193,6.193,0,0,1-4.324-2.767,13.323,13.323,0,0,1-1.8-3.729l-12.854-47.933Z" transform="translate(-399.989 -405.765)" fill="#708cd5"/>
          <path id="Path_1030597" data-name="Path 1030597" d="M1132.137,949.341l-53.354-.034v-5.124h53.663Z" transform="translate(-801.007 -715.153)" fill="#fff"/>
          <path id="Path_1030598" data-name="Path 1030598" d="M1286.125,747.186l-64.36-.02,23.476-69.879,64.36.02Z" transform="translate(-909.917 -512.998)" fill="#102048"/>
          <path id="Path_1030599" data-name="Path 1030599" d="M1390.753,804.658c-1.972,3.208-5.659,4.524-8.471,3.117a4.351,4.351,0,0,1-.489-.273c-2.865-1.819-3.491-6.052-1.406-9.442s6.094-4.669,8.96-2.844a5.5,5.5,0,0,1,1.966,2.214,7.6,7.6,0,0,1-.56,7.229" transform="translate(-1029.804 -601.69)" fill="#fff"/>
          <path id="Path_1030600" data-name="Path 1030600" d="M1395.162,809.518c-1.972,3.208-6.819,5.539-10.217,1.725,7.37.681,9.852-4.234,9.712-10.444a7.169,7.169,0,0,1,.505,8.719" transform="translate(-1034.213 -606.549)" fill="#708cd5"/>
          <path id="Path_1030601" data-name="Path 1030601" d="M1034.228,887.719a52.65,52.65,0,0,1,8.008,2.017c2.623.837,5.2,1.815,7.737,2.9a70.921,70.921,0,0,1,7.443,3.629,38.541,38.541,0,0,1,6.8,4.769l-.222.274a40.658,40.658,0,0,0-3.389-2.313c-1.158-.727-2.351-1.4-3.56-2.031-2.415-1.28-4.886-2.456-7.414-3.5-2.5-1.119-5.062-2.071-7.633-3q-1.93-.692-3.888-1.3c-1.3-.415-2.615-.794-3.941-1.094Z" transform="translate(-767.024 -672.385)" fill="#6f3428"/>
          <path id="Path_1030602" data-name="Path 1030602" d="M1029.574,941.026l2.879.838c.959.262,1.924.487,2.893.688s1.945.359,2.925.5,1.967.231,2.957.331l.328.033.027.289a2.792,2.792,0,0,1-.107,1.083,2.006,2.006,0,0,1-.577.924,2.172,2.172,0,0,1-.937.463,4.366,4.366,0,0,1-.491.071l-.483-.013v-.356l.432-.066c.136-.042.278-.064.405-.117a1.626,1.626,0,0,0,.65-.43,1.419,1.419,0,0,0,.339-.666,2.1,2.1,0,0,0,.02-.766l.355.323a28.658,28.658,0,0,1-6.024-.75,25.7,25.7,0,0,1-2.916-.874,29.4,29.4,0,0,1-2.8-1.173Z" transform="translate(-763.432 -712.761)" fill="#6f3428"/>
          <path id="Path_1030603" data-name="Path 1030603" d="M1019.555,911.915c2.315.3,4.642.532,6.97.774,2.326.261,4.657.491,6.984.866s4.619.805,6.922,1.231,4.6.859,6.9,1.332l.543.112-.232.513a6.867,6.867,0,0,1-.593,1.259,3.532,3.532,0,0,1-.494.586,6.173,6.173,0,0,1-.6.434,7.947,7.947,0,0,1-2.63.848,26.675,26.675,0,0,1-5.3.224c-.879-.033-1.757-.071-2.63-.151-.875-.065-1.749-.13-2.618-.243-1.742-.185-3.475-.436-5.205-.692l.044-.353c1.74.146,3.474.343,5.214.448q1.3.1,2.606.162c.869.057,1.737.072,2.6.082a30.167,30.167,0,0,0,5.149-.307,7.206,7.206,0,0,0,2.336-.763c.169-.1.308-.226.463-.336a2.709,2.709,0,0,0,.351-.427,6.458,6.458,0,0,0,.518-1.149l.311.625c-4.595-.881-9.184-1.823-13.785-2.635-2.287-.425-4.61-.71-6.929-1.026s-4.641-.629-6.951-1.062Z" transform="translate(-755.851 -690.712)" fill="#6f3428"/>
          <path id="Path_1030651" data-name="Path 1030651" d="M0,0H418.551" transform="translate(44.15 233.898)" fill="none" stroke="#344866" stroke-width="5"/>
          <path id="Path_1030604" data-name="Path 1030604" d="M766.133,602.994a19.308,19.308,0,0,0,6.481,2.921,17.475,17.475,0,0,0,7.014.274,14.442,14.442,0,0,0,6.434-2.716,15.008,15.008,0,0,0,4.459-5.519l.321.141q-.372.849-.765,1.7c-.3.544-.65,1.06-.977,1.593-.363.506-.8.959-1.192,1.443-.427.454-.915.848-1.372,1.275a14.617,14.617,0,0,1-6.764,2.973,17.518,17.518,0,0,1-13.849-3.8Z" transform="translate(-562.699 -452.909)" fill="#102048"/>
          <path id="Path_1030605" data-name="Path 1030605" d="M699.836,661.771l2.987,10.331,2.939,10.344,2.908,10.354,1.445,5.179.723,2.589a19.725,19.725,0,0,0,.787,2.5,7.381,7.381,0,0,0,3.48,3.519,20.1,20.1,0,0,0,4.9,1.663c1.708.373,3.436.627,5.189.856l5.241.722,10.478,1.476,10.471,1.534-.044.338-10.506-1.268-10.5-1.326-5.247-.679c-1.745-.22-3.511-.47-5.254-.842a20.879,20.879,0,0,1-5.114-1.714,8.108,8.108,0,0,1-3.867-3.923,4.34,4.34,0,0,1-.255-.662c-.073-.223-.156-.453-.209-.665l-.356-1.3-.712-2.593-1.424-5.185-2.831-10.375-2.8-10.385-2.752-10.4Z" transform="translate(-512.115 -501.246)" fill="#102048"/>
          <path id="Path_1030606" data-name="Path 1030606" d="M751.913,436.5l2.681,23.5c.8,6.995-6.444,12.857-13.784,10.917-4.2-1.109-8.57-4.066-13.1-8.51a5.453,5.453,0,0,1-1.623-3.355l-2.858-28.322Z" transform="translate(-530.181 -326.245)" fill="#f9b384"/>
          <path id="Path_1030607" data-name="Path 1030607" d="M776.979,464.211l1.46,12.8c-5.932.947-14.293-2.448-22.778-13.91Z" transform="translate(-554.882 -350.763)" fill="#3c1c16"/>
          <path id="Path_1030608" data-name="Path 1030608" d="M760.428,284.365a64.288,64.288,0,0,1-2.178,12.713c-1.984,6.722-5.446,12.144-11.377,13.149-17.462,2.955-30.116-14.716-30.116-14.716l-2.03-24.045,10.539-18.559,23.6-.7,11.508,13.857a117.047,117.047,0,0,1,.057,18.3" transform="translate(-523.702 -191.032)" fill="#f9b384"/>
          <path id="Path_1030609" data-name="Path 1030609" d="M693.964,261.605c9.373-.712,11.532-8.776,12.172-19.228,0,0,25.389-6.4,34.4,11.971l6.835.754-20.7-27.972-32.17,3.907-6.294,21.258Z" transform="translate(-503.505 -172.036)" fill="#6f3428"/>
          <path id="Path_1030610" data-name="Path 1030610" d="M698.571,351.021a5.065,5.065,0,0,0-4.38-1.666c-6.227.767-7.309,9.162-5.885,12.733,2.131,5.346,7.9,6.974,7.9,6.974l4.957-5.337c.4-5.558-.224-10.048-2.592-12.7" transform="translate(-503.154 -264.585)" fill="#f9b384"/>
          <g id="Group_1184781" data-name="Group 1184781" transform="translate(164.892 110.925)" opacity="0.15">
            <g id="Group_1184780" data-name="Group 1184780">
              <g id="Group_1184779" data-name="Group 1184779" clip-path="url(#clip-path-7)">
                <path id="Path_1030611" data-name="Path 1030611" d="M635.691,457.293c3.422,9.906,13.949,37.876-3.245,37.174-8.287-.339-15.569-16.7-27.383-13.613a30.753,30.753,0,0,1,4.417-1.738Z" transform="translate(-605.063 -457.293)" fill="#3c1c16"/>
              </g>
            </g>
          </g>
          <path id="Path_1030612" data-name="Path 1030612" d="M647.344,430.713c3.317,6.413,12.6,38.141-3.21,36.308-7.618-.883-9.488-10.224-20.533-8.037Z" transform="translate(-454.291 -326.236)" fill="#6f3428"/>
          <path id="Path_1030613" data-name="Path 1030613" d="M706.709,365.68a3.635,3.635,0,0,0-2.032-3.316,2.33,2.33,0,0,0-1.8-.1,4.625,4.625,0,0,0-1.665,1.257l-.383-.232a3.668,3.668,0,0,1,1.64-1.957,2.144,2.144,0,0,1,.648-.246,2.2,2.2,0,0,1,.695-.086l.352.012.34.073a2.389,2.389,0,0,1,.65.227A3.9,3.9,0,0,1,707,363.2a3.343,3.343,0,0,1,.148,2.572Z" transform="translate(-513.113 -273.432)" fill="#3c1c16"/>
          <path id="Path_1030614" data-name="Path 1030614" d="M865.708,356.068c.056,1.634.992,2.927,2.089,2.888s1.942-1.4,1.885-3.03-.992-2.927-2.089-2.888-1.942,1.4-1.885,3.03" transform="translate(-638.704 -267.402)" fill="#3c1c16"/>
          <path id="Path_1030615" data-name="Path 1030615" d="M793.055,358.613c.056,1.634.992,2.927,2.089,2.888s1.942-1.4,1.885-3.03-.992-2.927-2.089-2.888-1.942,1.4-1.885,3.03" transform="translate(-583.364 -269.329)" fill="#3c1c16"/>
          <path id="Path_1030616" data-name="Path 1030616" d="M824.272,427.5a8.561,8.561,0,0,1-2.854,2.474,5.5,5.5,0,0,1-3.919.284,9.666,9.666,0,0,1-3.323-1.847,15.624,15.624,0,0,1-2.581-2.651l.36-.379c.988.7,1.916,1.44,2.9,2.065a11.824,11.824,0,0,0,3.012,1.521,4.965,4.965,0,0,0,3.114-.055,12.524,12.524,0,0,0,2.931-1.79Z" transform="translate(-597.488 -322.197)" fill="#3c1c16"/>
          <path id="Path_1030617" data-name="Path 1030617" d="M860.572,333.565a14.508,14.508,0,0,0-2.227-1.391,4.164,4.164,0,0,0-2.173-.4,7.444,7.444,0,0,0-2.252.675c-.778.344-1.54.808-2.415,1.2l-.238-.255a7.144,7.144,0,0,1,1.9-2.227,5.478,5.478,0,0,1,2.873-1.155,4.325,4.325,0,0,1,3.043.946,5.565,5.565,0,0,1,1.763,2.392Z" transform="translate(-627.706 -249.947)" fill="#3c1c16"/>
          <path id="Path_1030618" data-name="Path 1030618" d="M783.829,336.617a9.078,9.078,0,0,0-2.5-1.338,6.171,6.171,0,0,0-2.568-.265,9.381,9.381,0,0,0-2.581.705c-.863.364-1.71.835-2.652,1.293l-.239-.255a7.485,7.485,0,0,1,2.178-2.367,6.523,6.523,0,0,1,3.129-1.16,5.488,5.488,0,0,1,3.318.728,5.174,5.174,0,0,1,2.186,2.44Z" transform="translate(-568.309 -252.38)" fill="#3c1c16"/>
          <g id="Group_1184784" data-name="Group 1184784" transform="translate(198.749 93.897)" opacity="0.5">
            <g id="Group_1184783" data-name="Group 1184783">
              <g id="Group_1184782" data-name="Group 1184782" clip-path="url(#clip-path-8)">
                <path id="Path_1030619" data-name="Path 1030619" d="M747.147,393.782a6.35,6.35,0,1,0,6.123-6.685,6.4,6.4,0,0,0-6.123,6.685" transform="translate(-747.144 -387.093)" fill="#fc8879"/>
              </g>
            </g>
          </g>
          <g id="Group_1184787" data-name="Group 1184787" transform="translate(229.736 93.305)" opacity="0.5">
            <g id="Group_1184786" data-name="Group 1184786">
              <g id="Group_1184785" data-name="Group 1184785" clip-path="url(#clip-path-9)">
                <path id="Path_1030620" data-name="Path 1030620" d="M884.172,384.681a64.287,64.287,0,0,1-2.178,12.713,6.483,6.483,0,0,1,1.312-12.737,7.158,7.158,0,0,1,.867.023" transform="translate(-877.182 -384.653)" fill="#fc8879"/>
              </g>
            </g>
          </g>
          <g id="Group_1184790" data-name="Group 1184790" transform="translate(219.57 87.139)" opacity="0.5">
            <g id="Group_1184789" data-name="Group 1184789">
              <g id="Group_1184788" data-name="Group 1184788" clip-path="url(#clip-path-10)">
                <path id="Path_1030621" data-name="Path 1030621" d="M834.787,359.483a.27.27,0,0,1,.531-.05c1.42,4.714,6.031,8.161,5.293,9.544-.519.974-2.47,2.078-3.838,2.759a1.22,1.22,0,0,1-1.739-.883,41.366,41.366,0,0,1-.247-11.37" transform="translate(-834.519 -359.233)" fill="#fc8879"/>
              </g>
            </g>
          </g>
          <path id="Path_1030622" data-name="Path 1030622" d="M838.144,358.3a12.193,12.193,0,0,0,1.688,3.813c.755,1.18,1.639,2.276,2.534,3.429.226.289.443.589.657.908a5.11,5.11,0,0,1,.591,1.108,1.634,1.634,0,0,1,.083.876,1.769,1.769,0,0,1-.4.752,4.868,4.868,0,0,1-.925.8,14.955,14.955,0,0,1-4.018,1.836l-.2-.488c.609-.368,1.234-.716,1.823-1.109a16.653,16.653,0,0,0,1.7-1.192,4.824,4.824,0,0,0,.664-.655.98.98,0,0,0,.114-.189A.825.825,0,0,0,842.4,368a8.732,8.732,0,0,0-1.075-1.638,26.288,26.288,0,0,1-2.465-3.666,9.658,9.658,0,0,1-1.228-4.337Z" transform="translate(-617.318 -271.384)" fill="#3c1c16"/>
          <path id="Path_1030623" data-name="Path 1030623" d="M642.189,437.334a6.169,6.169,0,0,0-.474,2.885,9.853,9.853,0,0,0,.681,2.888c.768,1.842,1.791,3.644,2.689,5.5a21.908,21.908,0,0,1,2.088,5.939,13.529,13.529,0,0,1,.151,3.222,13.73,13.73,0,0,1-.261,1.617,7.782,7.782,0,0,1-.587,1.558,6.215,6.215,0,0,1-2.2,2.491,5.057,5.057,0,0,1-3.251.776,11.867,11.867,0,0,1-3.041-.952c-.945-.4-1.87-.821-2.789-1.241a25.708,25.708,0,0,0-5.625-1.991,6.471,6.471,0,0,0-2.855,0,3.858,3.858,0,0,0-1.253.623,4.361,4.361,0,0,0-.958,1.069l-.385-.229a4.868,4.868,0,0,1,.993-1.279,4.458,4.458,0,0,1,1.419-.8,7.093,7.093,0,0,1,3.165-.183,26.449,26.449,0,0,1,5.888,1.859l2.8,1.182a11.049,11.049,0,0,0,2.751.845,3.963,3.963,0,0,0,2.545-.639,5.387,5.387,0,0,0,1.8-2.06,6.626,6.626,0,0,0,.512-1.317,12.861,12.861,0,0,0,.244-1.429,12.43,12.43,0,0,0-.111-2.938,23.237,23.237,0,0,0-1.9-5.7c-.83-1.868-1.8-3.666-2.544-5.652a10.58,10.58,0,0,1-.58-3.135,6.39,6.39,0,0,1,.7-3.115Z" transform="translate(-454.683 -331.096)" fill="#3c1c16"/>
          <path id="Path_1030624" data-name="Path 1030624" d="M701.3,204.246a33.13,33.13,0,0,1,5.306-1.83,52.154,52.154,0,0,1,5.482-1.149,46.156,46.156,0,0,1,5.579-.537c.936-.024,1.873-.021,2.811.026a19.649,19.649,0,0,1,2.8.367l-.062.449c-.918-.029-1.828-.061-2.744,0-.914.021-1.83.084-2.742.175q-2.74.254-5.469.667c-1.819.271-3.628.607-5.435.961-.9.177-1.8.382-2.695.6-.9.2-1.782.456-2.672.7Z" transform="translate(-513.477 -152.029)" fill="#3c1c16"/>
          <path id="Path_1030625" data-name="Path 1030625" d="M763.01,284.009a10.033,10.033,0,0,1,2.374-.859c.81-.192,1.626-.359,2.448-.469a35.961,35.961,0,0,1,4.959-.319,37.115,37.115,0,0,1,9.848,1.356,26.218,26.218,0,0,1,8.967,4.426,19.562,19.562,0,0,1,6.108,7.94l-.4.195a21.218,21.218,0,0,0-6.3-7.322,25.622,25.622,0,0,0-4.147-2.462,31.34,31.34,0,0,0-4.531-1.67,39.375,39.375,0,0,0-9.56-1.483,37.219,37.219,0,0,0-4.854.12,16.473,16.473,0,0,0-4.707.951Z" transform="translate(-560.48 -213.87)" fill="#3c1c16"/>
          <path id="Path_1030626" data-name="Path 1030626" d="M286.626,662.106l6.125,2.021a1.38,1.38,0,0,1,.162,2.542l-6.689,3.229.011.093,9.357,1.9a.661.661,0,0,1,.51.777.649.649,0,0,1-.763.519l-9.357-1.9a1.378,1.378,0,0,1-.314-2.582l6.689-3.229-.006-.091-6.125-2.021a.663.663,0,0,1-.417-.832.646.646,0,0,1,.817-.425" transform="translate(-196.298 -501.475)" fill="#3c1c16"/>
          <path id="Path_1030627" data-name="Path 1030627" d="M220.875,626.706l5.439,1.795a1.225,1.225,0,0,1,.144,2.258l-5.941,2.867.01.082,8.31,1.685a.587.587,0,0,1,.453.69.577.577,0,0,1-.678.461l-8.31-1.685a1.223,1.223,0,0,1-.279-2.293l5.94-2.867-.005-.081-5.439-1.795a.589.589,0,0,1-.371-.739.574.574,0,0,1,.726-.377" transform="translate(-146.363 -474.665)" fill="#3c1c16"/>
          <path id="Path_1030628" data-name="Path 1030628" d="M359.668,716.388l4.313,1.423a.971.971,0,0,1,.114,1.79l-4.71,2.274.008.065,6.589,1.336a.466.466,0,0,1,.359.547.457.457,0,0,1-.537.365l-6.589-1.336a.97.97,0,0,1-.221-1.818l4.71-2.273,0-.065-4.313-1.423a.467.467,0,0,1-.294-.586.455.455,0,0,1,.576-.3" transform="translate(-252.324 -542.596)" fill="#3c1c16"/>
          <path id="Path_1030629" data-name="Path 1030629" d="M1415.514,483.475h-19.142a5.762,5.762,0,0,1-5.693-5.8V460.134a5.762,5.762,0,0,1,5.693-5.8h19.142a5.762,5.762,0,0,1,5.693,5.8V477.68a5.762,5.762,0,0,1-5.693,5.8" transform="translate(-1038.581 -344.131)" fill="#fff"/>
          <path id="Rectangle_458499" data-name="Rectangle 458499" d="M14.568,0H15.96A14.568,14.568,0,0,1,30.528,14.568v0A14.568,14.568,0,0,1,15.959,29.136H14.568A14.568,14.568,0,0,1,0,14.568v0A14.568,14.568,0,0,1,14.568,0Z" transform="translate(352.098 110.209)" fill="none" stroke="#1f3c88" stroke-miterlimit="10" stroke-width="3.75"/>
          <path id="Path_1030630" data-name="Path 1030630" d="M1437,580.211l-5.549-5.758h11.1Z" transform="translate(-1069.635 -435.108)" fill="#1f3c88"/>
          <path id="Path_1030631" data-name="Path 1030631" d="M1431.714,496.874a1.006,1.006,0,0,1-.772-.364l-5.549-6.642a1.044,1.044,0,0,1,.115-1.454,1,1,0,0,1,1.429.117l4.6,5.506,7.165-13.143a1.006,1.006,0,0,1,1.378-.4,1.042,1.042,0,0,1,.4,1.4l-7.875,14.447a1.016,1.016,0,0,1-.786.526.936.936,0,0,1-.1.005" transform="translate(-1064.839 -363.842)" fill="#1f3c88"/>
          <path id="Path_1030632" data-name="Path 1030632" d="M191.7,836.846c-8.5,2.05-17.929,4.89-21.961,13.614-3.809,8.241.156,16.244,7.807,20.141,5.177,2.637,24.907,7.08,16.715,16.827-5.294,6.3-14.485,4.35-20.53.631-3.149-1.937-6.019,3.081-2.878,5.012,6.873,4.228,14.785,5.778,22.261,2.283,8.114-3.793,11.307-13.518,5.117-20.632-3.175-3.648-7.658-5.362-12.065-6.906-4.167-1.46-9.624-3.091-11.648-7.564-1.9-4.209.595-9.021,3.767-11.791,4.1-3.585,9.814-4.784,14.93-6.018,3.57-.861,2.058-6.46-1.516-5.6" transform="translate(-107.464 -633.785)" fill="#ee6f57"/>
          <path id="Path_1030633" data-name="Path 1030633" d="M586.64,838.613C596.3,839.186,597,826.374,597,826.374s-6.611-3.415-12.806.82Z" transform="translate(-424.272 -624.935)" fill="#ee6f57"/>
          <path id="Path_1030634" data-name="Path 1030634" d="M594.624,846.908c3.849-.062,5.742-4.987,5.742-4.987a6.793,6.793,0,0,0-6.41.042Z" transform="translate(-431.71 -637.112)" fill="#3c1c16"/>
          <path id="Path_1030635" data-name="Path 1030635" d="M472.075,782.158c-6.7-7.111,2.424-15.964,2.424-15.964s6.843,2.9,7.7,10.449Z" transform="translate(-337 -580.339)" fill="#ee6f57"/>
          <path id="Path_1030636" data-name="Path 1030636" d="M486.609,796.856c-2.338-2.882,0-7.329,0-7.329a6.648,6.648,0,0,1,3.938,4.761Z" transform="translate(-349.151 -598.012)" fill="#3c1c16"/>
          <path id="Path_1030637" data-name="Path 1030637" d="M296.81,824.747a2.411,2.411,0,0,1-1.865,1.431c-6.535,1.025-8.132-.813-8.132-.813s-5.2,2.947-17.425-.558a2.825,2.825,0,0,1-1.62,1.274c-1.871.625-9.133-.018-13.863-.521-2.859-.309-11.235.376-11.235.376-7.631,0-16.3-2.074-19.653-9.867-4.248-9.861.22-21.68,7.423-28.739,7.685-7.544,17.937-8.223,27.261-3.281,22.614,12,24.324,8.084,30.126,3.111l3.914,30.23a8,8,0,0,1,3.217,1.947A10.134,10.134,0,0,1,296.244,821a4,4,0,0,1,.566,3.748" transform="translate(-147.904 -591.469)" fill="#ee6f57"/>
          <g id="Group_1184793" data-name="Group 1184793" transform="translate(127.23 201.819)" opacity="0.3">
            <g id="Group_1184792" data-name="Group 1184792">
              <g id="Group_1184791" data-name="Group 1184791" clip-path="url(#clip-path-11)">
                <path id="Path_1030638" data-name="Path 1030638" d="M453.125,832.006c-9.067,5.424-9.365,22.607,8.14,24.284l2.005-7.792Z" transform="translate(-447.01 -832.006)" fill="#3c1c16"/>
              </g>
            </g>
          </g>
          <path id="Path_1030639" data-name="Path 1030639" d="M495.029,820.305c-1.841,6.586-4.879,10.358-7.995,12.456a14.234,14.234,0,0,1-7.989,2.486,18.4,18.4,0,0,1-5.648-.9c-6.934-2.22-12.6-8.405-12.6-16.531,0-10.261,7.322-18.126,16.537-18.126,10.55,0,20.97,8.866,17.693,20.612" transform="translate(-330.283 -605.712)" fill="#ee6f57"/>
          <g id="Group_1184796" data-name="Group 1184796" transform="translate(143.836 225.166)" opacity="0.3">
            <g id="Group_1184795" data-name="Group 1184795">
              <g id="Group_1184794" data-name="Group 1184794" clip-path="url(#clip-path-12)">
                <path id="Path_1030640" data-name="Path 1030640" d="M529.613,930.135a14.233,14.233,0,0,1-7.989,2.486c-.143,0-.28,0-.423-.006a10.133,10.133,0,0,0-1.287-1.662,8,8,0,0,0-3.217-1.947,7.591,7.591,0,0,1,4.468.182s5.213-2.638,8.435.934l.012.012" transform="translate(-516.698 -928.251)" fill="#3c1c16"/>
              </g>
            </g>
          </g>
          <path id="Path_1030641" data-name="Path 1030641" d="M527.747,938.291a3.117,3.117,0,0,0,.524,4.21,1.555,1.555,0,0,0,.921.385h9.089c.435,0,.666-.473.784-1.089a5.272,5.272,0,0,0-1.828-4.944c-2.932-2.509-6.839-2.448-9.489,1.438" transform="translate(-380.835 -708.303)" fill="#ee6f57"/>
          <path id="Path_1030642" data-name="Path 1030642" d="M460.786,927.526a40.436,40.436,0,0,1,5.512.163,35.68,35.68,0,0,1,5.46.925,19.547,19.547,0,0,1,2.654.878,12.564,12.564,0,0,1,2.5,1.331,6.58,6.58,0,0,1,1.968,2.124,4.5,4.5,0,0,1,.464,2.858l-.333-.036a4.245,4.245,0,0,0-.646-2.513,5.9,5.9,0,0,0-1.87-1.8,17.132,17.132,0,0,0-4.949-2.005,43.321,43.321,0,0,0-5.331-1.03c-1.8-.247-3.615-.427-5.43-.553Z" transform="translate(-330.274 -702.511)" fill="#3c1c16"/>
          <path id="Path_1030643" data-name="Path 1030643" d="M333.279,852.332a11.378,11.378,0,0,1,5.142,2.12,7.572,7.572,0,0,1,1.88,2.165,9.043,9.043,0,0,1,1.013,2.705,12.99,12.99,0,0,1,.216,2.868,19.992,19.992,0,0,1-.349,2.832,28.972,28.972,0,0,1-1.685,5.395c-.358.87-.763,1.718-1.2,2.55l-.169.312-.089.158-.006.01c.04.137-.381-1.148-.2-.6l.02.008.039.016.078.032.63.251c.421.165.848.314,1.275.461a32.8,32.8,0,0,0,5.268,1.271,51.632,51.632,0,0,1,5.436.92,14.107,14.107,0,0,1,2.643.915,4.418,4.418,0,0,1,1.2.8,1.477,1.477,0,0,1,.412.671,1.091,1.091,0,0,1-.1.809l-.295-.161a.835.835,0,0,0-.3-1.012,4,4,0,0,0-1.113-.665,13.829,13.829,0,0,0-2.58-.765,51.117,51.117,0,0,0-5.407-.759,30.754,30.754,0,0,1-5.413-1.235c-.441-.146-.88-.3-1.314-.461l-.65-.252-.081-.032-.041-.016-.02-.008c.179.542-.256-.742-.209-.614l.005-.009.08-.146.16-.3c.421-.809.8-1.645,1.165-2.486a28.12,28.12,0,0,0,1.678-5.219,19.176,19.176,0,0,0,.356-2.7,13.4,13.4,0,0,0-.146-2.693,7.542,7.542,0,0,0-2.548-4.551,11.34,11.34,0,0,0-4.842-2.245Z" transform="translate(-233.102 -645.582)" fill="#3c1c16"/>
          <path id="Path_1030644" data-name="Path 1030644" d="M549.54,862.617a5.056,5.056,0,0,0,2.651,2.626,4.356,4.356,0,0,0,1.833.158c.32-.03.64-.119.97-.168.321-.1.646-.193.986-.27l.164.338c-.3.2-.612.381-.931.561a7.87,7.87,0,0,1-1.043.369,4.191,4.191,0,0,1-2.283-.055,3.742,3.742,0,0,1-1.863-1.38,4.532,4.532,0,0,1-.841-2.083Z" transform="translate(-397.606 -653.372)" fill="#3c1c16"/>
          <path id="Path_1030645" data-name="Path 1030645" d="M506.005,843.829a5.076,5.076,0,0,0,2.443,2.828,4.359,4.359,0,0,0,1.815.3c.321,0,.647-.069.98-.091.327-.07.658-.141,1-.191l.138.35c-.312.176-.64.332-.971.486a7.878,7.878,0,0,1-1.068.285,4.193,4.193,0,0,1-2.272-.235,3.756,3.756,0,0,1-1.752-1.523,4.546,4.546,0,0,1-.68-2.143Z" transform="translate(-364.44 -639.141)" fill="#3c1c16"/>
          <path id="Path_1030646" data-name="Path 1030646" d="M1280.53,169.876H1290.6l-8.04-52.978h-10.067Z" transform="translate(-948.556 -88.543)" fill="#8cbfbe"/>
          <path id="Path_1030647" data-name="Path 1030647" d="M1322.812,169.876h10.067l-8.04-52.978h-10.067Z" transform="translate(-980.763 -88.543)" fill="#c6eae9"/>
          <rect id="Rectangle_458502" data-name="Rectangle 458502" width="37.153" height="24.329" transform="translate(355.901 56.996)" fill="#8cbfbe"/>
          <rect id="Rectangle_458503" data-name="Rectangle 458503" width="15.711" height="4.26" transform="translate(366.622 64.9)" fill="#fff"/>
          <rect id="Rectangle_458504" data-name="Rectangle 458504" width="17.482" height="68.982" transform="translate(306.453 12.343)" fill="#c6eae9"/>
          <rect id="Rectangle_458505" data-name="Rectangle 458505" width="104.628" height="7.66" transform="translate(297.038 81.325)" fill="#8cbfbe"/>
          <path id="Path_1030648" data-name="Path 1030648" d="M444.139,140.868h-52.4a7.421,7.421,0,0,1-7.354-7.486V103.4a7.421,7.421,0,0,1,7.354-7.486h52.4a7.421,7.421,0,0,1,7.354,7.486v29.987a7.421,7.421,0,0,1-7.354,7.486" transform="translate(-272.081 -72.645)" fill="#c6eae9"/>
          <rect id="Rectangle_458506" data-name="Rectangle 458506" width="50.124" height="4.25" transform="translate(120.798 34.547)" fill="#8cbfbe"/>
          <g id="Group_1184799" data-name="Group 1184799" transform="translate(120.798 43.619)" opacity="0.8">
            <g id="Group_1184798" data-name="Group 1184798">
              <g id="Group_1184797" data-name="Group 1184797" clip-path="url(#clip-path-13)">
                <rect id="Rectangle_458507" data-name="Rectangle 458507" width="50.124" height="4.25" fill="#fff"/>
              </g>
            </g>
          </g>
          <g id="Group_1184802" data-name="Group 1184802" transform="translate(120.798 52.69)" opacity="0.8">
            <g id="Group_1184801" data-name="Group 1184801">
              <g id="Group_1184800" data-name="Group 1184800" clip-path="url(#clip-path-13)">
                <rect id="Rectangle_458509" data-name="Rectangle 458509" width="50.124" height="4.25" fill="#fff"/>
              </g>
            </g>
          </g>
          <path id="Path_1030649" data-name="Path 1030649" d="M425.108,445.132l-9.527-7.585h19.054Z" transform="translate(-295.841 -331.412)" fill="#fbc343"/>
          <path id="Path_1030650" data-name="Path 1030650" d="M315.327,297.187h-52.4a7.421,7.421,0,0,1-7.354-7.486V259.713a7.421,7.421,0,0,1,7.354-7.486h52.4a7.421,7.421,0,0,1,7.354,7.486V289.7a7.421,7.421,0,0,1-7.354,7.486" transform="translate(-173.963 -191.045)" fill="#fbc343"/>
          <g id="Group_1184805" data-name="Group 1184805" transform="translate(95.807 72.312)" opacity="0.8">
            <g id="Group_1184804" data-name="Group 1184804">
              <g id="Group_1184803" data-name="Group 1184803" clip-path="url(#clip-path-15)">
                <rect id="Rectangle_458511" data-name="Rectangle 458511" width="6.496" height="8.173" transform="translate(0 14.526)" fill="#fff"/>
                <rect id="Rectangle_458512" data-name="Rectangle 458512" width="6.496" height="17.273" transform="translate(10.43 5.427)" fill="#fff"/>
                <rect id="Rectangle_458513" data-name="Rectangle 458513" width="6.496" height="13.35" transform="translate(21.325 9.35)" fill="#fff"/>
                <rect id="Rectangle_458514" data-name="Rectangle 458514" width="6.496" height="22.7" transform="translate(32.219 0)" fill="#fff"/>
              </g>
            </g>
          </g>
        </g>
      </g>
    </g>
  </g>
</svg>
