<svg xmlns="http://www.w3.org/2000/svg" xmlns:xlink="http://www.w3.org/1999/xlink" width="458" height="181" viewBox="0 0 458 181">
  <defs>
    <clipPath id="clip-path">
      <rect id="Rectangle_458656" data-name="Rectangle 458656" width="310.241" height="180.195" fill="none"/>
    </clipPath>
    <clipPath id="clip-path-3">
      <rect id="Rectangle_458654" data-name="Rectangle 458654" width="43.838" height="39.965" fill="none"/>
    </clipPath>
    <clipPath id="clip-path-4">
      <rect id="Rectangle_458657" data-name="Rectangle 458657" width="86.289" height="54.142" fill="none"/>
    </clipPath>
  </defs>
  <g id="img20" transform="translate(-331.711 -9303)">
    <path id="Rectangle_458653" data-name="Rectangle 458653" d="M181,0h96A181,181,0,0,1,458,181v0a0,0,0,0,1,0,0H0a0,0,0,0,1,0,0v0A181,181,0,0,1,181,0Z" transform="translate(331.711 9303)" fill="#a4e7f0"/>
    <g id="Group_1185021" data-name="Group 1185021" transform="translate(408.33 9303.805)">
      <g id="Group_1185020" data-name="Group 1185020" clip-path="url(#clip-path)">
        <g id="Group_1185019" data-name="Group 1185019">
          <g id="Group_1185018" data-name="Group 1185018" clip-path="url(#clip-path)">
            <path id="Path_1030839" data-name="Path 1030839" d="M179.941,82.122c12.335-10.986,21.394-4.433,28.139,2.891,5.377,5.838,6.127,7.132,10.569,13.181a5.307,5.307,0,0,1,1.187,3.009c.125,6.686,3.546,34.959-.257,44.714-4.433,11.371-59.106,16.575-59.106,16.575Z" transform="translate(-114.091 -54.229)" fill="#303c60"/>
            <path id="Path_1030840" data-name="Path 1030840" d="M347.572,209.473a.563.563,0,0,1-.028-1.126,5.241,5.241,0,0,0,4.037-2.23c6.13-7.942,2.683-34.458-.32-48.874a.563.563,0,0,1,1.1-.23,193.278,193.278,0,0,1,3.534,25.964c.7,11.956-.449,19.973-3.425,23.828a6.388,6.388,0,0,1-4.872,2.667h-.029" transform="translate(-246.709 -111.311)" fill="#303c60"/>
            <path id="Path_1030841" data-name="Path 1030841" d="M91.2,85.167C67.5,98.273,81.953,142.6,51.886,158.406c-8.33,4.378-33.921,26.6-17.153,55.893,10.968,19.163,43.751,15.033,54.544-1.927S91.2,85.167,91.2,85.167" transform="translate(-20.728 -60.55)" fill="#303c60"/>
            <path id="Path_1030842" data-name="Path 1030842" d="M24.174,226.759a.553.553,0,0,1-.075-.005.563.563,0,0,1-.484-.632,32.436,32.436,0,0,1,2.9-8.834A38.75,38.75,0,0,1,40.7,201.307c13.912-8.853,23.147-17.2,34.065-58.325a.563.563,0,1,1,1.089.289c-5.276,19.874-10.507,33.309-16.463,42.282-5.53,8.332-11.221,12.336-18.086,16.7a37.043,37.043,0,0,0-16.576,24.012.564.564,0,0,1-.558.489" transform="translate(-16.786 -101.356)" fill="#303c60"/>
            <path id="Path_1030843" data-name="Path 1030843" d="M25.97,207.219a.563.563,0,0,1-.476-.864,42.941,42.941,0,0,1,13.014-13.267c19.537-12.634,22.77-19.9,38.906-61.5a.563.563,0,1,1,1.05.408C70.4,152.8,65.575,164.984,60.3,173.624c-5.664,9.277-12.056,14.51-21.182,20.411a41.815,41.815,0,0,0-12.673,12.922.563.563,0,0,1-.477.262" transform="translate(-18.063 -93.297)" fill="#303c60"/>
            <path id="Path_1030844" data-name="Path 1030844" d="M223.834,180.873a69.116,69.116,0,0,0-6.907,32.334s.942,5.965,4.709,7.221,9.1-2.512,8.79-7.534,1.256-17.266,3.139-21.661-9.732-10.36-9.732-10.36" transform="translate(-154.176 -128.593)" fill="#f09959"/>
            <path id="Path_1030845" data-name="Path 1030845" d="M91.795,558.039c.514,4.626-.643,4.24,3.469,5.011s11.435-2.056,11.435-2.056L98.477,545.7Z" transform="translate(-65.262 -387.972)" fill="#6791c9"/>
            <path id="Path_1030846" data-name="Path 1030846" d="M126.647,261.243c-2.312,7.516-19.658,1.735-25.729,3.469s-11.275,27.174-12.142,50.012.289,41.05,2.6,43.941,40.473,4.047,43.941,2.891-28.909-15.611-28.909-15.611-2.024-26.6.578-40.183,26.018-31.51,26.018-31.51Z" transform="translate(-62.912 -185.733)" fill="#f09959"/>
            <path id="Path_1030847" data-name="Path 1030847" d="M244.244,269.245c6.071,9.251,21.97,8.094,27.463,15.611s17.056,48.855,17.056,48.855L300.9,291.794s9.847-1.654,6.649,5.2c-5.687,12.2-7.807,51.546-13.975,57.135-6.859,6.215-13.684,1.156-17.536-9.725-3.726-10.526-13.009-33.245-19.658-41.918s-13.876-22.549-13.876-22.549Z" transform="translate(-172.413 -191.422)" fill="#f09959"/>
            <path id="Path_1030848" data-name="Path 1030848" d="M104.672,270.307c12.142,14.165,35.847,13.587,41.05,11.853l5.2-1.735s4.047-1.445,7.516,2.6,11.852,29.487,13.3,35.268,3.758,15.322,3.758,15.322-6.2,7.444-6.2,14.961,2.634,7.581,2.634,7.581-7.706-1.727-9.441-6.353-17.345-46.543-17.345-46.543l-43.074.867.578,47.41s-3.758-3.469-8.962,0-6.938,11.563-6.071,12.72-1.735,1.156-1.735.289-4.914-21.971-1.445-56.661,10.118-38.448,13.876-38.738a12.209,12.209,0,0,1,6.36,1.156" transform="translate(-59.149 -191.327)" fill="#75a1de"/>
            <path id="Path_1030849" data-name="Path 1030849" d="M384.084,568.2a.457.457,0,0,0,.129.028l-.129-.028" transform="translate(-273.067 -403.962)" fill="#6791c9"/>
            <path id="Path_1030850" data-name="Path 1030850" d="M333.987,396.363c-2.506.771-6.746,9.637-6.746,9.637a173.308,173.308,0,0,1-12.528-50.111l-3.44,19.743c4.749,12.75,12.2,32.755,13.369,35.868,1.587,4.231,7.985,6,8.863,6.192-.24-.081-.77-.4-1.209-1.672-.253-.231-1.7-.907-1.971-1.156-2.313-2.12-1.349-7.131.193-12.72s5.975-6.553,3.469-5.782" transform="translate(-221.302 -253.022)" fill="#6791c9"/>
            <path id="Path_1030851" data-name="Path 1030851" d="M132.075,336.39,127.3,314.546c-5.2,7.324-5.782,32.379-3.662,49.533,1.739,14.068,4.339,17.718,6.127,19.185a5.233,5.233,0,0,1,.818.578L130,336.431Z" transform="translate(-87.081 -223.629)" fill="#6791c9"/>
            <path id="Path_1030852" data-name="Path 1030852" d="M107.8,313.88c8.866,23.9,4.433,28.717,16.1,56.768,6.516,15.667,19.08,27.464,19.08,27.464a79.818,79.818,0,0,0,22.838,1.734c12.72-.867,22.032-1.741,22.032-1.741s-13.359-8.088-13.937-13.581-3.088-27.279.189-42.7c2.558-12.04-7.995-24.081-7.995-24.081l-17.634-.867Z" transform="translate(-76.64 -223.155)" fill="#75a1de"/>
            <g id="Group_1185017" data-name="Group 1185017" transform="translate(46.582 125.269)" opacity="0.5">
              <g id="Group_1185016" data-name="Group 1185016">
                <g id="Group_1185015" data-name="Group 1185015" clip-path="url(#clip-path-3)">
                  <path id="Path_1030853" data-name="Path 1030853" d="M161.349,435.468c-1.542-5.59,6.553,1.735,19.851,3.084s28.139-.771,20.815,1.542-27.368-1.156-23.706,6.168c4.309,8.619,9.4,16.96,16.767,21.972,4.818,3.277,16.382,6.36,5.2,4.626s-23.128-14.84-28.332-23.321-10.257-12.823-10.6-14.07" transform="translate(-161.161 -433.393)" fill="#6791c9"/>
                </g>
              </g>
            </g>
            <path id="Path_1030854" data-name="Path 1030854" d="M241.869,213.518c.117-5.77,1.524-15.616,3.171-19.46,1.35-3.149-4.229-7.1-7.5-9.092l-2.768-.118q-.633,1.378-1.187,2.739c-2.922,19.187,5.823,27.115,10,28.711a12.621,12.621,0,0,0,5.544.609,33.61,33.61,0,0,1-7.255-3.388" transform="translate(-165.652 -131.418)" fill="#e38540"/>
            <path id="Path_1030855" data-name="Path 1030855" d="M214.41,285.031a13.032,13.032,0,0,1-3.077-.373c-2.412-.588-8.167-2.823-9.5-10.852a.319.319,0,1,1,.63-.105c1.276,7.654,6.737,9.778,9.026,10.336,3.556.867,7.329.064,8.777-1.867,1.162-1.548.465-4.847.458-4.88a.319.319,0,1,1,.624-.136c.032.147.766,3.617-.57,5.4-1.185,1.579-3.628,2.477-6.362,2.477" transform="translate(-143.488 -194.4)" fill="#f5ce5c"/>
            <path id="Path_1030856" data-name="Path 1030856" d="M270.37,153.438c-1.961,10.355-6.49,18.709-14.154,17.134s-15.721-12.512-13.6-22.836,10.053-17.416,17.717-15.841,12.65,7.745,10.038,21.543" transform="translate(-172.244 -93.616)" fill="#f09959"/>
            <path id="Path_1030857" data-name="Path 1030857" d="M396.9,383.894s-14.166,38.065-14.841,42.016.674,6.457,1.06,6.457,12.431-20.622,12.431-20.622Z" transform="translate(-271.498 -272.932)" fill="#f09959"/>
            <path id="Path_1030858" data-name="Path 1030858" d="M434.284,356.623c1.156-3.855-.643-8.737-.643-8.737l5.14.643Z" transform="translate(-308.3 -247.332)" fill="#f09959"/>
            <path id="Path_1030859" data-name="Path 1030859" d="M416.925,274.306H402.585a1.3,1.3,0,0,1-1.247-1.673l9.053-30.354a1.3,1.3,0,0,1,1.247-.929h14.341a1.3,1.3,0,0,1,1.247,1.673l-9.053,30.354a1.3,1.3,0,0,1-1.247.929" transform="translate(-285.295 -171.59)" fill="#4381db"/>
            <path id="Path_1030860" data-name="Path 1030860" d="M423.149,274.306H408.809a1.3,1.3,0,0,1-1.247-1.673l9.053-30.354a1.3,1.3,0,0,1,1.247-.929H432.2a1.3,1.3,0,0,1,1.247,1.673L424.4,273.377a1.3,1.3,0,0,1-1.247.929" transform="translate(-289.72 -171.59)" fill="#2e5b9a"/>
            <path id="Path_1030861" data-name="Path 1030861" d="M419.952,255.034c-1.529,5.509-2.558,10.033-2.3,10.1s1.709-4.335,3.238-9.844,2.558-10.033,2.3-10.1-1.709,4.335-3.238,9.844" transform="translate(-296.905 -174.319)" fill="#9cbeed"/>
            <path id="Path_1030862" data-name="Path 1030862" d="M446.836,303.488c.424-5.005,4.76-9.7,6.41-11.195a2.368,2.368,0,0,0,.778-1.778c-.024-2.5-.135-8.385-.651-9.074-.657-.876-2.3-12.153-3.066-11.715s.219,10.292.219,10.292-1.861-.876-2.847-1.314-5.037,4.051-5.037,4.051-1.9,4.8,3.294,2.744c6.167-2.442,1.542,4.368-2.57,8.737-3.388,3.6-.5,4.4-.5,4.4l2.737-.109Z" transform="translate(-314.043 -191.755)" fill="#f09959"/>
            <path id="Path_1030863" data-name="Path 1030863" d="M439.862,383.788a5.052,5.052,0,0,1-1.487-.232c-1.334-.415-3.663-1.757-4.279-6.071a.319.319,0,1,1,.632-.09c.527,3.688,2.316,5.034,3.723,5.514a3.48,3.48,0,0,0,2.343.077.32.32,0,0,1,.613-.075.45.45,0,0,1-.1.479,2.109,2.109,0,0,1-1.443.4" transform="translate(-308.621 -268.117)" fill="#f5ce5c"/>
            <path id="Path_1030864" data-name="Path 1030864" d="M437.782,386.223a9.1,9.1,0,0,1-1.293-.093c-2.478-.36-4.139-1.617-4.556-3.45a.319.319,0,1,1,.623-.142,4.03,4.03,0,0,0,3.251,2.808,5.813,5.813,0,0,0,3.633-.06.314.314,0,0,1,.432-.117.324.324,0,0,1,.119.44c-.238.423-1.168.615-2.209.615" transform="translate(-307.08 -271.792)" fill="#f5ce5c"/>
            <path id="Path_1030865" data-name="Path 1030865" d="M299.375,193.559a3.137,3.137,0,0,1-.472-.036c-2.432-.373-3.9-3.51-3.345-7.143a8.531,8.531,0,0,1,1.882-4.3,3.842,3.842,0,0,1,3.448-1.51c2.432.372,3.9,3.51,3.345,7.143-.521,3.4-2.6,5.851-4.857,5.851m1.051-11.9a2.949,2.949,0,0,0-2.139,1.162,7.4,7.4,0,0,0-1.615,3.732c-.445,2.908.654,5.591,2.4,5.859s3.6-1.963,4.045-4.872-.654-5.591-2.4-5.859a1.928,1.928,0,0,0-.291-.022" transform="translate(-210.046 -128.349)" fill="#fff"/>
            <path id="Path_1030866" data-name="Path 1030866" d="M331.047,197.5a1.511,1.511,0,0,1-.231-.017c-1.593-.244-2.456-2.941-1.966-6.141s2.125-5.52,3.714-5.272c.821.126,1.467.877,1.819,2.115a9.769,9.769,0,0,1,.147,4.027c-.466,3.045-1.966,5.289-3.482,5.289m1.282-10.6c-.938,0-2.214,1.805-2.637,4.566-.439,2.867.308,5.026,1.253,5.17s2.3-1.692,2.743-4.558a8.919,8.919,0,0,0-.124-3.665c-.252-.885-.663-1.434-1.128-1.505a.722.722,0,0,0-.106-.008" transform="translate(-233.701 -132.276)" fill="#fff"/>
            <path id="Path_1030867" data-name="Path 1030867" d="M251.993,176.426a.566.566,0,0,1-.155-.022l-18.888-5.4a.563.563,0,1,1,.31-1.084l18.888,5.4a.563.563,0,0,1-.154,1.105" transform="translate(-165.327 -120.793)" fill="#fff"/>
            <path id="Path_1030868" data-name="Path 1030868" d="M270.662,125.3c-29.231,17.218-30.837,5.654-30.837,5.654l1.735-16.447,17.346.963Z" transform="translate(-170.505 -81.41)" fill="#303c60"/>
            <path id="Path_1030869" data-name="Path 1030869" d="M230.839,173.424c.68,2.91-.248,5.616-2.074,6.042s-3.857-1.587-4.537-4.5.249-5.616,2.074-6.043,3.857,1.587,4.537,4.5" transform="translate(-159.258 -120.058)" fill="#f09959"/>
            <path id="Path_1030870" data-name="Path 1030870" d="M235.058,195.022a1.151,1.151,0,1,1-1.151-1.151,1.151,1.151,0,0,1,1.151,1.151" transform="translate(-165.48 -137.834)" fill="#f5ce5c"/>
            <path id="Path_1030871" data-name="Path 1030871" d="M295.084,610.239H2.679a2.68,2.68,0,0,1,0-5.359h292.4a2.68,2.68,0,1,1,0,5.359" transform="translate(0 -430.044)" fill="#2e5b9a"/>
            <path id="Path_1030872" data-name="Path 1030872" d="M221.562,603.1s-11.023.139-11.162,1.116.419,1.4,4.326,2.093,47.859.976,48.277.7,13.255-3.349,13.255-3.349l-30.836-.558Z" transform="translate(-149.572 -428.775)" fill="#dbe5eb"/>
            <path id="Path_1030873" data-name="Path 1030873" d="M269.831,572s7.9-3.469,10.215-1.928,8.994,8.609,8.994,8.609Z" transform="translate(-191.838 -405.015)" fill="#f09959"/>
            <path id="Path_1030874" data-name="Path 1030874" d="M291.007,567.562c-.151.188-.374.267-.5.173l-16.26-12.105c-.876-.652-1.293-1.649-.871-2.176s1.486-.339,2.314.373l15.376,13.209c.119.1.091.338-.059.526" transform="translate(-194.24 -393.268)" fill="#2e5b9a"/>
            <path id="Path_1030875" data-name="Path 1030875" d="M178.614,572.6s13.106,5.2,14.648,5.2,10.15-5.782,13.041-5.011,17.025,7.9,16.64,8.48-4.433,1.927-16.383,1.542-31.415-2.12-31.415-2.12Z" transform="translate(-124.521 -407.093)" fill="#f09959"/>
            <path id="Path_1030876" data-name="Path 1030876" d="M619.628,577.852H566.21a1.441,1.441,0,0,1-1.437-1.437v-8.427a1.441,1.441,0,0,1,1.437-1.437h53.418a3.617,3.617,0,0,1,3.606,3.606v4.089a3.617,3.617,0,0,1-3.606,3.606" transform="translate(-401.529 -402.793)" fill="#f37168"/>
            <path id="Path_1030877" data-name="Path 1030877" d="M614.126,573.166H563.409a3.89,3.89,0,0,0-.564,2.012v3.453a3.89,3.89,0,0,0,.564,2.012h50.717a3.283,3.283,0,0,0,3.274-3.274v-.929a3.283,3.283,0,0,0-3.274-3.274" transform="translate(-400.159 -407.496)" fill="#f2e5de"/>
            <path id="Path_1030878" data-name="Path 1030878" d="M646.063,549.733H605.441a.973.973,0,0,1-.97-.97v-4.9a.972.972,0,0,1,.97-.97h40.622a2.441,2.441,0,0,1,2.434,2.434V547.3a2.441,2.441,0,0,1-2.434,2.434" transform="translate(-429.753 -385.977)" fill="#7bcee8"/>
            <path id="Path_1030879" data-name="Path 1030879" d="M641.638,546.9H603.445a2.021,2.021,0,0,0-.425,1.217V550.2a2.02,2.02,0,0,0,.425,1.217h38.194a2.27,2.27,0,0,0,2.465-1.98v-.562a2.27,2.27,0,0,0-2.465-1.981" transform="translate(-428.721 -388.822)" fill="#f2e5de"/>
            <path id="Path_1030880" data-name="Path 1030880" d="M680.512,218.174h-2.147a.555.555,0,0,1-.522-.821l.643-1.768a1.3,1.3,0,0,1,1.12-.821h2.147a.556.556,0,0,1,.522.821l-.644,1.768a1.3,1.3,0,0,1-1.12.821" transform="translate(-481.88 -152.688)" fill="#9ec8ff"/>
            <path id="Path_1030881" data-name="Path 1030881" d="M704.347,218.174H702.2a.555.555,0,0,1-.522-.821l.643-1.768a1.3,1.3,0,0,1,1.12-.821h2.147a.556.556,0,0,1,.522.821l-.643,1.768a1.3,1.3,0,0,1-1.12.821" transform="translate(-498.825 -152.688)" fill="#9ec8ff"/>
            <path id="Path_1030882" data-name="Path 1030882" d="M728.182,218.174h-2.147a.555.555,0,0,1-.522-.821l.643-1.768a1.3,1.3,0,0,1,1.12-.821h2.147a.556.556,0,0,1,.522.821l-.644,1.768a1.3,1.3,0,0,1-1.12.821" transform="translate(-515.771 -152.688)" fill="#9ec8ff"/>
            <path id="Path_1030883" data-name="Path 1030883" d="M481.879,122.87H438.555a1.7,1.7,0,0,1-1.6-2.512l6.551-18a3.987,3.987,0,0,1,3.426-2.511h43.324a1.7,1.7,0,0,1,1.6,2.511l-6.551,18a3.987,3.987,0,0,1-3.426,2.512" transform="translate(-310.544 -70.987)" fill="#9ec8ff"/>
            <path id="Path_1030884" data-name="Path 1030884" d="M487.974,125.619H448.959a1.475,1.475,0,0,1-1.384-2.175l5.425-14.9a3.454,3.454,0,0,1,2.967-2.175h39.015a1.475,1.475,0,0,1,1.384,2.175l-5.425,14.9a3.454,3.454,0,0,1-2.967,2.175" transform="translate(-318.108 -75.62)" fill="#fff"/>
            <path id="Path_1030885" data-name="Path 1030885" d="M446.9,175.877c-3.314,9.488.085,12.418.085,12.418s.027-5.442,2.527-8.093a16.384,16.384,0,0,1,5.418-3.767Z" transform="translate(-316.697 -125.041)" fill="#9ec8ff"/>
            <path id="Path_1030886" data-name="Path 1030886" d="M497.662,125.277H476.439a.468.468,0,0,1-.439-.691l.056-.153a1.1,1.1,0,0,1,.942-.691H498.22a.468.468,0,0,1,.439.691l-.056.153a1.1,1.1,0,0,1-.942.691" transform="translate(-338.384 -87.975)" fill="#9ec8ff"/>
            <path id="Path_1030887" data-name="Path 1030887" d="M493.62,136.379H472.4a.468.468,0,0,1-.439-.691l.056-.153a1.1,1.1,0,0,1,.942-.691h21.222a.468.468,0,0,1,.439.691l-.056.153a1.1,1.1,0,0,1-.942.691" transform="translate(-335.511 -95.868)" fill="#9ec8ff"/>
            <path id="Path_1030888" data-name="Path 1030888" d="M489.052,148.93H467.829a.468.468,0,0,1-.439-.691l.056-.153a1.1,1.1,0,0,1,.942-.691H489.61a.469.469,0,0,1,.439.691l-.056.153a1.1,1.1,0,0,1-.942.691" transform="translate(-332.263 -104.792)" fill="#9ec8ff"/>
            <path id="Path_1030889" data-name="Path 1030889" d="M564.684,129.251h-3.07a1.7,1.7,0,0,1-1.6-2.511l2.286-6.279a3.988,3.988,0,0,1,3.426-2.512h3.07a1.7,1.7,0,0,1,1.6,2.512l-2.285,6.279a3.987,3.987,0,0,1-3.426,2.511" transform="translate(-398.034 -83.857)" fill="#9ec8ff"/>
            <path id="Path_1030890" data-name="Path 1030890" d="M859.334,265.206c5.572-30.577,4.352-41.514-10.574-66.472s-16.351-71.4-21.977-57.782-4.869,47.832,12.764,64.433,20.007,24.035,21.054,30.792-2.518,27.526-2.518,27.526Z" transform="translate(-585.594 -98.468)" fill="#9cd499"/>
            <path id="Path_1030891" data-name="Path 1030891" d="M862.126,245.57c.009-.117.017-.234.025-.35-.327-2.509-2.1-15.41-4.549-20.5-2.721-5.651-14.651-15.488-18-27.836s-8.657-21.92-12.139-29.721c-4.6-10.3-2.085-23.991,1.717-28.438a.942.942,0,0,0-.278-.128l-1.263.763a8.942,8.942,0,0,0-.856,1.662c-5.626,13.623-4.869,47.832,12.764,64.433s20.007,24.035,21.054,30.792a39.606,39.606,0,0,1,0,7.845Z" transform="translate(-585.594 -98.536)" fill="#74b570"/>
            <path id="Path_1030892" data-name="Path 1030892" d="M905.726,161.344c4.146-35.933,2.764-48.372-5.252-77.118S944.7-10.03,943.041,1.3s-7.187,39.526-21.56,57.217S906,90.583,908.767,105.786s-.553,50.583-.553,50.583l-1.659,6.357Z" transform="translate(-639.604 0)" fill="#9cd499"/>
            <path id="Path_1030893" data-name="Path 1030893" d="M913.893,156.313h-.014a.347.347,0,0,1-.333-.36c0-.111.416-11.188.209-20.281s-2.673-24.7-4.173-30.053c-1.366-4.878-3.084-21.237,5.255-38.13a219.017,219.017,0,0,1,12.058-21.1c4.536-7.277,10.18-16.335,19.135-32.289a.347.347,0,0,1,.6.34c-8.963,15.968-14.612,25.033-19.151,32.317A218.466,218.466,0,0,0,915.459,67.8c-8.243,16.7-6.555,32.829-5.209,37.635,1.509,5.39,3.991,21.075,4.2,30.224.207,9.114-.206,20.212-.21,20.323a.347.347,0,0,1-.346.334" transform="translate(-645.862 -9.901)" fill="#74b570"/>
            <path id="Path_1030894" data-name="Path 1030894" d="M902.1,344.594c2.488-24.048,2.9-12.188-7.427-44.862-11.824-37.4,30.369-70.6,37.279-57.051s14.926,56.111,11.885,54.729-23.218-40.909-23.771-39.25-27.364,15.479-26.258,29.576,11.333,36.486,11.333,36.486l-.277,20.648Z" transform="translate(-634.6 -170.34)" fill="#9cd499"/>
            <path id="Path_1030895" data-name="Path 1030895" d="M904.017,343.739l-.035,0-2.764-.277a.347.347,0,0,1-.311-.381c.288-2.778.553-5.118.766-7,1.158-10.209,1.158-10.209-2.011-18.956-1.432-3.952-3.393-9.365-6.168-18.14a44.7,44.7,0,0,1-1.594-20.213,51.819,51.819,0,0,1,6.161-17.7c5.473-9.781,14.086-18.182,21.942-21.4,5.46-2.238,9.619-1.51,11.409,2,2.933,5.749,6.44,17.521,9.381,31.489,1.7,8.061,4.192,22.1,2.775,23.582a.613.613,0,0,1-.723.132c-1.659-.754-7.151-10.446-14.729-24.055-3.8-6.823-7.72-13.864-8.778-15.078a28.108,28.108,0,0,1-3.734,2.729c-7.51,5.094-23.138,15.694-22.3,26.387,1.088,13.873,11.2,36.146,11.3,36.369a.348.348,0,0,1,.031.149l-.277,20.021a.347.347,0,0,1-.347.342m-2.383-.934,2.042.2.27-19.565c-.637-1.411-10.264-22.931-11.331-36.532-.87-11.095,14.983-21.848,22.6-27.015a25.474,25.474,0,0,0,3.678-2.707.4.4,0,0,1,.346-.277c.671-.063,2,2.12,9.484,15.569,5.374,9.652,12.72,22.843,14.374,23.743.127-.207.5-1.341-.228-7.177-.529-4.22-1.5-9.773-2.73-15.634-2.934-13.961-6.427-25.709-9.343-31.426-1.606-3.147-5.444-3.757-10.528-1.672-13.778,5.647-34.889,30.7-26.112,58.462,2.77,8.761,4.728,14.166,6.158,18.113,3.224,8.9,3.224,8.9,2.048,19.27-.214,1.894-.457,4.028-.729,6.645" transform="translate(-633.748 -169.49)" fill="#74b570"/>
            <path id="Path_1030896" data-name="Path 1030896" d="M910.042,519.042H897.5c-.862,0-1.633-.49-1.714-1.1l-4.215-31.686a2.25,2.25,0,0,1,2.153-2.693h20.1a2.249,2.249,0,0,1,2.153,2.693l-4.215,31.686c-.081.61-.852,1.1-1.714,1.1" transform="translate(-633.85 -343.792)" fill="#7bcee8"/>
            <path id="Path_1030897" data-name="Path 1030897" d="M942.113,526.233h-1.8c-.878,0-1.585-.508-1.57-1.142l.634-27.371a2.555,2.555,0,0,1,2.48-2.507h2.725a2.191,2.191,0,0,1,2.155,2.507l-2.91,27.371c-.067.633-.84,1.142-1.718,1.142" transform="translate(-667.408 -352.076)" fill="#a2dff2"/>
            <path id="Path_1030898" data-name="Path 1030898" d="M899.943,427.037l.222-.386a79.374,79.374,0,0,1-1.926-8.586,43.762,43.762,0,0,0,1.7,8.972" transform="translate(-638.609 -297.226)" fill="#74b570"/>
            <path id="Path_1030899" data-name="Path 1030899" d="M900.235,321.1a25.82,25.82,0,0,0-1.585,6.259c3.7-12.155,24.321-23.128,25.66-24.978l.238-.466c-7.744-2.163-20.128,8.72-24.313,19.186" transform="translate(-638.902 -214.451)" fill="#74b570"/>
            <path id="Path_1030900" data-name="Path 1030900" d="M949.149,309.286a.347.347,0,0,1-.337-.264l-3.746-15.242c-2.925-11.944-6.567-26.808-10.653-33.425-.674-1.091-3.617-2.566-7.786-2.272-5.634.4-16.494,4.291-25.926,25.879a.347.347,0,1,1-.636-.278c9.578-21.922,20.722-25.883,26.513-26.293,4.5-.317,7.639,1.328,8.424,2.6,4.144,6.71,7.647,21.009,10.737,33.624l3.747,15.241a.348.348,0,0,1-.254.42.36.36,0,0,1-.083.01" transform="translate(-639.887 -182.966)" fill="#74b570"/>
            <path id="Path_1030901" data-name="Path 1030901" d="M1026.45,302.7l-.041,0a.347.347,0,0,1-.3-.385,81.545,81.545,0,0,0-1.875-25.828.347.347,0,0,1,.673-.168,82.3,82.3,0,0,1,1.892,26.077.347.347,0,0,1-.344.307" transform="translate(-728.176 -196.26)" fill="#74b570"/>
            <path id="Path_1030902" data-name="Path 1030902" d="M1017.689,287.745l-.041,0a.346.346,0,0,1-.3-.385,117.124,117.124,0,0,0,.417-21.065.347.347,0,0,1,.691-.068,117.837,117.837,0,0,1-.42,21.213.346.346,0,0,1-.344.306" transform="translate(-723.286 -189.052)" fill="#74b570"/>
            <path id="Path_1030903" data-name="Path 1030903" d="M972.07,88.247a.347.347,0,0,1-.15-.66,39.566,39.566,0,0,0,15.751-15.549.347.347,0,0,1,.61.329,40.3,40.3,0,0,1-16.062,15.845.342.342,0,0,1-.15.034" transform="translate(-690.853 -51.087)" fill="#74b570"/>
            <path id="Path_1030904" data-name="Path 1030904" d="M946.726,146.622a.347.347,0,0,1-.069-.687c.081-.016,8.2-1.757,17.851-9.557a.347.347,0,1,1,.436.539c-9.789,7.915-18.065,9.681-18.148,9.7a.366.366,0,0,1-.07.007" transform="translate(-672.835 -96.904)" fill="#74b570"/>
            <path id="Path_1030905" data-name="Path 1030905" d="M925.229,196.348c-.142,0-.227-.005-.252-.007a.347.347,0,1,1,.051-.692c.056,0,5.654.309,14.626-6.42a.347.347,0,0,1,.417.555c-8.239,6.179-13.63,6.564-14.842,6.564" transform="translate(-657.391 -134.484)" fill="#74b570"/>
          </g>
        </g>
      </g>
    </g>
    <g id="Group_1185023" data-name="Group 1185023" transform="translate(556.711 9393.902)">
      <g id="Group_1185022" data-name="Group 1185022" clip-path="url(#clip-path-4)">
        <path id="Path_1030906" data-name="Path 1030906" d="M69.05,31.808H1.335A1.335,1.335,0,0,1,0,30.473V1.334A1.335,1.335,0,0,1,1.335,0H69.05a1.335,1.335,0,0,1,1.335,1.335V30.473a1.335,1.335,0,0,1-1.335,1.335" transform="translate(0 0.001)" fill="#344866"/>
        <path id="Path_1030907" data-name="Path 1030907" d="M72.1,50.793H7.719a1.078,1.078,0,0,1-1.078-1.078v-19.8a1.078,1.078,0,0,1,1.078-1.078H72.1a1.078,1.078,0,0,1,1.078,1.078v19.8A1.078,1.078,0,0,1,72.1,50.793" transform="translate(-4.716 -20.477)" fill="#fff"/>
        <path id="Path_1030908" data-name="Path 1030908" d="M12.172,10.558H10.609a.6.6,0,0,1-.6-.6V8.674a.6.6,0,0,1,.6-.6h1.563a.6.6,0,0,1,.6.6V9.96a.6.6,0,0,1-.6.6" transform="translate(-7.11 -5.735)" fill="#fff"/>
        <path id="Path_1030909" data-name="Path 1030909" d="M29.471,10.558H27.908a.6.6,0,0,1-.6-.6V8.674a.6.6,0,0,1,.6-.6h1.563a.6.6,0,0,1,.6.6V9.96a.6.6,0,0,1-.6.6" transform="translate(-19.396 -5.735)" fill="#fff"/>
        <path id="Path_1030910" data-name="Path 1030910" d="M46.769,10.558H45.206a.6.6,0,0,1-.6-.6V8.674a.6.6,0,0,1,.6-.6h1.563a.6.6,0,0,1,.6.6V9.96a.6.6,0,0,1-.6.6" transform="translate(-31.68 -5.735)" fill="#fff"/>
        <path id="Path_1030911" data-name="Path 1030911" d="M138.056,40.281H102.862a1.053,1.053,0,1,1,0-2.106h35.194a1.053,1.053,0,1,1,0,2.106" transform="translate(-72.303 -27.111)" fill="#344866"/>
        <path id="Path_1030912" data-name="Path 1030912" d="M46.72,96.328H11.526a1.053,1.053,0,0,1,0-2.106H46.72a1.053,1.053,0,1,1,0,2.106" transform="translate(-7.438 -66.915)" fill="#344866"/>
        <path id="Path_1030913" data-name="Path 1030913" d="M148.1,96.328h-3.641a.361.361,0,0,1-.36-.36V94.582a.361.361,0,0,1,.36-.36H148.1a.361.361,0,0,1,.36.36v1.386a.361.361,0,0,1-.36.36" transform="translate(-102.339 -66.915)" fill="#b7e1ff"/>
        <path id="Path_1030914" data-name="Path 1030914" d="M167.046,96.328H163.4a.361.361,0,0,1-.36-.36V94.582a.361.361,0,0,1,.36-.36h3.642a.361.361,0,0,1,.36.36v1.386a.361.361,0,0,1-.36.36" transform="translate(-115.791 -66.915)" fill="#b7e1ff"/>
        <path id="Path_1030915" data-name="Path 1030915" d="M83.479,57.768H25.2a.714.714,0,0,1,0-1.429H83.479a.714.714,0,1,1,0,1.429" transform="translate(-17.388 -40.011)" fill="#344866"/>
        <path id="Path_1030916" data-name="Path 1030916" d="M83.479,68.406H25.2a.714.714,0,0,1,0-1.429H83.479a.714.714,0,1,1,0,1.429" transform="translate(-17.388 -47.566)" fill="#344866"/>
        <path id="Path_1030917" data-name="Path 1030917" d="M123.926,108.869H56.211a1.335,1.335,0,0,1-1.335-1.335V78.395a1.335,1.335,0,0,1,1.335-1.335h67.716a1.335,1.335,0,0,1,1.335,1.335v29.139a1.335,1.335,0,0,1-1.335,1.335" transform="translate(-38.972 -54.727)" fill="#9ec8ff"/>
        <path id="Path_1030918" data-name="Path 1030918" d="M126.975,127.854H62.595a1.078,1.078,0,0,1-1.078-1.078v-19.8a1.078,1.078,0,0,1,1.078-1.078h64.38a1.078,1.078,0,0,1,1.078,1.078v19.8a1.078,1.078,0,0,1-1.078,1.078" transform="translate(-43.688 -75.205)" fill="#fff"/>
        <path id="Path_1030919" data-name="Path 1030919" d="M67.049,87.619H65.486a.6.6,0,0,1-.6-.6V85.734a.6.6,0,0,1,.6-.6h1.563a.6.6,0,0,1,.6.6v1.287a.6.6,0,0,1-.6.6" transform="translate(-46.083 -60.463)" fill="#fff"/>
        <path id="Path_1030920" data-name="Path 1030920" d="M84.347,87.619H82.784a.6.6,0,0,1-.6-.6V85.734a.6.6,0,0,1,.6-.6h1.563a.6.6,0,0,1,.6.6v1.287a.6.6,0,0,1-.6.6" transform="translate(-58.368 -60.463)" fill="#fff"/>
        <path id="Path_1030921" data-name="Path 1030921" d="M101.644,87.619h-1.563a.6.6,0,0,1-.6-.6V85.734a.6.6,0,0,1,.6-.6h1.563a.6.6,0,0,1,.6.6v1.287a.6.6,0,0,1-.6.6" transform="translate(-70.652 -60.463)" fill="#fff"/>
        <path id="Path_1030922" data-name="Path 1030922" d="M192.932,117.342H157.738a1.053,1.053,0,0,1,0-2.106h35.195a1.053,1.053,0,0,1,0,2.106" transform="translate(-111.275 -81.838)" fill="#9ec8ff"/>
        <path id="Path_1030923" data-name="Path 1030923" d="M101.6,173.389H66.4a1.053,1.053,0,1,1,0-2.106H101.6a1.053,1.053,0,1,1,0,2.106" transform="translate(-46.41 -121.642)" fill="#9ec8ff"/>
        <path id="Path_1030924" data-name="Path 1030924" d="M202.981,173.389h-3.642a.361.361,0,0,1-.36-.36v-1.386a.361.361,0,0,1,.36-.36h3.642a.361.361,0,0,1,.36.36v1.386a.361.361,0,0,1-.36.36" transform="translate(-141.311 -121.642)" fill="#9ec8ff"/>
        <path id="Path_1030925" data-name="Path 1030925" d="M221.923,173.389h-3.642a.361.361,0,0,1-.36-.36v-1.386a.361.361,0,0,1,.36-.36h3.642a.361.361,0,0,1,.36.36v1.386a.361.361,0,0,1-.36.36" transform="translate(-154.763 -121.642)" fill="#9ec8ff"/>
        <path id="Path_1030926" data-name="Path 1030926" d="M138.356,134.828H80.075a.714.714,0,0,1,0-1.429h58.281a.714.714,0,1,1,0,1.429" transform="translate(-56.361 -94.737)" fill="#9ec8ff"/>
        <path id="Path_1030927" data-name="Path 1030927" d="M138.356,145.467H80.075a.714.714,0,0,1,0-1.429h58.281a.714.714,0,1,1,0,1.429" transform="translate(-56.361 -102.293)" fill="#9ec8ff"/>
      </g>
    </g>
    <g id="Group_1185024" data-name="Group 1185024" transform="translate(350 9326.342)">
      <g id="Group_1185022-2" data-name="Group 1185022" clip-path="url(#clip-path-4)">
        <path id="Path_1030906-2" data-name="Path 1030906" d="M69.05,31.808H1.335A1.335,1.335,0,0,1,0,30.473V1.334A1.335,1.335,0,0,1,1.335,0H69.05a1.335,1.335,0,0,1,1.335,1.335V30.473a1.335,1.335,0,0,1-1.335,1.335" transform="translate(0 0.001)" fill="#344866"/>
        <path id="Path_1030907-2" data-name="Path 1030907" d="M72.1,50.793H7.719a1.078,1.078,0,0,1-1.078-1.078v-19.8a1.078,1.078,0,0,1,1.078-1.078H72.1a1.078,1.078,0,0,1,1.078,1.078v19.8A1.078,1.078,0,0,1,72.1,50.793" transform="translate(-4.716 -20.477)" fill="#fff"/>
        <path id="Path_1030908-2" data-name="Path 1030908" d="M12.172,10.558H10.609a.6.6,0,0,1-.6-.6V8.674a.6.6,0,0,1,.6-.6h1.563a.6.6,0,0,1,.6.6V9.96a.6.6,0,0,1-.6.6" transform="translate(-7.11 -5.735)" fill="#fff"/>
        <path id="Path_1030909-2" data-name="Path 1030909" d="M29.471,10.558H27.908a.6.6,0,0,1-.6-.6V8.674a.6.6,0,0,1,.6-.6h1.563a.6.6,0,0,1,.6.6V9.96a.6.6,0,0,1-.6.6" transform="translate(-19.396 -5.735)" fill="#fff"/>
        <path id="Path_1030910-2" data-name="Path 1030910" d="M46.769,10.558H45.206a.6.6,0,0,1-.6-.6V8.674a.6.6,0,0,1,.6-.6h1.563a.6.6,0,0,1,.6.6V9.96a.6.6,0,0,1-.6.6" transform="translate(-31.68 -5.735)" fill="#fff"/>
        <path id="Path_1030911-2" data-name="Path 1030911" d="M138.056,40.281H102.862a1.053,1.053,0,1,1,0-2.106h35.194a1.053,1.053,0,1,1,0,2.106" transform="translate(-72.303 -27.111)" fill="#344866"/>
        <path id="Path_1030912-2" data-name="Path 1030912" d="M46.72,96.328H11.526a1.053,1.053,0,0,1,0-2.106H46.72a1.053,1.053,0,1,1,0,2.106" transform="translate(-7.438 -66.915)" fill="#344866"/>
        <path id="Path_1030913-2" data-name="Path 1030913" d="M148.1,96.328h-3.641a.361.361,0,0,1-.36-.36V94.582a.361.361,0,0,1,.36-.36H148.1a.361.361,0,0,1,.36.36v1.386a.361.361,0,0,1-.36.36" transform="translate(-102.339 -66.915)" fill="#b7e1ff"/>
        <path id="Path_1030914-2" data-name="Path 1030914" d="M167.046,96.328H163.4a.361.361,0,0,1-.36-.36V94.582a.361.361,0,0,1,.36-.36h3.642a.361.361,0,0,1,.36.36v1.386a.361.361,0,0,1-.36.36" transform="translate(-115.791 -66.915)" fill="#b7e1ff"/>
        <path id="Path_1030915-2" data-name="Path 1030915" d="M83.479,57.768H25.2a.714.714,0,0,1,0-1.429H83.479a.714.714,0,1,1,0,1.429" transform="translate(-17.388 -40.011)" fill="#344866"/>
        <path id="Path_1030916-2" data-name="Path 1030916" d="M83.479,68.406H25.2a.714.714,0,0,1,0-1.429H83.479a.714.714,0,1,1,0,1.429" transform="translate(-17.388 -47.566)" fill="#344866"/>
        <path id="Path_1030917-2" data-name="Path 1030917" d="M123.926,108.869H56.211a1.335,1.335,0,0,1-1.335-1.335V78.395a1.335,1.335,0,0,1,1.335-1.335h67.716a1.335,1.335,0,0,1,1.335,1.335v29.139a1.335,1.335,0,0,1-1.335,1.335" transform="translate(-38.972 -54.727)" fill="#9ec8ff"/>
        <path id="Path_1030918-2" data-name="Path 1030918" d="M126.975,127.854H62.595a1.078,1.078,0,0,1-1.078-1.078v-19.8a1.078,1.078,0,0,1,1.078-1.078h64.38a1.078,1.078,0,0,1,1.078,1.078v19.8a1.078,1.078,0,0,1-1.078,1.078" transform="translate(-43.688 -75.205)" fill="#fff"/>
        <path id="Path_1030919-2" data-name="Path 1030919" d="M67.049,87.619H65.486a.6.6,0,0,1-.6-.6V85.734a.6.6,0,0,1,.6-.6h1.563a.6.6,0,0,1,.6.6v1.287a.6.6,0,0,1-.6.6" transform="translate(-46.083 -60.463)" fill="#fff"/>
        <path id="Path_1030920-2" data-name="Path 1030920" d="M84.347,87.619H82.784a.6.6,0,0,1-.6-.6V85.734a.6.6,0,0,1,.6-.6h1.563a.6.6,0,0,1,.6.6v1.287a.6.6,0,0,1-.6.6" transform="translate(-58.368 -60.463)" fill="#fff"/>
        <path id="Path_1030921-2" data-name="Path 1030921" d="M101.644,87.619h-1.563a.6.6,0,0,1-.6-.6V85.734a.6.6,0,0,1,.6-.6h1.563a.6.6,0,0,1,.6.6v1.287a.6.6,0,0,1-.6.6" transform="translate(-70.652 -60.463)" fill="#fff"/>
        <path id="Path_1030922-2" data-name="Path 1030922" d="M192.932,117.342H157.738a1.053,1.053,0,0,1,0-2.106h35.195a1.053,1.053,0,0,1,0,2.106" transform="translate(-111.275 -81.838)" fill="#9ec8ff"/>
        <path id="Path_1030923-2" data-name="Path 1030923" d="M101.6,173.389H66.4a1.053,1.053,0,1,1,0-2.106H101.6a1.053,1.053,0,1,1,0,2.106" transform="translate(-46.41 -121.642)" fill="#9ec8ff"/>
        <path id="Path_1030924-2" data-name="Path 1030924" d="M202.981,173.389h-3.642a.361.361,0,0,1-.36-.36v-1.386a.361.361,0,0,1,.36-.36h3.642a.361.361,0,0,1,.36.36v1.386a.361.361,0,0,1-.36.36" transform="translate(-141.311 -121.642)" fill="#9ec8ff"/>
        <path id="Path_1030925-2" data-name="Path 1030925" d="M221.923,173.389h-3.642a.361.361,0,0,1-.36-.36v-1.386a.361.361,0,0,1,.36-.36h3.642a.361.361,0,0,1,.36.36v1.386a.361.361,0,0,1-.36.36" transform="translate(-154.763 -121.642)" fill="#9ec8ff"/>
        <path id="Path_1030926-2" data-name="Path 1030926" d="M138.356,134.828H80.075a.714.714,0,0,1,0-1.429h58.281a.714.714,0,1,1,0,1.429" transform="translate(-56.361 -94.737)" fill="#9ec8ff"/>
        <path id="Path_1030927-2" data-name="Path 1030927" d="M138.356,145.467H80.075a.714.714,0,0,1,0-1.429h58.281a.714.714,0,1,1,0,1.429" transform="translate(-56.361 -102.293)" fill="#9ec8ff"/>
      </g>
    </g>
  </g>
</svg>
