<svg xmlns="http://www.w3.org/2000/svg" xmlns:xlink="http://www.w3.org/1999/xlink" width="500" height="257" viewBox="0 0 500 257">
  <defs>
    <clipPath id="clip-path">
      <rect id="Rectangle_458739" data-name="Rectangle 458739" width="500" height="257" transform="translate(289.711 1499)" fill="#6cb9ff"/>
    </clipPath>
    <clipPath id="clip-path-2">
      <rect id="Rectangle_458738" data-name="Rectangle 458738" width="312.322" height="297.003" fill="none"/>
    </clipPath>
  </defs>
  <g id="img2" transform="translate(-289.711 -1499)">
    <rect id="Rectangle_458347" data-name="Rectangle 458347" width="500" height="257" transform="translate(289.711 1499)" fill="#6cb9ff"/>
    <g id="Mask_Group_1178573" data-name="Mask Group 1178573" clip-path="url(#clip-path)">
      <g id="Group_1185039" data-name="Group 1185039" transform="translate(383.711 1445.224)">
        <g id="Group_1185038" data-name="Group 1185038" clip-path="url(#clip-path-2)">
          <path id="Path_1030931" data-name="Path 1030931" d="M301.124,380.182c0,3.385-2.329,6.127-5.2,6.127H33.949c-2.873,0-5.2-2.742-5.2-6.127s2.33-6.127,5.2-6.127H295.922c2.874,0,5.2,2.742,5.2,6.127" transform="translate(-8.774 -114.173)" fill="#5f78ab"/>
          <path id="Path_1030932" data-name="Path 1030932" d="M425.041,314.033c.893-3.709-1.028-7.223-4.527-8.038a7.26,7.26,0,0,0-5.311.909,19.668,19.668,0,0,0,.12-2.05c0-8.394-5.25-15.2-11.728-15.2-5.12,0-9.461,4.257-11.062,10.184a8.462,8.462,0,0,0-7.294-2.81c-4.519.753-7.067,6.037-5.735,11.833a6.355,6.355,0,0,0-2.873-.692,6.869,6.869,0,0,0-6.623,5.865Z" transform="translate(-112.937 -88.411)" fill="#a9ccff"/>
          <path id="Path_1030933" data-name="Path 1030933" d="M55.035,198.21c.893-3.709-1.028-7.224-4.527-8.039a7.26,7.26,0,0,0-5.311.909,19.675,19.675,0,0,0,.119-2.05c0-8.394-5.25-15.2-11.728-15.2-5.12,0-9.461,4.258-11.062,10.184a8.462,8.462,0,0,0-7.294-2.81c-4.519.752-7.067,6.037-5.735,11.833a6.355,6.355,0,0,0-2.873-.692A6.869,6.869,0,0,0,0,198.21Z" transform="translate(0 -53.058)" fill="#a9ccff"/>
          <path id="Path_1030934" data-name="Path 1030934" d="M277.127,99.726c.893-3.709-1.028-7.224-4.527-8.039a7.26,7.26,0,0,0-5.311.909,19.68,19.68,0,0,0,.12-2.05c0-8.394-5.25-15.2-11.728-15.2-5.12,0-9.461,4.258-11.062,10.184a8.465,8.465,0,0,0-7.294-2.81c-4.519.753-7.067,6.038-5.735,11.834a6.355,6.355,0,0,0-2.873-.692,6.869,6.869,0,0,0-6.623,5.865Z" transform="translate(-67.789 -22.998)" fill="#a9ccff"/>
          <path id="Path_1030935" data-name="Path 1030935" d="M414.138,108.528a4.345,4.345,0,1,1-4.345-4.344,4.346,4.346,0,0,1,4.345,4.344" transform="translate(-123.755 -31.8)" fill="#a9ccff"/>
          <path id="Path_1030936" data-name="Path 1030936" d="M417.639,266.245a4.345,4.345,0,1,1-4.346-4.345,4.346,4.346,0,0,1,4.346,4.345" transform="translate(-124.823 -79.94)" fill="#a9ccff"/>
          <path id="Path_1030937" data-name="Path 1030937" d="M113.462,98.811a4.345,4.345,0,1,1-4.345-4.344,4.346,4.346,0,0,1,4.345,4.344" transform="translate(-31.98 -28.834)" fill="#a9ccff"/>
          <path id="Path_1030938" data-name="Path 1030938" d="M27.112,155.581a4.345,4.345,0,1,1-4.345-4.344,4.346,4.346,0,0,1,4.345,4.344" transform="translate(-5.623 -46.162)" fill="#a9ccff"/>
          <path id="Path_1030939" data-name="Path 1030939" d="M64.032,91.674A2.77,2.77,0,1,1,61.263,88.9a2.77,2.77,0,0,1,2.769,2.769" transform="translate(-17.854 -27.136)" fill="#a9ccff"/>
          <path id="Path_1030940" data-name="Path 1030940" d="M34.2,247.729a2.77,2.77,0,1,1-2.769-2.769,2.77,2.77,0,0,1,2.769,2.769" transform="translate(-8.748 -74.769)" fill="#a9ccff"/>
          <path id="Path_1030941" data-name="Path 1030941" d="M76.855,281.048a2.77,2.77,0,1,1-2.769-2.769,2.77,2.77,0,0,1,2.769,2.769" transform="translate(-21.768 -84.939)" fill="#a9ccff"/>
          <path id="Path_1030942" data-name="Path 1030942" d="M30.214,352.914a2.77,2.77,0,1,1-2.769-2.769,2.77,2.77,0,0,1,2.769,2.769" transform="translate(-7.532 -106.875)" fill="#a9ccff"/>
          <path id="Path_1030943" data-name="Path 1030943" d="M428.676,347.6a2.77,2.77,0,1,1-2.769-2.769,2.77,2.77,0,0,1,2.769,2.769" transform="translate(-129.154 -105.252)" fill="#a9ccff"/>
          <path id="Path_1030944" data-name="Path 1030944" d="M341.057,88.852a2.77,2.77,0,1,1-2.769-2.769,2.77,2.77,0,0,1,2.769,2.769" transform="translate(-102.41 -26.275)" fill="#a9ccff"/>
          <path id="Path_1030945" data-name="Path 1030945" d="M428.676,162.526a2.77,2.77,0,1,1-2.769-2.769,2.77,2.77,0,0,1,2.769,2.769" transform="translate(-129.154 -48.763)" fill="#a9ccff"/>
          <path id="Path_1030946" data-name="Path 1030946" d="M213.147,93.249a2.77,2.77,0,1,1-2.769-2.769,2.77,2.77,0,0,1,2.769,2.769" transform="translate(-63.368 -27.617)" fill="#a9ccff"/>
          <path id="Path_1030947" data-name="Path 1030947" d="M409.764,208.188v-9.117h-5.87a16.853,16.853,0,0,0-1.6-3.848l4.156-4.155L400,184.621l-4.16,4.158A16.948,16.948,0,0,0,392,187.19v-5.884h-9.118v5.884a16.985,16.985,0,0,0-3.843,1.59l-4.16-4.158-6.445,6.446,4.155,4.155a16.914,16.914,0,0,0-1.6,3.848h-5.87v9.117h5.86a16.814,16.814,0,0,0,1.6,3.862l-4.14,4.139,6.445,6.448,4.135-4.134a16.987,16.987,0,0,0,3.868,1.6v5.842H392v-5.842a16.986,16.986,0,0,0,3.869-1.6L400,222.636l6.447-6.448-4.139-4.139a16.939,16.939,0,0,0,1.6-3.862Zm-22.324,3.557a8.1,8.1,0,1,1,8.1-8.1,8.1,8.1,0,0,1-8.1,8.1" transform="translate(-111.445 -55.34)" fill="#29354a"/>
          <path id="Path_1030948" data-name="Path 1030948" d="M64.686,311.1v-9.117h-5.87a16.867,16.867,0,0,0-1.6-3.848l4.156-4.155-6.447-6.447-4.16,4.159a16.942,16.942,0,0,0-3.842-1.59v-5.884H37.8V290.1a16.987,16.987,0,0,0-3.843,1.59l-4.16-4.159-6.445,6.447,4.155,4.155a16.926,16.926,0,0,0-1.6,3.848H20.04V311.1H25.9a16.816,16.816,0,0,0,1.6,3.862l-4.14,4.139,6.445,6.448,4.135-4.134a16.987,16.987,0,0,0,3.868,1.6v5.842h9.117V323.02a16.979,16.979,0,0,0,3.869-1.6l4.133,4.134L61.37,319.1l-4.139-4.139a16.94,16.94,0,0,0,1.6-3.862Zm-22.324,3.557a8.1,8.1,0,1,1,8.1-8.1,8.1,8.1,0,0,1-8.1,8.1" transform="translate(-6.117 -86.752)" fill="#29354a"/>
          <path id="Path_1030949" data-name="Path 1030949" d="M176.257,119.774v-9.117h-5.871a16.866,16.866,0,0,0-1.6-3.848l4.155-4.155-6.447-6.447-4.16,4.159a16.908,16.908,0,0,0-3.842-1.59V92.892h-9.117v5.885a16.94,16.94,0,0,0-3.843,1.59l-4.16-4.159-6.445,6.447,4.154,4.155a16.926,16.926,0,0,0-1.6,3.848h-5.87v9.117h5.859a16.816,16.816,0,0,0,1.6,3.862l-4.139,4.139,6.445,6.448,4.135-4.134a16.973,16.973,0,0,0,3.868,1.6v5.842h9.117v-5.842a16.986,16.986,0,0,0,3.868-1.6l4.133,4.134,6.447-6.448-4.139-4.139a16.941,16.941,0,0,0,1.6-3.862Zm-22.324,3.557a8.1,8.1,0,1,1,8.1-8.1,8.1,8.1,0,0,1-8.1,8.1" transform="translate(-40.172 -28.353)" fill="#29354a"/>
          <path id="Path_1030950" data-name="Path 1030950" d="M288.214,125.02H56.368a3.519,3.519,0,0,0-3.518,3.518V300.652a3.519,3.519,0,0,0,3.518,3.518H288.214a3.52,3.52,0,0,0,3.52-3.518V128.538a3.52,3.52,0,0,0-3.52-3.518" transform="translate(-16.131 -38.16)" fill="#fff"/>
          <path id="Path_1030951" data-name="Path 1030951" d="M56.369,125.02H288.215a3.52,3.52,0,0,1,3.52,3.518v16.654H52.851V128.538a3.519,3.519,0,0,1,3.518-3.518" transform="translate(-16.132 -38.16)" fill="#083273"/>
          <path id="Path_1030952" data-name="Path 1030952" d="M378.44,138.788a2.409,2.409,0,1,0,2.407-2.411,2.41,2.41,0,0,0-2.407,2.411" transform="translate(-115.511 -41.626)" fill="#fbd131"/>
          <path id="Path_1030953" data-name="Path 1030953" d="M364.76,138.788a2.41,2.41,0,1,0,2.41-2.411,2.41,2.41,0,0,0-2.41,2.411" transform="translate(-111.336 -41.626)" fill="#fbd131"/>
          <path id="Path_1030954" data-name="Path 1030954" d="M351.081,138.788a2.409,2.409,0,1,0,2.409-2.411,2.411,2.411,0,0,0-2.409,2.411" transform="translate(-107.16 -41.626)" fill="#fbd131"/>
          <path id="Path_1030955" data-name="Path 1030955" d="M64.157,137.575a5.169,5.169,0,1,0,5.166-5.173,5.171,5.171,0,0,0-5.166,5.173" transform="translate(-19.583 -40.413)" fill="#d7eff5"/>
          <path id="Path_1030956" data-name="Path 1030956" d="M88.941,142.8H263.006a.977.977,0,0,0,1.031-.916v-8.7a.978.978,0,0,0-1.031-.916H88.941a.979.979,0,0,0-1.03.916v8.7a.978.978,0,0,0,1.03.916" transform="translate(-26.833 -40.372)" fill="#0148a2"/>
          <path id="Path_1030957" data-name="Path 1030957" d="M331.824,140.249a2.147,2.147,0,1,1,.408-3.009A2.147,2.147,0,0,1,331.824,140.249Z" transform="translate(-100.23 -41.631)" fill="none" stroke="#fff" stroke-linecap="round" stroke-linejoin="round" stroke-width="1"/>
          <line id="Line_3377" data-name="Line 3377" y1="1.486" x2="1.952" transform="translate(226.633 98.209)" fill="none" stroke="#fff" stroke-linecap="round" stroke-linejoin="round" stroke-width="1"/>
          <rect id="Rectangle_458663" data-name="Rectangle 458663" width="238.884" height="11.967" transform="translate(36.719 107.031)" fill="#d7eff5"/>
          <path id="Path_1030958" data-name="Path 1030958" d="M113.429,258.075H241.469a.943.943,0,0,0,.937-.952V226.468a.946.946,0,0,0-.937-.953H113.429a.945.945,0,0,0-.936.953v30.655a.942.942,0,0,0,.936.952" transform="translate(-34.336 -68.834)" fill="#d7eff5"/>
          <path id="Path_1030959" data-name="Path 1030959" d="M113.429,225.514a.945.945,0,0,0-.936.954v30.654a.942.942,0,0,0,.936.952h31v-32.56Z" transform="translate(-34.336 -68.834)" fill="#6981f7"/>
          <rect id="Rectangle_458664" data-name="Rectangle 458664" width="87.94" height="1.103" transform="translate(114.658 171.093)" fill="#6981f7"/>
          <rect id="Rectangle_458665" data-name="Rectangle 458665" width="43.855" height="1.103" transform="translate(114.658 173.913)" fill="#6981f7"/>
          <rect id="Rectangle_458666" data-name="Rectangle 458666" width="40.863" height="1.103" transform="translate(161.735 173.913)" fill="#6981f7"/>
          <rect id="Rectangle_458667" data-name="Rectangle 458667" width="17.223" height="1.103" transform="translate(114.658 176.73)" fill="#6981f7"/>
          <rect id="Rectangle_458668" data-name="Rectangle 458668" width="35.518" height="1.103" transform="translate(134.914 176.73)" fill="#6981f7"/>
          <rect id="Rectangle_458669" data-name="Rectangle 458669" width="50.571" height="2.69" transform="translate(114.658 160.515)" fill="#fc2863"/>
          <rect id="Rectangle_458670" data-name="Rectangle 458670" width="23.025" height="2.689" transform="translate(114.657 164.838)" fill="#083273"/>
          <rect id="Rectangle_458671" data-name="Rectangle 458671" width="35.453" height="2.689" transform="translate(140.785 164.838)" fill="#083273"/>
          <path id="Path_1030960" data-name="Path 1030960" d="M282.872,262.451a2.65,2.65,0,0,1-2.622,2.676H265.618a2.676,2.676,0,0,1,0-5.35H280.25a2.649,2.649,0,0,1,2.622,2.674" transform="translate(-80.274 -79.292)" fill="#fbd131"/>
          <path id="Path_1030961" data-name="Path 1030961" d="M65.025,207.683H90.808a.869.869,0,0,0,.868-.87V181.361a.871.871,0,0,0-.868-.871H65.025a.87.87,0,0,0-.868.871v25.451a.868.868,0,0,0,.868.87" transform="translate(-19.583 -55.091)" fill="#fbd131"/>
          <path id="Path_1030962" data-name="Path 1030962" d="M65.025,239.326H90.808a.869.869,0,0,0,.868-.87V226.9a.87.87,0,0,0-.868-.871H65.025a.87.87,0,0,0-.868.871v11.556a.868.868,0,0,0,.868.87" transform="translate(-19.583 -68.991)" fill="#6981f7"/>
          <path id="Path_1030963" data-name="Path 1030963" d="M65.025,345.66H90.808a.869.869,0,0,0,.868-.87V333.233a.871.871,0,0,0-.868-.871H65.025a.87.87,0,0,0-.868.871V344.79a.868.868,0,0,0,.868.87" transform="translate(-19.583 -101.447)" fill="#6981f7"/>
          <rect id="Rectangle_458672" data-name="Rectangle 458672" width="7.679" height="7.679" rx="0.801" transform="translate(44.574 248.985)" fill="#6981f7"/>
          <rect id="Rectangle_458673" data-name="Rectangle 458673" width="14.241" height="1.631" transform="translate(55.103 250.71)" fill="#fc2863"/>
          <rect id="Rectangle_458674" data-name="Rectangle 458674" width="6.8" height="1.63" transform="translate(55.103 253.329)" fill="#6981f7"/>
          <rect id="Rectangle_458675" data-name="Rectangle 458675" width="9.575" height="1.63" transform="translate(62.742 253.329)" fill="#6981f7"/>
          <path id="Path_1030964" data-name="Path 1030964" d="M65.025,266.993H90.808a.869.869,0,0,0,.868-.87V254.566a.871.871,0,0,0-.868-.871H65.025a.87.87,0,0,0-.868.871v11.557a.868.868,0,0,0,.868.87" transform="translate(-19.583 -77.435)" fill="#6981f7"/>
          <rect id="Rectangle_458676" data-name="Rectangle 458676" width="7.679" height="7.679" rx="0.801" transform="translate(44.574 194.33)" fill="#6981f7"/>
          <rect id="Rectangle_458677" data-name="Rectangle 458677" width="14.241" height="1.631" transform="translate(55.103 196.054)" fill="#fc2863"/>
          <rect id="Rectangle_458678" data-name="Rectangle 458678" width="6.8" height="1.63" transform="translate(55.103 198.674)" fill="#6981f7"/>
          <rect id="Rectangle_458679" data-name="Rectangle 458679" width="9.575" height="1.63" transform="translate(62.742 198.674)" fill="#6981f7"/>
          <rect id="Rectangle_458680" data-name="Rectangle 458680" width="7.679" height="7.679" rx="0.801" transform="translate(44.574 206.083)" fill="#6981f7"/>
          <rect id="Rectangle_458681" data-name="Rectangle 458681" width="14.241" height="1.631" transform="translate(55.103 207.808)" fill="#fc2863"/>
          <rect id="Rectangle_458682" data-name="Rectangle 458682" width="6.8" height="1.63" transform="translate(55.103 210.427)" fill="#6981f7"/>
          <rect id="Rectangle_458683" data-name="Rectangle 458683" width="9.575" height="1.63" transform="translate(62.742 210.427)" fill="#6981f7"/>
          <rect id="Rectangle_458684" data-name="Rectangle 458684" width="7.679" height="7.679" rx="0.801" transform="translate(44.574 217.837)" fill="#6981f7"/>
          <rect id="Rectangle_458685" data-name="Rectangle 458685" width="14.241" height="1.631" transform="translate(55.103 219.561)" fill="#fc2863"/>
          <rect id="Rectangle_458686" data-name="Rectangle 458686" width="6.8" height="1.63" transform="translate(55.103 222.181)" fill="#6981f7"/>
          <rect id="Rectangle_458687" data-name="Rectangle 458687" width="9.575" height="1.63" transform="translate(62.742 222.181)" fill="#6981f7"/>
          <path id="Path_1030965" data-name="Path 1030965" d="M310.144,278.521h51.57a.869.869,0,0,0,.868-.87V181.36a.871.871,0,0,0-.868-.871h-51.57a.87.87,0,0,0-.868.871v96.291a.868.868,0,0,0,.868.87" transform="translate(-94.4 -55.091)" fill="#d7eff5"/>
          <path id="Path_1030966" data-name="Path 1030966" d="M316.508,303.072a5.874,5.874,0,1,0,5.874-5.875,5.873,5.873,0,0,0-5.874,5.875" transform="translate(-96.608 -90.713)" fill="#6981f7"/>
          <rect id="Rectangle_458688" data-name="Rectangle 458688" width="28.486" height="1.601" transform="translate(234.07 207.991)" fill="#fc2863"/>
          <rect id="Rectangle_458689" data-name="Rectangle 458689" width="10.74" height="1.603" transform="translate(234.07 211.555)" fill="#083273"/>
          <rect id="Rectangle_458690" data-name="Rectangle 458690" width="16.845" height="1.603" transform="translate(247.439 211.555)" fill="#083273"/>
          <rect id="Rectangle_458691" data-name="Rectangle 458691" width="18.438" height="1.6" transform="translate(234.07 215.123)" fill="#6981f7"/>
          <rect id="Rectangle_458692" data-name="Rectangle 458692" width="25.546" height="1.601" transform="translate(237.188 132.161)" fill="#fc2863"/>
          <rect id="Rectangle_458693" data-name="Rectangle 458693" width="9.631" height="1.602" transform="translate(237.188 135.725)" fill="#083273"/>
          <rect id="Rectangle_458694" data-name="Rectangle 458694" width="15.107" height="1.602" transform="translate(249.177 135.725)" fill="#083273"/>
          <rect id="Rectangle_458695" data-name="Rectangle 458695" width="16.535" height="1.6" transform="translate(237.188 139.292)" fill="#6981f7"/>
          <rect id="Rectangle_458696" data-name="Rectangle 458696" width="14.365" height="14.365" rx="1.498" transform="translate(219.9 132.188)" fill="#6981f7"/>
          <rect id="Rectangle_458697" data-name="Rectangle 458697" width="25.546" height="1.601" transform="translate(237.188 150.445)" fill="#fc2863"/>
          <rect id="Rectangle_458698" data-name="Rectangle 458698" width="9.631" height="1.602" transform="translate(237.188 154.01)" fill="#083273"/>
          <rect id="Rectangle_458699" data-name="Rectangle 458699" width="15.107" height="1.602" transform="translate(249.177 154.01)" fill="#083273"/>
          <rect id="Rectangle_458700" data-name="Rectangle 458700" width="16.535" height="1.6" transform="translate(237.188 157.576)" fill="#6981f7"/>
          <rect id="Rectangle_458701" data-name="Rectangle 458701" width="14.365" height="14.365" rx="1.498" transform="translate(219.9 150.472)" fill="#6981f7"/>
          <path id="Rectangle_458702" data-name="Rectangle 458702" d="M1.1,0H9.414a1.1,1.1,0,0,1,1.1,1.1V14.973a1.1,1.1,0,0,1-1.1,1.1H1.1a1.1,1.1,0,0,1-1.1-1.1V1.1A1.1,1.1,0,0,1,1.1,0Z" transform="translate(253.396 169.528)" fill="#fbd131"/>
          <path id="Rectangle_458703" data-name="Rectangle 458703" d="M1.1,0H9.414a1.1,1.1,0,0,1,1.1,1.1V9.414a1.1,1.1,0,0,1-1.1,1.1H1.1A1.1,1.1,0,0,1,0,9.413V1.1A1.1,1.1,0,0,1,1.1,0Z" transform="translate(253.396 188.893)" fill="#6981f7"/>
          <path id="Path_1030967" data-name="Path 1030967" d="M113.429,342.434H241.469a.943.943,0,0,0,.937-.952V280.394a.946.946,0,0,0-.937-.953H113.429a.944.944,0,0,0-.936.953v61.088a.942.942,0,0,0,.936.952" transform="translate(-34.336 -85.294)" fill="#d7eff5"/>
          <path id="Path_1030968" data-name="Path 1030968" d="M188.368,322.264H119.646a.691.691,0,0,1-.691-.691V286.427a.691.691,0,0,1,.691-.691h68.722a.691.691,0,0,1,.692.691v35.146a.691.691,0,0,1-.692.691" transform="translate(-36.309 -87.215)" fill="#fff"/>
          <path id="Path_1030969" data-name="Path 1030969" d="M186.781,320.784h-63.03a.672.672,0,0,1-.67-.672v-29.9a.671.671,0,0,1,.67-.671h63.03a.672.672,0,0,1,.671.671v29.9a.672.672,0,0,1-.671.672" transform="translate(-37.568 -88.375)" fill="#6981f7"/>
          <path id="Path_1030970" data-name="Path 1030970" d="M178.364,311.07a11.508,11.508,0,1,1-11.508-11.508,11.507,11.507,0,0,1,11.508,11.508" transform="translate(-47.417 -91.435)" fill="#859fff"/>
          <path id="Path_1030971" data-name="Path 1030971" d="M176.664,301.993a5.34,5.34,0,1,1-5.339-5.339,5.34,5.34,0,0,1,5.339,5.339" transform="translate(-50.664 -90.548)" fill="#fbd131"/>
          <path id="Path_1030972" data-name="Path 1030972" d="M198.708,326.809v-6.855l-10.819-6.939a5.41,5.41,0,0,0-4.931,0l-23,14.754h37.625c1.089,0,1.125-.429,1.125-.959" transform="translate(-48.824 -95.36)" fill="#083273"/>
          <path id="Path_1030973" data-name="Path 1030973" d="M133.7,306.128l-10.621,6.812v11.709c0,.531.142.959,1.231.959h46.268l-30.367-19.481a7.137,7.137,0,0,0-6.511,0" transform="translate(-37.568 -93.199)" fill="#083273"/>
          <rect id="Rectangle_458704" data-name="Rectangle 458704" width="43.855" height="1.102" transform="translate(82.646 248.324)" fill="#6981f7"/>
          <rect id="Rectangle_458705" data-name="Rectangle 458705" width="40.862" height="1.102" transform="translate(129.724 248.324)" fill="#6981f7"/>
          <rect id="Rectangle_458706" data-name="Rectangle 458706" width="17.223" height="1.102" transform="translate(82.646 251.141)" fill="#6981f7"/>
          <rect id="Rectangle_458707" data-name="Rectangle 458707" width="35.518" height="1.102" transform="translate(102.902 251.141)" fill="#6981f7"/>
          <rect id="Rectangle_458708" data-name="Rectangle 458708" width="50.571" height="2.689" transform="translate(82.646 239.028)" fill="#fc2863"/>
          <rect id="Rectangle_458709" data-name="Rectangle 458709" width="23.025" height="2.689" transform="translate(82.646 243.35)" fill="#083273"/>
          <rect id="Rectangle_458710" data-name="Rectangle 458710" width="35.453" height="2.689" transform="translate(108.773 243.35)" fill="#083273"/>
          <path id="Path_1030974" data-name="Path 1030974" d="M282.872,357.492a2.65,2.65,0,0,1-2.622,2.676H265.618a2.676,2.676,0,0,1,0-5.35H280.25a2.649,2.649,0,0,1,2.622,2.674" transform="translate(-80.274 -108.301)" fill="#fbd131"/>
          <path id="Path_1030975" data-name="Path 1030975" d="M113.884,207.683H241.229a.869.869,0,0,0,.868-.87V181.361a.871.871,0,0,0-.868-.871H113.884a.87.87,0,0,0-.868.871v25.451a.868.868,0,0,0,.868.87" transform="translate(-34.496 -55.091)" fill="#d7eff5"/>
          <path id="Path_1030976" data-name="Path 1030976" d="M121.018,190.232a3.2,3.2,0,1,0,3.2-3.2,3.2,3.2,0,0,0-3.2,3.2" transform="translate(-36.938 -57.089)" fill="#6981f7"/>
          <rect id="Rectangle_458711" data-name="Rectangle 458711" width="21.127" height="1.601" transform="translate(93.531 132.343)" fill="#083273"/>
          <path id="Path_1030977" data-name="Path 1030977" d="M174.585,190.232a3.2,3.2,0,1,0,3.2-3.2,3.2,3.2,0,0,0-3.2,3.2" transform="translate(-53.289 -57.089)" fill="#6981f7"/>
          <rect id="Rectangle_458712" data-name="Rectangle 458712" width="21.127" height="1.601" transform="translate(130.747 132.343)" fill="#083273"/>
          <path id="Path_1030978" data-name="Path 1030978" d="M228.151,190.232a3.2,3.2,0,1,0,3.2-3.2,3.2,3.2,0,0,0-3.2,3.2" transform="translate(-69.638 -57.089)" fill="#6981f7"/>
          <rect id="Rectangle_458713" data-name="Rectangle 458713" width="21.128" height="1.601" transform="translate(167.963 132.343)" fill="#083273"/>
          <line id="Line_3378" data-name="Line 3378" x2="118.518" transform="translate(84.08 140.893)" fill="none" stroke="#6981f7" stroke-miterlimit="10" stroke-width="1"/>
          <path id="Path_1030979" data-name="Path 1030979" d="M310.144,357.905h51.57a.869.869,0,0,0,.868-.87V331a.871.871,0,0,0-.868-.871h-51.57a.869.869,0,0,0-.868.871v26.038a.868.868,0,0,0,.868.87" transform="translate(-94.4 -100.765)" fill="#d7eff5"/>
          <rect id="Rectangle_458714" data-name="Rectangle 458714" width="44.406" height="1.554" transform="translate(219.878 238.36)" fill="#083273"/>
          <rect id="Rectangle_458715" data-name="Rectangle 458715" width="22.145" height="1.554" transform="translate(219.878 242.334)" fill="#6981f7"/>
          <rect id="Rectangle_458716" data-name="Rectangle 458716" width="20.634" height="1.554" transform="translate(243.65 242.334)" fill="#6981f7"/>
          <rect id="Rectangle_458717" data-name="Rectangle 458717" width="8.697" height="1.554" transform="translate(219.879 246.304)" fill="#6981f7"/>
          <rect id="Rectangle_458718" data-name="Rectangle 458718" width="17.935" height="1.554" transform="translate(230.107 246.304)" fill="#6981f7"/>
          <path id="Path_1030980" data-name="Path 1030980" d="M213,420.2a3.623,3.623,0,0,1-3.295,3.88H163.036a3.932,3.932,0,0,1,0-7.76h46.673A3.623,3.623,0,0,1,213,420.2" transform="translate(-48.758 -127.072)" fill="#5f78ab"/>
          <path id="Path_1030981" data-name="Path 1030981" d="M273.236,318.289l-40.971,5.928a.693.693,0,0,1-.784-.586l-5.033-34.791a.692.692,0,0,1,.585-.784L268,282.128a.693.693,0,0,1,.784.586l5.033,34.791a.691.691,0,0,1-.585.784" transform="translate(-69.116 -86.112)" fill="#fff"/>
          <path id="Path_1030982" data-name="Path 1030982" d="M270.415,309.422l-35.742,5.171a.674.674,0,0,1-.763-.571l-3.151-21.775a.672.672,0,0,1,.57-.762l35.743-5.172a.672.672,0,0,1,.764.57l3.151,21.775a.675.675,0,0,1-.571.764" transform="translate(-70.432 -87.389)" fill="#6981f7"/>
          <path id="Path_1030983" data-name="Path 1030983" d="M253.539,299.518,255,309.612a1.24,1.24,0,0,0,2.1.7l6.058-6.028a1.241,1.241,0,0,0-.285-1.97l-7.518-4.064a1.239,1.239,0,0,0-1.817,1.267" transform="translate(-77.384 -90.989)" fill="#fbd131"/>
          <line id="Line_3379" data-name="Line 3379" y1="5.365" x2="37.078" transform="translate(164.275 226.787)" fill="none" stroke="#083273" stroke-miterlimit="10" stroke-width="0.951"/>
          <path id="Path_1030984" data-name="Path 1030984" d="M244.028,332.327a1.35,1.35,0,1,1-1.531-1.142,1.35,1.35,0,0,1,1.531,1.142" transform="translate(-73.664 -101.083)" fill="#fc2863"/>
          <path id="Path_1030985" data-name="Path 1030985" d="M193.195,347.16a2.478,2.478,0,1,1-4.911.67l-1.617-10.716a2.479,2.479,0,1,1,4.913-.668Z" transform="translate(-56.969 -102.038)" fill="#e5ab81"/>
          <path id="Path_1030986" data-name="Path 1030986" d="M191.2,333.1a2.479,2.479,0,1,1-4.23-2.586l6.568-10.676a2.479,2.479,0,1,1,4.231,2.586Z" transform="translate(-56.958 -97.263)" fill="#e5ab81"/>
          <path id="Path_1030987" data-name="Path 1030987" d="M193.631,351.874s2.982,4.684,2.271,5.606c-.726.94-1.665-.969-1.665-.969s.295,3.4-1.986,4.835-4.984-2.682-3.419-9.914Z" transform="translate(-57.495 -107.268)" fill="#e5ab81"/>
          <path id="Path_1030988" data-name="Path 1030988" d="M192.558,356.521a2.332,2.332,0,0,0,.816.962,2.61,2.61,0,0,0,2.1.24.237.237,0,1,0-.152-.448,2.15,2.15,0,0,1-1.69-.19,2.758,2.758,0,0,1-.993-2.2.236.236,0,1,0-.471.04,4.522,4.522,0,0,0,.392,1.6" transform="translate(-58.655 -108.256)" fill="#dc8a6e"/>
          <path id="Path_1030989" data-name="Path 1030989" d="M189.314,361.334a.226.226,0,0,1-.024-.094.237.237,0,0,1,.23-.245l3.944-.131a.237.237,0,0,1,.016.473l-.315.01-.07,2.428a3.66,3.66,0,0,1-.431.352.2.2,0,0,1-.026-.029.24.24,0,0,1-.024-.11l.078-2.626-1.018.034-.038,3.108a1.58,1.58,0,0,1-.47-.068l.036-3.025-.9.029-.1,2.357v0a3.676,3.676,0,0,1-.446-.578l.075-1.765-.3.01a.233.233,0,0,1-.22-.133" transform="translate(-57.777 -110.146)" fill="#dc8a6e"/>
          <path id="Path_1030990" data-name="Path 1030990" d="M194.61,330.187l4.766-6.883a3.431,3.431,0,1,0-5.679-3.85l-4.767,6.884Z" transform="translate(-57.667 -97.047)" fill="#ce1750"/>
          <rect id="Rectangle_458719" data-name="Rectangle 458719" width="5.974" height="6.435" transform="translate(122.819 282.789) rotate(-71.923)" fill="#e5ab81"/>
          <path id="Path_1030991" data-name="Path 1030991" d="M173.749,411.932s-1.289-6.656,5.5-5.076,11.627,9.5,7.679,9.245c-3.3-.213-13.176-4.169-13.176-4.169" transform="translate(-53.004 -124.111)" fill="#29354a"/>
          <path id="Path_1030992" data-name="Path 1030992" d="M188.02,418.977a.325.325,0,0,1-.415.2l-15.14-4.39a.325.325,0,0,1-.2-.415l.4-1.121a.324.324,0,0,1,.414-.2l15.14,4.387a.326.326,0,0,1,.2.417Z" transform="translate(-52.575 -126.071)" fill="#8894a5"/>
          <path id="Path_1030993" data-name="Path 1030993" d="M195.956,355.512l-10.918,32.806-8.084-1.882,6.783-19.117s2.834-14.9,4.109-17.433l9.2,2.8Z" transform="translate(-54.012 -106.796)" fill="#222d3d"/>
          <rect id="Rectangle_458720" data-name="Rectangle 458720" width="6.436" height="5.973" transform="translate(139.993 280.743) rotate(-6.633)" fill="#e5ab81"/>
          <path id="Path_1030994" data-name="Path 1030994" d="M202.3,417.308s-3.954-5.507,2.872-6.907,14.534,3.771,10.84,5.188c-3.083,1.184-13.712,1.719-13.712,1.719" transform="translate(-61.402 -125.194)" fill="#29354a"/>
          <path id="Path_1030995" data-name="Path 1030995" d="M217.9,417.6a.325.325,0,0,1-.294.354L202.02,420.3a.325.325,0,0,1-.354-.294l-.108-1.184a.325.325,0,0,1,.294-.354l15.589-2.339a.327.327,0,0,1,.354.295Z" transform="translate(-61.521 -127.014)" fill="#8894a5"/>
          <path id="Path_1030996" data-name="Path 1030996" d="M202.731,355.235l3.791,34.365-8.132,1.667-1.826-20.2s-3.652-14.717-3.552-17.555l9.531-1.3Z" transform="translate(-58.912 -107.505)" fill="#29354a"/>
          <rect id="Rectangle_458721" data-name="Rectangle 458721" width="5.649" height="7.129" transform="translate(138.82 216.038)" fill="#dc8a6e"/>
          <path id="Path_1030997" data-name="Path 1030997" d="M189.235,342.545a20.936,20.936,0,0,0,13.722,1.465l.749-4.1c7.673-23.075-5.177-22.629-5.177-22.629-9.475-1.038-6.356,16.415-6.356,16.415.3,3.295-4.016,8.312-2.938,8.846" transform="translate(-57.707 -96.831)" fill="#fc2863"/>
          <path id="Path_1030998" data-name="Path 1030998" d="M204.506,317.994l-.023-.009-.115-.044c-.05-.017-.1-.036-.147-.051a4.749,4.749,0,0,0-2.738,1.008s-4.111,3.172,3.3,10.893a19.948,19.948,0,0,1,3.579,6.25q.133-.515.25-1.01c.019-.081.035-.156.053-.236.057-.247.113-.491.165-.732.021-.1.04-.2.061-.3.045-.217.088-.431.128-.642.019-.1.038-.2.056-.3.039-.208.075-.413.108-.615.015-.092.03-.186.044-.276.033-.211.064-.418.092-.623.01-.075.022-.152.031-.226.031-.236.058-.464.083-.69,0-.042.01-.084.015-.124.058-.552.1-1.078.122-1.584.331-7.189-2.727-9.771-5.063-10.695" transform="translate(-61.152 -97.03)" fill="#ce1750"/>
          <path id="Path_1030999" data-name="Path 1030999" d="M209.859,298.149c.531,4.954-2.457,9.352-6.674,9.822s-8.069-3.167-8.6-8.123,2.457-9.352,6.675-9.821,8.067,3.165,8.6,8.121" transform="translate(-59.374 -88.513)" fill="#e5ab81"/>
          <path id="Path_1031000" data-name="Path 1031000" d="M215.886,305.338a2.794,2.794,0,0,1,1.159,2.369l-1.663-.007a5.45,5.45,0,0,1,.5-2.362" transform="translate(-65.741 -93.198)" fill="#e5ab81"/>
          <path id="Path_1031001" data-name="Path 1031001" d="M201.115,289.627c-4.36.485-7.449,5.031-6.9,10.151a9.93,9.93,0,0,0,3.78,6.941c-.336-1.346.461-5.5,3.45-9.233,2.245-2.8,8.395-.19,8.395-.19-.547-4.682-4.451-8.146-8.726-7.67" transform="translate(-59.261 -88.389)" fill="#29354a"/>
          <path id="Path_1031002" data-name="Path 1031002" d="M210.1,295.51c-.939.606-3.133,1.167-4.1,2.475h0c2.668-1.447,7.456.586,7.456.586a9.2,9.2,0,0,0-2.037-4.809,4.7,4.7,0,0,1-1.319,1.747" transform="translate(-62.876 -89.665)" fill="#222d3d"/>
          <path id="Path_1031003" data-name="Path 1031003" d="M212.347,295.01a2.638,2.638,0,0,0,.867-2.142c0-1.493,2.985-.386,2.985.963s-.695,4.1-1.194,4.25a16.479,16.479,0,0,0-3.934-1.039,8.081,8.081,0,0,1,1.276-2.032" transform="translate(-64.425 -89.174)" fill="#29354a"/>
          <path id="Path_1031004" data-name="Path 1031004" d="M203.353,301.915s-.44,3.286,0,4.29,1.775,1.456,2.265.878,1.3-2.054,2.662-1.6a23.711,23.711,0,0,1,3.539,1.315c.161.225-1.669,4.074-2.792,4.719a6.2,6.2,0,0,1-5.869.3c-1.858-.82-.918-7.378-.382-9.7Z" transform="translate(-61.674 -92.153)" fill="#29354a"/>
          <path id="Path_1031005" data-name="Path 1031005" d="M202.053,304.249a1.607,1.607,0,1,1-1.546-2.045,1.848,1.848,0,0,1,1.546,2.045" transform="translate(-60.729 -92.242)" fill="#e5ab81"/>
          <path id="Path_1031006" data-name="Path 1031006" d="M213.876,304.9c0,.505.258.915.576.915s.577-.41.577-.915-.258-.914-.577-.914-.576.409-.576.914" transform="translate(-65.281 -92.784)" fill="#29354a"/>
          <path id="Path_1031007" data-name="Path 1031007" d="M213.094,302.792a1.56,1.56,0,0,1,2.1,0" transform="translate(-65.043 -92.294)" fill="none" stroke="#29354a" stroke-linecap="round" stroke-linejoin="round" stroke-width="0.554"/>
          <path id="Path_1031008" data-name="Path 1031008" d="M214.134,310.649a2.592,2.592,0,0,1-2.229-.292" transform="translate(-64.68 -94.73)" fill="none" stroke="#ff4462" stroke-linecap="round" stroke-linejoin="round" stroke-width="0.583"/>
          <path id="Path_1031009" data-name="Path 1031009" d="M227.242,334.2a2.479,2.479,0,1,1-.732,4.9l-10.74-1.445a2.479,2.479,0,1,1,.733-4.9Z" transform="translate(-65.214 -101.56)" fill="#e5ab81"/>
          <path id="Path_1031010" data-name="Path 1031010" d="M214,329.417a2.479,2.479,0,1,1-3.665,3.339l-8.414-9.293a2.48,2.48,0,1,1,3.667-3.339Z" transform="translate(-61.435 -97.464)" fill="#e5ab81"/>
          <path id="Path_1031011" data-name="Path 1031011" d="M232.118,333.851s4.663-2.96,5.578-2.251c.934.723-.966,1.654-.966,1.654s3.376-.286,4.806,1.982-2.676,4.954-9.867,3.386Z" transform="translate(-70.713 -101.181)" fill="#e5ab81"/>
          <path id="Path_1031012" data-name="Path 1031012" d="M244.336,336.471c-.011.008-.017.019-.03.024a.25.25,0,0,1-.108.024l-2.816-.088a.234.234,0,1,1,.016-.468l2.587.078a3.533,3.533,0,0,1,.352.43" transform="translate(-73.608 -102.546)" fill="#dc8a6e"/>
          <path id="Path_1031013" data-name="Path 1031013" d="M241.463,338.333a.233.233,0,0,1,.238-.23l3.1.042a1.529,1.529,0,0,1-.069.468l-3.038-.041a.234.234,0,0,1-.232-.239" transform="translate(-73.702 -103.199)" fill="#dc8a6e"/>
          <path id="Path_1031014" data-name="Path 1031014" d="M241.483,340.284a.235.235,0,0,1,.246-.224l2.375.107h0a3.571,3.571,0,0,1-.577.444l-1.822-.081a.236.236,0,0,1-.224-.247" transform="translate(-73.708 -103.796)" fill="#dc8a6e"/>
          <path id="Path_1031015" data-name="Path 1031015" d="M211.957,325.634l-5.275-6.5a3.43,3.43,0,1,0-5.284,4.376l5.275,6.5Z" transform="translate(-61.232 -97.029)" fill="#fc2863"/>
          <path id="Path_1031016" data-name="Path 1031016" d="M83.358,420.2a3.623,3.623,0,0,1-3.294,3.88H33.39a3.932,3.932,0,0,1,0-7.76H80.064a3.623,3.623,0,0,1,3.294,3.88" transform="translate(-9.186 -127.072)" fill="#5f78ab"/>
          <rect id="Rectangle_458722" data-name="Rectangle 458722" width="0.777" height="189.936" transform="translate(28.669 0.052)" fill="#6981f7"/>
          <rect id="Rectangle_458723" data-name="Rectangle 458723" width="0.777" height="189.937" transform="translate(54.366 -0.001)" fill="#6981f7"/>
          <rect id="Rectangle_458724" data-name="Rectangle 458724" width="32.387" height="4.375" transform="translate(25.857 183.699)" fill="#0148a2"/>
          <rect id="Rectangle_458725" data-name="Rectangle 458725" width="32.387" height="1.482" transform="translate(25.857 186.592)" fill="#083273"/>
          <path id="Path_1031017" data-name="Path 1031017" d="M94.489,277.595a2.525,2.525,0,0,1-4.133,2.9L79.541,265.022a2.525,2.525,0,1,1,4.135-2.9Z" transform="translate(-24.138 -79.679)" fill="#dc8a6e"/>
          <path id="Path_1031018" data-name="Path 1031018" d="M52.881,253.516s-.913,5.216,6.185,6.893c7.365,1.74,13.007,3.394,13.007,3.394s5.412-2.018,3.427-5.887c0,0-14.3-8.086-17.316-8.216s-5.2,1.912-5.3,3.816" transform="translate(-16.129 -76.214)" fill="#222d3d"/>
          <path id="Path_1031019" data-name="Path 1031019" d="M97.237,291.449s-5.409-2.736-.573-6.663,12.515-2.746,10.738-.361c-1.763,2.371-10.164,7.023-10.164,7.023" transform="translate(-28.891 -86.145)" fill="#29354a"/>
          <path id="Path_1031020" data-name="Path 1031020" d="M109.14,284.331a.285.285,0,0,1-.1.39l-11.425,7.89a.284.284,0,0,1-.392-.091l-.536-.877a.285.285,0,0,1,.1-.39l11.425-7.891a.287.287,0,0,1,.392.092Z" transform="translate(-29.5 -86.478)" fill="#8894a5"/>
          <path id="Path_1031021" data-name="Path 1031021" d="M67.7,252.693a15.444,15.444,0,0,1-3.375,5.4l-4.546-6.245Z" transform="translate(-18.247 -76.871)" fill="#29354a"/>
          <path id="Path_1031022" data-name="Path 1031022" d="M83.822,285.084a2.524,2.524,0,1,1-5.046.168l-.591-18.869a2.525,2.525,0,1,1,5.047-.167Z" transform="translate(-23.864 -80.512)" fill="#e5ab81"/>
          <path id="Path_1031023" data-name="Path 1031023" d="M52.661,252.919s-1.544,5.066,5.3,7.6a127.686,127.686,0,0,1,12.2,5.217s5.022-1.414,4.414-5.685c0,0-13.2-9.768-16.184-10.267s-5.391,1.264-5.729,3.14" transform="translate(-16.028 -76.214)" fill="#29354a"/>
          <path id="Path_1031024" data-name="Path 1031024" d="M77.741,299.158s-3.032-5.249,3.165-5.892,11.98,4.546,9.186,5.571c-2.772,1.019-12.351.32-12.351.32" transform="translate(-23.503 -89.497)" fill="#29354a"/>
          <path id="Path_1031025" data-name="Path 1031025" d="M91.192,301.106a.286.286,0,0,1-.3.273l-13.879.356a.285.285,0,0,1-.279-.29l.032-1.028a.284.284,0,0,1,.295-.273l13.88-.356a.284.284,0,0,1,.278.29Z" transform="translate(-23.423 -91.504)" fill="#8894a5"/>
          <path id="Path_1031026" data-name="Path 1031026" d="M87.968,231.341a2.216,2.216,0,1,1,1.506,4.168l-8.448,3a2.216,2.216,0,1,1-1.5-4.169Z" transform="translate(-23.824 -70.572)" fill="#dc8a6e"/>
          <path id="Path_1031027" data-name="Path 1031027" d="M78.406,232.367a2.216,2.216,0,1,1-3.274,2.988l-7.971-8.839a2.217,2.217,0,0,1,3.276-2.989Z" transform="translate(-20.323 -68.006)" fill="#dc8a6e"/>
          <path id="Path_1031028" data-name="Path 1031028" d="M92.219,229.86s3.278-3.942,4.29-3.577c1.031.374-.384,1.738-.384,1.738s2.9-1.216,4.811.382-.952,5.139-7.752,5.8Z" transform="translate(-28.148 -69.061)" fill="#dc8a6e"/>
          <path id="Path_1031029" data-name="Path 1031029" d="M97.054,231.467a2.15,2.15,0,0,0,.616-.989,2.407,2.407,0,0,0-.38-1.912.218.218,0,1,0-.351.26,1.989,1.989,0,0,1,.309,1.54,2.546,2.546,0,0,1-1.655,1.493.218.218,0,0,0,.168.4,4.182,4.182,0,0,0,1.293-.795" transform="translate(-29.137 -69.738)" fill="#c6745d"/>
          <path id="Path_1031030" data-name="Path 1031030" d="M101.713,232.827a.223.223,0,0,1-.076.048.218.218,0,0,1-.279-.133l-1.227-3.431a.218.218,0,1,1,.411-.147l.1.274,2.154-.622a3.167,3.167,0,0,1,.431.279c-.008.01-.01.022-.019.031a.225.225,0,0,1-.09.051l-2.331.673.318.885,2.744-.843a1.464,1.464,0,0,1,.072.433l-2.669.821.278.78,2.1-.574h0a3.376,3.376,0,0,1-.383.555l-1.573.431.092.259a.216.216,0,0,1-.055.231" transform="translate(-30.559 -69.841)" fill="#c6745d"/>
          <path id="Path_1031031" data-name="Path 1031031" d="M71.27,232.037,76.217,228l-4.955-5.327a3.188,3.188,0,1,0-4.711,4.3Z" transform="translate(-20.059 -67.649)" fill="#ce1750"/>
          <path id="Path_1031032" data-name="Path 1031032" d="M92.508,226.673a10.908,10.908,0,1,0,10.907-10.909,10.907,10.907,0,0,0-10.907,10.909" transform="translate(-28.236 -65.858)" fill="#fff"/>
          <path id="Path_1031033" data-name="Path 1031033" d="M101.453,225.627a4.694,4.694,0,1,0,4.693-4.693,4.693,4.693,0,0,0-4.693,4.693" transform="translate(-30.966 -67.436)" fill="#fbd131"/>
          <path id="Path_1031034" data-name="Path 1031034" d="M105.039,243.091a10.864,10.864,0,0,1-7.21-2.725,7.244,7.244,0,0,1,14.421,0,10.868,10.868,0,0,1-7.211,2.725" transform="translate(-29.86 -71.368)" fill="#fbd131"/>
          <path id="Path_1031035" data-name="Path 1031035" d="M92.508,226.673a10.908,10.908,0,1,0,10.907-10.909A10.907,10.907,0,0,0,92.508,226.673Z" transform="translate(-28.236 -65.858)" fill="none" stroke="#6981f7" stroke-miterlimit="10" stroke-width="1"/>
          <rect id="Rectangle_458726" data-name="Rectangle 458726" width="5.051" height="6.374" transform="translate(43.958 148.02)" fill="#dc8a6e"/>
          <path id="Path_1031036" data-name="Path 1031036" d="M53.818,241.341a18.7,18.7,0,0,0,12.267,1.31l.67-3.664c6.861-20.628-4.629-20.231-4.629-20.231-8.47-.927-5.682,14.677-5.682,14.677.264,2.946-3.59,7.431-2.627,7.908" transform="translate(-16.38 -66.759)" fill="#fc2863"/>
          <path id="Path_1031037" data-name="Path 1031037" d="M71.8,221.989s4.807,6.422,3.334,9.088-2.6,2.526-4.139,6.1c0,0-4.632-20.069.805-15.19" transform="translate(-21.107 -67.524)" fill="#fc2863"/>
          <path id="Path_1031038" data-name="Path 1031038" d="M73.026,239.28a7.158,7.158,0,0,1-4.124.463,7.878,7.878,0,0,0,3.764,1.164q.2-.843.36-1.626" transform="translate(-21.031 -73.035)" fill="#ce1750"/>
          <path id="Path_1031039" data-name="Path 1031039" d="M62.784,218.74c-8-.42-5.309,14.7-5.309,14.7.012.125.015.252.024.379l0,0c10.8-3,11.539-7.251,11.539-7.251-3.188-5.489-5.6-7.252-6.258-7.822" transform="translate(-17.41 -66.763)" fill="#ce1750"/>
          <path id="Path_1031040" data-name="Path 1031040" d="M81.762,231.35a2.216,2.216,0,1,1,.906,4.339l-9.37,2.038a2.217,2.217,0,1,1-.906-4.34Z" transform="translate(-21.558 -70.6)" fill="#e5ab81"/>
          <path id="Path_1031041" data-name="Path 1031041" d="M71.594,231.056a2.216,2.216,0,1,1-3.577,2.618l-6.94-9.3a2.217,2.217,0,1,1,3.578-2.617Z" transform="translate(-18.512 -67.409)" fill="#e5ab81"/>
          <path id="Path_1031042" data-name="Path 1031042" d="M85.312,230.046s3.278-3.942,4.289-3.577c1.031.372-.384,1.736-.384,1.736s2.9-1.214,4.811.384-.953,5.139-7.753,5.8Z" transform="translate(-26.04 -69.118)" fill="#e5ab81"/>
          <path id="Path_1031043" data-name="Path 1031043" d="M96.409,229.28c-.008.01-.01.022-.019.031a.225.225,0,0,1-.09.051l-2.512.724a.218.218,0,0,1-.119-.419L95.977,229a3.327,3.327,0,0,1,.432.279" transform="translate(-28.542 -69.898)" fill="#dc8a6e"/>
          <path id="Path_1031044" data-name="Path 1031044" d="M94.4,231.665a.216.216,0,0,1,.145-.271l2.753-.846a1.463,1.463,0,0,1,.072.433l-2.7.829a.218.218,0,0,1-.273-.145" transform="translate(-28.811 -70.37)" fill="#dc8a6e"/>
          <path id="Path_1031045" data-name="Path 1031045" d="M94.975,233.5a.218.218,0,0,1,.153-.267l2.129-.581h0a3.461,3.461,0,0,1-.383.555l-1.633.447a.218.218,0,0,1-.269-.154" transform="translate(-28.987 -71.012)" fill="#dc8a6e"/>
          <path id="Path_1031046" data-name="Path 1031046" d="M64.517,230.348l5.354-3.481-4.352-5.829a3.188,3.188,0,1,0-5.146,3.765Z" transform="translate(-18.24 -67.068)" fill="#fc2863"/>
          <path id="Path_1031047" data-name="Path 1031047" d="M56.437,211.82a3.671,3.671,0,1,1-3.671-3.67,3.671,3.671,0,0,1,3.671,3.67" transform="translate(-14.985 -63.534)" fill="#29354a"/>
          <path id="Path_1031048" data-name="Path 1031048" d="M59.382,209.5c.482,1.332.285,2.623-.44,2.887s-1.7-.605-2.186-1.937-.286-2.625.44-2.887,1.7.605,2.186,1.937" transform="translate(-17.243 -63.341)" fill="#fc2863"/>
          <path id="Path_1031049" data-name="Path 1031049" d="M71.933,199.994c.51,4.754-2.357,8.973-6.4,9.422s-7.74-3.038-8.25-7.79,2.356-8.973,6.4-9.423,7.74,3.038,8.25,7.791" transform="translate(-17.466 -58.654)" fill="#ffb985"/>
          <path id="Path_1031050" data-name="Path 1031050" d="M71.933,199.994c.51,4.754-2.357,8.973-6.4,9.422s-7.74-3.038-8.25-7.79,2.356-8.973,6.4-9.423,7.74,3.038,8.25,7.791" transform="translate(-17.466 -58.654)" fill="#e5ab81"/>
          <path id="Path_1031051" data-name="Path 1031051" d="M77.493,207.9a2.683,2.683,0,0,1,1.112,2.272l-1.6,0a5.224,5.224,0,0,1,.484-2.267" transform="translate(-23.505 -63.457)" fill="#e5ab81"/>
          <path id="Path_1031052" data-name="Path 1031052" d="M71.83,198.661a7.964,7.964,0,0,0-8.262-6.8c-4.167.463-7.12,4.809-6.595,9.705a9.439,9.439,0,0,0,3.834,6.794c-.9-1.465-.368-6.318,2.179-7.635a10.335,10.335,0,0,0,3.82-3.43A9,9,0,0,1,64.52,201.1c5.806-1.063,5.2-4.37,5.2-4.37a17.188,17.188,0,0,1,2.114,1.929" transform="translate(-17.372 -58.55)" fill="#29354a"/>
          <path id="Path_1031053" data-name="Path 1031053" d="M64.445,205.847a1.541,1.541,0,1,1-1.483-1.962,1.774,1.774,0,0,1,1.483,1.962" transform="translate(-18.766 -62.232)" fill="#e5ab81"/>
          <path id="Path_1031054" data-name="Path 1031054" d="M75.229,206.376c0,.505.258.915.577.915s.577-.41.577-.915-.258-.914-.577-.914-.577.409-.577.914" transform="translate(-22.962 -62.713)" fill="#29354a"/>
          <path id="Path_1031055" data-name="Path 1031055" d="M74.448,204.275a1.56,1.56,0,0,1,2.1,0" transform="translate(-22.724 -62.224)" fill="none" stroke="#29354a" stroke-linecap="round" stroke-linejoin="round" stroke-width="0.554"/>
          <path id="Path_1031056" data-name="Path 1031056" d="M75.488,212.131a2.592,2.592,0,0,1-2.229-.292" transform="translate(-22.361 -64.66)" fill="none" stroke="#ff4462" stroke-linecap="round" stroke-linejoin="round" stroke-width="0.583"/>
          <path id="Path_1031057" data-name="Path 1031057" d="M396.037,420.2a3.623,3.623,0,0,1-3.293,3.88H346.069a3.932,3.932,0,0,1,0-7.76h46.675a3.623,3.623,0,0,1,3.293,3.88" transform="translate(-104.625 -127.072)" fill="#5f78ab"/>
          <path id="Path_1031058" data-name="Path 1031058" d="M372.7,254.952s-1.707,5.071-2.557,5.63c0,0,4.071.2,6.263-1.13a49.2,49.2,0,0,0,.3-5.082Z" transform="translate(-112.979 -77.641)" fill="#222d3d"/>
          <path id="Path_1031059" data-name="Path 1031059" d="M384.8,314.15l8.1,25.7,6.031-1.966-7.761-25.522Z" transform="translate(-117.453 -95.342)" fill="#e5ab81"/>
          <path id="Path_1031060" data-name="Path 1031060" d="M401.768,353.933s1.273-6.561-5.419-5-11.46,9.364-7.569,9.113c3.249-.21,12.987-4.109,12.987-4.109" transform="translate(-118.24 -106.431)" fill="#29354a"/>
          <path id="Path_1031061" data-name="Path 1031061" d="M387.054,360.875a.32.32,0,0,0,.41.2l14.924-4.326a.321.321,0,0,0,.2-.409l-.391-1.1a.32.32,0,0,0-.409-.2L386.86,359.36a.325.325,0,0,0-.2.412Z" transform="translate(-118.016 -108.362)" fill="#8894a5"/>
          <path id="Path_1031062" data-name="Path 1031062" d="M395.409,325.543c-.847-4.26-8.934-30.9-9.873-32.772l-9.07,2.762,1.075,2.784,8.644,29.406Z" transform="translate(-114.908 -89.362)" fill="#222d3d"/>
          <path id="Path_1031063" data-name="Path 1031063" d="M373.736,313.522l-3,27.812,6.3.735,3.832-27.607Z" transform="translate(-113.159 -95.696)" fill="#e5ab81"/>
          <path id="Path_1031064" data-name="Path 1031064" d="M373.138,359.231s3.9-5.428-2.832-6.809-14.326,3.718-10.685,5.116c3.04,1.166,13.517,1.692,13.517,1.692" transform="translate(-109.479 -107.498)" fill="#29354a"/>
          <path id="Path_1031065" data-name="Path 1031065" d="M357.529,359.522a.321.321,0,0,0,.29.349l15.365,2.306a.32.32,0,0,0,.349-.289l.107-1.167a.322.322,0,0,0-.29-.349l-15.367-2.307a.324.324,0,0,0-.349.29Z" transform="translate(-109.128 -109.292)" fill="#8894a5"/>
          <path id="Path_1031066" data-name="Path 1031066" d="M378.057,329.09c.965-4.72,4.452-31.048,4.808-32.745l-9.4-1.283-.184,2.981-4.709,29.711Z" transform="translate(-112.5 -90.062)" fill="#29354a"/>
          <path id="Path_1031067" data-name="Path 1031067" d="M366.871,278.989a2.443,2.443,0,1,0,4.443,2.035l4.764-10.456a2.445,2.445,0,0,0-4.445-2.036Z" transform="translate(-111.912 -81.528)" fill="#dc8a6e"/>
          <path id="Path_1031068" data-name="Path 1031068" d="M354.494,287.345a2.444,2.444,0,1,0,2.336,4.294l9.342-4.953a2.444,2.444,0,1,0-2.337-4.292Z" transform="translate(-107.812 -86.104)" fill="#dc8a6e"/>
          <path id="Path_1031069" data-name="Path 1031069" d="M352.723,289.765s-5.084-.661-5.578.295c-.5.975,1.462,1.012,1.462,1.012s-2.954,1.082-3.266,3.552,4.192,3.12,9.629-1.019Z" transform="translate(-105.404 -88.377)" fill="#dc8a6e"/>
          <path id="Path_1031070" data-name="Path 1031070" d="M351.882,293.639a2.152,2.152,0,0,1-1.123-.306,2.411,2.411,0,0,1-1.022-1.661.218.218,0,1,1,.434-.047,1.983,1.983,0,0,0,.82,1.338,2.544,2.544,0,0,0,2.228-.031.219.219,0,0,1,.281.13.216.216,0,0,1-.129.28,4.162,4.162,0,0,1-1.489.3" transform="translate(-106.75 -88.953)" fill="#c6745d"/>
          <path id="Path_1031071" data-name="Path 1031071" d="M349.037,297.439a.211.211,0,0,0,.09-.016.219.219,0,0,0,.114-.288l-1.434-3.35a.218.218,0,1,0-.4.172l.114.267-2,1.009a3.037,3.037,0,0,0-.126.5.252.252,0,0,0,.034.01.2.2,0,0,0,.1-.024l2.166-1.091.37.864-2.585,1.248a1.459,1.459,0,0,0,.242.368l2.516-1.214.326.761-1.931,1.008v0a3.415,3.415,0,0,0,.659.147l1.447-.753.107.253a.217.217,0,0,0,.2.131" transform="translate(-105.424 -89.631)" fill="#c6745d"/>
          <path id="Path_1031072" data-name="Path 1031072" d="M339.572,279.092l-27.942-6.939a.566.566,0,0,1-.412-.687l6.939-27.941a.566.566,0,0,1,.686-.413l27.94,6.939a.568.568,0,0,1,.414.686l-6.94,27.942a.567.567,0,0,1-.686.413" transform="translate(-94.988 -74.2)" fill="#fff"/>
          <path id="Path_1031073" data-name="Path 1031073" d="M339.069,277.242,316.351,271.6a.525.525,0,0,1-.383-.637l5.642-22.717a.525.525,0,0,1,.636-.383l22.717,5.642a.526.526,0,0,1,.383.636L339.7,276.859a.524.524,0,0,1-.635.384" transform="translate(-96.438 -75.651)" fill="#6981f7"/>
          <path id="Path_1031074" data-name="Path 1031074" d="M341.127,270.342a9.008,9.008,0,1,1-6.57-10.913,9.008,9.008,0,0,1,6.57,10.913" transform="translate(-98.704 -79.104)" fill="#859fff"/>
          <path id="Path_1031075" data-name="Path 1031075" d="M342.438,262.756a4.18,4.18,0,1,1-3.049-5.063,4.18,4.18,0,0,1,3.049,5.063" transform="translate(-102.008 -78.618)" fill="#fbd131"/>
          <path id="Path_1031076" data-name="Path 1031076" d="M343.842,284.013l1.312-5.282-2.68-6.262a1.173,1.173,0,0,0-1.818-.452l-11.264,9.1,13.78,3.422c.4.1.572-.124.67-.527" transform="translate(-100.54 -82.948)" fill="#083273"/>
          <path id="Path_1031077" data-name="Path 1031077" d="M323.436,261.8l-5.2,4.2-2.225,8.963c-.1.4-.057.688.345.787l17.005,4.223-7.522-17.58a1.552,1.552,0,0,0-2.4-.6" transform="translate(-96.442 -79.805)" fill="#083273"/>
          <rect id="Rectangle_458727" data-name="Rectangle 458727" width="5.568" height="7.027" transform="translate(260.143 176.743)" fill="#dc8a6e"/>
          <path id="Path_1031078" data-name="Path 1031078" d="M385.467,285.535a20.64,20.64,0,0,1-13.526,1.445l-.739-4.041c-7.563-22.745,5.1-22.306,5.1-22.306,9.339-1.022,6.264,16.18,6.264,16.18-.292,3.249,3.958,8.193,2.9,8.721" transform="translate(-112.567 -79.54)" fill="#fc2863"/>
          <path id="Path_1031079" data-name="Path 1031079" d="M373.807,261.335l.023-.01c.038-.013.076-.029.113-.043s.1-.036.145-.051a4.7,4.7,0,0,1,2.7.994s4.052,3.128-3.253,10.737a19.709,19.709,0,0,0-3.527,6.161c-.088-.338-.169-.67-.247-1-.018-.079-.035-.154-.053-.233-.056-.242-.11-.483-.162-.72-.02-.1-.04-.195-.06-.292-.044-.214-.088-.425-.127-.633-.019-.1-.037-.2-.055-.295-.036-.2-.073-.406-.106-.605-.015-.091-.03-.183-.043-.273-.034-.207-.064-.411-.092-.613l-.03-.224c-.031-.231-.058-.456-.083-.679,0-.041-.01-.083-.014-.123-.057-.543-.1-1.062-.121-1.561-.327-7.086,2.688-9.632,4.99-10.541" transform="translate(-112.567 -79.735)" fill="#ce1750"/>
          <path id="Path_1031080" data-name="Path 1031080" d="M363.975,241.035c-.537,5.013,2.484,9.461,6.751,9.937s8.164-3.2,8.7-8.217-2.486-9.462-6.752-9.937-8.161,3.2-8.7,8.216" transform="translate(-111.077 -71.051)" fill="#ffb985"/>
          <path id="Path_1031081" data-name="Path 1031081" d="M363.975,241.035c-.537,5.013,2.484,9.461,6.751,9.937s8.164-3.2,8.7-8.217-2.486-9.462-6.752-9.937-8.161,3.2-8.7,8.216" transform="translate(-111.077 -71.051)" fill="#e5ab81"/>
          <path id="Path_1031082" data-name="Path 1031082" d="M364.736,250.033a2.825,2.825,0,0,0-1.171,2.4l1.682-.006a5.5,5.5,0,0,0-.511-2.39" transform="translate(-110.969 -76.318)" fill="#e5ab81"/>
          <path id="Path_1031083" data-name="Path 1031083" d="M363.635,242.425a8.867,8.867,0,0,1,1.084-5.416,7.981,7.981,0,0,1,7.879-4.6c3.966.441,6.892,4.208,7.036,8.731,0,0,.949,7.387,1.385,9.907s-9.425,2.815-9.425,2.815,2.48-2.191,3.1-8.489l.027-.023a4.213,4.213,0,0,0-.993-3.669,3.89,3.89,0,0,0-.24,2.144,7.072,7.072,0,0,1-1.9-2.972,5.742,5.742,0,0,0-.1,1.567,8.626,8.626,0,0,1-1.277-3.4,4.905,4.905,0,0,1-3.568,2.4,5.17,5.17,0,0,0,.786-1.819,15.185,15.185,0,0,1-3.8,2.826" transform="translate(-110.97 -70.926)" fill="#29354a"/>
          <path id="Path_1031084" data-name="Path 1031084" d="M377.34,247.206a1.625,1.625,0,1,0,1.563-2.069,1.87,1.87,0,0,0-1.563,2.069" transform="translate(-115.175 -74.823)" fill="#e5ab81"/>
          <path id="Path_1031085" data-name="Path 1031085" d="M367.378,248.907c0,.506-.259.915-.577.915s-.578-.409-.578-.915.259-.914.578-.914.577.409.577.914" transform="translate(-111.782 -75.695)" fill="#29354a"/>
          <path id="Path_1031086" data-name="Path 1031086" d="M367.743,246.8a1.562,1.562,0,0,0-2.1,0" transform="translate(-111.604 -75.205)" fill="none" stroke="#29354a" stroke-linecap="round" stroke-linejoin="round" stroke-width="0.554"/>
          <path id="Path_1031087" data-name="Path 1031087" d="M366.647,254.662a2.593,2.593,0,0,0,2.23-.292" transform="translate(-111.912 -77.641)" fill="none" stroke="#ff4462" stroke-linecap="round" stroke-linejoin="round" stroke-width="0.583"/>
          <path id="Path_1031088" data-name="Path 1031088" d="M352.214,266.926a2.443,2.443,0,1,0-1.94,4.485l10.447,4.759a2.444,2.444,0,1,0,1.94-4.486Z" transform="translate(-106.464 -81.412)" fill="#e5ab81"/>
          <path id="Path_1031089" data-name="Path 1031089" d="M364.609,271.033a2.444,2.444,0,1,0,3.613,3.29l6.942-7.6a2.444,2.444,0,1,0-3.613-3.291Z" transform="translate(-111.095 -80.164)" fill="#e5ab81"/>
          <path id="Path_1031090" data-name="Path 1031090" d="M350.517,265.7s-2.809-4.755-3.946-4.54c-1.162.22.109,1.913.109,1.913s-2.878-1.789-5.182-.418.133,5.628,7.251,7.5Z" transform="translate(-103.979 -79.712)" fill="#e5ab81"/>
          <path id="Path_1031091" data-name="Path 1031091" d="M342.075,263.113c.007.013.007.026.016.035a.25.25,0,0,0,.086.07l2.548,1.2a.234.234,0,1,0,.2-.424l-2.34-1.106a3.618,3.618,0,0,0-.509.224" transform="translate(-104.412 -80.242)" fill="#dc8a6e"/>
          <path id="Path_1031092" data-name="Path 1031092" d="M343.752,265.961a.234.234,0,0,0-.107-.313l-2.783-1.372a1.515,1.515,0,0,0-.151.449l2.726,1.343a.234.234,0,0,0,.315-.107" transform="translate(-103.995 -80.665)" fill="#dc8a6e"/>
          <path id="Path_1031093" data-name="Path 1031093" d="M343.181,267.858a.234.234,0,0,0-.117-.311l-2.164-.983h0a3.55,3.55,0,0,0,.311.657l1.661.756a.235.235,0,0,0,.311-.118" transform="translate(-104.053 -81.363)" fill="#dc8a6e"/>
          <path id="Path_1031094" data-name="Path 1031094" d="M369.856,265.047l2.211-2.592a3.382,3.382,0,0,1,5.211,4.312l-2.212,2.592Z" transform="translate(-112.891 -79.735)" fill="#fc2863"/>
          <path id="Path_1031095" data-name="Path 1031095" d="M372.539,404.3H374.1l9.046-35.928h-1.558Z" transform="translate(-113.71 -112.439)" fill="#083273"/>
          <path id="Path_1031096" data-name="Path 1031096" d="M353.315,404.3h1.558l9.046-35.928h-1.558Z" transform="translate(-107.842 -112.439)" fill="#083273"/>
          <rect id="Rectangle_458728" data-name="Rectangle 458728" width="12.826" height="1.508" transform="translate(253.964 261.311)" fill="#083273"/>
          <rect id="Rectangle_458729" data-name="Rectangle 458729" width="12.826" height="1.506" transform="translate(252.172 268.542)" fill="#083273"/>
          <rect id="Rectangle_458730" data-name="Rectangle 458730" width="12.828" height="1.508" transform="translate(250.221 276.246)" fill="#083273"/>
          <rect id="Rectangle_458731" data-name="Rectangle 458731" width="12.826" height="1.509" transform="translate(248.205 284.276)" fill="#083273"/>
          <rect id="Rectangle_458732" data-name="Rectangle 458732" width="20.765" height="3.956" transform="translate(254.529 251.981)" fill="#0148a2"/>
          <rect id="Rectangle_458733" data-name="Rectangle 458733" width="20.765" height="1.341" transform="translate(254.529 254.596)" fill="#083273"/>
          <path id="Path_1031097" data-name="Path 1031097" d="M385.369,404.3h-1.558l-9.046-35.928h1.556Z" transform="translate(-114.39 -112.439)" fill="#0148a2"/>
          <path id="Path_1031098" data-name="Path 1031098" d="M404.593,404.3h-1.558l-9.047-35.928h1.558Z" transform="translate(-120.257 -112.439)" fill="#0148a2"/>
          <rect id="Rectangle_458734" data-name="Rectangle 458734" width="12.826" height="1.508" transform="translate(263.02 261.311)" fill="#0148a2"/>
          <rect id="Rectangle_458735" data-name="Rectangle 458735" width="12.826" height="1.506" transform="translate(264.81 268.542)" fill="#0148a2"/>
          <rect id="Rectangle_458736" data-name="Rectangle 458736" width="12.826" height="1.508" transform="translate(266.761 276.246)" fill="#0148a2"/>
          <rect id="Rectangle_458737" data-name="Rectangle 458737" width="12.828" height="1.509" transform="translate(268.777 284.276)" fill="#0148a2"/>
        </g>
      </g>
    </g>
  </g>
</svg>
