<svg xmlns="http://www.w3.org/2000/svg" width="100" height="100" viewBox="0 0 100 100">
  <g id="img37" transform="translate(-185.711 -17766)">
    <rect id="Rectangle_458746" data-name="Rectangle 458746" width="100" height="100" transform="translate(185.711 17766)" fill="#ffd453"/>
    <g id="ux" transform="translate(195.212 17776)">
      <path id="Path_1031099" data-name="Path 1031099" d="M52.395,202.336l5.743-3.756a.568.568,0,0,1,.328-.088,1.152,1.152,0,0,1,1.048,1.092.766.766,0,0,1-.328.633L54.6,203.231l4.586,3.014a.71.71,0,0,1,.328.633,1.129,1.129,0,0,1-1.048,1.07.572.572,0,0,1-.328-.087L52.395,204.1a1.094,1.094,0,0,1-.481-.873A1.132,1.132,0,0,1,52.395,202.336Zm0,0" transform="translate(-43.416 -167.612)"/>
      <path id="Path_1031100" data-name="Path 1031100" d="M126.292,160.583a.639.639,0,0,1-.088.349l-8.014,15.985a.791.791,0,0,1-.72.414.844.844,0,0,1-.852-.808.875.875,0,0,1,.066-.328l8.036-16.05a.665.665,0,0,1,.655-.393.891.891,0,0,1,.918.83Zm0,0" transform="translate(-98.053 -134.9)"/>
      <path id="Path_1031101" data-name="Path 1031101" d="M201.753,204.107l-5.743,3.756a.5.5,0,0,1-.306.088,1.113,1.113,0,0,1-1.048-1.07.747.747,0,0,1,.306-.633l4.608-3.014-4.608-3.013a.809.809,0,0,1-.306-.633A1.134,1.134,0,0,1,195.7,198.5a.5.5,0,0,1,.306.088l5.743,3.756a1.133,1.133,0,0,1,.48.9,1.038,1.038,0,0,1-.48.873Zm0,0" transform="translate(-163.951 -167.615)"/>
      <path id="Path_1031102" data-name="Path 1031102" d="M46.192,137.156v-24.9a4.956,4.956,0,0,0-4.95-4.95H5.45a4.956,4.956,0,0,0-4.95,4.95v24.9a4.956,4.956,0,0,0,4.95,4.95H41.242A4.956,4.956,0,0,0,46.192,137.156Zm-43.359,0v-24.9a2.62,2.62,0,0,1,2.617-2.617H41.242a2.62,2.62,0,0,1,2.617,2.617v24.9a2.62,2.62,0,0,1-2.617,2.617H5.45a2.62,2.62,0,0,1-2.617-2.617Zm0,0" transform="translate(0 -90.614)"/>
      <path id="Path_1031103" data-name="Path 1031103" d="M370.57,368.055a6.081,6.081,0,0,0-6.074,6.073q0,.13.005.259c0,.038-.005.075-.005.114a1.18,1.18,0,0,0,.036.287,6.074,6.074,0,1,0,6.038-6.734Zm0,2.334a3.747,3.747,0,0,1,3.655,2.946h-7.311A3.746,3.746,0,0,1,370.57,370.389Zm0,7.48a3.746,3.746,0,0,1-3.409-2.2h6.817a3.745,3.745,0,0,1-3.408,2.2Zm0,0" transform="translate(-307.368 -310.795)"/>
      <path id="Path_1031104" data-name="Path 1031104" d="M182.253,59.277h-.615a13.214,13.214,0,0,0-.785-1.872l.442-.442a3.257,3.257,0,0,0,0-4.6l-1.134-1.134a3.256,3.256,0,0,0-4.151-.378V4.973A4.978,4.978,0,0,0,171.038,0H130.984a4.978,4.978,0,0,0-4.972,4.972v8.222a1.167,1.167,0,1,0,2.334,0V10.389h45.332V51.035q-.215-.08-.433-.152v-.615a3.258,3.258,0,0,0-3.254-3.255h-1.6a3.258,3.258,0,0,0-3.254,3.255v.548a13.154,13.154,0,0,0-1.942.782l-.372-.372a3.254,3.254,0,0,0-4.6,0L157.08,52.36a3.255,3.255,0,0,0,0,4.6l.305.305a13.168,13.168,0,0,0-.857,2.009h-.407a3.258,3.258,0,0,0-3.254,3.254v.008H128.345V54.993a1.167,1.167,0,1,0-2.334,0V67.835a4.978,4.978,0,0,0,4.972,4.972h25.242a3.232,3.232,0,0,0,.854,1.5l1.134,1.135a3.254,3.254,0,0,0,4.6,0l.233-.234a13.207,13.207,0,0,0,2.081.853v.34a3.258,3.258,0,0,0,3.254,3.255h1.6a3.258,3.258,0,0,0,3.254-3.255v-.407a13.2,13.2,0,0,0,2.009-.857l.305.305a3.254,3.254,0,0,0,4.6,0l1.134-1.134a3.254,3.254,0,0,0,0-4.6l-.373-.373a13.118,13.118,0,0,0,.782-1.942h.549a3.258,3.258,0,0,0,3.255-3.254v-1.6a3.258,3.258,0,0,0-3.255-3.254ZM128.345,8.056V4.973a2.641,2.641,0,0,1,2.639-2.639h40.054a2.642,2.642,0,0,1,2.639,2.639V8.056Zm0,59.779V64.873h24.606a3.26,3.26,0,0,0,3.17,2.517h.34a13.151,13.151,0,0,0,.853,2.081l-.234.233a3.271,3.271,0,0,0-.572.769H130.983a2.641,2.641,0,0,1-2.639-2.639Zm54.83-3.7a.922.922,0,0,1-.921.921h-.876a1.894,1.894,0,0,0-1.818,1.366,10.851,10.851,0,0,1-.851,2.115,1.9,1.9,0,0,0,.338,2.218l.6.6a.922.922,0,0,1,0,1.3l-1.134,1.134a.921.921,0,0,1-1.3,0l-.538-.538a1.888,1.888,0,0,0-2.259-.315,10.806,10.806,0,0,1-2.165.924,1.905,1.905,0,0,0-1.336,1.816V76.4a.922.922,0,0,1-.921.921h-1.6a.922.922,0,0,1-.921-.921v-.665a1.892,1.892,0,0,0-1.363-1.82A10.87,10.87,0,0,1,163.865,73a1.863,1.863,0,0,0-.893-.228,1.912,1.912,0,0,0-1.342.557l-.464.463a.921.921,0,0,1-1.3,0l-1.135-1.135a.9.9,0,0,1-.269-.651,1.092,1.092,0,0,1,.007-.118.888.888,0,0,0,.016-.091.907.907,0,0,1,.247-.442l.464-.464a1.9,1.9,0,0,0,.328-2.236,10.892,10.892,0,0,1-.915-2.235,1.894,1.894,0,0,0-1.821-1.364h-.665a.922.922,0,0,1-.921-.921v-1.6a.922.922,0,0,1,.921-.921h.721a1.906,1.906,0,0,0,1.817-1.336,10.819,10.819,0,0,1,.924-2.164,1.9,1.9,0,0,0-.315-2.26l-.538-.538a.922.922,0,0,1,0-1.3l1.135-1.134a.921.921,0,0,1,1.3,0l.6.6a1.91,1.91,0,0,0,1.341.556,1.853,1.853,0,0,0,.878-.218,10.867,10.867,0,0,1,2.114-.851,1.894,1.894,0,0,0,1.366-1.818v-.876a.922.922,0,0,1,.921-.921h1.6a.922.922,0,0,1,.921.921V51.2a1.9,1.9,0,0,0,1.334,1.809,10.817,10.817,0,0,1,2.016.841l.06.032a1.888,1.888,0,0,0,2.216-.338l.672-.672a.921.921,0,0,1,1.3,0l1.134,1.134a.924.924,0,0,1,0,1.3l-.672.673a1.9,1.9,0,0,0-.325,2.241,10.855,10.855,0,0,1,.859,2.05,1.9,1.9,0,0,0,1.809,1.335h.937a.922.922,0,0,1,.921.921Zm0,0" transform="translate(-105.986)"/>
    </g>
  </g>
</svg>
