<svg xmlns="http://www.w3.org/2000/svg" width="100" height="100" viewBox="0 0 100 100">
  <g id="img36" transform="translate(-1017.711 -17766)">
    <rect id="Rectangle_458744" data-name="Rectangle 458744" width="100" height="100" transform="translate(1017.711 17766)" fill="#ffd453"/>
    <g id="web" transform="translate(1036.711 17781)">
      <path id="Path_1031114" data-name="Path 1031114" d="M329.79,34.264a1.155,1.155,0,1,1-1.155-1.155A1.155,1.155,0,0,1,329.79,34.264Zm0,0" transform="translate(-280.148 -28.324)"/>
      <path id="Path_1031115" data-name="Path 1031115" d="M368.087,34.264a1.155,1.155,0,1,1-1.155-1.155A1.155,1.155,0,0,1,368.087,34.264Zm0,0" transform="translate(-312.909 -28.324)"/>
      <path id="Path_1031116" data-name="Path 1031116" d="M406.384,34.264a1.155,1.155,0,1,1-1.155-1.155A1.155,1.155,0,0,1,406.384,34.264Zm0,0" transform="translate(-345.671 -28.324)"/>
      <path id="Path_1031117" data-name="Path 1031117" d="M99.121,217.267,106.4,212.5a.723.723,0,0,1,.416-.111,1.46,1.46,0,0,1,1.329,1.384.971.971,0,0,1-.416.8l-5.814,3.821,5.814,3.821a.9.9,0,0,1,.416.8,1.432,1.432,0,0,1-1.329,1.357.72.72,0,0,1-.416-.111l-7.281-4.762a1.388,1.388,0,0,1-.609-1.107A1.436,1.436,0,0,1,99.121,217.267Zm0,0" transform="translate(-84.274 -181.695)"/>
      <path id="Path_1031118" data-name="Path 1031118" d="M199.081,160.58a.807.807,0,0,1-.111.443l-10.16,20.266a1,1,0,0,1-.914.526,1.071,1.071,0,0,1-1.08-1.024,1.111,1.111,0,0,1,.083-.416l10.188-20.349a.843.843,0,0,1,.831-.5,1.13,1.13,0,0,1,1.163,1.052Zm0,0" transform="translate(-159.815 -136.47)"/>
      <path id="Path_1031119" data-name="Path 1031119" d="M302.313,219.51l-7.281,4.762a.632.632,0,0,1-.387.111,1.411,1.411,0,0,1-1.329-1.357.945.945,0,0,1,.387-.8l5.842-3.821-5.842-3.821a1.025,1.025,0,0,1-.387-.8,1.438,1.438,0,0,1,1.329-1.384.635.635,0,0,1,.387.111l7.281,4.762a1.435,1.435,0,0,1,.609,1.135A1.315,1.315,0,0,1,302.313,219.51Zm0,0" transform="translate(-250.921 -181.695)"/>
      <path id="Path_1031120" data-name="Path 1031120" d="M39.8,35.766H63.37a1.084,1.084,0,0,0,0-2.168H39.8a1.084,1.084,0,1,0,0,2.168Zm0,0" transform="translate(-33.119 -28.742)"/>
      <path id="Path_1031121" data-name="Path 1031121" d="M41.4,64.139H3.5a1.329,1.329,0,0,1-1.328-1.328V11.88H64.138V41.264a1.084,1.084,0,1,0,2.168,0V3.5A3.5,3.5,0,0,0,62.81,0H3.5A3.5,3.5,0,0,0,0,3.5V62.811a3.5,3.5,0,0,0,3.5,3.5H41.4a1.084,1.084,0,0,0,0-2.168ZM3.5,2.168H62.81A1.329,1.329,0,0,1,64.138,3.5V9.712H2.168V3.5A1.329,1.329,0,0,1,3.5,2.168Zm0,0" transform="translate(0 0)"/>
      <path id="Path_1031122" data-name="Path 1031122" d="M352.657,338.641a7.688,7.688,0,1,0,7.688,7.688A7.7,7.7,0,0,0,352.657,338.641Zm0,13.208a5.52,5.52,0,1,1,5.52-5.52A5.526,5.526,0,0,1,352.657,351.849Zm0,0" transform="translate(-295.108 -289.695)"/>
      <path id="Path_1031123" data-name="Path 1031123" d="M314.65,291.016h-1a.405.405,0,0,1-.389-.28,13.173,13.173,0,0,0-1.04-2.48.408.408,0,0,1,.072-.481l.714-.714a2.582,2.582,0,0,0,0-3.646l-1.2-1.2a2.582,2.582,0,0,0-3.647,0l-.713.714a.41.41,0,0,1-.482.073,13.171,13.171,0,0,0-2.48-1.041.4.4,0,0,1-.28-.389v-.995a2.582,2.582,0,0,0-2.579-2.579h-1.7a2.582,2.582,0,0,0-2.579,2.579v.93a.4.4,0,0,1-.287.391,13.125,13.125,0,0,0-2.558,1.029.406.406,0,0,1-.473-.077l-.636-.636a2.578,2.578,0,0,0-3.647,0l-1.2,1.2a2.578,2.578,0,0,0,0,3.647l.571.571a.4.4,0,0,1,.072.483,13.114,13.114,0,0,0-1.118,2.619.413.413,0,0,1-.4.282H286.9a2.581,2.581,0,0,0-2.579,2.579v1.7a2.582,2.582,0,0,0,2.579,2.579h.706a.4.4,0,0,1,.394.285,13.081,13.081,0,0,0,1.107,2.7.4.4,0,0,1-.077.475l-.492.492a2.581,2.581,0,0,0,0,3.647l1.2,1.2a2.581,2.581,0,0,0,3.647,0l.492-.492a.4.4,0,0,1,.475-.076,13.1,13.1,0,0,0,2.7,1.107.4.4,0,0,1,.285.393v.707a2.582,2.582,0,0,0,2.579,2.579h1.7a2.581,2.581,0,0,0,2.579-2.579v-.766a.412.412,0,0,1,.282-.4,13.128,13.128,0,0,0,2.619-1.118.4.4,0,0,1,.483.072l.571.571a2.582,2.582,0,0,0,3.647,0l1.2-1.2a2.581,2.581,0,0,0,0-3.647l-.636-.636a.407.407,0,0,1-.077-.473,13.117,13.117,0,0,0,1.03-2.559.4.4,0,0,1,.391-.287h.93a2.581,2.581,0,0,0,2.579-2.579v-1.7a2.583,2.583,0,0,0-2.579-2.579Zm.41,4.282a.411.411,0,0,1-.41.411h-.931a2.58,2.58,0,0,0-2.476,1.862,10.95,10.95,0,0,1-.859,2.135,2.558,2.558,0,0,0,.459,3.023l.636.636a.411.411,0,0,1,0,.58l-1.2,1.2a.412.412,0,0,1-.581,0l-.571-.571a2.58,2.58,0,0,0-3.079-.429,10.962,10.962,0,0,1-2.185.933,2.6,2.6,0,0,0-1.821,2.472v.766a.411.411,0,0,1-.411.41h-1.7a.411.411,0,0,1-.41-.41v-.707a2.581,2.581,0,0,0-1.86-2.479,10.928,10.928,0,0,1-2.257-.924,2.539,2.539,0,0,0-1.218-.309,2.588,2.588,0,0,0-1.83.755l-.492.492a.411.411,0,0,1-.58,0l-1.2-1.2a.412.412,0,0,1,0-.581l.492-.492a2.583,2.583,0,0,0,.445-3.048,10.936,10.936,0,0,1-.924-2.256,2.581,2.581,0,0,0-2.479-1.86H286.9a.411.411,0,0,1-.411-.41v-1.7a.412.412,0,0,1,.411-.411h.766a2.6,2.6,0,0,0,2.472-1.821,10.962,10.962,0,0,1,.933-2.185,2.581,2.581,0,0,0-.429-3.079l-.571-.571a.411.411,0,0,1,0-.581l1.2-1.2a.411.411,0,0,1,.581,0l.636.636a2.558,2.558,0,0,0,3.023.459,10.943,10.943,0,0,1,2.134-.859,2.581,2.581,0,0,0,1.863-2.477v-.93a.411.411,0,0,1,.41-.41h1.7a.411.411,0,0,1,.411.41v1a2.556,2.556,0,0,0,1.82,2.464,10.913,10.913,0,0,1,2.069.868,2.59,2.59,0,0,0,3.054-.443l.713-.714a.411.411,0,0,1,.581,0l1.2,1.2a.412.412,0,0,1,0,.581l-.714.714a2.589,2.589,0,0,0-.443,3.053,10.953,10.953,0,0,1,.868,2.07,2.555,2.555,0,0,0,2.464,1.82h1a.411.411,0,0,1,.41.41Zm0,0" transform="translate(-243.225 -237.812)"/>
    </g>
  </g>
</svg>
