<svg xmlns="http://www.w3.org/2000/svg" xmlns:xlink="http://www.w3.org/1999/xlink" width="396" height="180" viewBox="0 0 396 180">
  <defs>
    <clipPath id="clip-path">
      <rect id="Rectangle_458559" data-name="Rectangle 458559" width="396" height="180" transform="translate(289.855 13957)" fill="#644602"/>
    </clipPath>
    <clipPath id="clip-path-2">
      <rect id="Rectangle_458558" data-name="Rectangle 458558" width="356.692" height="339.123" fill="none"/>
    </clipPath>
    <clipPath id="clip-path-4">
      <rect id="Rectangle_458540" data-name="Rectangle 458540" width="35.882" height="6.319" fill="none"/>
    </clipPath>
    <clipPath id="clip-path-5">
      <rect id="Rectangle_458541" data-name="Rectangle 458541" width="74.373" height="68.181" fill="none"/>
    </clipPath>
    <clipPath id="clip-path-6">
      <rect id="Rectangle_458542" data-name="Rectangle 458542" width="66.183" height="58.067" fill="none"/>
    </clipPath>
    <clipPath id="clip-path-7">
      <rect id="Rectangle_458543" data-name="Rectangle 458543" width="52.338" height="50.189" fill="none"/>
    </clipPath>
    <clipPath id="clip-path-8">
      <rect id="Rectangle_458544" data-name="Rectangle 458544" width="3.784" height="3.784" fill="none"/>
    </clipPath>
    <clipPath id="clip-path-9">
      <rect id="Rectangle_458545" data-name="Rectangle 458545" width="1.908" height="1.906" fill="none"/>
    </clipPath>
    <clipPath id="clip-path-10">
      <rect id="Rectangle_458546" data-name="Rectangle 458546" width="6.192" height="6.192" fill="none"/>
    </clipPath>
    <clipPath id="clip-path-11">
      <rect id="Rectangle_458547" data-name="Rectangle 458547" width="10.681" height="10.681" fill="none"/>
    </clipPath>
    <clipPath id="clip-path-12">
      <rect id="Rectangle_458548" data-name="Rectangle 458548" width="32.818" height="2.545" fill="none"/>
    </clipPath>
    <clipPath id="clip-path-13">
      <rect id="Rectangle_458549" data-name="Rectangle 458549" width="32.816" height="2.541" fill="none"/>
    </clipPath>
    <clipPath id="clip-path-14">
      <rect id="Rectangle_458550" data-name="Rectangle 458550" width="7.937" height="29.337" fill="none"/>
    </clipPath>
    <clipPath id="clip-path-15">
      <rect id="Rectangle_458551" data-name="Rectangle 458551" width="38.749" height="16.409" fill="none"/>
    </clipPath>
    <clipPath id="clip-path-16">
      <rect id="Rectangle_458552" data-name="Rectangle 458552" width="46.408" height="44.008" fill="none"/>
    </clipPath>
    <clipPath id="clip-path-17">
      <rect id="Rectangle_458553" data-name="Rectangle 458553" width="122.586" height="90.865" fill="none"/>
    </clipPath>
    <clipPath id="clip-path-18">
      <rect id="Rectangle_458554" data-name="Rectangle 458554" width="45.951" height="101.095" fill="none"/>
    </clipPath>
    <clipPath id="clip-path-19">
      <rect id="Rectangle_458555" data-name="Rectangle 458555" width="28.087" height="90.994" fill="none"/>
    </clipPath>
    <clipPath id="clip-path-20">
      <rect id="Rectangle_458556" data-name="Rectangle 458556" width="1.576" height="4.43" fill="none"/>
    </clipPath>
  </defs>
  <g id="img33" transform="translate(-289.855 -13957)">
    <path id="Path_1030737" data-name="Path 1030737" d="M0,0H396V180H0Z" transform="translate(289.855 13957)" fill="#a4e7f0"/>
    <g id="Mask_Group_1178564" data-name="Mask Group 1178564" clip-path="url(#clip-path)">
      <g id="Group_1184864" data-name="Group 1184864" transform="translate(309.51 13961.5)">
        <g id="Group_1184863" data-name="Group 1184863" clip-path="url(#clip-path-2)">
          <g id="Group_1184862" data-name="Group 1184862">
            <g id="Group_1184861" data-name="Group 1184861" clip-path="url(#clip-path-2)">
              <path id="Path_1030652" data-name="Path 1030652" d="M148.51,99.371c-.826.273,1.059,125.521,1.059,125.521l-5.173,3.443L142.761,98.067Z" transform="translate(127.742 87.75)" fill="#dbad7f"/>
              <path id="Path_1030653" data-name="Path 1030653" d="M137.825,98.067l6.4,128.668,4.589,1.6L147.178,98.067Z" transform="translate(123.326 87.75)" fill="#ce996a"/>
              <path id="Path_1030654" data-name="Path 1030654" d="M54.765,91.549c-.828.273,1.057,125.521,1.057,125.521l-5.173,3.443L49.014,90.245Z" transform="translate(43.858 80.751)" fill="#dbad7f"/>
              <path id="Path_1030655" data-name="Path 1030655" d="M44.078,90.245l6.4,128.668,4.591,1.6L53.431,90.245Z" transform="translate(39.441 80.751)" fill="#ce996a"/>
              <path id="Path_1030656" data-name="Path 1030656" d="M187.667,86.7c-.826.273,1.059,125.521,1.059,125.521l-5.173,3.441L181.918,85.4Z" transform="translate(162.78 76.416)" fill="#dbad7f"/>
              <path id="Path_1030657" data-name="Path 1030657" d="M176.982,85.4l6.4,128.668,4.589,1.6L186.335,85.4Z" transform="translate(158.363 76.415)" fill="#ce996a"/>
              <path id="Path_1030658" data-name="Path 1030658" d="M78.9,87.532c-.826.273,1.059,125.521,1.059,125.521L74.782,216.5,73.147,86.228Z" transform="translate(65.452 77.157)" fill="#dbad7f"/>
              <path id="Path_1030659" data-name="Path 1030659" d="M68.211,86.227l6.4,128.668,4.591,1.6L77.563,86.227Z" transform="translate(61.035 77.156)" fill="#ce996a"/>
              <rect id="Rectangle_458539" data-name="Rectangle 458539" width="203.389" height="12.356" transform="translate(64.16 177.635)" fill="#dbad7f"/>
              <path id="Path_1030660" data-name="Path 1030660" d="M237.25,107.209H33.861l68.457-28.5H326.395Z" transform="translate(30.298 70.426)" fill="#e5c098"/>
              <path id="Path_1030661" data-name="Path 1030661" d="M141.2,107.209v12.356l89.145-29.4V78.706Z" transform="translate(126.347 70.426)" fill="#f9c795"/>
              <path id="Path_1030662" data-name="Path 1030662" d="M109.084,68.574c-.908.39-3.25,4.032-3.638,4.161s-1.561,3.9-1.561,3.9l4.032-2.833,2.6-2.109Z" transform="translate(92.956 61.36)" fill="#605a54"/>
              <path id="Path_1030663" data-name="Path 1030663" d="M149.516,86.162,124.7,94.6h23.115l23.952-8.441Z" transform="translate(111.58 77.098)" fill="#e4e7ef"/>
              <g id="Group_1184812" data-name="Group 1184812" transform="translate(285.747 151.727)" opacity="0.48">
                <g id="Group_1184811" data-name="Group 1184811">
                  <g id="Group_1184810" data-name="Group 1184810" clip-path="url(#clip-path-4)">
                    <path id="Path_1030664" data-name="Path 1030664" d="M186.688,83.235c0,1.745-8.032,3.159-17.94,3.159s-17.942-1.414-17.942-3.159,8.032-3.159,17.942-3.159,17.94,1.414,17.94,3.159" transform="translate(-150.806 -80.075)" fill="#9aabdb"/>
                  </g>
                </g>
              </g>
              <g id="Group_1184815" data-name="Group 1184815" transform="translate(266.5 87.388)" opacity="0.48">
                <g id="Group_1184814" data-name="Group 1184814">
                  <g id="Group_1184813" data-name="Group 1184813" clip-path="url(#clip-path-5)">
                    <path id="Path_1030665" data-name="Path 1030665" d="M215.021,80.206c0,18.832-16.646,34.1-37.185,34.1-16,0-29.644-9.267-34.883-22.271a31.4,31.4,0,0,1-2.3-11.825c0-18.823,16.653-34.086,37.187-34.086a40.306,40.306,0,0,1,7.757.743c16.816,3.27,29.428,16.958,29.428,33.343" transform="translate(-140.648 -46.12)" fill="#9aabdb"/>
                  </g>
                </g>
              </g>
              <g id="Group_1184818" data-name="Group 1184818" transform="translate(272.021 94.715)" opacity="0.82">
                <g id="Group_1184817" data-name="Group 1184817">
                  <g id="Group_1184816" data-name="Group 1184816" clip-path="url(#clip-path-6)">
                    <path id="Path_1030666" data-name="Path 1030666" d="M209.745,77.72c0,16.758-14.817,30.334-33.091,30.334S143.562,94.478,143.562,77.72c0-11.295,6.74-21.157,16.737-26.366.379-.208.764-.394,1.15-.58a106.873,106.873,0,0,1,15.206-.788,106.919,106.919,0,0,1,15.2.788c.387.186.773.371,1.152.58,10,5.209,16.735,15.071,16.735,26.366" transform="translate(-143.562 -49.988)" fill="#88aef2"/>
                  </g>
                </g>
              </g>
              <g id="Group_1184821" data-name="Group 1184821" transform="translate(266.5 87.388)" opacity="0.49">
                <g id="Group_1184820" data-name="Group 1184820">
                  <g id="Group_1184819" data-name="Group 1184819" clip-path="url(#clip-path-7)">
                    <path id="Path_1030667" data-name="Path 1030667" d="M192.986,65.976c0,16.758-14.817,30.334-33.091,30.334a35.165,35.165,0,0,1-16.945-4.28,31.381,31.381,0,0,1-2.3-11.822c0-18.825,16.653-34.087,37.185-34.087a40.326,40.326,0,0,1,7.759.743,28.692,28.692,0,0,1,7.394,19.113" transform="translate(-140.648 -46.12)" fill="#78d2ff"/>
                  </g>
                </g>
              </g>
              <path id="Path_1030668" data-name="Path 1030668" d="M186.689,71.78a12.271,12.271,0,0,0-7.447.491c-2.154.862-4.019,2.312-6.086,3.367-6.094,3.128-13.754,1.425-19.209-2.721.661-.735,1.315-1.47,1.969-2.207q3.5-3.911,6.986-7.81a12.07,12.07,0,0,0,2.134-1.918,17.139,17.139,0,0,1,2.622-2.414l-1.16,2.586c-.5,1.114-1,2.236-1.5,3.358,2.63.305,5.269.61,7.9.923a15.2,15.2,0,0,0,4.786.051,12.938,12.938,0,0,0,5.446-2.943c.366-.29.722-.587,1.078-.885a17.864,17.864,0,0,0-.809,2.319,6.37,6.37,0,0,0-.208,2.727,4.977,4.977,0,0,0,.349,1.19,12.218,12.218,0,0,0,3.151,3.886" transform="translate(137.751 52.407)" fill="#ffa63b"/>
              <path id="Path_1030669" data-name="Path 1030669" d="M182.609,66.753a12.032,12.032,0,0,0-4.3.847c-2.154.855-4.021,2.3-6.086,3.359-5.387,2.765-12.009,1.76-17.241-1.391q3.5-3.911,6.986-7.808a12.1,12.1,0,0,0,2.132-1.918c.491.051.974.11,1.465.171-.5,1.114-1,2.236-1.5,3.358q3.945.458,7.9.923a15.2,15.2,0,0,0,4.786.051A12.917,12.917,0,0,0,182.2,61.4a5.813,5.813,0,0,0,.061.625,4.1,4.1,0,0,0,.208.809,6.371,6.371,0,0,0-.208,2.727,4.976,4.976,0,0,0,.349,1.19" transform="translate(138.682 53.547)" fill="#ffb236"/>
              <path id="Path_1030670" data-name="Path 1030670" d="M159.394,64.584a.731.731,0,1,1-.731-.731.732.732,0,0,1,.731.731" transform="translate(141.316 57.136)" fill="#494540"/>
              <path id="Path_1030671" data-name="Path 1030671" d="M159.878,68.655s2.7,4.241,4.542,3.579-.351-1.99-.351-1.99,1.921.834,2.912-.1,0-2.149,0-2.149a2.094,2.094,0,0,0,2.081-.771s-5.6,2.533-9.184,1.432" transform="translate(143.059 60.151)" fill="#ff8c3e"/>
              <g id="Group_1184824" data-name="Group 1184824" transform="translate(284.688 124.994)" opacity="0.59">
                <g id="Group_1184823" data-name="Group 1184823">
                  <g id="Group_1184822" data-name="Group 1184822" clip-path="url(#clip-path-8)">
                    <path id="Path_1030672" data-name="Path 1030672" d="M154.031,67.86a1.892,1.892,0,1,1-1.893-1.893,1.893,1.893,0,0,1,1.893,1.893" transform="translate(-150.247 -65.967)" fill="#f9f9f9"/>
                  </g>
                </g>
              </g>
              <g id="Group_1184827" data-name="Group 1184827" transform="translate(288.472 120.989)" opacity="0.59">
                <g id="Group_1184826" data-name="Group 1184826">
                  <g id="Group_1184825" data-name="Group 1184825" clip-path="url(#clip-path-9)">
                    <path id="Path_1030673" data-name="Path 1030673" d="M154.152,64.806a.954.954,0,1,1-.953-.953.953.953,0,0,1,.953.953" transform="translate(-152.244 -63.853)" fill="#f9f9f9"/>
                  </g>
                </g>
              </g>
              <g id="Group_1184830" data-name="Group 1184830" transform="translate(277.072 115.837)" opacity="0.59">
                <g id="Group_1184829" data-name="Group 1184829">
                  <g id="Group_1184828" data-name="Group 1184828" clip-path="url(#clip-path-10)">
                    <path id="Path_1030674" data-name="Path 1030674" d="M152.42,64.23a3.1,3.1,0,1,1-3.1-3.1,3.1,3.1,0,0,1,3.1,3.1" transform="translate(-146.228 -61.134)" fill="#f9f9f9"/>
                  </g>
                </g>
              </g>
              <g id="Group_1184833" data-name="Group 1184833" transform="translate(286.581 104.021)" opacity="0.59">
                <g id="Group_1184832" data-name="Group 1184832">
                  <g id="Group_1184831" data-name="Group 1184831" clip-path="url(#clip-path-11)">
                    <path id="Path_1030675" data-name="Path 1030675" d="M161.927,60.239a5.34,5.34,0,1,1-5.341-5.341,5.341,5.341,0,0,1,5.341,5.341" transform="translate(-151.246 -54.898)" fill="#f9f9f9"/>
                  </g>
                </g>
              </g>
              <g id="Group_1184836" data-name="Group 1184836" transform="translate(288.703 94.713)" opacity="0.42">
                <g id="Group_1184835" data-name="Group 1184835">
                  <g id="Group_1184834" data-name="Group 1184834" clip-path="url(#clip-path-12)">
                    <path id="Path_1030676" data-name="Path 1030676" d="M185.184,51.257c0,.7-7.346,1.271-16.409,1.271s-16.409-.568-16.409-1.271,7.346-1.271,16.409-1.271,16.409.568,16.409,1.271" transform="translate(-152.366 -49.986)" fill="#f9f9f9"/>
                  </g>
                </g>
              </g>
              <g id="Group_1184839" data-name="Group 1184839" transform="translate(288.705 94.715)" opacity="0.14">
                <g id="Group_1184838" data-name="Group 1184838">
                  <g id="Group_1184837" data-name="Group 1184837" clip-path="url(#clip-path-13)">
                    <path id="Path_1030677" data-name="Path 1030677" d="M183.98,50.774c.781.155,1.2.313,1.2.483a.116.116,0,0,1-.051.1c-.669.661-7.744,1.175-16.356,1.175s-15.687-.513-16.356-1.175a.119.119,0,0,1-.053-.1c0-.171.424-.328,1.2-.483a106.873,106.873,0,0,1,15.206-.788" transform="translate(-152.367 -49.988)" fill="#f9f9f9"/>
                  </g>
                </g>
              </g>
              <path id="Path_1030678" data-name="Path 1030678" d="M194.931,74.69q-1.216,1.148-2.431,2.177c-7.958,6.681-16.206,9.186-27.74,6.852a26.527,26.527,0,0,1-11.77-5.641,23.519,23.519,0,0,1-4.913-5.453,36.563,36.563,0,0,0,13.095,1.04c7.541-.707,6.323,3.894,18.452,3.38s24.062-10.672,15.308-2.355" transform="translate(132.498 63.914)" fill="#ffdcbd"/>
              <path id="Path_1030679" data-name="Path 1030679" d="M190.181,74.3c-7.958,6.681-16.208,9.186-27.742,6.852a26.568,26.568,0,0,1-11.77-5.641,39.3,39.3,0,0,0,5.611-.119c7.543-.7,6.325,3.9,18.452,3.375,6.043-.252,12.04-2.9,15.45-4.466" transform="translate(134.818 66.483)" fill="#ffc294"/>
              <g id="Group_1184842" data-name="Group 1184842" transform="translate(326.682 109.267)" opacity="0.49">
                <g id="Group_1184841" data-name="Group 1184841">
                  <g id="Group_1184840" data-name="Group 1184840" clip-path="url(#clip-path-14)">
                    <path id="Path_1030680" data-name="Path 1030680" d="M174.667,57.667s7.128,5.218,5.415,16.473C178.5,84.522,172.41,87,172.41,87s9.576-15.556,2.257-29.337" transform="translate(-172.41 -57.667)" fill="#9fe4ff"/>
                  </g>
                </g>
              </g>
              <path id="Path_1030681" data-name="Path 1030681" d="M97.217,68.068V94.483H121.16l-2.116-24.8Z" transform="translate(86.99 60.907)" fill="#525356"/>
              <path id="Path_1030682" data-name="Path 1030682" d="M86.887,20.417l-24.422,91.9,131.355,1.692,20.792-93.592Z" transform="translate(55.893 18.269)" fill="#7a7b7f"/>
              <path id="Path_1030683" data-name="Path 1030683" d="M88.917,24.648,70.268,100.1l107.263,2.105L194.76,24.648Z" transform="translate(62.876 22.055)" fill="#8e93a0"/>
              <path id="Path_1030684" data-name="Path 1030684" d="M90.08,26.324,72.958,95.6l98.478,1.933,15.818-71.206Z" transform="translate(65.283 23.555)" fill="#cbcdd3"/>
              <path id="Path_1030685" data-name="Path 1030685" d="M193.819,70.61,62.464,68.918l3.888,6.814H199.4Z" transform="translate(55.893 61.668)" fill="#67686b"/>
              <path id="Path_1030686" data-name="Path 1030686" d="M152.58,20.417l5.465,5.991-20.672,92.722-5.584-5.122Z" transform="translate(117.924 18.269)" fill="#8e93a0"/>
              <path id="Path_1030687" data-name="Path 1030687" d="M125.941,28.882,124.7,34.726h8.527l1.042-5.844Z" transform="translate(111.579 25.844)" fill="#e4e7ef"/>
              <path id="Path_1030688" data-name="Path 1030688" d="M124.761,34.484l-1.243,5.844h8.527l1.042-5.844Z" transform="translate(110.524 30.856)" fill="#e4e7ef"/>
              <path id="Path_1030689" data-name="Path 1030689" d="M123.416,40.835l-1.243,5.844H130.7l1.042-5.844Z" transform="translate(109.32 36.539)" fill="#e4e7ef"/>
              <path id="Path_1030690" data-name="Path 1030690" d="M84.357,29.05l-1.243,5.844h8.527l1.044-5.844Z" transform="translate(74.37 25.994)" fill="#92b3fc"/>
              <path id="Path_1030691" data-name="Path 1030691" d="M143.362,58.161c0,14.194-12.805,25.7-28.6,25.7s-28.594-11.505-28.594-25.7,12.8-25.7,28.594-25.7,28.6,11.505,28.6,25.7" transform="translate(77.104 29.047)" fill="#92b3fc"/>
              <path id="Path_1030692" data-name="Path 1030692" d="M95.083,38.722,89.3,65.915h39.675l4.856-27.192Z" transform="translate(79.907 34.649)" fill="#e4e7ef"/>
              <g id="Group_1184845" data-name="Group 1184845" transform="translate(174.99 73.37)" opacity="0.15">
                <g id="Group_1184844" data-name="Group 1184844">
                  <g id="Group_1184843" data-name="Group 1184843" clip-path="url(#clip-path-15)">
                    <path id="Path_1030693" data-name="Path 1030693" d="M92.353,38.722l16.121,16.409L131.1,38.722Z" transform="translate(-92.353 -38.722)" fill="#7a7b7f"/>
                  </g>
                </g>
              </g>
              <path id="Path_1030694" data-name="Path 1030694" d="M123.361,42.337a9.642,9.642,0,0,1-9.076,7.655,6.183,6.183,0,0,1-6.232-7.655,9.64,9.64,0,0,1,9.074-7.655,6.185,6.185,0,0,1,6.234,7.655" transform="translate(96.567 31.033)" fill="#ea5a4b"/>
              <path id="Path_1030695" data-name="Path 1030695" d="M109.62,38.908s2.317-2.721,3.07-2.837,1.389-.059,1.158.752-2.09,8.4-2.09,8.4-1.442.7-1.326-.462,1.326-6.429,1.326-6.429-1.1,1.565-1.558,1.622-1.27-.265-.58-1.042" transform="translate(97.848 32.236)" fill="#edeff7"/>
              <path id="Path_1030696" data-name="Path 1030696" d="M115.477,36.2c-.193-.023-2.088-.313-3.195,2.765s-1.292,6.583,1.6,5.967,3.2-5.842,3.2-5.842.61-2.645-1.6-2.89m.328,3.589s-.163,2.795-1.709,3.121-1.45-1.546-.855-3.187,1.6-1.495,1.709-1.48c1.188.127.855,1.546.855,1.546" transform="translate(99.8 32.374)" fill="#edeff7"/>
              <path id="Path_1030697" data-name="Path 1030697" d="M68.318,88.39h96.824v3.536H68.494Z" transform="translate(61.131 79.091)" fill="#67686b"/>
              <path id="Path_1030698" data-name="Path 1030698" d="M92.333,80.67c1.088-.629,101.834,0,101.834,0L165.142,95.55H68.318Z" transform="translate(61.131 71.933)" fill="#7a7b7f"/>
              <path id="Path_1030699" data-name="Path 1030699" d="M92.653,81.565c.887-.479,82.945,0,82.945,0l-23.639,11.3H74.01Z" transform="translate(66.224 72.793)" fill="#67686b"/>
              <path id="Path_1030700" data-name="Path 1030700" d="M119.624,95.416s-.982,3.738,0,3.536,29.023-15.626,29.023-15.626V80.538Z" transform="translate(106.649 72.065)" fill="#8e93a0"/>
              <path id="Path_1030701" data-name="Path 1030701" d="M145.053,195.2H94.58L79.658,139.884l18.273,8.985,7.06,3.471,8.078,30.4s18.579.712,25.28,4.51c3.522,2,5.2,4.087,5.989,5.626a5.638,5.638,0,0,1,.714,2.319" transform="translate(71.278 125.168)" fill="#c9a1a1"/>
              <g id="Group_1184848" data-name="Group 1184848" transform="translate(169.209 274.037)" opacity="0.59">
                <g id="Group_1184847" data-name="Group 1184847">
                  <g id="Group_1184846" data-name="Group 1184846" clip-path="url(#clip-path-16)">
                    <path id="Path_1030702" data-name="Path 1030702" d="M135.709,188.635H101.177L89.3,144.626,96.36,148.1l8.079,30.4s18.577.714,25.28,4.511c3.522,2,5.194,4.087,5.989,5.626" transform="translate(-89.302 -144.626)" fill="#d8b6b6"/>
                  </g>
                </g>
              </g>
              <path id="Path_1030703" data-name="Path 1030703" d="M106.4,158.642s3.134,12.22-20.032,11.611l.921,11.611,53.725-1.2s3.176-12.4-12.617-13.512-22-8.511-22-8.511" transform="translate(77.285 141.953)" fill="#1e1a19"/>
              <path id="Path_1030704" data-name="Path 1030704" d="M102.209,154.409c-2.459,3-4.087,6.4-3.818,10.38a56.362,56.362,0,0,0,7.191.862,3.771,3.771,0,0,0,2.708-.568c1.234-1.035.839-3.375-.493-4.258a3.953,3.953,0,0,0-4.426.417,12.973,12.973,0,0,0-3.062,3.774" transform="translate(88.014 138.165)" fill="none" stroke="#3d322f" stroke-miterlimit="10" stroke-width="0.406"/>
              <path id="Path_1030705" data-name="Path 1030705" d="M173.277,195.909l-21.193,1.465-19.761,1.366L115.8,147.859l-.729-2.253s-23.46,3.278-46.512,4.176c-12.663.491-25.206.269-33.665-1.62C11.067,142.849,23.031,103,23.031,103l19.5,2.63,22.889,3.092s5.573-.46,13.525-.9c9.914-.549,23.513-1.069,34.586-.623a79.047,79.047,0,0,1,14.044,1.523c16.03,3.812,31.457,12.3,45.7,87.183" transform="translate(17.921 92.167)" fill="#a33f2e"/>
              <path id="Path_1030706" data-name="Path 1030706" d="M163.738,195.909l-21.193,1.465-16.8-51.768s-8.108,1.129-19.477,2.253c-13.838,1.351-32.5,2.691-47.241,1.923a84.42,84.42,0,0,1-13.459-1.62C25.45,143.682,30.83,114.6,32.992,105.633c.409-1.656.7-2.63.7-2.63l35.715,4.822,6.673.9s13.19-1.093,27.912-1.523a79.047,79.047,0,0,1,14.044,1.523c16.03,3.812,31.457,12.3,45.7,87.183" transform="translate(27.46 92.167)" fill="#9b3426"/>
              <path id="Path_1030707" data-name="Path 1030707" d="M167.557,198.133H117.084l-14.922-55.311,19.746,9.446,6.279,3.009,8.07,30.4s17.894.712,24.6,4.51c6.2,3.509,6.666,7.322,6.7,7.879a.435.435,0,0,1,.008.066" transform="translate(91.414 127.797)" fill="#d8b6b6"/>
              <path id="Path_1030708" data-name="Path 1030708" d="M158.225,193.606H124.941l-12.358-45.8,6.279,3.009,8.07,30.4s17.894.714,24.6,4.512c6.2,3.507,6.666,7.32,6.7,7.877" transform="translate(100.739 132.257)" fill="#e8c4c4"/>
              <path id="Path_1030709" data-name="Path 1030709" d="M128.852,161.581s3.191,12.218-19.975,11.611l.864,11.611,53.725-1.2s3.176-12.4-12.617-13.51-22-8.511-22-8.511" transform="translate(97.423 144.582)" fill="#3d322f"/>
              <path id="Path_1030710" data-name="Path 1030710" d="M121.044,168.686c5.4.129,10.4-5.1,10.408-10.886a15.009,15.009,0,0,0-9.36,11.359,41.044,41.044,0,0,1,13.2-4.557,7.529,7.529,0,0,1,3.911.2,3.386,3.386,0,0,1,2.2,3.174c-.146,2.2-2.651,3.153-4.7,3.377C132.049,171.856,125.487,170.237,121.044,168.686Z" transform="translate(108.31 141.199)" fill="none" stroke="#3d322f" stroke-miterlimit="10" stroke-width="0.406"/>
              <path id="Path_1030711" data-name="Path 1030711" d="M212.214,197.889l-24.538.955-21.485.843-17.246-53.13s-56.152,6.956-80.176,2.554c-44.035-8.066-37.945-45.155-37.945-45.155l61.733,4.813,6.732.908s46.135-3.82,62.155,0S197.969,123,212.214,197.889" transform="translate(27.325 93.02)" fill="#c15640"/>
              <g id="Group_1184851" data-name="Group 1184851" transform="translate(116.952 200.999)" opacity="0.51">
                <g id="Group_1184850" data-name="Group 1184850">
                  <g id="Group_1184849" data-name="Group 1184849" clip-path="url(#clip-path-17)">
                    <path id="Path_1030712" data-name="Path 1030712" d="M184.309,195.989l-24.538.955c-4.349-16.058-18.423-65.551-28.627-72.29-12.208-8.06-66.651,5.944-66.651,5.944h-2.77l2.927-23.729,6.732.908s46.135-3.82,62.155,0,36.526,13.328,50.771,88.212" transform="translate(-61.722 -106.079)" fill="#d66758"/>
                  </g>
                </g>
              </g>
              <path id="Path_1030713" data-name="Path 1030713" d="M61.548,64.011,55.839,35.775,53.55,60.815Z" transform="translate(47.916 32.011)" fill="#f89e8c"/>
              <path id="Path_1030714" data-name="Path 1030714" d="M109.725,89.526s-4.216-6.933-3.312-13.559,4.517-10.239,4.517-7.229-1.506,7.668,0,9.857c0,0,9.555-13.7,17.6-19.469s-6.675,14.755-6.675,14.755,10.969-11.346,13.226-11.032c3.492.485-8.644,13.762-8.644,13.762s9.491-9.349,12.5-8.445-7.831,11.716-7.831,11.716,6.579-4.616,8.987-4.457S125.361,94.29,125.361,94.29Z" transform="translate(95.104 51.991)" fill="#f89e8c"/>
              <path id="Path_1030715" data-name="Path 1030715" d="M108.39,78.159,126.649,54.8l2.638,4.354-20.24,22.389Z" transform="translate(96.987 49.038)" fill="#605a54"/>
              <path id="Path_1030716" data-name="Path 1030716" d="M196.846,137.612c-22.925,18.541-41.3,25.728-58.574,14.891-5.321-3.342-9.258-8.419-12.157-13.843a60.563,60.563,0,0,1-3.545-7.988c1.963,15.181.157,35.061-21.2,39.37l-.135.023c-35.507,7.149-74.35,4.764-78.407-14.848-1.391-6.717-3.456-16.17-5.1-26.552C14.579,108.7,13,85.289,20.8,71.251c7.877-14.179,32.378-19.677,47.918-21.773,7.841-1.055,13.406-1.249,13.406-1.249.966,0,30.425,4.741,38.546,9.482s20.318,10.158,23.022,26.069-.675,37.581,12.864,40.628,16.252-16.93,24.382-23.357,15.57-8.9,23.7-3.1,8.436,26.546-7.788,39.662" transform="translate(13.547 43.155)" fill="#79a4e2"/>
              <path id="Path_1030717" data-name="Path 1030717" d="M79.417,53.213c-1.635.654-32.7,11.445-42.508,36.295a202.892,202.892,0,0,0-12.1,49.373l-7.083-10.8C14.579,108.107,13,84.7,20.8,70.662c7.877-14.179,32.378-19.679,47.916-21.775Z" transform="translate(13.548 43.744)" fill="#6193db"/>
              <path id="Path_1030718" data-name="Path 1030718" d="M86.517,105.766c1.961,15.183.155,35.061-21.2,39.372-.045.006-.089.013-.135.021l-9.751-1.338s24.108-19.268,24.28-67.758c.275,7.111,5.819,29.1,10.351,37.691a60.563,60.563,0,0,1-3.545-7.988" transform="translate(49.6 68.061)" fill="#6193db"/>
              <path id="Path_1030719" data-name="Path 1030719" d="M72.381,7.719s4.678,2.4,5.059,10.6c.633,13.692-3.215,12.443-1.633,15.113s4.921,16.731,7.926,14.709l-5.675,2.988s-.265,13.548-3.515,17.821c-1.126,1.478-3.123,3.251-5.5,2.88C48.434,68.6,43.324,19.859,43.324,19.859L55.352,18.07Z" transform="translate(38.766 6.907)" fill="#f89e8c"/>
              <path id="Path_1030720" data-name="Path 1030720" d="M56.333,28.008a10.39,10.39,0,0,1-1.575-4.428,21.8,21.8,0,0,1,1.575,4.428" transform="translate(48.997 21.099)" fill="#302322"/>
              <path id="Path_1030721" data-name="Path 1030721" d="M61.7,21.45c-.136,1.042-.722,1.823-1.309,1.747s-.949-.985-.813-2.026.724-1.823,1.309-1.747.949.983.813,2.026" transform="translate(53.286 17.376)" fill="#282220"/>
              <path id="Path_1030722" data-name="Path 1030722" d="M58.77,19.633c-.419.224,3.329-2.5,5.23-2.5l-.951,2.5s-2.5-.951-4.278,0" transform="translate(52.559 15.335)" fill="#49251d"/>
              <path id="Path_1030723" data-name="Path 1030723" d="M55.122,28.762c0,2.852-.745,5.165-1.664,5.165s-1.666-2.314-1.666-5.165S52.54,23.6,53.459,23.6s1.664,2.312,1.664,5.163" transform="translate(46.344 21.116)" fill="#ef7362"/>
              <path id="Path_1030724" data-name="Path 1030724" d="M97.13,32.558C92.977,37.426,92.389,41.7,92.8,44.679c-1.04-2.06-2.609-3.977-4.771-3.568-4.415.824-5.521,16.549-1.383,18.207s5.239-2.757,5.239-2.757,9.461,39.728-7.826,44.7c0,0-7.9,1.376-7.348-4.138,0,0-1.933,11.86-11.037,11.035-6.086-.549-7.119-4.436-7.134-6.948-.6,3.21-2.734,8.881-10.247,8.881-10.486,0-9.377-12.693-9.377-12.693s-6.073,12.142-20.7,4.138,1.933-18.762,4.138-20.97,6.622-3.591,6.348-14.9S27.32,35.59,40.563,19.582,77.267-2.763,89.4,1.1s14.075,11.587,14.075,11.587A26.563,26.563,0,0,1,97.13,32.558" transform="translate(10.957 0)" fill="#302322"/>
              <g id="Group_1184854" data-name="Group 1184854" transform="translate(68.631 7.098)" opacity="0.12">
                <g id="Group_1184853" data-name="Group 1184853">
                  <g id="Group_1184852" data-name="Group 1184852" clip-path="url(#clip-path-18)">
                    <path id="Path_1030725" data-name="Path 1030725" d="M75.669,29.214c-4.148,4.862-4.741,9.133-4.322,12.113-1.046-2.058-2.615-3.973-4.775-3.574-4.409.837-5.525,16.557-1.378,18.213,4.131,1.656,5.228-2.753,5.228-2.753s9.307,39.039-7.39,44.547a3.231,3.231,0,0,1-.434.14s-7.9,1.376-7.339-4.131c0,0-1.935,11.85-11.032,11.032,0,0,7.634-26.4-4.114-44.425-11.748-18,5.874-27.4,16.051-34.055s0-17.62,9.552-21.542A13.419,13.419,0,0,1,79.26,6.767a15.642,15.642,0,0,1,2.77,2.562,26.583,26.583,0,0,1-6.361,19.886" transform="translate(-36.221 -3.746)" fill="#9aabdb"/>
                  </g>
                </g>
              </g>
              <g id="Group_1184857" data-name="Group 1184857" transform="translate(86.496 10.118)" opacity="0.12">
                <g id="Group_1184856" data-name="Group 1184856">
                  <g id="Group_1184855" data-name="Group 1184855" clip-path="url(#clip-path-19)">
                    <path id="Path_1030726" data-name="Path 1030726" d="M67.232,27.788C63.085,32.65,62.492,36.921,62.91,39.9c-1.046-2.058-2.615-3.973-4.775-3.574-4.409.838-5.525,16.557-1.378,18.213,4.131,1.656,5.228-2.753,5.228-2.753s9.307,39.039-7.39,44.547c1.6-8.14,3.852-26.631-5.053-40.295C37.8,38.018,55.416,28.623,65.593,21.967c7.234-4.724,4.184-11.625,5.23-16.627A15.642,15.642,0,0,1,73.593,7.9a26.583,26.583,0,0,1-6.361,19.886" transform="translate(-45.649 -5.34)" fill="#9aabdb"/>
                  </g>
                </g>
              </g>
              <g id="Group_1184860" data-name="Group 1184860" transform="translate(103.754 44.677)" opacity="0.12">
                <g id="Group_1184859" data-name="Group 1184859">
                  <g id="Group_1184858" data-name="Group 1184858" clip-path="url(#clip-path-20)">
                    <path id="Path_1030727" data-name="Path 1030727" d="M56.333,28.008a10.39,10.39,0,0,1-1.575-4.428,21.8,21.8,0,0,1,1.575,4.428" transform="translate(-54.757 -23.578)" fill="#9aabdb"/>
                  </g>
                </g>
              </g>
              <path id="Path_1030728" data-name="Path 1030728" d="M58.6,135.592l2.02,59.864A48.117,48.117,0,0,0,25.758,192.1v10.437h75.979V190.611s-16.881-4.474-30.637,4.845V135.592Z" transform="translate(23.048 121.327)" fill="#423938"/>
              <path id="Path_1030729" data-name="Path 1030729" d="M41.128,178.507c-1.315,5.377-5.413,9.705-9.156,9.665s-5.707-4.432-4.394-9.809,5.413-9.707,9.156-9.665,5.709,4.432,4.394,9.809" transform="translate(24.313 150.95)" fill="#2b2726"/>
              <path id="Path_1030730" data-name="Path 1030730" d="M70.694,178.507c-1.315,5.377-5.413,9.705-9.154,9.665s-5.709-4.432-4.394-9.809,5.412-9.707,9.154-9.665,5.709,4.432,4.394,9.809" transform="translate(50.769 150.95)" fill="#2b2726"/>
              <path id="Path_1030731" data-name="Path 1030731" d="M162.925,131.966s11.52-6.755-29.093-6.755S4.794,121.205,12.466,134.058l53.515,7.589Z" transform="translate(10.735 111.51)" fill="#4c4342"/>
              <path id="Path_1030732" data-name="Path 1030732" d="M12.244,130.589,162.7,128.5s20.085,16.638-51.16,18.109-87.377,5.36-99.3-16.017" transform="translate(10.956 114.979)" fill="#2b2726"/>
              <path id="Path_1030733" data-name="Path 1030733" d="M5.421,74.471H111.959l6.922,89.419H14.815Z" transform="translate(4.85 66.636)" fill="#6d6161"/>
              <path id="Path_1030734" data-name="Path 1030734" d="M0,74.471H106.539l6.922,89.419H9.394Z" transform="translate(0 66.636)" fill="#3a3130"/>
              <path id="Path_1030735" data-name="Path 1030735" d="M25.758,110.919s17.726,55.466,18.611,55.466c8.458.008,7.471-2.8,7.471-2.8l-7.869-52.668Z" transform="translate(23.048 99.25)" fill="#5b4f4f"/>
              <path id="Path_1030736" data-name="Path 1030736" d="M21.837,110.919s9.618,56.166,10.149,55.461,15.892.006,15.892.006l-7.829-55.466Z" transform="translate(19.54 99.25)" fill="#352f2e"/>
            </g>
          </g>
        </g>
      </g>
    </g>
  </g>
</svg>
