<svg xmlns="http://www.w3.org/2000/svg" xmlns:xlink="http://www.w3.org/1999/xlink" width="140" height="227.5" viewBox="0 0 140 227.5">
  <defs>
    <clipPath id="clip-path">
      <rect id="Rectangle_456802" data-name="Rectangle 456802" width="121.63" height="223.362" fill="none"/>
    </clipPath>
  </defs>
  <g id="img20" transform="translate(-10331 7469)">
    <rect id="Rectangle_456806" data-name="Rectangle 456806" width="140" height="227.5" transform="translate(10331 -7469)" fill="none"/>
    <path id="Path_1031392" data-name="Path 1031392" d="M80,0h60V82.353H0V80A80,80,0,0,1,80,0Z" transform="translate(10331 -7324.031)" fill="#69d7e5"/>
    <g id="Group_1180355" data-name="Group 1180355" transform="translate(10357.913 -7456.719)">
      <path id="Path_1000311" data-name="Path 1000311" d="M5.978,32.339H41.067a1.772,1.772,0,0,0,1.771-1.771V18.878A1.772,1.772,0,0,0,41.067,17.1H5.978a1.771,1.771,0,0,0-1.771,1.773v11.69a1.772,1.772,0,0,0,1.771,1.771" transform="translate(-4.207 -17.105)" fill="#19538d"/>
      <line id="Line_3355" data-name="Line 3355" x1="25.674" transform="translate(6.159 5.838)" fill="none" stroke="#fff" stroke-linecap="round" stroke-linejoin="round" stroke-width="1.076"/>
      <line id="Line_3356" data-name="Line 3356" x1="8.791" transform="translate(6.244 9.887)" fill="none" stroke="#fff" stroke-linecap="round" stroke-linejoin="round" stroke-width="1.076"/>
      <path id="Path_1000312" data-name="Path 1000312" d="M36.136,29.623v6.89l-8.782-6.89Z" transform="translate(-2.932 -16.416)" fill="#19538d"/>
    </g>
    <g id="Group_1180359" data-name="Group 1180359" transform="translate(10347.186 -7464.862)">
      <path id="Path_1000313" data-name="Path 1000313" d="M64.113,54.06l7.622,8.088-3.07,5.05-8.051-8.769Z" transform="translate(-26.121 12.553)" fill="#e0b79a"/>
      <g id="Group_1180341" data-name="Group 1180341" transform="translate(0)">
        <g id="Group_1180340" data-name="Group 1180340" clip-path="url(#clip-path)">
          <path id="Path_1000314" data-name="Path 1000314" d="M78.238,41.41s2.24,5.008-8.483,30.405c0,0-5.88,10.572-8.428,10.9-4.175.534-15.869-5.65-24.751-18.313L43.3,59.474l13.161,7.5L64.181,47.3S68.7,34.182,78.238,41.41" transform="translate(-2.167 8.822)" fill="#808dff"/>
          <path id="Path_1000315" data-name="Path 1000315" d="M51.959,61.882s2.6,1.237,2.891,5.876" transform="translate(2.336 13.913)" fill="none" stroke="#5c67c8" stroke-miterlimit="10" stroke-width="0.75"/>
          <path id="Path_1000316" data-name="Path 1000316" d="M79.621,59.373S68.2,59.295,67.432,51.718L83.5,54.587Z" transform="translate(-45.508 11.628)" fill="#e0b79a"/>
          <path id="Path_1000317" data-name="Path 1000317" d="M66.553,54.59H48.29V51.7H66.553a1.444,1.444,0,1,1,0,2.888" transform="translate(-6.278 11.624)" fill="#727997"/>
          <path id="Path_1000318" data-name="Path 1000318" d="M106.866,59.775H72.511a4.4,4.4,0,0,1-4.245-3.185l-6.7-23.769a3.306,3.306,0,0,1,3.216-4.182H96.336a2.9,2.9,0,0,1,2.812,2.141Z" transform="translate(-61.441 6.439)" fill="#b0c0d2"/>
          <path id="Path_1000319" data-name="Path 1000319" d="M84.807,43.026a3.25,3.25,0,1,1-3.25-3.21,3.23,3.23,0,0,1,3.25,3.21" transform="translate(-60.299 8.952)" fill="#fff"/>
          <path id="Path_1000320" data-name="Path 1000320" d="M34.135,34.057l17.571,7.692a3.05,3.05,0,0,1,1.817,3.177l-2.6,50.332H13.61L12.286,45.578A4.394,4.394,0,0,1,13.608,41.9L24.443,34Z" transform="translate(52.882 7.644)" fill="#808dff"/>
          <path id="Path_1000321" data-name="Path 1000321" d="M41.132,35.929,35.273,44.7l-5.688-4.9-5.754,2.864V35.517" transform="translate(50.941 7.986)" fill="none" stroke="#5c67c8" stroke-miterlimit="10" stroke-width="0.75"/>
          <path id="Path_1000322" data-name="Path 1000322" d="M34.582,39.012s-.156,11.652-.712,15.323c-2.342,15.483.868,26.754.868,26.754" transform="translate(45.944 8.771)" fill="none" stroke="#5c67c8" stroke-miterlimit="10" stroke-width="0.75"/>
          <path id="Path_1000323" data-name="Path 1000323" d="M43.715,42.47a72.657,72.657,0,0,0-1.336,25.522" transform="translate(25.992 9.549)" fill="none" stroke="#5c67c8" stroke-miterlimit="10" stroke-width="0.75"/>
          <path id="Path_1000324" data-name="Path 1000324" d="M17.829,70.17l11.732-.26L31.133,76.2l-13.2-.516Z" transform="translate(68.385 15.718)" fill="#e0b79a"/>
          <path id="Path_1000325" data-name="Path 1000325" d="M43.752,71.5,36.4,64.334a1.126,1.126,0,0,0-1.39-.138,1.094,1.094,0,0,0-.358,1.467l1.451,2.5-6.386-.359a1.19,1.19,0,0,0-1.194,1.531l1.358,4.414a1.184,1.184,0,0,0,.75.774c2.5.857,9.121,4.1,13.228,2.477Z" transform="translate(42.461 14.393)" fill="#e0b79a"/>
          <path id="Path_1000326" data-name="Path 1000326" d="M15.8,40.659s5.047,2.177,14.149,27.134c0,0,3.437,9.6,1.754,11.444C28.947,82.252,15.343,86.871.183,83.4L0,75.217,16.763,72.7,9.275,53.744S3.809,41.494,15.8,40.659" transform="translate(89.464 9.142)" fill="#808dff"/>
          <path id="Path_1000327" data-name="Path 1000327" d="M22.964,74.183c-3.155-3.252-7.614-1.634-7.614-1.634L7.861,53.59s-4.965-9.07,2.7-12.239" transform="translate(90.877 9.297)" fill="none" stroke="#5c67c8" stroke-miterlimit="10" stroke-width="0.75"/>
          <path id="Path_1000328" data-name="Path 1000328" d="M24.4,79.179s-9.458.567-11.977,0V69.334l16.764-2.512" transform="translate(77.044 15.024)" fill="none" stroke="#5c67c8" stroke-miterlimit="10" stroke-width="0.75"/>
          <path id="Path_1000329" data-name="Path 1000329" d="M42.285,10.631s-3.929,4.145.955,10.643l4.016-9.159Z" transform="translate(23.782 2.39)" fill="#1f2326"/>
          <path id="Path_1000330" data-name="Path 1000330" d="M37.373,19.964l-12.3,8.4-.166,9.671,4.482,4.947,10.023-3.812.233-14.405Z" transform="translate(51.096 4.489)" fill="#e0b79a"/>
          <path id="Path_1000331" data-name="Path 1000331" d="M27.964,36.05s11.884,1.123,10.971-14.822l-4.042,2.3-7.022,7.746Z" transform="translate(48.077 4.773)" fill="#c98f80"/>
          <path id="Path_1000332" data-name="Path 1000332" d="M35.861,35.831l.4.047a10.749,10.749,0,0,0,11.955-9.336l1.411-11.935a2.762,2.762,0,0,0-2.447-3.056L33.092,9.926a4.968,4.968,0,0,0-5.527,4.316l-1.158,9.784a10.674,10.674,0,0,0,9.453,11.8" transform="translate(39.324 2.224)" fill="#e0b79a"/>
          <path id="Path_1000333" data-name="Path 1000333" d="M48.7,11.419c-1.1-7.239-6.932-7.691-8.5-7.806s-5.864,1.3-7.866-.145C30.445,2.1,28.109-.907,22.813.267,19.175,1.074,16.559,6.408,20.2,11.8c3.386,5.019,18.605,4.608,21.789,4.466-.583,2.292-1.671,7.992,1.152,10.346a10.022,10.022,0,0,0,3.334,5.923C63.31,13.979,48.7,11.419,48.7,11.419" transform="translate(44.166 0)" fill="#1f2326"/>
          <path id="Path_1000334" data-name="Path 1000334" d="M22.936,20.628a3.881,3.881,0,1,0,4.3-3.362,3.842,3.842,0,0,0-4.3,3.362" transform="translate(62.543 3.876)" fill="#e0b79a"/>
          <path id="Path_1000335" data-name="Path 1000335" d="M35.587,18.8a.879.879,0,1,0,.913-.834.873.873,0,0,0-.913.834" transform="translate(40.148 4.038)" fill="#1f2326"/>
          <path id="Path_1000336" data-name="Path 1000336" d="M41.6,18.075a.879.879,0,1,0,.913-.834.873.873,0,0,0-.913.834" transform="translate(26.668 3.876)" fill="#1f2326"/>
          <path id="Path_1000337" data-name="Path 1000337" d="M39.852,19.419,39.215,21.7s0,1.322,1.939,1.026" transform="translate(31.839 4.366)" fill="none" stroke="#c98f80" stroke-linecap="round" stroke-linejoin="round" stroke-width="0.565"/>
          <path id="Path_1000338" data-name="Path 1000338" d="M38.334,17.225a.825.825,0,0,1-.164-.009l-3.935-.6a.8.8,0,1,1,.247-1.571l3.934.6a.794.794,0,0,1-.082,1.58" transform="translate(40.916 3.381)" fill="#1f2326"/>
          <path id="Path_1000339" data-name="Path 1000339" d="M44.043,16.2a.808.808,0,0,1-.162-.009l-2.406-.366a.8.8,0,0,1-.673-.906.8.8,0,0,1,.918-.665l2.406.366a.794.794,0,0,1-.082,1.58" transform="translate(26.23 3.203)" fill="#1f2326"/>
          <path id="Path_1000340" data-name="Path 1000340" d="M42.879,23.779s-2.143,1.656-6.583.178" transform="translate(33.734 5.346)" fill="none" stroke="#c98f80" stroke-linecap="round" stroke-linejoin="round" stroke-width="0.565"/>
          <path id="Path_1000341" data-name="Path 1000341" d="M29.21,84.013l1.105,57.829,4.028,49.9,13.777.013-2.528-49.9-1.043-57.84Z" transform="translate(37.282 18.889)" fill="#20202a"/>
          <path id="Path_1000342" data-name="Path 1000342" d="M45.431,171.964,39.1,176.822l-5.694,1.134a5.967,5.967,0,0,0-4.8,5.31l-.108,1.229,31.6-.048-.884-12.469Z" transform="translate(26.195 38.664)"/>
          <path id="Path_1000343" data-name="Path 1000343" d="M60.244,182.817l-31.845.049,0-1.99a.716.716,0,0,1,.718-.713l31.125-.047Z" transform="translate(26.167 40.497)" fill="#20202a"/>
          <path id="Path_1000344" data-name="Path 1000344" d="M32.088,86.73V97.2a10.19,10.19,0,0,0,4.371,8.346l.033.023" transform="translate(45.34 19.5)" fill="none" stroke="#141416" stroke-miterlimit="10" stroke-width="0.75"/>
          <line id="Line_3357" data-name="Line 3357" x1="14.001" transform="translate(71.149 205.389)" fill="none" stroke="#141416" stroke-miterlimit="10" stroke-width="0.75"/>
          <path id="Path_1000345" data-name="Path 1000345" d="M37.213,84.013,36.7,142.45l3.335,49.3-13.763-.011-5.622-49.614L12.613,84.013Z" transform="translate(65.948 18.889)" fill="#20202a"/>
          <path id="Path_1000346" data-name="Path 1000346" d="M28.847,171.966l-6.342,4.855-5.694,1.134a5.967,5.967,0,0,0-4.8,5.311l-.108,1.229,31.6-.049-.884-12.469Z" transform="translate(63.375 38.664)"/>
          <path id="Path_1000347" data-name="Path 1000347" d="M43.647,182.817l-31.845.049,0-1.99a.716.716,0,0,1,.718-.713l31.125-.047Z" transform="translate(63.349 40.497)" fill="#20202a"/>
          <line id="Line_3358" data-name="Line 3358" x1="36.52" transform="translate(66.487 106.23)" fill="none" stroke="#141416" stroke-miterlimit="10" stroke-width="0.75"/>
          <path id="Path_1000348" data-name="Path 1000348" d="M32.129,111.357c-.093-.792,0-24.627,0-24.627" transform="translate(49.703 19.5)" fill="none" stroke="#141416" stroke-miterlimit="10" stroke-width="0.75"/>
          <line id="Line_3359" data-name="Line 3359" x1="14.001" transform="translate(91.497 205.389)" fill="none" stroke="#141416" stroke-miterlimit="10" stroke-width="0.75"/>
        </g>
      </g>
    </g>
  </g>
</svg>
