<svg id="img23" xmlns="http://www.w3.org/2000/svg" xmlns:xlink="http://www.w3.org/1999/xlink" width="140" height="320" viewBox="0 0 140 320">
  <defs>
    <clipPath id="clip-path">
      <rect id="Rectangle_458984" data-name="Rectangle 458984" width="140" height="320" fill="none"/>
    </clipPath>
    <clipPath id="clip-path-2">
      <rect id="Rectangle_458985" data-name="Rectangle 458985" width="121.181" height="305.95" fill="none"/>
    </clipPath>
  </defs>
  <g id="Group_1185274" data-name="Group 1185274">
    <g id="Group_1185273" data-name="Group 1185273" clip-path="url(#clip-path)">
      <path id="Path_1031435" data-name="Path 1031435" d="M80,234.369h60v83.376H0v-2.606c0-44.608,35.817-80.77,80-80.77" transform="translate(0 2.255)" fill="#69d7e5"/>
      <path id="Path_1031436" data-name="Path 1031436" d="M10.434,35.58H52.965a2.158,2.158,0,0,0,2.147-2.168V19.106a2.159,2.159,0,0,0-2.143-2.174H10.434A2.157,2.157,0,0,0,8.287,19.1h0V33.407a2.159,2.159,0,0,0,2.144,2.173Z" transform="translate(0 0.163)" fill="#19538d"/>
      <line id="Line_3395" data-name="Line 3395" x1="31.12" transform="translate(15.753 24.245)" fill="none" stroke="#fff" stroke-linecap="round" stroke-linejoin="round" stroke-width="1.076"/>
      <line id="Line_3396" data-name="Line 3396" x1="10.655" transform="translate(15.856 29.199)" fill="none" stroke="#fff" stroke-linecap="round" stroke-linejoin="round" stroke-width="1.076"/>
      <path id="Path_1031437" data-name="Path 1031437" d="M48.535,32.946v8.431L37.888,32.946Z" transform="translate(0 0.317)" fill="#19538d"/>
    </g>
  </g>
  <g id="Group_1185276" data-name="Group 1185276" transform="translate(12.819 0)">
    <g id="Group_1185275" data-name="Group 1185275" clip-path="url(#clip-path-2)">
      <path id="Path_1031438" data-name="Path 1031438" d="M109.222,13s2.1,28.131,7.106,44.032c.91,3.048.429,6.965-1.089,8.862-5.816,7.233-22.136,20.819-42.762,4.271-1.385-1.159-2.2-4-2-6.927.473-7.578,3.9-22.4,8.874-35.637Z" transform="translate(-12.819 0.131)" fill="#aa7304"/>
      <path id="Path_1031439" data-name="Path 1031439" d="M68.937,293.805l-8.979,4.148a2.25,2.25,0,0,0-1.3,2.53c.208.814.929,1.582,2.9,1.681,4.367.222,23.8-2.206,23.8-2.206l-.094,2.962,9.04.121s.953-12.177-1.732-13.8Z" transform="translate(-12.819 2.913)"/>
      <path id="Path_1031440" data-name="Path 1031440" d="M82.6,283.859,68.936,293.871s1.4,4.037,8.229,1.6,15.413-6.163,15.413-6.163l-.147-6.512Z" transform="translate(-12.819 2.848)" fill="#ecaea4"/>
      <path id="Path_1031441" data-name="Path 1031441" d="M76,157.108l-.14,59.011a7.363,7.363,0,0,0,8.271,6.357c.08-.01.16-.023.239-.036,3.28-.573,7.125,1.318,7.426-2.055,1.412-15.843,4.887-66.1-.969-79.143Z" transform="translate(-12.819 1.422)" fill="#ecaea4"/>
      <path id="Path_1031442" data-name="Path 1031442" d="M75.852,215.5l6.621,69.159,10.021,1.773L95.185,255s2-38.164-10.455-52.156Z" transform="translate(-12.819 2.042)" fill="#ecaea4"/>
      <path id="Path_1031443" data-name="Path 1031443" d="M97.534,294.105l-8.838,4.44a2.251,2.251,0,0,0-1.215,2.571c.23.807.979,1.549,2.947,1.588,4.372.079,23.723-2.988,23.723-2.988v2.962l9.04-.175s.566-12.2-2.169-13.732Z" transform="translate(-12.819 2.908)"/>
      <path id="Path_1031444" data-name="Path 1031444" d="M110.872,283.713,97.529,294.169s1.524,3.992,8.276,1.33,15.208-6.662,15.208-6.662l-.352-6.5Z" transform="translate(-12.819 2.843)" fill="#ecaea4"/>
      <path id="Path_1031445" data-name="Path 1031445" d="M93.57,157.57l8.275,58.662a7.355,7.355,0,0,0,8.466,6.084c.081-.014.162-.029.241-.045,3.261-.68,7.163,1.085,7.358-2.3.909-15.881,2.8-66.23-3.473-79.07Z" transform="translate(-12.819 1.419)" fill="#ecaea4"/>
      <path id="Path_1031446" data-name="Path 1031446" d="M101.845,215.61l8.9,68.9,10.071,1.445,1.692-31.508s.7-38.209-12.191-51.784Z" transform="translate(-12.819 2.041)" fill="#ecaea4"/>
      <path id="Path_1031447" data-name="Path 1031447" d="M116.253,120.044s10.682,61.171,7.3,122.27c0,0-27.96,4.411-55.525-2.12,0,0,3.964-116.763,7.967-129.282Z" transform="translate(-12.819 1.117)" fill="#19538d"/>
      <path id="Path_1031448" data-name="Path 1031448" d="M81.7,53.356s-14.487,3.3-17.277,22.7l9.162,8.193Z" transform="translate(-12.819 0.537)" fill="#94a3f7"/>
      <path id="Path_1031449" data-name="Path 1031449" d="M51.936,109.293c.266-.431,5.815,2.521,5.98,2.037A213.419,213.419,0,0,0,69.308,87.705c1.678-3.966-.361-16.189-4.586-16.584-3.1-.288-6.862,5.552-7.641,8.622l-7.958,19.63Z" transform="translate(-12.819 0.716)" fill="#ecaea4"/>
      <path id="Path_1031450" data-name="Path 1031450" d="M55.847,101.057,26,84.178l-2.808,3.076,23.973,24.821a6.917,6.917,0,0,0,9.85.19,7.032,7.032,0,0,0,1.6-2.36,7.18,7.18,0,0,0-2.769-8.848" transform="translate(-12.819 0.848)" fill="#ecaea4"/>
      <path id="Path_1031451" data-name="Path 1031451" d="M13.412,82.66a9.832,9.832,0,0,0,3.564,9.756c3.278,2.592,7.6,2.512,9.654-.179s-.016-13.888-3.293-16.482-8.724.735-9.928,6.9" transform="translate(-12.819 0.754)" fill="#ecaea4"/>
      <path id="Path_1031452" data-name="Path 1031452" d="M111.236,111.835c-1.22.008-35.239-.4-35.239-.4l1.154-52.647,26.267,4.9Z" transform="translate(-12.819 0.592)" fill="#94a3f7"/>
      <path id="Path_1031453" data-name="Path 1031453" d="M103.549,53.111,93.013,51.089,85.195,52.42,79.01,64.809s-1.872,5.684,7.726,6.714,16.366-5.766,18.021-10-1.208-8.409-1.208-8.409" transform="translate(-12.819 0.514)" fill="#94a3f7"/>
      <path id="Path_1031454" data-name="Path 1031454" d="M85.195,52.407s-8.118,16.841-6.379,34.365-6.06,43.575-6.06,43.575L71.162,74.378s.355-20.15,14.033-21.971" transform="translate(-12.819 0.528)" fill="#94a3f7"/>
      <path id="Path_1031455" data-name="Path 1031455" d="M72.246,66.7s-3.327,8.014-1.26,21.581" transform="translate(-12.819 0.672)" fill="none" stroke="#1e0a00" stroke-linecap="round" stroke-linejoin="round" stroke-width="0.358"/>
      <path id="Path_1031456" data-name="Path 1031456" d="M103.553,53.091s-21.5,35.191,15.347,77.727l-6.03-75.095Z" transform="translate(-12.819 0.535)" fill="#94a3f7"/>
      <path id="Path_1031457" data-name="Path 1031457" d="M116.787,121.3l2.261,10.095s-28.436,16.4-46.508.193l.519-12.2,4-17.845,33.152,5.533Z" transform="translate(-12.819 1.022)" fill="#94a3f7"/>
      <path id="Path_1031458" data-name="Path 1031458" d="M112.8,55.679s17.716,4.052,18.133,40.509L109.7,93.869l-2.54-29.676Z" transform="translate(-12.819 0.561)" fill="#94a3f7"/>
      <path id="Path_1031459" data-name="Path 1031459" d="M110.161,102.393s-4.575-4.679-.461-8.9c0,0,12.65-1.834,21.513,2.227a4.769,4.769,0,0,1,2.76,4.825,7.3,7.3,0,0,1-3.164,5.3s-4.641-3.247-20.648-3.456" transform="translate(-12.819 0.937)" fill="#d9ccbe"/>
      <line id="Line_3397" data-name="Line 3397" x1="3.241" y1="22.13" transform="translate(93.641 72.299)" fill="none" stroke="#1e0a00" stroke-linecap="round" stroke-linejoin="round" stroke-width="0.358"/>
      <path id="Path_1031460" data-name="Path 1031460" d="M110.158,102.307l-33.095,3.806,1.753,6.637,44.651,1.7c4.472.172,6.686-4.184,7.339-8.69,0,0-8.137-6.294-20.648-3.456" transform="translate(-12.819 1.023)" fill="#ecaea4"/>
      <path id="Path_1031461" data-name="Path 1031461" d="M64,109.4c.119,4.2,4.367,7.483,9.48,7.331s12.223-3.243,12.1-7.443-9.628-9.969-14.744-9.819S63.883,105.2,64,109.4" transform="translate(-12.819 1.002)" fill="#ecaea4"/>
      <path id="Path_1031462" data-name="Path 1031462" d="M109.223,106.051l-35.277-.459.052-4.05,35.276.46a2.025,2.025,0,0,1-.05,4.049" transform="translate(-12.819 1.022)" fill="#121314"/>
      <path id="Path_1031463" data-name="Path 1031463" d="M78.59,106.053l-52.031-.678a4.189,4.189,0,0,1-3.984-3.163L12.911,65.054a2.75,2.75,0,0,1,2.667-3.479l50.638.659a2.147,2.147,0,0,1,2.045,1.648Z" transform="translate(-12.819 0.62)" fill="#445158"/>
      <path id="Path_1031464" data-name="Path 1031464" d="M45.757,85.03a3.969,3.969,0,1,1-3.917-4.09A3.987,3.987,0,0,1,45.757,85.03Z" transform="translate(-12.819 0.815)" fill="#83949a"/>
      <path id="Path_1031465" data-name="Path 1031465" d="M80.308,25.947a4.774,4.774,0,0,1-5.984,3.185l-.032-.01A4.9,4.9,0,0,1,71.172,23a4.775,4.775,0,0,1,5.985-3.184l.032.01a4.894,4.894,0,0,1,3.119,6.122" transform="translate(-12.819 0.197)" fill="#d9918a"/>
      <path id="Path_1031466" data-name="Path 1031466" d="M85.776,35.874l.215,19.753,13.955-.42L95.122,24.918Z" transform="translate(-12.819 0.251)" fill="#ecaea4"/>
      <path id="Path_1031467" data-name="Path 1031467" d="M85.909,46.638l9.306-10.124L85.8,38.7Z" transform="translate(-12.819 0.368)" fill="#30182a"/>
      <path id="Path_1031468" data-name="Path 1031468" d="M77.154,7.251a7.144,7.144,0,0,0-2.341,4.043c-.976,4.653-2.9,14.332-1.336,19.305,2.028,6.467,7.117,10.608,15.441,9.108,0,0,9.632-.32,12.186-14.681C104.728,4.65,87.615-1.516,77.154,7.251" transform="translate(-12.819 0.034)" fill="#ecaea4"/>
      <path id="Path_1031469" data-name="Path 1031469" d="M76.4,25.775a1.1,1.1,0,0,1-1.355.764,1.11,1.11,0,0,1-.756-1.369,1.1,1.1,0,1,1,2.114.593l0,.012" transform="translate(-12.819 0.245)"/>
      <path id="Path_1031470" data-name="Path 1031470" d="M85.664,26.082a1.1,1.1,0,0,1-1.356.762,1.11,1.11,0,0,1-.754-1.37,1.1,1.1,0,0,1,1.346-.765,1.109,1.109,0,0,1,.768,1.36l0,.013" transform="translate(-12.819 0.248)"/>
      <path id="Path_1031471" data-name="Path 1031471" d="M78.227,28.245l-.872,2.064a.555.555,0,0,0,.286.727c.021.009.043.017.065.024l1.154.331" transform="translate(-12.819 0.284)" fill="none" stroke="#1e0a00" stroke-linecap="round" stroke-linejoin="round" stroke-width="0.361"/>
      <path id="Path_1031472" data-name="Path 1031472" d="M81.206,20.252l7.832.3a4.446,4.446,0,0,0-3.78-2.176A4.842,4.842,0,0,0,81.2,20.252" transform="translate(-12.819 0.185)" fill="#aa7304"/>
      <path id="Path_1031473" data-name="Path 1031473" d="M72.177,20.212l4.783.088s-.6-2.051-2.255-2.069-2.527,1.981-2.527,1.981" transform="translate(-12.819 0.184)" fill="#aa7304"/>
      <path id="Path_1031474" data-name="Path 1031474" d="M85.7,32.169a6.045,6.045,0,0,1-6.141,1.338" transform="translate(-12.819 0.324)" fill="none" stroke="#1e0a00" stroke-linecap="round" stroke-linejoin="round" stroke-width="0.361"/>
      <path id="Path_1031475" data-name="Path 1031475" d="M97.483,23.494s-6.782-.905-3.859-13.38a82.4,82.4,0,0,1-18.676.532S77.379-2.934,96.606.581C116.58,4.233,108.9,27.7,101.376,34.5Z" transform="translate(-12.819 0)" fill="#aa7304"/>
      <path id="Path_1031476" data-name="Path 1031476" d="M107.123,27.534a5.58,5.58,0,0,1-7,3.719l-.033-.01a5.7,5.7,0,0,1-3.727-7.118,5.626,5.626,0,0,1,7.046-3.765,5.7,5.7,0,0,1,3.727,7.117c0,.019-.011.037-.017.057" transform="translate(-12.819 0.202)" fill="#ecaea4"/>
      <path id="Path_1031477" data-name="Path 1031477" d="M104.334,24.142A4.091,4.091,0,0,0,99.223,26.9a4.311,4.311,0,0,0-.13.573" transform="translate(-12.819 0.241)" fill="none" stroke="#1e0a00" stroke-linecap="round" stroke-linejoin="round" stroke-width="0.361"/>
      <path id="Path_1031478" data-name="Path 1031478" d="M80.853,10.867s3.075,6.879,14.9,11.8l2.112-4.326s2.906-8.572,2.693-8.715-5.338-2.72-5.338-2.72L82.632,8.055l-6.448-.672s-5.4,6-2.775,10.961c0,0,1.42-8.388,7.444-7.478" transform="translate(-12.819 0.07)" fill="#aa7304"/>
    </g>
  </g>
  <g id="Group_1185278" data-name="Group 1185278">
    <g id="Group_1185277" data-name="Group 1185277" clip-path="url(#clip-path)">
      <path id="Path_1031479" data-name="Path 1031479" d="M98.4,54.126l1.542.806s-4.14,5.109-10.377,4.06-2.5-6.964-2.5-6.964Z" transform="translate(0 0.501)" fill="#ecaea4"/>
    </g>
  </g>
</svg>
