<svg xmlns="http://www.w3.org/2000/svg" xmlns:xlink="http://www.w3.org/1999/xlink" width="140" height="320.001" viewBox="0 0 140 320.001">
  <defs>
    <clipPath id="clip-path">
      <rect id="Rectangle_458990" data-name="Rectangle 458990" width="140" height="320.001" fill="none"/>
    </clipPath>
  </defs>
  <g id="img24" clip-path="url(#clip-path)">
    <path id="Path_1031517" data-name="Path 1031517" d="M80,237.42h60V320H0V317.42a80,80,0,0,1,80-80" fill="#69d7e5"/>
    <path id="Path_1031518" data-name="Path 1031518" d="M49.052,295.686l-8.5,3.886a2.1,2.1,0,0,0-1.226,2.371c.2.762.88,1.481,2.74,1.574,4.133.208,22.525-2.066,22.525-2.066l-.089,2.774,8.554.113s.9-11.408-1.639-12.923Z"/>
    <path id="Path_1031519" data-name="Path 1031519" d="M61.985,286.307l-12.933,9.381s1.322,3.782,7.786,1.5,14.585-5.775,14.585-5.775l-.139-6.1Z" fill="#e08e6a"/>
    <path id="Path_1031520" data-name="Path 1031520" d="M55.6,221.513,61.862,286.3l9.481,1.661,2.547-29.445s1.9-35.753-9.893-48.86Z" fill="#e08e6a"/>
    <path id="Path_1031521" data-name="Path 1031521" d="M86.426,295.86l-8.363,4.16a2.1,2.1,0,0,0-1.149,2.408c.217.756.925,1.452,2.788,1.487,4.137.074,22.448-2.8,22.448-2.8v2.775l8.554-.164s.535-11.432-2.053-12.864Z"/>
    <path id="Path_1031522" data-name="Path 1031522" d="M99.047,286.065l-12.625,9.8s1.441,3.739,7.83,1.245,14.391-6.241,14.391-6.241l-.334-6.092Z" fill="#e08e6a"/>
    <path id="Path_1031523" data-name="Path 1031523" d="M90.506,221.514l8.419,64.55,9.53,1.354,1.6-29.517s.665-35.795-11.535-48.513Z" fill="#e08e6a"/>
    <path id="Path_1031524" data-name="Path 1031524" d="M57.25,123.39S56.1,125.769,54,147.674c-.431,4.5-.7,10.776-.651,15.3L52.279,284.7l24.828-.207L75.907,171.1a.287.287,0,0,1,.57-.038L92.06,285.668l23.161-.73L102.315,126.805l-11.836-1.574Z" fill="#3a4b9e"/>
    <line id="Line_3401" data-name="Line 3401" x1="11.746" y1="4.287" transform="translate(64.696 166.325)" fill="none" stroke="#1e0a00" stroke-linecap="round" stroke-linejoin="round" stroke-width="0.417"/>
    <path id="Path_1031525" data-name="Path 1031525" d="M50.773,64.6S37.1,72.357,38.357,99.9l12.771.526Z" fill="#c2b3a3"/>
    <path id="Path_1031526" data-name="Path 1031526" d="M64.305,55.268,50.772,64.6s-5.839,5.622-5.924,8.738l-2.172,76.411a6.2,6.2,0,0,0,9.511,5.244l1.365-.843Z" fill="#c2b3a3"/>
    <path id="Path_1031527" data-name="Path 1031527" d="M49.607,77.223s-2.536,9.493-2.536,29.764" fill="none" stroke="#1e0a00" stroke-linecap="round" stroke-linejoin="round" stroke-width="0.417"/>
    <path id="Path_1031528" data-name="Path 1031528" d="M64.305,55.268s-10.1,24.091-8.166,71.4h31.74L81.488,53.009Z" fill="#fff"/>
    <path id="Path_1031529" data-name="Path 1031529" d="M81.492,53.009l23.06,16.013a8.371,8.371,0,0,1,3.628,6.6l2.57,71.885-19.911,7.714c-8.721,2.108-12.929,2.291-13.465-5.625-1.695-25.059-3.44-63.96,4.118-96.589" fill="#c2b3a3"/>
    <path id="Path_1031530" data-name="Path 1031530" d="M107.573,72.777c7.805,16.755,15.979,51.49,15.979,51.49a11.426,11.426,0,0,1-22.664,2.926L86.755,79.685c-2.4-14.109,20.819-6.907,20.819-6.907" fill="#c2b3a3"/>
    <line id="Line_3402" data-name="Line 3402" x2="2.957" y2="10.444" transform="translate(87.877 82.513)" fill="none" stroke="#1e0a00" stroke-linecap="round" stroke-linejoin="round" stroke-width="0.417"/>
    <path id="Path_1031531" data-name="Path 1031531" d="M82.438,89.614s-2.526-8.9-11.688-9.77S58.892,85.972,60.616,90.576s7.685,12.1,16.717,8.27,5.1-9.233,5.1-9.233" fill="#e08e6a"/>
    <path id="Path_1031532" data-name="Path 1031532" d="M67.709,79.861s-9,1-15.695,4.177a1.713,1.713,0,0,0-.956,1.78,1.78,1.78,0,0,0,2.031,1.487c.022,0,.045-.007.067-.012l12.419-2.257Z" fill="#e08e6a"/>
    <path id="Path_1031533" data-name="Path 1031533" d="M103.931,133.588,78.837,108.772l2.195-23.408,24.36,19.415Z" fill="#c2b3a3"/>
    <line id="Line_3403" data-name="Line 3403" x2="24.587" y2="19.948" transform="translate(81.031 85.363)" fill="none" stroke="#1e0a00" stroke-linecap="round" stroke-linejoin="round" stroke-width="0.417"/>
    <path id="Path_1031534" data-name="Path 1031534" d="M79.85,97.952l-1.014,10.823,25.1,24.813a20.418,20.418,0,0,0,6.218,3.5" fill="none" stroke="#1e0a00" stroke-linecap="round" stroke-linejoin="round" stroke-width="0.417"/>
    <path id="Path_1031535" data-name="Path 1031535" d="M23.662,93.9,32.982,136a3.169,3.169,0,0,0,3.173,2.448l34.659-.59a3.124,3.124,0,0,0,3.12-3.126,3.193,3.193,0,0,0-.07-.654l-9.741-42.1a3.172,3.172,0,0,0-3.167-2.42l-34.24.59a3.123,3.123,0,0,0-3.061,3.752" fill="#121314"/>
    <path id="Path_1031536" data-name="Path 1031536" d="M24.611,90.958l-2.048,2.055,48.547,45.82,2.192-2.209Z" fill="#121314"/>
    <path id="Path_1031537" data-name="Path 1031537" d="M21.819,95.736l9.321,42.106a3.169,3.169,0,0,0,3.173,2.448l34.659-.59a3.122,3.122,0,0,0,3.125-3.119,3.192,3.192,0,0,0-.07-.661l-9.741-42.1a3.172,3.172,0,0,0-3.167-2.42l-34.24.59a3.123,3.123,0,0,0-3.061,3.752" fill="#445158"/>
    <path id="Path_1031538" data-name="Path 1031538" d="M40.884,111.127a3.627,3.627,0,0,0,3.262,3.956l.027,0a3.677,3.677,0,0,0,4.072-3.2,3.625,3.625,0,0,0-3.261-3.956l-.029,0a3.677,3.677,0,0,0-4.071,3.2" fill="#83949a"/>
    <path id="Path_1031539" data-name="Path 1031539" d="M21.192,108.217,23.8,118.5a2.837,2.837,0,0,0,2.814,2.1,6.18,6.18,0,0,0,6.182-6.179,6.263,6.263,0,0,0-.1-1.1l-.671-3.424a6.246,6.246,0,0,0-5.781-4.969l-2.1-.135a2.794,2.794,0,0,0-2.952,3.426" fill="#e08e6a"/>
    <path id="Path_1031540" data-name="Path 1031540" d="M78.26,40.437c.352,2.191.721,4.382,1.242,6.541.263,1.094.565,2.18.922,3.249A32.157,32.157,0,0,1,81.5,53.31c.342,1.514-1.7,3.484-2.86,4.755a13.848,13.848,0,0,1-7.588,4.54,12.06,12.06,0,0,1-2.569.01c-2.241-.075-3.6-1.7-4.021-3.8a8.122,8.122,0,0,1,.327-3.444,13.215,13.215,0,0,0,.329-3.872,12.938,12.938,0,0,1,.282-3.6c.284.6-.453.9-.407,1.556a14.077,14.077,0,0,1,.1,2.177c4.625-1.907,7.3-6.438,8.613-11.411-1.012.43-1.342,1.36-2.021,2.045a17.7,17.7,0,0,1-5.967,4.056c-.43.174-.984.1-1.084.738-1.329-.124-2.727.109-4.1-.1A9.23,9.23,0,0,1,54.2,42.747a19.114,19.114,0,0,1-2.611-5.383,14.756,14.756,0,0,1-1.03-3.915c-.016-.909-.5-1.625-.53-2.4l-.083-2c-.12-2.863-.613-3.433-.488-6.649,1.773-.491,4.37-4.25,5.571-5.944a4.032,4.032,0,0,0,4.5,2.236c4.181-.654,6.281-5.173,6.594-4.139.179.6.244,1.237.484,1.88a5.085,5.085,0,0,0,6.059,3.286c-.738,3.006.963,6.45,3.737,6.617,1.121-1.575,3.073-3.15,5.1-2.371a3.565,3.565,0,0,1,2.186,2.038,6.186,6.186,0,0,1-3.2,8.073,3.654,3.654,0,0,1-2.929-.367c-.22.748.2,1.3.241,1.983M67.637,23.409a4.6,4.6,0,0,0-5.123-1.074c-.491.159-1.654.806-1.108,1.38-.265.663,5.964.146,6.231-.306m-12.785.935c-.026-.685-3.642-1.362-4.96,1.543-.123.269.456.359.654.29.827-.285,4.325-1.33,4.306-1.833m26.345,2.2a.343.343,0,0,0,.26-.379c-.047-.134-.2-.2-.44-.281a4.034,4.034,0,0,0-3.078,4.676c.027.133.434-.023.4-.126-.246-.882.863-3.6,2.853-3.89M64.843,29.568c.552-.176.642-1.032.568-1.568a1.246,1.246,0,0,0-1.118-1.009c-.831.022-1.064.876-.953,1.534a1.263,1.263,0,0,0,1.5,1.043m-10.434,1.1a1.379,1.379,0,0,0,.362-1.412c-.108-.319-.48-.855-.934-.894a1.215,1.215,0,1,0,.572,2.306m2.907,2.805c-.6-.931.908-2.5.627-4.93-.028-.242-.413-.276-.533-.2.2-.13-.962,4.252-.991,4.566-.145,1.557,2.583,2.15,2.922,1.722.789-.993-1.572-.451-2.025-1.158m22.883-.35c.422-.223.34-.888.124-1.243a.9.9,0,0,0-1.192-.339.943.943,0,0,0-.29,1.289.953.953,0,0,0,1.358.293m-16.935,4.1c.5-.316,2.467-1.79,1.163-1.958a6.85,6.85,0,0,1-6.612,2.287c-.277-.063-.485-.064-.626.128a.455.455,0,0,0,.009.559c.145.177.389.141.637.169a8,8,0,0,0,5.429-1.185" fill="#e08e6a"/>
    <path id="Path_1031541" data-name="Path 1031541" d="M82.88,38.454a.467.467,0,0,0-.41.125c-.071.072-.116.16-.025.26a.721.721,0,0,0-.174.01c-.138.042-.423.03-.41.229a3.766,3.766,0,0,1-1.172.378,8.45,8.45,0,0,1-2.544-.13A22.012,22.012,0,0,1,77.8,35.7c-.045-.681-.461-1.236-.241-1.984a3.654,3.654,0,0,0,2.929.368,6.186,6.186,0,0,0,3.2-8.073A3.564,3.564,0,0,0,81.5,23.968c-2.023-.779-3.975.8-5.1,2.371-2.774-.166-4.475-3.611-3.737-6.617a5.083,5.083,0,0,1-6.059-3.285c-.24-.643-.305-1.286-.484-1.88-.313-1.034-2.413,3.484-6.594,4.138a4.031,4.031,0,0,1-4.5-2.236c-1.2,1.695-3.8,5.454-5.571,5.945-.125,3.216.368,3.785.488,6.649l.083,2a4.849,4.849,0,0,1-3.812-2.528c-1.508-2.325-.531-4.632-.811-5.05l-1.667-2.487c-.653-.973-.439-2.651.035-3.9.945-2.5,2.8-3.241,2.581-4.015a8.519,8.519,0,0,1,2.509-8.009,10.523,10.523,0,0,1,5.983-2.61,10.177,10.177,0,0,1,5.721.908,7,7,0,0,1,11.606-.441c.4.551.941-.1,1.317-.249a5.529,5.529,0,0,1,4.85.259,6.906,6.906,0,0,1,3.34,5.329c2.63.022,5.737,1.151,6.635,3.891a8.207,8.207,0,0,1,.109,3.664c-.057.368-.5.581-.4.935.208.745,2.774,2.265,2.731,5.011a4.937,4.937,0,0,1-2.2,4.224c-.492.35.561,1.736.592,3.3a4.667,4.667,0,0,1-4.322,4.672,4.885,4.885,0,0,1-1.947,4.507" fill="#445157"/>
    <path id="Path_1031542" data-name="Path 1031542" d="M64.628,47.485c-.045-.215.032-.345,0-.424.1-.637.654-.563,1.085-.737a17.723,17.723,0,0,0,5.966-4.057c.679-.684,1.009-1.614,2.021-2.045-1.317,4.973-3.987,9.5-8.612,11.411a14.822,14.822,0,0,0-.462-4.148" fill="#445157"/>
    <path id="Path_1031543" data-name="Path 1031543" d="M82.88,38.454c-.021.119-.035.294-.152.349a.7.7,0,0,1-.283.036c-.091-.1-.046-.188.025-.26a.467.467,0,0,1,.41-.125" fill="#445157"/>
    <path id="Path_1031544" data-name="Path 1031544" d="M82.271,38.849c-.065.187-.277.153-.41.229-.014-.2.272-.187.41-.229" fill="#445157"/>
    <path id="Path_1031545" data-name="Path 1031545" d="M54.448,285.819c-.011.143.045.447-.155.46a1.04,1.04,0,0,1-.192-.188.167.167,0,0,1,.066-.247c.111-.059.193-.1.281-.025" fill="#3d4d9e"/>
    <path id="Path_1031546" data-name="Path 1031546" d="M67.637,23.409c-.267.453-6.5.97-6.231.307-.546-.574.617-1.222,1.108-1.38a4.6,4.6,0,0,1,5.123,1.073" fill="#445157"/>
    <path id="Path_1031547" data-name="Path 1031547" d="M63.264,37.225a8,8,0,0,1-5.429,1.185c-.248-.028-.492.008-.637-.169a.455.455,0,0,1-.009-.559c.141-.192.349-.191.626-.128a6.85,6.85,0,0,0,6.612-2.287c1.3.168-.662,1.642-1.163,1.958" fill="#445157"/>
    <path id="Path_1031548" data-name="Path 1031548" d="M57.316,33.471c.453.707,2.814.165,2.026,1.158-.34.428-3.068-.165-2.923-1.722.03-.314,1.194-4.7.992-4.566.119-.076.5-.042.532.2.281,2.427-1.224,4-.627,4.93" fill="#445157"/>
    <path id="Path_1031549" data-name="Path 1031549" d="M54.852,24.344c.019.5-3.478,1.547-4.306,1.833-.2.068-.776-.021-.654-.291,1.318-2.9,4.934-2.227,4.96-1.542" fill="#445157"/>
    <path id="Path_1031550" data-name="Path 1031550" d="M64.843,29.568a1.261,1.261,0,0,1-1.5-1.043c-.112-.658.121-1.512.952-1.533A1.247,1.247,0,0,1,65.412,28c.074.536-.017,1.392-.569,1.567" fill="#445157"/>
    <path id="Path_1031551" data-name="Path 1031551" d="M54.409,30.666a1.215,1.215,0,1,1-.572-2.306c.455.039.825.574.934.894a1.381,1.381,0,0,1-.362,1.412" fill="#445157"/>
    <path id="Path_1031552" data-name="Path 1031552" d="M81.2,26.546c-1.99.29-3.1,3.008-2.852,3.89.028.1-.379.259-.406.126a4.035,4.035,0,0,1,3.078-4.676c.244.082.393.147.44.281a.341.341,0,0,1-.26.379" fill="#445157"/>
    <path id="Path_1031553" data-name="Path 1031553" d="M80.2,33.121a.954.954,0,1,1-1.068-1.582.9.9,0,0,1,1.192.339c.216.355.3,1.021-.124,1.243" fill="#f0e0c8"/>
  </g>
</svg>
