<svg xmlns="http://www.w3.org/2000/svg" xmlns:xlink="http://www.w3.org/1999/xlink" width="84" height="84" viewBox="0 0 84 84">
  <defs>
    <clipPath id="clip-path">
      <path id="path550" d="M0-682.665H51.447v51.447H0Z" transform="translate(0 682.665)" fill="#fff"/>
    </clipPath>
  </defs>
  <g id="img10" transform="translate(-758.711 -4849)">
    <rect id="Rectangle_458790" data-name="Rectangle 458790" width="84" height="84" rx="42" transform="translate(758.711 4849)" fill="#1e535a"/>
    <g id="g540" transform="translate(778.711 5547.665)">
      <g id="g542" transform="translate(19.66 -674.645)">
        <path id="path544" d="M-224.722-211.541l-19.129-8.871,4.583-10.544,19.262,8.878Zm-15.191-10.368,13.688,6.348,2.25-5.027-13.756-6.341Z" transform="translate(243.85 230.956)" fill="#fff"/>
      </g>
      <g id="g546" transform="translate(0 -682.665)">
        <g id="g548" clip-path="url(#clip-path)">
          <g id="g554" transform="translate(0 0.022)">
            <path id="path556" d="M-408.336-610.942h-34.33v-42.3h17.245l4.2-9.122,29.975,13.952Zm-31.315-3.015h23.562L-438.648-624.5l11.84-25.73h-12.843Zm4.994-12.007,24.612,11.5,14.813-32.485-24.519-11.413Z" transform="translate(442.666 662.367)" fill="#fff"/>
          </g>
        </g>
      </g>
      <g id="g558" transform="translate(12.018 -650.442)">
        <path id="path560" d="M-243.293-124.325l-19.144-8.877,1.268-2.735,19.144,8.877Z" transform="translate(262.437 135.937)" fill="#fff"/>
      </g>
      <g id="g562" transform="translate(14.554 -655.911)">
        <path id="path564" d="M-243.292-124.325l-19.144-8.877,1.268-2.735,19.144,8.877Z" transform="translate(262.436 135.937)" fill="#fff"/>
      </g>
      <g id="g566" transform="translate(17.09 -661.381)">
        <path id="path568" d="M-243.293-124.325l-19.144-8.877,1.268-2.735,19.144,8.877Z" transform="translate(262.437 135.937)" fill="#fff"/>
      </g>
    </g>
  </g>
</svg>
