<svg xmlns="http://www.w3.org/2000/svg" xmlns:xlink="http://www.w3.org/1999/xlink" width="98" height="98" viewBox="0 0 98 98">
  <defs>
    <clipPath id="clip-path">
      <rect id="Rectangle_454829" data-name="Rectangle 454829" width="98" height="98" fill="#1e535a"/>
    </clipPath>
  </defs>
  <g id="img3" transform="translate(-909 -522.147)">
    <g id="Group_1185045" data-name="Group 1185045" transform="translate(723 -3801.482)">
      <g id="Group_1177591" data-name="Group 1177591" transform="translate(186 4323.629)">
        <g id="Group_1177589" data-name="Group 1177589" transform="translate(0 0)">
          <g id="Group_1177587" data-name="Group 1177587" clip-path="url(#clip-path)">
            <path id="Path_997422" data-name="Path 997422" d="M93.682,43.23A44.9,44.9,0,0,0,83.539,19.863a5.164,5.164,0,0,0-7.266-6.957A44.838,44.838,0,0,0,53.059,3.836a5.165,5.165,0,0,0-10.032.2,44.9,44.9,0,0,0-22.274,9.522,5.167,5.167,0,0,0-7.171,7.22,44.862,44.862,0,0,0-9.4,22.4A5.169,5.169,0,0,0,4.06,53.308a44.849,44.849,0,0,0,9.1,22.859,5.166,5.166,0,0,0,7.019,7.295,44.9,44.9,0,0,0,22.8,9.973,5.167,5.167,0,0,0,10.122.2A44.858,44.858,0,0,0,76.492,84.4a5.165,5.165,0,0,0,7.23-6.993A44.915,44.915,0,0,0,93.8,53.259a5.167,5.167,0,0,0-.121-10.03M79.093,22.408a5.137,5.137,0,0,0,2.861-.866,42.642,42.642,0,0,1,9.411,21.675,5.174,5.174,0,0,0-3.3,2.392L74.858,40.657c.01-.144.021-.291.021-.441a5.167,5.167,0,0,0-2.188-4.222l5.777-13.628a5.6,5.6,0,0,0,.626.041M76.3,21.585l-5.74,13.538a5.114,5.114,0,0,0-5.691,3.287l-23.89-5.5a5.027,5.027,0,0,0-.108-1.028l33.9-11.806A5.183,5.183,0,0,0,76.3,21.585M48.068,10.342a5.171,5.171,0,0,0,5.075-4.194A42.572,42.572,0,0,1,74.67,14.566a5.142,5.142,0,0,0-.748,2.67,5.429,5.429,0,0,0,.049.683L39.9,29.782a5.186,5.186,0,0,0-.936-.936L47.9,10.334c.057,0,.111.008.168.008m-5.029-3.99a5.172,5.172,0,0,0,2.6,3.384L36.879,27.88a5.185,5.185,0,0,0-1.067-.111,5.133,5.133,0,0,0-2.946.925L22.48,20.021a5.14,5.14,0,0,0-.175-4.758A42.606,42.606,0,0,1,43.039,6.351M10.215,47.138l21.48-11.079a5.152,5.152,0,0,0,4.075,2.049l7.362,23.531a5.256,5.256,0,0,0-1.139,1.26L10.151,49.633a5.136,5.136,0,0,0,.191-1.371,5.2,5.2,0,0,0-.126-1.124m5.073-24.815a5.167,5.167,0,0,0,5.771-.492l10.254,8.563a5.156,5.156,0,0,0-.57,3.573L9.228,45.06a5.169,5.169,0,0,0-2.737-1.794,42.587,42.587,0,0,1,8.8-20.943m2.139,51.6a5.155,5.155,0,0,0-2.567.686A42.549,42.549,0,0,1,6.372,53.285a5.175,5.175,0,0,0,2.683-1.619l32.159,13.4a5.543,5.543,0,0,0-.041.621,5.169,5.169,0,0,0,.309,1.748L22.034,76.752a5.17,5.17,0,0,0-4.606-2.83M43.086,91.133A42.648,42.648,0,0,1,21.81,81.825a5.117,5.117,0,0,0,.789-2.732l0-.059,20.137-9.651a5.17,5.17,0,0,0,1.825,1.152l1.206,17.34a5.171,5.171,0,0,0-2.678,3.258m2.142-30.491-7.2-23.034a5.178,5.178,0,0,0,2.457-2.457L64.563,40.7a5.14,5.14,0,0,0,.822,2.351L48.867,61.175a5.107,5.107,0,0,0-3.64-.534M53.1,91.334a5.169,5.169,0,0,0-5.034-4.006l-.039,0-1.147-16.5a5.162,5.162,0,0,0,3.16-1.534l24.078,10.62c0,.046-.008.088-.008.134a5.145,5.145,0,0,0,.766,2.7A42.569,42.569,0,0,1,53.1,91.334M74.7,77.662,51.249,67.315a5.14,5.14,0,0,0-.678-4.6L67.04,44.64a5.14,5.14,0,0,0,2.668.748,5.691,5.691,0,0,0,.634-.041L76.5,75.7a5.159,5.159,0,0,0-1.8,1.962m7.419-1.933a5.139,5.139,0,0,0-3.436-.812L72.525,44.55a5.191,5.191,0,0,0,1.629-1.7l13.2,4.949a4.584,4.584,0,0,0-.023.464,5.169,5.169,0,0,0,4.155,5.068,42.6,42.6,0,0,1-9.365,22.4" transform="translate(0 0.331)" fill="#1e535a"/>
          </g>
        </g>
      </g>
      <g id="Path_1030180" data-name="Path 1030180" transform="translate(201.16 4339.102)" fill="#1e535a">
        <path d="M 33.68505859375 65.87094116210938 C 29.33944892883301 65.87094116210938 25.12461853027344 65.02017211914062 21.15764808654785 63.34226226806641 C 17.32525825500488 61.72127914428711 13.88309860229492 59.4003791809082 10.92678833007812 56.44404220581055 C 7.970488548278809 53.48770141601562 5.649618625640869 50.04550170898438 4.028648376464844 46.21305084228516 C 2.35075855255127 42.24602890014648 1.499998569488525 38.0311393737793 1.499998569488525 33.68547058105469 C 1.499998569488525 29.33979988098145 2.35075855255127 25.12491035461426 4.028648376464844 21.15789031982422 C 5.649618625640869 17.32544136047363 7.970488548278809 13.88324069976807 10.92678833007812 10.92690086364746 C 13.88309860229492 7.970560550689697 17.32525825500488 5.649660587310791 21.15764808654785 4.028680801391602 C 25.12461853027344 2.350770473480225 29.33944892883301 1.500000596046448 33.68505859375 1.500000596046448 C 38.03067779541016 1.500000596046448 42.24551010131836 2.350770473480225 46.21246719360352 4.028680801391602 C 50.04486846923828 5.649660587310791 53.48703002929688 7.970560550689697 56.44332885742188 10.92690086364746 C 59.39962768554688 13.88324069976807 61.72050857543945 17.32544136047363 63.34146881103516 21.15789031982422 C 65.01935577392578 25.12491035461426 65.8701171875 29.33979988098145 65.8701171875 33.68547058105469 C 65.8701171875 38.0311393737793 65.01935577392578 42.24602890014648 63.34146881103516 46.21305084228516 C 61.72050857543945 50.04550170898438 59.39962768554688 53.48770141601562 56.44332885742188 56.44404220581055 C 53.48703002929688 59.4003791809082 50.04486846923828 61.72127914428711 46.21246719360352 63.34226226806641 C 42.24551010131836 65.02017211914062 38.03067779541016 65.87094116210938 33.68505859375 65.87094116210938 Z" stroke="none"/>
        <path d="M 33.68505859375 3.000007629394531 C 29.54128265380859 3.000007629394531 25.52304840087891 3.810905456542969 21.74198150634766 5.410182952880859 C 18.08838272094727 6.955535888671875 14.80649185180664 9.168491363525391 11.98745727539062 11.987548828125 C 9.168426513671875 14.80661392211914 6.955501556396484 18.08855819702148 5.410160064697266 21.74220275878906 C 3.810890197753906 25.52333831787109 3 29.5416259765625 3 33.68547058105469 C 3 37.82931518554688 3.810890197753906 41.84760284423828 5.410160064697266 45.62873840332031 C 6.955501556396484 49.28237915039062 9.168426513671875 52.56432723999023 11.98745727539062 55.38339233398438 C 14.80649185180664 58.20244598388672 18.08838272094727 60.4154052734375 21.74198150634766 61.96075820922852 C 25.52304840087891 63.56003570556641 29.54128265380859 64.37094116210938 33.68505859375 64.37094116210938 C 37.82883453369141 64.37094116210938 41.84706878662109 63.56003570556641 45.62813568115234 61.96075820922852 C 49.28173828125 60.4154052734375 52.56362533569336 58.20244598388672 55.38265991210938 55.38339233398438 C 58.20169067382812 52.56432723999023 60.41461563110352 49.28237915039062 61.95995712280273 45.62873840332031 C 63.55922698974609 41.84760284423828 64.3701171875 37.82931518554688 64.3701171875 33.68547058105469 C 64.3701171875 29.5416259765625 63.55922698974609 25.52333831787109 61.95995712280273 21.74220275878906 C 60.41461563110352 18.08855819702148 58.20169067382812 14.80661392211914 55.38265991210938 11.987548828125 C 52.56362533569336 9.168491363525391 49.28173828125 6.955535888671875 45.62813568115234 5.410182952880859 C 41.84706878662109 3.810905456542969 37.82883453369141 3.000007629394531 33.68505859375 3.000007629394531 M 33.68505859375 7.62939453125e-06 C 52.28880310058594 7.62939453125e-06 67.3701171875 15.08149337768555 67.3701171875 33.68547058105469 C 67.3701171875 52.28944778442383 52.28880310058594 67.37093353271484 33.68505859375 67.37093353271484 C 15.08131408691406 67.37093353271484 0 52.28944778442383 0 33.68547058105469 C 0 15.08149337768555 15.08131408691406 7.62939453125e-06 33.68505859375 7.62939453125e-06 Z" stroke="none" fill="#1e535a"/>
      </g>
      <g id="Icons" transform="translate(214.711 4353.482)">
        <path id="Path_1031378" data-name="Path 1031378" d="M38.873,2H2.046A2.046,2.046,0,0,0,0,4.046V29.961a2.046,2.046,0,0,0,2.046,2.046H15v1.718L11.85,36.249a.682.682,0,0,0-.256.533v1.364a2.046,2.046,0,0,0,2.046,2.046h13.64a2.046,2.046,0,0,0,2.046-2.046V36.781a.682.682,0,0,0-.256-.533l-3.154-2.523V32.007H38.873a2.046,2.046,0,0,0,2.046-2.046V4.046A2.046,2.046,0,0,0,38.873,2ZM26.7,36.1H14.219l1.7-1.364h9.07Zm.58,2.728H13.64a.682.682,0,0,1-.682-.682v-.682h15v.682A.682.682,0,0,1,27.279,38.827Zm-2.728-5.456H16.368V32.007h8.184Zm15-3.41a.682.682,0,0,1-.682.682H2.046a.682.682,0,0,1-.682-.682V4.046a.682.682,0,0,1,.682-.682H38.873a.682.682,0,0,1,.682.682Z" transform="translate(0)" fill="#fff"/>
        <path id="Path_1031379" data-name="Path 1031379" d="M38.1,6H5.364A1.364,1.364,0,0,0,4,7.364v19.1a1.364,1.364,0,0,0,1.364,1.364H38.1a1.364,1.364,0,0,0,1.364-1.364V7.364A1.364,1.364,0,0,0,38.1,6ZM5.364,26.46V20.322H7.535a2.046,2.046,0,1,0,0-1.364H5.364V14.866H7.535a2.046,2.046,0,1,0,0-1.364H5.364V7.364H38.1V13.5H35.928a2.046,2.046,0,1,0,0,1.364H38.1v4.092H35.928a2.046,2.046,0,1,0,0,1.364H38.1V26.46Zm3.41-6.82a.682.682,0,1,1,.682.682A.682.682,0,0,1,8.774,19.64Zm0-5.456a.682.682,0,1,1,.682.682A.682.682,0,0,1,8.774,14.184Zm25.915,0a.682.682,0,1,1-.682-.682A.682.682,0,0,1,34.689,14.184Zm0,5.456a.682.682,0,1,1-.682-.682A.682.682,0,0,1,34.689,19.64Z" transform="translate(-1.272 -1.272)" fill="#fff"/>
        <path id="Path_1031380" data-name="Path 1031380" d="M30.41,40H27.682a.682.682,0,1,0,0,1.364H30.41a.682.682,0,1,0,0-1.364Z" transform="translate(-8.586 -12.085)" fill="#fff"/>
        <path id="Path_1031381" data-name="Path 1031381" d="M33.686,14.774a.682.682,0,0,0,0-1.364H33a2.046,2.046,0,0,0-2.046-2.046v-.682a.682.682,0,1,0-1.364,0v.682H28.23v-.682a.682.682,0,1,0-1.364,0v.682H25.5v-.682a.682.682,0,1,0-1.364,0v.682H22.774v-.682a.682.682,0,1,0-1.364,0v.682a2.046,2.046,0,0,0-2.046,2.046h-.682a.682.682,0,1,0,0,1.364h.682v1.364h-.682a.682.682,0,1,0,0,1.364h.682v1.364h-.682a.682.682,0,1,0,0,1.364h.682v1.364h-.682a.682.682,0,1,0,0,1.364h.682A2.046,2.046,0,0,0,21.41,25v.682a.682.682,0,1,0,1.364,0V25h1.364v.682a.682.682,0,1,0,1.364,0V25h1.364v.682a.682.682,0,1,0,1.364,0V25h1.364v.682a.682.682,0,1,0,1.364,0V25A2.046,2.046,0,0,0,33,22.958h.682a.682.682,0,0,0,0-1.364H33V20.23h.682a.682.682,0,0,0,0-1.364H33V17.5h.682a.682.682,0,0,0,0-1.364H33V14.774ZM31.64,22.958a.682.682,0,0,1-.682.682H21.41a.682.682,0,0,1-.682-.682V13.41a.682.682,0,0,1,.682-.682h9.548a.682.682,0,0,1,.682.682Z" transform="translate(-5.724 -2.544)" fill="#fff"/>
        <path id="Path_1031382" data-name="Path 1031382" d="M25.364,20.092h1.364a1.364,1.364,0,0,0,1.364-1.364V17.364A1.364,1.364,0,0,0,26.728,16H25.364A1.364,1.364,0,0,0,24,17.364v1.364A1.364,1.364,0,0,0,25.364,20.092Zm0-2.728h1.364v1.364H25.364Z" transform="translate(-7.632 -4.452)" fill="#fff"/>
        <path id="Path_1031383" data-name="Path 1031383" d="M34.046,16H32.682a.682.682,0,1,0,0,1.364h1.364a.682.682,0,1,0,0-1.364Z" transform="translate(-10.176 -4.452)" fill="#fff"/>
        <path id="Path_1031384" data-name="Path 1031384" d="M34.046,20H32.682a.682.682,0,1,0,0,1.364h1.364a.682.682,0,1,0,0-1.364Z" transform="translate(-10.176 -5.724)" fill="#fff"/>
        <path id="Path_1031385" data-name="Path 1031385" d="M31.5,25h-6.82a.682.682,0,1,0,0,1.364H31.5A.682.682,0,0,0,31.5,25Z" transform="translate(-7.632 -7.314)" fill="#fff"/>
      </g>
    </g>
  </g>
</svg>
