<svg xmlns="http://www.w3.org/2000/svg" width="84" height="84" viewBox="0 0 84 84">
  <g id="img8" transform="translate(-266.711 -4849)">
    <rect id="Rectangle_458788" data-name="Rectangle 458788" width="84" height="84" rx="42" transform="translate(266.711 4849)" fill="#1e535a"/>
    <g id="nuevo-empleado" transform="translate(251.383 4865.698)">
      <g id="Group_1185235" data-name="Group 1185235" transform="translate(37.524 0)">
        <path id="Trazado_1031366" data-name="Trazado 1031366" d="M60.679,45.513H37.524V10.41L47.934,0H71.617V30.014H68.579V3.038H49.193l-8.63,8.63V42.475H60.679Z" transform="translate(-37.524 0)" fill="#fff"/>
      </g>
      <path id="Línea_3383" data-name="Línea 3383" d="M5.7-11.962H0V-15H5.7Z" transform="translate(43.569 33.458)" fill="#fff"/>
      <path id="Línea_3384" data-name="Línea 3384" d="M21.971-11.962H0V-15H21.971Z" transform="translate(43.569 39.535)" fill="#fff"/>
      <path id="Trazado_1031367" data-name="Trazado 1031367" d="M63.564,26.04H52.524V23h8V15h3.038Z" transform="translate(-13.481 -13.481)" fill="#fff"/>
      <g id="Group_1185236" data-name="Group 1185236" transform="translate(52.306 6.077)">
        <path id="Trazado_1031368" data-name="Trazado 1031368" d="M196.707,137.6H183.472v-2.22a6.652,6.652,0,0,1,4.28-6.192l1.073,2.842a3.6,3.6,0,0,0-2.219,2.532h6.966a3.6,3.6,0,0,0-2.218-2.531l1.074-2.842a6.652,6.652,0,0,1,4.279,6.192Z" transform="translate(-183.472 -122.181)" fill="#fff"/>
        <path id="Elipse_13738" data-name="Elipse 13738" d="M-9.791-15A5.215,5.215,0,0,1-4.582-9.791,5.215,5.215,0,0,1-9.791-4.582,5.215,5.215,0,0,1-15-9.791,5.215,5.215,0,0,1-9.791-15Zm0,7.379a2.173,2.173,0,0,0,2.17-2.17,2.173,2.173,0,0,0-2.17-2.17,2.173,2.173,0,0,0-2.17,2.17A2.173,2.173,0,0,0-9.791-7.621Z" transform="translate(16.409 15)" fill="#fff"/>
      </g>
      <path id="Línea_3385" data-name="Línea 3385" d="M20.233-11.962H0V-15H20.233Z" transform="translate(43.569 45.612)" fill="#fff"/>
      <g id="Group_1185237" data-name="Group 1185237" transform="translate(53.579 23.656)">
        <path id="Elipse_13739" data-name="Elipse 13739" d="M11.681,0A11.681,11.681,0,1,1,0,11.681,11.694,11.694,0,0,1,11.681,0Zm0,20.323a8.642,8.642,0,1,0-8.642-8.642A8.652,8.652,0,0,0,11.681,20.323Z" transform="translate(0 16.519) rotate(-45)" fill="#fff"/>
      </g>
      <path id="Línea_3386" data-name="Línea 3386" d="M-11.962,10.5H-15V0h3.038Z" transform="translate(83.579 34.923)" fill="#fff"/>
      <path id="Línea_3387" data-name="Línea 3387" d="M10.5-11.962H0V-15H10.5Z" transform="translate(64.846 53.656)" fill="#fff"/>
    </g>
  </g>
</svg>
