<svg xmlns="http://www.w3.org/2000/svg" xmlns:xlink="http://www.w3.org/1999/xlink" width="151.457" height="151.466" viewBox="0 0 151.457 151.466">
  <defs>
    <radialGradient id="radial-gradient" cx="0.5" cy="0.5" r="0.5" gradientUnits="objectBoundingBox">
      <stop offset="0" stop-color="#fff"/>
      <stop offset="0.866" stop-color="#fff" stop-opacity="0.078"/>
      <stop offset="1" stop-color="#fff" stop-opacity="0"/>
    </radialGradient>
    <clipPath id="clip-path">
      <rect id="Rectangle_454829" data-name="Rectangle 454829" width="96.667" height="96.667" fill="none"/>
    </clipPath>
    <clipPath id="clip-path-2">
      <rect id="Rectangle_454808" data-name="Rectangle 454808" width="151.457" height="151.466" fill="none"/>
    </clipPath>
  </defs>
  <g id="banner-principal-decorativo-2" transform="translate(12884 12022.243)">
    <circle id="Ellipse_13691" data-name="Ellipse 13691" cx="71" cy="71" r="71" transform="translate(-12879 -12018)" fill="url(#radial-gradient)"/>
    <g id="Group_1184527" data-name="Group 1184527" transform="translate(-13752.938 -12169.697)">
      <g id="Group_1177598" data-name="Group 1177598" transform="translate(-16)">
        <g id="Group_1177592" data-name="Group 1177592" transform="translate(0 5)">
          <g id="Group_1177591" data-name="Group 1177591">
            <g id="Group_1177589" data-name="Group 1177589" transform="translate(912.333 169.854)">
              <g id="Group_1177587" data-name="Group 1177587" transform="translate(0 0)" clip-path="url(#clip-path)">
                <path id="Path_997422" data-name="Path 997422" d="M92.72,42.786A44.443,44.443,0,0,0,82.681,19.659a5.111,5.111,0,0,0-7.192-6.886A44.377,44.377,0,0,0,52.514,3.8a5.112,5.112,0,0,0-9.929.2A44.438,44.438,0,0,0,20.54,13.422a5.114,5.114,0,0,0-7.1,7.146,44.4,44.4,0,0,0-9.3,22.175,5.116,5.116,0,0,0-.122,10.019,44.388,44.388,0,0,0,9.011,22.624,5.113,5.113,0,0,0,6.947,7.22,44.435,44.435,0,0,0,22.568,9.871,5.114,5.114,0,0,0,10.019.2,44.4,44.4,0,0,0,23.144-9.143,5.112,5.112,0,0,0,7.156-6.921,44.454,44.454,0,0,0,9.978-23.9,5.114,5.114,0,0,0-.12-9.927M78.281,22.177a5.085,5.085,0,0,0,2.832-.857,42.2,42.2,0,0,1,9.314,21.453,5.121,5.121,0,0,0-3.268,2.367l-13.07-4.9c.01-.143.02-.288.02-.436a5.114,5.114,0,0,0-2.166-4.179l5.717-13.488a5.54,5.54,0,0,0,.62.041m-2.763-.814-5.681,13.4A5.061,5.061,0,0,0,64.2,38.015L40.559,32.568a4.975,4.975,0,0,0-.107-1.018L74,19.866a5.13,5.13,0,0,0,1.513,1.5M47.575,10.235A5.118,5.118,0,0,0,52.6,6.085a42.135,42.135,0,0,1,21.3,8.332,5.089,5.089,0,0,0-.74,2.643,5.372,5.372,0,0,0,.048.676L39.49,29.476a5.133,5.133,0,0,0-.926-.926l8.845-18.323c.056,0,.11.008.166.008M42.6,6.286a5.119,5.119,0,0,0,2.574,3.35L36.5,27.594a5.132,5.132,0,0,0-1.056-.11,5.08,5.08,0,0,0-2.916.916L22.249,19.815a5.087,5.087,0,0,0-.173-4.709A42.168,42.168,0,0,1,42.6,6.286M10.11,46.654,31.369,35.689A5.1,5.1,0,0,0,35.4,37.717l7.286,23.29a5.2,5.2,0,0,0-1.128,1.248L10.047,49.123a5.083,5.083,0,0,0,.189-1.357,5.143,5.143,0,0,0-.125-1.112m5.021-24.56a5.114,5.114,0,0,0,5.712-.487l10.149,8.475a5.1,5.1,0,0,0-.564,3.536L9.133,44.6a5.116,5.116,0,0,0-2.709-1.776,42.149,42.149,0,0,1,8.707-20.728m2.117,51.07a5.1,5.1,0,0,0-2.541.679,42.112,42.112,0,0,1-8.4-21.1,5.122,5.122,0,0,0,2.656-1.6L40.791,64.4a5.487,5.487,0,0,0-.041.615,5.117,5.117,0,0,0,.306,1.73L21.808,75.964a5.117,5.117,0,0,0-4.559-2.8M42.643,90.2a42.21,42.21,0,0,1-21.057-9.212,5.064,5.064,0,0,0,.781-2.7l0-.059,19.93-9.552a5.118,5.118,0,0,0,1.806,1.14l1.194,17.162A5.117,5.117,0,0,0,42.643,90.2m2.12-30.178-7.131-22.8a5.125,5.125,0,0,0,2.431-2.431L63.9,40.278a5.087,5.087,0,0,0,.814,2.327L48.365,60.547a5.054,5.054,0,0,0-3.6-.528M52.557,90.4a5.116,5.116,0,0,0-4.982-3.965l-.038,0L46.4,70.1a5.108,5.108,0,0,0,3.128-1.518L73.359,79.1c0,.046-.008.087-.008.133a5.092,5.092,0,0,0,.758,2.669,42.132,42.132,0,0,1-21.552,8.5M73.933,76.865,50.723,66.624a5.087,5.087,0,0,0-.671-4.551l16.3-17.891a5.087,5.087,0,0,0,2.64.74,5.635,5.635,0,0,0,.628-.041l6.092,30.043a5.106,5.106,0,0,0-1.778,1.941m7.342-1.913a5.087,5.087,0,0,0-3.4-.8L71.78,44.092a5.138,5.138,0,0,0,1.612-1.684l13.062,4.9a4.535,4.535,0,0,0-.023.459,5.116,5.116,0,0,0,4.113,5.016,42.167,42.167,0,0,1-9.268,22.17" transform="translate(0 0.001)" fill="#fff"/>
              </g>
            </g>
          </g>
        </g>
        <circle id="Ellipse_13614" data-name="Ellipse 13614" cx="28" cy="28" r="28" transform="translate(932.833 195)" fill="#fff"/>
        <g id="_x31_6" transform="translate(939.668 200.145)">
          <path id="Path_1030181" data-name="Path 1030181" d="M26.394,34.732a1.394,1.394,0,1,1,0-2.789,1.4,1.4,0,0,0,1.394-1.394V28.915a4.149,4.149,0,0,1,.866-2.549,4.149,4.149,0,0,1-.866-2.549V22.183a1.4,1.4,0,0,0-1.394-1.394,1.394,1.394,0,1,1,0-2.789,4.188,4.188,0,0,1,4.183,4.183v1.634a1.407,1.407,0,0,0,.408.986l.577.577a1.394,1.394,0,0,1,0,1.972l-.577.577a1.407,1.407,0,0,0-.408.986v1.634a4.188,4.188,0,0,1-4.183,4.183Z" transform="translate(9.069 6.309)" fill="#6cb9ff"/>
          <path id="Path_1030182" data-name="Path 1030182" d="M23.577,34.732a4.188,4.188,0,0,1-4.183-4.183V28.915a1.407,1.407,0,0,0-.408-.986l-.577-.577a1.394,1.394,0,0,1,0-1.972l.577-.577a1.407,1.407,0,0,0,.408-.986V22.183A4.188,4.188,0,0,1,23.577,18a1.394,1.394,0,1,1,0,2.789,1.4,1.4,0,0,0-1.394,1.394v1.634a4.149,4.149,0,0,1-.866,2.549,4.149,4.149,0,0,1,.866,2.549v1.634a1.4,1.4,0,0,0,1.394,1.394,1.394,1.394,0,1,1,0,2.789Z" transform="translate(6.309 6.309)" fill="#6cb9ff"/>
          <path id="Path_1030183" data-name="Path 1030183" d="M10.394,34.732a1.394,1.394,0,1,1,0-2.789,1.4,1.4,0,0,0,1.394-1.394V28.915a4.149,4.149,0,0,1,.866-2.549,4.149,4.149,0,0,1-.866-2.549V22.183a1.4,1.4,0,0,0-1.394-1.394,1.394,1.394,0,1,1,0-2.789,4.188,4.188,0,0,1,4.183,4.183v1.634a1.407,1.407,0,0,0,.408.986l.577.577a1.394,1.394,0,0,1,0,1.972l-.577.577a1.407,1.407,0,0,0-.408.986v1.634a4.188,4.188,0,0,1-4.183,4.183Z" transform="translate(2.76 6.309)" fill="#6cb9ff"/>
          <path id="Path_1030184" data-name="Path 1030184" d="M7.577,34.732a4.188,4.188,0,0,1-4.183-4.183V28.915a1.407,1.407,0,0,0-.408-.986l-.577-.577a1.394,1.394,0,0,1,0-1.972l.577-.577a1.407,1.407,0,0,0,.408-.986V22.183A4.188,4.188,0,0,1,7.577,18a1.394,1.394,0,0,1,0,2.789,1.4,1.4,0,0,0-1.394,1.394v1.634a4.149,4.149,0,0,1-.866,2.549,4.149,4.149,0,0,1,.866,2.549v1.634a1.4,1.4,0,0,0,1.394,1.394,1.394,1.394,0,0,1,0,2.789Z" transform="translate(0 6.309)" fill="#6cb9ff"/>
          <path id="Path_1030185" data-name="Path 1030185" d="M10.183,29.366a1.39,1.39,0,0,1-.986-.408L6.408,26.169a1.394,1.394,0,0,1,0-1.972L9.2,21.408a1.394,1.394,0,1,1,1.972,1.972l-1.8,1.8,1.8,1.8a1.394,1.394,0,0,1-.986,2.38Z" transform="translate(1.577 7.492)" fill="#6cb9ff"/>
          <path id="Path_1030186" data-name="Path 1030186" d="M23.394,29.366a1.394,1.394,0,0,1-.986-2.38l1.8-1.8-1.8-1.8a1.394,1.394,0,0,1,1.972-1.972L27.169,24.2a1.394,1.394,0,0,1,0,1.972L24.38,28.957a1.39,1.39,0,0,1-.986.408Z" transform="translate(7.886 7.492)" fill="#6cb9ff"/>
          <path id="Path_1030187" data-name="Path 1030187" d="M7,20.366H9.789V17.577h2.789a1.394,1.394,0,0,0,1.394-1.394V12H11.183v2.789H8.394A1.394,1.394,0,0,0,7,16.183Z" transform="translate(1.972 3.943)" fill="#6cb9ff"/>
          <path id="Path_1030188" data-name="Path 1030188" d="M26.972,20.366H24.183V17.577H21.394A1.394,1.394,0,0,1,20,16.183V12h2.789v2.789h2.789a1.394,1.394,0,0,1,1.394,1.394Z" transform="translate(7.098 3.943)" fill="#6cb9ff"/>
          <path id="Path_1030189" data-name="Path 1030189" d="M25.732,2H11.789A2.789,2.789,0,0,0,9,4.789V11.76a2.789,2.789,0,0,0,2.789,2.789h5.577v1.394H15.972a1.394,1.394,0,0,0,0,2.789h5.577a1.394,1.394,0,0,0,0-2.789H20.155V14.549h5.577a2.789,2.789,0,0,0,2.789-2.789V4.789A2.789,2.789,0,0,0,25.732,2Zm-8.645,8.5a.7.7,0,0,1-.836,1.117,4.184,4.184,0,0,1,0-6.694.7.7,0,0,1,.836,1.117,2.788,2.788,0,0,0,0,4.461Zm4.183,1.117a.7.7,0,0,1-.836-1.117,2.788,2.788,0,0,0,0-4.461.7.7,0,0,1,.836-1.117,4.184,4.184,0,0,1,0,6.694Z" transform="translate(2.76 0)" fill="#6cb9ff"/>
        </g>
      </g>
    </g>
  </g>
</svg>
