<svg xmlns="http://www.w3.org/2000/svg" xmlns:xlink="http://www.w3.org/1999/xlink" width="86" height="86" viewBox="0 0 86 86">
  <defs>
    <clipPath id="clip-path">
      <rect id="Rectangle_456117" data-name="Rectangle 456117" width="54.268" height="51.965" fill="none"/>
    </clipPath>
    <clipPath id="clip-path-3">
      <rect id="Rectangle_456112" data-name="Rectangle 456112" width="11.872" height="10.22" fill="none"/>
    </clipPath>
    <clipPath id="clip-path-4">
      <rect id="Rectangle_456114" data-name="Rectangle 456114" width="2.14" height="2.14" fill="none"/>
    </clipPath>
    <clipPath id="clip-path-5">
      <rect id="Rectangle_456115" data-name="Rectangle 456115" width="6.628" height="18.07" fill="none"/>
    </clipPath>
  </defs>
  <g id="img13" transform="translate(-204.711 -4055)">
    <g id="Group_1184604" data-name="Group 1184604" transform="translate(-690.007 -3228.659)">
      <g id="Group_1180176" data-name="Group 1180176" transform="translate(894.718 7283.659)">
        <g id="Group_1180053" data-name="Group 1180053" transform="translate(18.067 17.767)">
          <rect id="Rectangle_401104" data-name="Rectangle 401104" width="49.866" height="50.466" transform="translate(0 0)" fill="none"/>
        </g>
        <g id="Ellipse_13693" data-name="Ellipse 13693" fill="#344866" stroke="#6cb9ff" stroke-linecap="round" stroke-width="3">
          <circle cx="43" cy="43" r="43" stroke="none"/>
          <circle cx="43" cy="43" r="41.5" fill="none"/>
        </g>
      </g>
    </g>
    <g id="Group_1184699" data-name="Group 1184699" transform="translate(220.711 4072)">
      <g id="Group_1179689" data-name="Group 1179689" clip-path="url(#clip-path)">
        <rect id="Rectangle_456099" data-name="Rectangle 456099" width="36.928" height="42.732" transform="translate(7.641 6.167)" fill="#fff"/>
        <rect id="Rectangle_456100" data-name="Rectangle 456100" width="12.991" height="11.029" transform="translate(9.764 8.864)" fill="#b2d5d6"/>
        <rect id="Rectangle_456101" data-name="Rectangle 456101" width="18.137" height="1.758" transform="translate(24.552 8.864)" fill="#727997"/>
        <rect id="Rectangle_456102" data-name="Rectangle 456102" width="14.463" height="1.758" transform="translate(24.552 11.928)" fill="#727997"/>
        <rect id="Rectangle_456103" data-name="Rectangle 456103" width="18.137" height="1.758" transform="translate(24.552 14.992)" fill="#727997"/>
        <rect id="Rectangle_456104" data-name="Rectangle 456104" width="15.687" height="1.758" transform="translate(24.552 18.055)" fill="#727997"/>
        <rect id="Rectangle_456105" data-name="Rectangle 456105" width="32.925" height="1.759" transform="translate(9.764 21.118)" fill="#727997"/>
        <rect id="Rectangle_456106" data-name="Rectangle 456106" width="27.657" height="1.758" transform="translate(9.763 24.183)" fill="#727997"/>
        <rect id="Rectangle_456107" data-name="Rectangle 456107" width="29.863" height="1.759" transform="translate(9.764 27.246)" fill="#727997"/>
        <rect id="Rectangle_456108" data-name="Rectangle 456108" width="32.925" height="1.759" transform="translate(9.764 30.309)" fill="#727997"/>
        <rect id="Rectangle_456109" data-name="Rectangle 456109" width="25.573" height="1.759" transform="translate(9.763 33.373)" fill="#727997"/>
        <rect id="Rectangle_456110" data-name="Rectangle 456110" width="29.251" height="1.759" transform="translate(9.764 36.437)" fill="#727997"/>
        <rect id="Rectangle_456111" data-name="Rectangle 456111" width="32.925" height="1.759" transform="translate(9.764 39.502)" fill="#727997"/>
        <g id="Group_1179688" data-name="Group 1179688" transform="translate(0 0)">
          <g id="Group_1179687" data-name="Group 1179687" clip-path="url(#clip-path)">
            <path id="Path_998768" data-name="Path 998768" d="M60.123,12.255A12.255,12.255,0,1,1,47.867,0,12.255,12.255,0,0,1,60.123,12.255" transform="translate(-5.855 0)" fill="#6cb9ff"/>
            <g id="Group_1179680" data-name="Group 1179680" transform="translate(32.697 20.229)" opacity="0.59" style="mix-blend-mode: multiply;isolation: isolate">
              <g id="Group_1179679" data-name="Group 1179679">
                <g id="Group_1179678" data-name="Group 1179678" clip-path="url(#clip-path-3)">
                  <path id="Path_998769" data-name="Path 998769" d="M51,28.219v6.21A12.247,12.247,0,0,1,39.13,24.21a12.226,12.226,0,0,0,9.312,4.283A12.029,12.029,0,0,0,51,28.219" transform="translate(-39.13 -24.21)" fill="#94acb2"/>
                </g>
              </g>
            </g>
            <path id="Path_998770" data-name="Path 998770" d="M43.909,10.661v1.4L40.089,13.64l3.819,1.6v1.4l-5.546-2.4v-1.21Z" transform="translate(-5.289 -1.445)" fill="#1e535a"/>
            <path id="Path_998771" data-name="Path 998771" d="M50.912,6.193h1.362L47.649,18.318H46.286Z" transform="translate(-7.268 -0.328)" fill="#1e535a"/>
            <path id="Path_998772" data-name="Path 998772" d="M54.8,10.661l5.546,2.4V14.27L54.8,16.64V15.254l3.82-1.594L54.8,12.068Z" transform="translate(-9.396 -1.445)" fill="#1e535a"/>
            <path id="Path_998773" data-name="Path 998773" d="M18.584,55.522a1.7,1.7,0,0,1-1.638,1.763H1.636A1.7,1.7,0,0,1,0,55.522v-21.4a1.7,1.7,0,0,1,1.636-1.761h15.31a1.7,1.7,0,0,1,1.638,1.761Z" transform="translate(0 -5.32)" fill="#fff"/>
            <rect id="Rectangle_456113" data-name="Rectangle 456113" width="15.193" height="19.931" transform="translate(1.675 28.842)" fill="#ffd453"/>
            <g id="Group_1179683" data-name="Group 1179683" transform="translate(8.252 49.396)" opacity="0.88" style="mix-blend-mode: multiply;isolation: isolate">
              <g id="Group_1179682" data-name="Group 1179682">
                <g id="Group_1179681" data-name="Group 1179681" clip-path="url(#clip-path-4)">
                  <path id="Path_998774" data-name="Path 998774" d="M12.015,60.184a1.07,1.07,0,1,1-1.07-1.069,1.07,1.07,0,0,1,1.07,1.069" transform="translate(-9.875 -59.115)" fill="#e5e5e5"/>
                </g>
              </g>
            </g>
            <g id="Group_1179686" data-name="Group 1179686" transform="translate(2.694 29.808)" opacity="0.24">
              <g id="Group_1179685" data-name="Group 1179685">
                <g id="Group_1179684" data-name="Group 1179684" clip-path="url(#clip-path-5)">
                  <path id="Path_998775" data-name="Path 998775" d="M3.224,35.673v18.07H6.5l3.347-18.07Z" transform="translate(-3.224 -35.673)" fill="#fff"/>
                </g>
              </g>
            </g>
          </g>
        </g>
      </g>
    </g>
  </g>
</svg>
