<svg xmlns="http://www.w3.org/2000/svg" xmlns:xlink="http://www.w3.org/1999/xlink" width="129" height="129" viewBox="0 0 129 129">
  <defs>
    <clipPath id="clip-path">
      <rect id="Rectangle_454829" data-name="Rectangle 454829" width="129" height="129" fill="#1e535a"/>
    </clipPath>
  </defs>
  <g id="img17" transform="translate(-186 -4323.945)">
    <g id="Group_1177591" data-name="Group 1177591" transform="translate(186 4323.945)">
      <g id="Group_1177589" data-name="Group 1177589" transform="translate(0 0)">
        <g id="Group_1177587" data-name="Group 1177587" clip-path="url(#clip-path)">
          <path id="Path_997422" data-name="Path 997422" d="M123.733,57.1a59.308,59.308,0,0,0-13.4-30.862,6.821,6.821,0,0,0-9.6-9.189A59.221,59.221,0,0,0,70.078,5.066a6.822,6.822,0,0,0-13.25.269A59.3,59.3,0,0,0,27.41,17.911a6.824,6.824,0,0,0-9.471,9.536A59.253,59.253,0,0,0,5.526,57.039a6.827,6.827,0,0,0-.163,13.369A59.236,59.236,0,0,0,17.387,100.6a6.823,6.823,0,0,0,9.27,9.635,59.3,59.3,0,0,0,30.116,13.172,6.824,6.824,0,0,0,13.369.269,59.247,59.247,0,0,0,30.886-12.2,6.822,6.822,0,0,0,9.55-9.236,59.323,59.323,0,0,0,13.315-31.893,6.824,6.824,0,0,0-.16-13.247M104.464,29.6a6.785,6.785,0,0,0,3.779-1.144,56.321,56.321,0,0,1,12.43,28.628,6.834,6.834,0,0,0-4.361,3.159L98.87,53.7c.014-.191.027-.385.027-.582a6.825,6.825,0,0,0-2.89-5.577l7.629-18a7.392,7.392,0,0,0,.827.054m-3.687-1.086L93.195,46.39a6.754,6.754,0,0,0-7.517,4.341L54.125,43.462a6.639,6.639,0,0,0-.143-1.358L98.758,26.511a6.846,6.846,0,0,0,2.019,2m-37.29-14.85a6.83,6.83,0,0,0,6.7-5.539A56.228,56.228,0,0,1,98.622,19.239a6.792,6.792,0,0,0-.987,3.527,7.17,7.17,0,0,0,.065.9l-45,15.668A6.85,6.85,0,0,0,51.462,38.1l11.8-24.451c.075,0,.146.01.221.01m-6.642-5.27a6.831,6.831,0,0,0,3.435,4.47L48.708,36.823a6.848,6.848,0,0,0-1.409-.146A6.78,6.78,0,0,0,43.407,37.9L29.691,26.443a6.789,6.789,0,0,0-.232-6.285A56.272,56.272,0,0,1,56.845,8.389M13.492,62.258l28.37-14.633a6.8,6.8,0,0,0,5.383,2.707l9.723,31.08a6.941,6.941,0,0,0-1.5,1.665L13.407,65.554a6.784,6.784,0,0,0,.252-1.811,6.863,6.863,0,0,0-.167-1.484m6.7-32.775a6.824,6.824,0,0,0,7.623-.65l13.543,11.31a6.81,6.81,0,0,0-.752,4.719L12.188,59.514a6.827,6.827,0,0,0-3.616-2.37,56.248,56.248,0,0,1,11.62-27.662m2.826,68.151a6.809,6.809,0,0,0-3.391.906A56.2,56.2,0,0,1,8.416,70.378,6.835,6.835,0,0,0,11.96,68.24l42.475,17.7a7.323,7.323,0,0,0-.054.82,6.828,6.828,0,0,0,.409,2.308L29.1,101.373a6.828,6.828,0,0,0-6.084-3.738m33.888,22.732a56.328,56.328,0,0,1-28.1-12.294,6.758,6.758,0,0,0,1.042-3.609l0-.078,26.6-12.746a6.829,6.829,0,0,0,2.41,1.522l1.593,22.9a6.829,6.829,0,0,0-3.537,4.3m2.829-40.272L50.22,49.672a6.839,6.839,0,0,0,3.244-3.244L85.273,53.75a6.789,6.789,0,0,0,1.086,3.1L64.543,80.8a6.745,6.745,0,0,0-4.807-.7m10.4,40.537a6.827,6.827,0,0,0-6.649-5.291l-.051,0L61.921,93.552a6.817,6.817,0,0,0,4.174-2.026l31.8,14.027c0,.061-.01.116-.01.177a6.8,6.8,0,0,0,1.011,3.561,56.224,56.224,0,0,1-28.761,11.34m28.526-18.058L67.688,88.909a6.789,6.789,0,0,0-.9-6.074L88.544,58.959a6.789,6.789,0,0,0,3.524.987,7.517,7.517,0,0,0,.838-.054l8.13,40.091a6.814,6.814,0,0,0-2.373,2.591m9.8-2.553a6.788,6.788,0,0,0-4.538-1.072L95.789,58.84a6.857,6.857,0,0,0,2.152-2.247l17.431,6.537a6.057,6.057,0,0,0-.031.613,6.827,6.827,0,0,0,5.488,6.693,56.271,56.271,0,0,1-12.369,29.585" transform="translate(0 0.001)" fill="#1e535a"/>
        </g>
      </g>
    </g>
    <g id="Ellipse_13614" data-name="Ellipse 13614" transform="translate(210.273 4348.213)" fill="#d5f4f8" stroke="#1e535a" stroke-width="3">
      <ellipse cx="40.232" cy="40.233" rx="40.232" ry="40.233" stroke="none"/>
      <ellipse cx="40.232" cy="40.233" rx="38.732" ry="38.733" fill="none"/>
    </g>
    <g id="OUTLINE" transform="translate(211.284 4349.577)">
      <path id="Path_1030496" data-name="Path 1030496" d="M61.275,16H18.383A2.386,2.386,0,0,0,16,18.383V52.538a2.386,2.386,0,0,0,2.383,2.383h15.64l-1.95,7.149H30.3v1.589H49.36V62.069H47.584l-1.95-7.149h15.64a2.386,2.386,0,0,0,2.383-2.383V18.383A2.386,2.386,0,0,0,61.275,16ZM45.938,62.069H33.72l1.95-7.149h8.318Zm16.132-9.532a.8.8,0,0,1-.794.794H18.383a.8.8,0,0,1-.794-.794V49.36H62.069ZM31.942,41.847l1.168-1.168,2.39.951L37.987,40.6,39,38.24h1.652L41.67,40.6l2.488,1.031,2.39-.951,1.168,1.168-.951,2.39L47.8,46.725l2.359,1.015v.032H46.132a6.353,6.353,0,0,0-12.606,0H29.5V47.74l2.359-1.015,1.031-2.488Zm12.586,5.925h-9.4a4.765,4.765,0,0,1,9.4,0Zm17.542,0H51.743V46.694l-2.727-1.174-.537-1.3,1.1-2.762-2.647-2.646-2.762,1.1-1.3-.537L41.7,36.652H37.957l-1.174,2.727-1.3.537-2.762-1.1-2.647,2.646,1.1,2.762-.537,1.3-2.727,1.174v1.077H17.589V18.383a.8.8,0,0,1,.794-.794H61.275a.8.8,0,0,1,.794.794Z" fill="#1e535a"/>
      <path id="Path_1030497" data-name="Path 1030497" d="M281.474,56.737a8.737,8.737,0,1,0-8.737,8.737h.794V57.532h7.943Zm-9.532,7.1a7.143,7.143,0,0,1-4.788-11.563l4.788,4.788Zm1.123-7.9-4.788-4.788a7.143,7.143,0,0,1,11.563,4.788Z" transform="translate(-223.377 -28.823)" fill="#1e535a"/>
      <path id="Path_1030498" data-name="Path 1030498" d="M376,167.943h.894a7.057,7.057,0,0,0,7.049-7.049V160H376Zm1.589-6.354h4.722a5.472,5.472,0,0,1-4.722,4.722Z" transform="translate(-324.257 -129.703)" fill="#1e535a"/>
      <path id="Path_1030499" data-name="Path 1030499" d="M72.68,48h-14.3A2.386,2.386,0,0,0,56,50.383V61.5a2.386,2.386,0,0,0,2.383,2.383h14.3A2.386,2.386,0,0,0,75.063,61.5V50.383A2.386,2.386,0,0,0,72.68,48Zm.794,13.5a.8.8,0,0,1-.794.794h-14.3a.8.8,0,0,1-.794-.794V52.766H73.474Zm0-10.326H57.589v-.794a.8.8,0,0,1,.794-.794h14.3a.8.8,0,0,1,.794.794Z" transform="translate(-36.029 -28.823)" fill="#1e535a"/>
      <path id="Path_1030500" data-name="Path 1030500" d="M56,232h9.532v1.589H56Z" transform="translate(-36.029 -194.554)" fill="#1e535a"/>
      <path id="Path_1030501" data-name="Path 1030501" d="M56,264h7.149v1.589H56Z" transform="translate(-36.029 -223.377)" fill="#1e535a"/>
      <path id="Path_1030502" data-name="Path 1030502" d="M56,296h7.149v1.589H56Z" transform="translate(-36.029 -252.2)" fill="#1e535a"/>
      <path id="Path_1030503" data-name="Path 1030503" d="M376,264h7.943v1.589H376Z" transform="translate(-324.257 -223.377)" fill="#1e535a"/>
      <path id="Path_1030504" data-name="Path 1030504" d="M376,296h7.943v1.589H376Z" transform="translate(-324.257 -252.2)" fill="#1e535a"/>
      <path id="Path_1030505" data-name="Path 1030505" d="M88.755,119.109l-1.821-1.821,1.821-1.821-1.123-1.123-2.944,2.945,2.944,2.945Z" transform="translate(-61.867 -88.579)" fill="#1e535a"/>
      <path id="Path_1030506" data-name="Path 1030506" d="M0,0H4.277V1.589H0Z" transform="translate(27.96 30.798) rotate(-68.209)" fill="#1e535a"/>
      <path id="Path_1030507" data-name="Path 1030507" d="M179.466,120.232l2.944-2.945-2.944-2.945-1.123,1.123,1.821,1.821-1.821,1.821Z" transform="translate(-146.224 -88.579)" fill="#1e535a"/>
    </g>
  </g>
</svg>
