<svg xmlns="http://www.w3.org/2000/svg" xmlns:xlink="http://www.w3.org/1999/xlink" width="129" height="129" viewBox="0 0 129 129">
  <defs>
    <clipPath id="clip-path">
      <rect id="Rectangle_454829" data-name="Rectangle 454829" width="129" height="129" fill="#1e535a"/>
    </clipPath>
  </defs>
  <g id="img18" transform="translate(-186 -4323.945)">
    <g id="Group_1177591" data-name="Group 1177591" transform="translate(186 4323.945)">
      <g id="Group_1177589" data-name="Group 1177589" transform="translate(0 0)">
        <g id="Group_1177587" data-name="Group 1177587" clip-path="url(#clip-path)">
          <path id="Path_997422" data-name="Path 997422" d="M123.733,57.1a59.308,59.308,0,0,0-13.4-30.862,6.821,6.821,0,0,0-9.6-9.189A59.221,59.221,0,0,0,70.078,5.066a6.822,6.822,0,0,0-13.25.269A59.3,59.3,0,0,0,27.41,17.911a6.824,6.824,0,0,0-9.471,9.536A59.253,59.253,0,0,0,5.526,57.039a6.827,6.827,0,0,0-.163,13.369A59.236,59.236,0,0,0,17.387,100.6a6.823,6.823,0,0,0,9.27,9.635,59.3,59.3,0,0,0,30.116,13.172,6.824,6.824,0,0,0,13.369.269,59.247,59.247,0,0,0,30.886-12.2,6.822,6.822,0,0,0,9.55-9.236,59.323,59.323,0,0,0,13.315-31.893,6.824,6.824,0,0,0-.16-13.247M104.464,29.6a6.785,6.785,0,0,0,3.779-1.144,56.321,56.321,0,0,1,12.43,28.628,6.834,6.834,0,0,0-4.361,3.159L98.87,53.7c.014-.191.027-.385.027-.582a6.825,6.825,0,0,0-2.89-5.577l7.629-18a7.392,7.392,0,0,0,.827.054m-3.687-1.086L93.195,46.39a6.754,6.754,0,0,0-7.517,4.341L54.125,43.462a6.639,6.639,0,0,0-.143-1.358L98.758,26.511a6.846,6.846,0,0,0,2.019,2m-37.29-14.85a6.83,6.83,0,0,0,6.7-5.539A56.228,56.228,0,0,1,98.622,19.239a6.792,6.792,0,0,0-.987,3.527,7.17,7.17,0,0,0,.065.9l-45,15.668A6.85,6.85,0,0,0,51.462,38.1l11.8-24.451c.075,0,.146.01.221.01m-6.642-5.27a6.831,6.831,0,0,0,3.435,4.47L48.708,36.823a6.848,6.848,0,0,0-1.409-.146A6.78,6.78,0,0,0,43.407,37.9L29.691,26.443a6.789,6.789,0,0,0-.232-6.285A56.272,56.272,0,0,1,56.845,8.389M13.492,62.258l28.37-14.633a6.8,6.8,0,0,0,5.383,2.707l9.723,31.08a6.941,6.941,0,0,0-1.5,1.665L13.407,65.554a6.784,6.784,0,0,0,.252-1.811,6.863,6.863,0,0,0-.167-1.484m6.7-32.775a6.824,6.824,0,0,0,7.623-.65l13.543,11.31a6.81,6.81,0,0,0-.752,4.719L12.188,59.514a6.827,6.827,0,0,0-3.616-2.37,56.248,56.248,0,0,1,11.62-27.662m2.826,68.151a6.809,6.809,0,0,0-3.391.906A56.2,56.2,0,0,1,8.416,70.378,6.835,6.835,0,0,0,11.96,68.24l42.475,17.7a7.323,7.323,0,0,0-.054.82,6.828,6.828,0,0,0,.409,2.308L29.1,101.373a6.828,6.828,0,0,0-6.084-3.738m33.888,22.732a56.328,56.328,0,0,1-28.1-12.294,6.758,6.758,0,0,0,1.042-3.609l0-.078,26.6-12.746a6.829,6.829,0,0,0,2.41,1.522l1.593,22.9a6.829,6.829,0,0,0-3.537,4.3m2.829-40.272L50.22,49.672a6.839,6.839,0,0,0,3.244-3.244L85.273,53.75a6.789,6.789,0,0,0,1.086,3.1L64.543,80.8a6.745,6.745,0,0,0-4.807-.7m10.4,40.537a6.827,6.827,0,0,0-6.649-5.291l-.051,0L61.921,93.552a6.817,6.817,0,0,0,4.174-2.026l31.8,14.027c0,.061-.01.116-.01.177a6.8,6.8,0,0,0,1.011,3.561,56.224,56.224,0,0,1-28.761,11.34m28.526-18.058L67.688,88.909a6.789,6.789,0,0,0-.9-6.074L88.544,58.959a6.789,6.789,0,0,0,3.524.987,7.517,7.517,0,0,0,.838-.054l8.13,40.091a6.814,6.814,0,0,0-2.373,2.591m9.8-2.553a6.788,6.788,0,0,0-4.538-1.072L95.789,58.84a6.857,6.857,0,0,0,2.152-2.247l17.431,6.537a6.057,6.057,0,0,0-.031.613,6.827,6.827,0,0,0,5.488,6.693,56.271,56.271,0,0,1-12.369,29.585" transform="translate(0 0.001)" fill="#1e535a"/>
        </g>
      </g>
    </g>
    <g id="Ellipse_13614" data-name="Ellipse 13614" transform="translate(210.273 4348.213)" fill="#d5f4f8" stroke="#1e535a" stroke-width="3">
      <ellipse cx="40.232" cy="40.233" rx="40.232" ry="40.233" stroke="none"/>
      <ellipse cx="40.232" cy="40.233" rx="38.732" ry="38.733" fill="none"/>
    </g>
    <g id="OUTLINE" transform="translate(210.652 4348.288)">
      <path id="Path_1030508" data-name="Path 1030508" d="M395.088,158.175A3.088,3.088,0,1,0,392,155.088,3.088,3.088,0,0,0,395.088,158.175Zm0-4.631a1.544,1.544,0,1,1-1.544,1.544A1.544,1.544,0,0,1,395.088,153.544Z" transform="translate(-339.721 -122.878)" fill="#1e535a"/>
      <path id="Path_1030509" data-name="Path 1030509" d="M235.088,152a3.088,3.088,0,1,0,3.088,3.088A3.088,3.088,0,0,0,235.088,152Zm0,4.631a1.544,1.544,0,1,1,1.544-1.544,1.544,1.544,0,0,1-1.544,1.544Z" transform="translate(-195.159 -122.878)" fill="#1e535a"/>
      <path id="Path_1030510" data-name="Path 1030510" d="M235.088,232a3.088,3.088,0,1,0,3.088,3.088A3.088,3.088,0,0,0,235.088,232Zm0,4.631a1.544,1.544,0,1,1,1.544-1.544,1.544,1.544,0,0,1-1.544,1.544Z" transform="translate(-195.159 -195.159)" fill="#1e535a"/>
      <path id="Path_1030511" data-name="Path 1030511" d="M235.088,312a3.088,3.088,0,1,0,3.088,3.088A3.088,3.088,0,0,0,235.088,312Zm0,4.631a1.544,1.544,0,1,1,1.544-1.544,1.544,1.544,0,0,1-1.544,1.544Z" transform="translate(-195.159 -267.44)" fill="#1e535a"/>
      <path id="Path_1030512" data-name="Path 1030512" d="M61.635,45.106l-.094-.094V22.175a2.318,2.318,0,0,0-2.316-2.316h-5.4V18.316A2.318,2.318,0,0,0,51.507,16H20.632a2.318,2.318,0,0,0-2.316,2.316V55.367h-.772A1.546,1.546,0,0,0,16,56.91v2.316a3.091,3.091,0,0,0,3.088,3.088H46.1V60.77H19.088a1.546,1.546,0,0,1-1.544-1.544V56.91H46.1V55.367H19.86V18.316a.773.773,0,0,1,.772-.772H51.507a.773.773,0,0,1,.772.772V19.86H36.069a2.318,2.318,0,0,0-2.316,2.316V51.507a2.318,2.318,0,0,0,2.316,2.316h9.715l1.864,1.863v6.627h1.544V60.77h9.263v1.544H60V55.686l1.637-1.637a2.3,2.3,0,0,0,.678-1.637V46.743a2.3,2.3,0,0,0-.678-1.637ZM35.3,22.175a.773.773,0,0,1,.772-.772H59.226a.773.773,0,0,1,.772.772v3.859H35.3Zm8.971,30.1h-8.2a.773.773,0,0,1-.772-.772V27.579H60v15.89l-.546-.546a2.3,2.3,0,0,0-1.637-.678H50.735V35.683a2.688,2.688,0,0,0-.581-1.671,3.087,3.087,0,1,0-4.557.506,2.685,2.685,0,0,0-.265,1.166v10.1l-.866.865a2.3,2.3,0,0,0-.678,1.637v2.581a2.3,2.3,0,0,0,.48,1.411ZM49.191,32.21a1.546,1.546,0,0,1-.3.913,2.7,2.7,0,0,0-2.259.251,1.544,1.544,0,1,1,2.558-1.164Zm9.263,27.016H49.191V56.138h9.263Zm2.316-6.815a.767.767,0,0,1-.226.546l-1.637,1.637H48.739l-3.181-3.181a.767.767,0,0,1-.226-.546V48.287a.767.767,0,0,1,.226-.546l1.318-1.318V35.683a1.158,1.158,0,0,1,2.316,0V48.419h1.544V43.788h2.316v4.631h1.544V43.788H56.91v4.631h1.544V44.108l2.09,2.09a.767.767,0,0,1,.226.546Z" fill="#1e535a"/>
      <path id="Path_1030513" data-name="Path 1030513" d="M232,88h2.316v1.544H232Z" transform="translate(-195.159 -65.053)" fill="#1e535a"/>
      <path id="Path_1030514" data-name="Path 1030514" d="M272,88h2.316v1.544H272Z" transform="translate(-231.299 -65.053)" fill="#1e535a"/>
      <path id="Path_1030515" data-name="Path 1030515" d="M312,88h2.316v1.544H312Z" transform="translate(-267.44 -65.053)" fill="#1e535a"/>
      <path id="Path_1030516" data-name="Path 1030516" d="M352,88h2.316v1.544H352Z" transform="translate(-303.58 -65.053)" fill="#1e535a"/>
      <path id="Path_1030517" data-name="Path 1030517" d="M392,88h2.316v1.544H392Z" transform="translate(-339.721 -65.053)" fill="#1e535a"/>
      <path id="Path_1030518" data-name="Path 1030518" d="M140.631,179.531V162.316a2.316,2.316,0,1,0-4.631,0v17.215L138.316,183Zm-3.088-17.215a.772.772,0,0,1,1.544,0V176.21h-1.544Zm0,15.438h1.544v1.31l-.772,1.158-.772-1.158Z" transform="translate(-108.421 -130.106)" fill="#1e535a"/>
      <path id="Path_1030519" data-name="Path 1030519" d="M393.629,235.62a1.544,1.544,0,1,1,2.912,0l1.456.514a3.088,3.088,0,1,0-5.823,0Z" transform="translate(-339.719 -195.177)" fill="#1e535a"/>
      <path id="Path_1030520" data-name="Path 1030520" d="M80,64h9.263v1.544H80Z" transform="translate(-57.825 -43.368)" fill="#1e535a"/>
      <path id="Path_1030521" data-name="Path 1030521" d="M80,112h4.631v1.544H80Z" transform="translate(-57.825 -86.737)" fill="#1e535a"/>
      <path id="Path_1030522" data-name="Path 1030522" d="M152,112h2.316v1.544H152Z" transform="translate(-122.878 -86.737)" fill="#1e535a"/>
      <path id="Path_1030523" data-name="Path 1030523" d="M80,160h3.859v1.544H80Z" transform="translate(-57.825 -130.106)" fill="#1e535a"/>
      <path id="Path_1030524" data-name="Path 1030524" d="M80,208h3.859v1.544H80Z" transform="translate(-57.825 -173.474)" fill="#1e535a"/>
      <path id="Path_1030525" data-name="Path 1030525" d="M80,256h3.859v1.544H80Z" transform="translate(-57.825 -216.843)" fill="#1e535a"/>
      <path id="Path_1030526" data-name="Path 1030526" d="M80,304h3.859v1.544H80Z" transform="translate(-57.825 -260.212)" fill="#1e535a"/>
      <path id="Path_1030527" data-name="Path 1030527" d="M80,352h3.859v1.544H80Z" transform="translate(-57.825 -303.581)" fill="#1e535a"/>
    </g>
  </g>
</svg>
