<svg xmlns="http://www.w3.org/2000/svg" xmlns:xlink="http://www.w3.org/1999/xlink" width="129" height="129" viewBox="0 0 129 129">
  <defs>
    <clipPath id="clip-path">
      <rect id="Rectangle_454829" data-name="Rectangle 454829" width="129" height="129" fill="#1e535a"/>
    </clipPath>
  </defs>
  <g id="img19" transform="translate(-186 -4323.945)">
    <g id="Group_1177591" data-name="Group 1177591" transform="translate(186 4323.945)">
      <g id="Group_1177589" data-name="Group 1177589" transform="translate(0 0)">
        <g id="Group_1177587" data-name="Group 1177587" clip-path="url(#clip-path)">
          <path id="Path_997422" data-name="Path 997422" d="M123.733,57.1a59.308,59.308,0,0,0-13.4-30.862,6.821,6.821,0,0,0-9.6-9.189A59.221,59.221,0,0,0,70.078,5.066a6.822,6.822,0,0,0-13.25.269A59.3,59.3,0,0,0,27.41,17.911a6.824,6.824,0,0,0-9.471,9.536A59.253,59.253,0,0,0,5.526,57.039a6.827,6.827,0,0,0-.163,13.369A59.236,59.236,0,0,0,17.387,100.6a6.823,6.823,0,0,0,9.27,9.635,59.3,59.3,0,0,0,30.116,13.172,6.824,6.824,0,0,0,13.369.269,59.247,59.247,0,0,0,30.886-12.2,6.822,6.822,0,0,0,9.55-9.236,59.323,59.323,0,0,0,13.315-31.893,6.824,6.824,0,0,0-.16-13.247M104.464,29.6a6.785,6.785,0,0,0,3.779-1.144,56.321,56.321,0,0,1,12.43,28.628,6.834,6.834,0,0,0-4.361,3.159L98.87,53.7c.014-.191.027-.385.027-.582a6.825,6.825,0,0,0-2.89-5.577l7.629-18a7.392,7.392,0,0,0,.827.054m-3.687-1.086L93.195,46.39a6.754,6.754,0,0,0-7.517,4.341L54.125,43.462a6.639,6.639,0,0,0-.143-1.358L98.758,26.511a6.846,6.846,0,0,0,2.019,2m-37.29-14.85a6.83,6.83,0,0,0,6.7-5.539A56.228,56.228,0,0,1,98.622,19.239a6.792,6.792,0,0,0-.987,3.527,7.17,7.17,0,0,0,.065.9l-45,15.668A6.85,6.85,0,0,0,51.462,38.1l11.8-24.451c.075,0,.146.01.221.01m-6.642-5.27a6.831,6.831,0,0,0,3.435,4.47L48.708,36.823a6.848,6.848,0,0,0-1.409-.146A6.78,6.78,0,0,0,43.407,37.9L29.691,26.443a6.789,6.789,0,0,0-.232-6.285A56.272,56.272,0,0,1,56.845,8.389M13.492,62.258l28.37-14.633a6.8,6.8,0,0,0,5.383,2.707l9.723,31.08a6.941,6.941,0,0,0-1.5,1.665L13.407,65.554a6.784,6.784,0,0,0,.252-1.811,6.863,6.863,0,0,0-.167-1.484m6.7-32.775a6.824,6.824,0,0,0,7.623-.65l13.543,11.31a6.81,6.81,0,0,0-.752,4.719L12.188,59.514a6.827,6.827,0,0,0-3.616-2.37,56.248,56.248,0,0,1,11.62-27.662m2.826,68.151a6.809,6.809,0,0,0-3.391.906A56.2,56.2,0,0,1,8.416,70.378,6.835,6.835,0,0,0,11.96,68.24l42.475,17.7a7.323,7.323,0,0,0-.054.82,6.828,6.828,0,0,0,.409,2.308L29.1,101.373a6.828,6.828,0,0,0-6.084-3.738m33.888,22.732a56.328,56.328,0,0,1-28.1-12.294,6.758,6.758,0,0,0,1.042-3.609l0-.078,26.6-12.746a6.829,6.829,0,0,0,2.41,1.522l1.593,22.9a6.829,6.829,0,0,0-3.537,4.3m2.829-40.272L50.22,49.672a6.839,6.839,0,0,0,3.244-3.244L85.273,53.75a6.789,6.789,0,0,0,1.086,3.1L64.543,80.8a6.745,6.745,0,0,0-4.807-.7m10.4,40.537a6.827,6.827,0,0,0-6.649-5.291l-.051,0L61.921,93.552a6.817,6.817,0,0,0,4.174-2.026l31.8,14.027c0,.061-.01.116-.01.177a6.8,6.8,0,0,0,1.011,3.561,56.224,56.224,0,0,1-28.761,11.34m28.526-18.058L67.688,88.909a6.789,6.789,0,0,0-.9-6.074L88.544,58.959a6.789,6.789,0,0,0,3.524.987,7.517,7.517,0,0,0,.838-.054l8.13,40.091a6.814,6.814,0,0,0-2.373,2.591m9.8-2.553a6.788,6.788,0,0,0-4.538-1.072L95.789,58.84a6.857,6.857,0,0,0,2.152-2.247l17.431,6.537a6.057,6.057,0,0,0-.031.613,6.827,6.827,0,0,0,5.488,6.693,56.271,56.271,0,0,1-12.369,29.585" transform="translate(0 0.001)" fill="#1e535a"/>
        </g>
      </g>
    </g>
    <g id="Ellipse_13614" data-name="Ellipse 13614" transform="translate(210.273 4348.213)" fill="#d5f4f8" stroke="#1e535a" stroke-width="3">
      <ellipse cx="40.232" cy="40.233" rx="40.232" ry="40.233" stroke="none"/>
      <ellipse cx="40.232" cy="40.233" rx="38.732" ry="38.733" fill="none"/>
    </g>
    <g id="OUTLINE" transform="translate(165.652 4350.227)">
      <path id="Path_1030528" data-name="Path 1030528" d="M289.995,93.8l1.222-1.222,5.337-1.067-2-1.5A10.124,10.124,0,0,0,288.513,88h-.321L280,96.193v.321a10.125,10.125,0,0,0,2.012,6.037l1.5,2,1.068-5.337,2-2,7.192,7.192A2.416,2.416,0,1,0,297.187,101Zm-1.167-4.251a8.585,8.585,0,0,1,3.947,1.139l-2.321.464L288.9,92.71,287.286,91.1Zm-5.671,8.9-.464,2.321a8.585,8.585,0,0,1-1.139-3.947l2.316-2.316,1.614,1.614Zm1.808-5.036,1.227-1.227,1.614,1.614-1.227,1.227Zm11.128,9.9a.869.869,0,0,1-1.227,0l-7.192-7.192L288.9,94.9l7.192,7.192A.868.868,0,0,1,296.092,103.319Z" transform="translate(-195.104 -65.035)" fill="#1e535a"/>
      <path id="Path_1030529" data-name="Path 1030529" d="M103.471,19.87h-2.322V18.322A2.324,2.324,0,0,0,98.827,16H66.322A2.324,2.324,0,0,0,64,18.322v34.96a2.307,2.307,0,0,0,.68,1.642l6.833,6.833a2.307,2.307,0,0,0,1.642.68H94.184c1.163,0,6.965-.112,6.965-2.322V49.28c0-2.21-5.8-2.322-6.965-2.322s-6.965.112-6.965,2.322V60.115a1.208,1.208,0,0,0,.284.774H73.287V55.471a2.324,2.324,0,0,0-2.322-2.322H65.548V18.322a.775.775,0,0,1,.774-.774H98.827a.775.775,0,0,1,.774.774V19.87H83.348a2.324,2.324,0,0,0-2.322,2.322V40.766a2.324,2.324,0,0,0,2.322,2.322h7.419L93.41,45.73l2.642-2.642H99.6v3.87h1.548v-3.87h2.322a2.324,2.324,0,0,0,2.322-2.322V22.192A2.324,2.324,0,0,0,103.471,19.87ZM94.184,48.506a13.524,13.524,0,0,1,5.207.774,13.524,13.524,0,0,1-5.207.774,13.524,13.524,0,0,1-5.207-.774A13.525,13.525,0,0,1,94.184,48.506Zm-5.418,2.358a20.257,20.257,0,0,0,10.835,0v3.7c-.4.332-2.3.9-5.418.9s-5.02-.572-5.418-.9Zm0,5.418a20.257,20.257,0,0,0,10.835,0v3.7c-.4.332-2.3.9-5.418.9s-5.017-.571-5.418-.9ZM70.965,54.7a.775.775,0,0,1,.774.774v4.323l-5.1-5.1Zm33.28-13.931a.775.775,0,0,1-.774.774h-8.06l-2,2-2-2h-8.06a.775.775,0,0,1-.774-.774V22.192a.775.775,0,0,1,.774-.774h20.122a.775.775,0,0,1,.774.774Z" fill="#1e535a"/>
      <rect id="Rectangle_458332" data-name="Rectangle 458332" width="16" height="1" transform="translate(68 46)" fill="#1e535a"/>
      <rect id="Rectangle_458333" data-name="Rectangle 458333" width="16" height="1" transform="translate(68 49)" fill="#1e535a"/>
      <rect id="Rectangle_458334" data-name="Rectangle 458334" width="9" height="2" transform="translate(75 53)" fill="#1e535a"/>
      <path id="Path_1030530" data-name="Path 1030530" d="M104,165.157h11.609V152h-4.644v11.609h-1.548V155.87h-4.644v7.739H104Zm8.513-11.609h1.548v10.061h-1.548Zm-6.192,3.87h1.548v6.192h-1.548Z" transform="translate(-36.13 -122.843)" fill="#1e535a"/>
      <path id="Path_1030531" data-name="Path 1030531" d="M110.76,71.854l1.548,1.548,5.965-5.965-1.095-1.095-4.87,4.87-1.548-1.548-4.417,4.417,1.095,1.095Z" transform="translate(-38.247 -45.473)" fill="#1e535a"/>
    </g>
  </g>
</svg>
