<svg xmlns="http://www.w3.org/2000/svg" xmlns:xlink="http://www.w3.org/1999/xlink" width="140" height="320" viewBox="0 0 140 320">
  <defs>
    <clipPath id="clip-path">
      <rect id="Rectangle_456809" data-name="Rectangle 456809" width="118.263" height="320" fill="none"/>
    </clipPath>
  </defs>
  <g id="img18" transform="translate(-10596 8519.925)">
    <path id="Path_1000462" data-name="Path 1000462" d="M0,0H140V227.075H0Z" transform="translate(10596 -8427)" fill="none"/>
    <g id="Group_1180337" data-name="Group 1180337" transform="translate(10608.673 -8477.541)">
      <path id="Path_1000311" data-name="Path 1000311" d="M5.978,32.339H41.067a1.772,1.772,0,0,0,1.771-1.771V18.878A1.772,1.772,0,0,0,41.067,17.1H5.978a1.771,1.771,0,0,0-1.771,1.773v11.69a1.772,1.772,0,0,0,1.771,1.771" transform="translate(-4.207 -17.105)" fill="#19538d"/>
      <line id="Line_3355" data-name="Line 3355" x1="25.674" transform="translate(6.159 5.838)" fill="none" stroke="#fff" stroke-linecap="round" stroke-linejoin="round" stroke-width="1.076"/>
      <line id="Line_3356" data-name="Line 3356" x1="8.791" transform="translate(6.244 9.887)" fill="none" stroke="#fff" stroke-linecap="round" stroke-linejoin="round" stroke-width="1.076"/>
      <path id="Path_1000312" data-name="Path 1000312" d="M36.136,29.623v6.89l-8.782-6.89Z" transform="translate(-2.932 -16.416)" fill="#19538d"/>
    </g>
    <path id="Rectangle_456808" data-name="Rectangle 456808" d="M80,0h60a0,0,0,0,1,0,0V83a0,0,0,0,1,0,0H0a0,0,0,0,1,0,0V80A80,80,0,0,1,80,0Z" transform="translate(10596 -8282.925)" fill="#69d7e5"/>
    <g id="Group_1180360" data-name="Group 1180360" transform="translate(10608.673 -8519.925)" clip-path="url(#clip-path)">
      <path id="Path_1000426" data-name="Path 1000426" d="M37.062,180.572s-6.542,3.887-7.476,8.285H45.667L48.845,182,51,188.857h2.174s2.039-17.775-1.938-23.46Z" transform="translate(18.912 131.143)" fill="#20202a"/>
      <path id="Path_1000427" data-name="Path 1000427" d="M40.384,152.6l.844,23.56L33.616,192.6s8.54,2.035,12.255-5.683,2.785-11.372,2.785-11.372L50.593,152.6Z" transform="translate(21.488 120.994)" fill="#a56646"/>
      <path id="Path_1000428" data-name="Path 1000428" d="M52.294,180.572s-6.542,3.887-7.476,8.285H60.9L64.077,182l2.151,6.852H68.4s2.039-17.775-1.938-23.46Z" transform="translate(28.648 131.143)" fill="#20202a"/>
      <path id="Path_1000429" data-name="Path 1000429" d="M55.616,152.6l.844,23.56L48.848,192.6s8.54,2.035,12.255-5.683,2.785-11.372,2.785-11.372L65.825,152.6Z" transform="translate(31.225 120.994)" fill="#a56646"/>
      <path id="Path_1000430" data-name="Path 1000430" d="M28.885,111.02c.633-30.6,12.588-43.775,12.588-43.775H75.981s11.145,8.134,11.145,43.775.007,35.559-5.886,113.727H66.1L57.979,111.793a.115.115,0,1,0-.229.009l-.618,112.945-17.559.152a.435.435,0,0,1-.426-.376c-1.092-6.177-10.866-84.3-10.262-113.5" transform="translate(18.446 53.318)" fill="#20202a"/>
      <path id="Path_1000431" data-name="Path 1000431" d="M36.094,91.49c.249-.565.979,1.427,1.106.818L48.548,56.579c1.29-5.11-1.051-19.673-5.9-19.584-3.559.068-7.117,7.709-7.627,11.561L24.815,82.277Z" transform="translate(15.862 29.333)" fill="#8e644a"/>
      <path id="Path_1000432" data-name="Path 1000432" d="M44.727,71.088,9.985,52.75,5.961,58.663,36.213,85.714c4.4,3.978,11.081,1.775,12.737-4.2a9.041,9.041,0,0,0-4.223-10.427" transform="translate(3.81 41.825)" fill="#8e644a"/>
      <path id="Path_1000433" data-name="Path 1000433" d="M46.107,38.022s5.988,8.41,2.09,21.086L28.042,53.145S25.822,37.2,39.747,35.32Z" transform="translate(17.842 28.005)" fill="#7dbfff"/>
      <path id="Path_1000434" data-name="Path 1000434" d="M.854,53.128C-1.152,56.691.5,61.783,4.534,64.5s8.937,2.037,10.943-1.526.357-8.654-3.68-11.374S2.861,49.566.854,53.128" transform="translate(0 39.595)" fill="#8e644a"/>
      <path id="Path_1000435" data-name="Path 1000435" d="M54.843,31.39s-8.922.088-22.583,8.586c0,0-3.008,24.432,4.29,33.78L37.6,89.785l36.845-.179s2.042-28.6,9.617-35.82L81.533,39.552a46.806,46.806,0,0,0-26.69-8.161" transform="translate(20.228 24.883)" fill="#7dbfff"/>
      <path id="Path_1000436" data-name="Path 1000436" d="M80.218,86.012c-.082-.62,1.541.584,1.334,0L72.687,49.453c-1.543-5.024-10.932-15.665-14.9-12.626-2.916,2.232-1.957,10.745-.41,14.25l8.781,34.2Z" transform="translate(35.732 28.775)" fill="#8e644a"/>
      <path id="Path_1000437" data-name="Path 1000437" d="M81.546,61.577,43.368,67.63l-.311,7.363,38.91,3.917c5.682.608,10.094-5.309,8.411-11.272v0a7.986,7.986,0,0,0-8.832-6.06" transform="translate(27.523 48.745)" fill="#8e644a"/>
      <path id="Path_1000438" data-name="Path 1000438" d="M64.2,34.6S73.459,37.9,76.711,50.8L56.952,58.184s-9.994-11.862.59-21.938Z" transform="translate(33.674 27.432)" fill="#7dbfff"/>
      <path id="Path_1000439" data-name="Path 1000439" d="M36.128,71.994c.159,4.179,4.129,7.394,8.868,7.177s8.449-3.779,8.29-7.959-4.129-7.394-8.867-7.179-8.45,3.781-8.291,7.96" transform="translate(23.09 50.764)" fill="#8e644a"/>
      <path id="Path_1000440" data-name="Path 1000440" d="M60.089,68.135H35.952V63.906H60.089a2.123,2.123,0,0,1,0,4.229" transform="translate(22.981 50.671)" fill="#727997"/>
      <path id="Path_1000441" data-name="Path 1000441" d="M62.115,86.42H16.709A5.932,5.932,0,0,1,11.1,81.757L2.244,46.966c-.784-3.075,1.331-6.121,4.25-6.121H48.2a3.919,3.919,0,0,1,3.716,3.134Z" transform="translate(1.329 32.386)" fill="#b0c0d2"/>
      <path id="Path_1000442" data-name="Path 1000442" d="M25.189,56.72a4.511,4.511,0,0,1-4.295,4.7,4.718,4.718,0,0,1,0-9.4,4.511,4.511,0,0,1,4.295,4.7" transform="translate(10.61 41.247)" fill="#fff"/>
      <path id="Path_1000443" data-name="Path 1000443" d="M56.929,19.849c4.031.409,16.691,2.447,15.864,12.018a11.263,11.263,0,0,1-7.757,9.881c-4.095,1.2-9.735.371-14.063-9.8-6.295-14.782.931-13.518,3.729-12.588a10.259,10.259,0,0,0,2.226.486" transform="translate(30.984 14.953)" fill="#1c1927"/>
      <path id="Path_1000444" data-name="Path 1000444" d="M32.3,23.171c.456,12.563,10.137,22.343,21.623,21.845s21.28-12.1,20.825-24.66S65.351-2.007,52.311.491C40.989,2.659,31.849,10.608,32.3,23.171" transform="translate(20.639 0.079)" fill="#1c1927"/>
      <path id="Path_1000445" data-name="Path 1000445" d="M56.7,44.071,55.77,16.982l-15.284.739.929,27.089C41.6,49.426,45.174,53,49.4,52.8s7.491-4.111,7.3-8.728" transform="translate(25.879 13.465)" fill="#8e644a"/>
      <path id="Path_1000446" data-name="Path 1000446" d="M56.181,17.663S55.3,37.709,41.161,38l-.39-10Z" transform="translate(26.062 14.005)" fill="#794f3c"/>
      <path id="Path_1000447" data-name="Path 1000447" d="M36.553,35.9S50.1,26.892,68.219,34.3L48.837,47.6Z" transform="translate(23.365 24.88)" fill="#8e644a"/>
      <path id="Path_1000448" data-name="Path 1000448" d="M41.489,18.969a5.653,5.653,0,0,1-5.119,6.064,5.557,5.557,0,0,1-5.544-5.6,5.65,5.65,0,0,1,5.121-6.062,5.554,5.554,0,0,1,5.542,5.6" transform="translate(19.702 10.597)" fill="#794f3c"/>
      <path id="Path_1000449" data-name="Path 1000449" d="M48.789,46.1h0c-8.188.355-15.084-4.755-15.409-13.71l-.559-15.4c-.241-6.609,6.1-13.859,9.668-14.013L55.769,6.429c3.565-.154,6.6,2.908,6.739,6.808l.557,15.34C63.39,37.534,55.694,45.8,48.789,46.1" transform="translate(20.976 2.358)" fill="#8e644a"/>
      <path id="Path_1000450" data-name="Path 1000450" d="M41.507,15.79a1.209,1.209,0,0,0,1.3,1.138A1.268,1.268,0,0,0,43.851,15.5a1.209,1.209,0,0,0-1.3-1.138,1.268,1.268,0,0,0-1.041,1.425" transform="translate(26.527 11.383)" fill="#1f2326"/>
      <path id="Path_1000451" data-name="Path 1000451" d="M34.921,16a1.209,1.209,0,0,0,1.3,1.138,1.268,1.268,0,0,0,1.041-1.425,1.209,1.209,0,0,0-1.3-1.138A1.268,1.268,0,0,0,34.921,16" transform="translate(22.317 11.547)" fill="#1f2326"/>
      <path id="Path_1000452" data-name="Path 1000452" d="M37.84,16.312l-.184,3.71s.27,1.942,2.782,1.083" transform="translate(24.07 12.934)" fill="none" stroke="#794f3c" stroke-linecap="round" stroke-linejoin="round" stroke-width="0.542"/>
      <path id="Path_1000453" data-name="Path 1000453" d="M46.659,13.941a.981.981,0,0,1-.218.023L41.1,13.948a1.186,1.186,0,0,1,.007-2.363l5.342.016a1.137,1.137,0,0,1,1.077,1.185,1.162,1.162,0,0,1-.866,1.155" transform="translate(25.583 9.186)" fill="#1f2326"/>
      <path id="Path_1000454" data-name="Path 1000454" d="M38,14.072a.981.981,0,0,1-.218.023l-3.265-.009a1.186,1.186,0,0,1,0-2.363l3.265.009a1.137,1.137,0,0,1,1.079,1.185A1.162,1.162,0,0,1,38,14.072" transform="translate(21.375 9.295)" fill="#1f2326"/>
      <path id="Path_1000455" data-name="Path 1000455" d="M37.582,5.72s11.971,17.7,23.338,17.714c0,0,5.816-11.593-3.973-18.729S39.413,3.522,39.413,3.522Z" transform="translate(24.023 0.948)" fill="#1c1927"/>
      <path id="Path_1000456" data-name="Path 1000456" d="M48.791,7.378A31.361,31.361,0,0,1,32.779,15.6S34.364,4.366,43.254,2.474Z" transform="translate(20.953 1.962)" fill="#1c1927"/>
      <path id="Path_1000457" data-name="Path 1000457" d="M47.185,10.589s-.364,8.844,4.79,9.673l.69-8.039Z" transform="translate(30.158 8.396)" fill="#1c1927"/>
      <path id="Path_1000458" data-name="Path 1000458" d="M59.374,18.259a5.653,5.653,0,0,1-5.119,6.064,5.557,5.557,0,0,1-5.544-5.6A5.65,5.65,0,0,1,53.83,12.66a5.554,5.554,0,0,1,5.544,5.6" transform="translate(31.134 10.034)" fill="#8e644a"/>
      <path id="Path_1000459" data-name="Path 1000459" d="M44.064,19.553s-.657,2.826-4.618,3.181" transform="translate(25.215 15.504)" fill="none" stroke="#794f3c" stroke-linecap="round" stroke-linejoin="round" stroke-width="0.542"/>
      <path id="Path_1000460" data-name="Path 1000460" d="M43.183,9.919s-9.488,5.823-13.073.568a8.538,8.538,0,0,0,6.609-4.631Z" transform="translate(19.247 4.643)" fill="#1c1927"/>
      <path id="Path_1000461" data-name="Path 1000461" d="M34.142,10.5S36.2-2.886,51.126.57l-1.2,6.058Z" transform="translate(21.824 0)" fill="#1c1927"/>
    </g>
  </g>
</svg>
