<svg xmlns="http://www.w3.org/2000/svg" xmlns:xlink="http://www.w3.org/1999/xlink" width="140" height="320" viewBox="0 0 140 320">
  <defs>
    <clipPath id="clip-path">
      <rect id="Rectangle_456812" data-name="Rectangle 456812" width="42.199" height="48.517" fill="none"/>
    </clipPath>
  </defs>
  <g id="img17" transform="translate(-1249.711 -7904)">
    <g id="Group_1185131" data-name="Group 1185131" transform="translate(1219.272 7904)">
      <rect id="Rectangle_458371" data-name="Rectangle 458371" width="135.095" height="320" transform="translate(35.344 0)" fill="none"/>
      <g id="Group_1185028" data-name="Group 1185028" transform="translate(30.439 7.479)">
        <g id="Group_1180364" data-name="Group 1180364" transform="translate(0 221.591)">
          <path id="Rectangle_456807" data-name="Rectangle 456807" d="M80,0h59.515a0,0,0,0,1,0,0V90.594a0,0,0,0,1,0,0H0a0,0,0,0,1,0,0V80A80,80,0,0,1,80,0Z" transform="translate(0 0)" fill="#69d7e5"/>
        </g>
        <g id="Group_1180367" data-name="Group 1180367" transform="translate(4.871 0)">
          <path id="Path_1000463" data-name="Path 1000463" d="M55.189,165.24l1.971,29,13.363-.576L70.058,164.3Z" transform="translate(-29.239 101.384)" fill="#edbc9c"/>
          <path id="Path_1000464" data-name="Path 1000464" d="M65.807,180.985,41.453,192.091a3.859,3.859,0,0,0-2.027,4.328H82.383l-1.6-15.612Z" transform="translate(-38.879 111.416)"/>
          <rect id="Rectangle_456810" data-name="Rectangle 456810" width="44.262" height="4.62" transform="translate(0 307.835)" fill="#fff"/>
          <line id="Line_3368" data-name="Line 3368" x2="2.641" y2="2.246" transform="translate(19.427 295.18)" fill="none" stroke="#fff" stroke-linecap="round" stroke-linejoin="round" stroke-width="1.023"/>
          <line id="Line_3369" data-name="Line 3369" x2="2.661" y2="2.264" transform="translate(15.883 296.885)" fill="none" stroke="#fff" stroke-linecap="round" stroke-linejoin="round" stroke-width="1.023"/>
          <line id="Line_3370" data-name="Line 3370" x2="2.812" y2="2.397" transform="translate(12.327 298.67)" fill="none" stroke="#fff" stroke-linecap="round" stroke-linejoin="round" stroke-width="1.023"/>
          <path id="Path_1000465" data-name="Path 1000465" d="M82.252,165.24l1.971,29,13.363-.576L97.121,164.3Z" transform="translate(-12.795 101.384)" fill="#edbc9c"/>
          <path id="Path_1000466" data-name="Path 1000466" d="M92.87,180.985,68.516,192.091a3.859,3.859,0,0,0-2.027,4.328h42.958l-1.6-15.612Z" transform="translate(-22.435 111.416)"/>
          <rect id="Rectangle_456811" data-name="Rectangle 456811" width="44.262" height="4.62" transform="translate(43.506 307.835)" fill="#fff"/>
          <line id="Line_3371" data-name="Line 3371" x2="2.641" y2="2.246" transform="translate(62.934 295.18)" fill="none" stroke="#fff" stroke-linecap="round" stroke-linejoin="round" stroke-width="1.023"/>
          <line id="Line_3372" data-name="Line 3372" x2="2.661" y2="2.264" transform="translate(59.391 296.885)" fill="none" stroke="#fff" stroke-linecap="round" stroke-linejoin="round" stroke-width="1.023"/>
          <line id="Line_3373" data-name="Line 3373" x2="2.812" y2="2.397" transform="translate(55.835 298.67)" fill="none" stroke="#fff" stroke-linecap="round" stroke-linejoin="round" stroke-width="1.023"/>
          <path id="Path_1000467" data-name="Path 1000467" d="M67.293,80.176l51.263,3.907L122.812,228.1H97.274l-9.1-108.624L75.989,165.89l4.151,63.962-23.915.069L47.973,159.2Z" transform="translate(-33.624 50.268)" fill="#c4b6a7"/>
          <line id="Line_3374" data-name="Line 3374" x2="11.464" y2="6.259" transform="translate(43.09 163.482)" fill="none" stroke="#a69382" stroke-miterlimit="10" stroke-width="0.75"/>
          <path id="Path_1000468" data-name="Path 1000468" d="M63.31,53.215l.331,14.136-8.024.1.592-15.215Z" transform="translate(-28.979 33.293)" fill="#ebab9d"/>
          <path id="Path_1000469" data-name="Path 1000469" d="M63.757,37.925s-10.729,7.054-9.606,24.947l10.432,1.174Z" transform="translate(-29.919 24.594)" fill="#808dff"/>
          <path id="Path_1000470" data-name="Path 1000470" d="M86.582,32.972c12.9,0,27.528,4.46,27.528,4.46l-.556,82.07-54.5-4.185.577-71.781a3.5,3.5,0,0,1,1.826-3.04l15.073-6.448s7.418-1.076,10.051-1.076" transform="translate(-29.319 21.584)" fill="#808dff"/>
          <line id="Line_3375" data-name="Line 3375" y1="17.292" transform="translate(32.544 71.109)" fill="none" stroke="#667af1" stroke-miterlimit="10" stroke-width="0.764"/>
          <path id="Path_1000471" data-name="Path 1000471" d="M89.283,53.478l3.506,40.595s3.871,8.164,10.718-.328.987-41.664.987-41.664Z" transform="translate(-8.522 33.196)" fill="#edbc9c"/>
          <path id="Path_1000472" data-name="Path 1000472" d="M87.376,67.483s-2.924-29.967,6.561-31.727c9.836-1.826,15.548,16.713,16.457,30Z" transform="translate(-9.94 23.2)" fill="#808dff"/>
          <path id="Path_1000473" data-name="Path 1000473" d="M91.1,61.74l-3.648.275S86.385,51.76,87.028,44.63" transform="translate(-10.017 28.668)" fill="none" stroke="#667af1" stroke-miterlimit="10" stroke-width="0.764"/>
          <path id="Path_1000474" data-name="Path 1000474" d="M81.4,57.548s-1.976-7.157-9.138-7.855-9.271,4.926-7.923,8.63,6.009,9.733,13.07,6.649,3.99-7.424,3.99-7.424" transform="translate(-23.913 31.709)" fill="#edbc9c"/>
          <path id="Path_1000475" data-name="Path 1000475" d="M72.567,49.677A44.578,44.578,0,0,0,60.3,53.035a1.4,1.4,0,0,0,.894,2.62L70.9,53.841Z" transform="translate(-26.597 31.735)" fill="#edbc9c"/>
          <path id="Path_1000476" data-name="Path 1000476" d="M104.611,94.635,72.323,61.981l3.99-7.424,31.405,19.954Z" transform="translate(-18.828 34.7)" fill="#edbc9c"/>
          <line id="Line_3376" data-name="Line 3376" x2="6.543" y2="4.157" transform="translate(82.349 105.055)" fill="none" stroke="#dea888" stroke-miterlimit="10" stroke-width="0.764"/>
          <path id="Path_1000477" data-name="Path 1000477" d="M47.438,62.813l13.58,40.31a3.061,3.061,0,0,0,3.3,2.059l33-4.336a3.062,3.062,0,0,0,2.493-4.04L85.838,56.55a3.06,3.06,0,0,0-3.291-2.032L49.941,58.8a3.061,3.061,0,0,0-2.5,4.013" transform="translate(-34.048 34.661)" fill="#121314"/>
          <path id="Path_1000478" data-name="Path 1000478" d="M48.389,57.809l-1.725,2.239,51.424,39.7,1.846-2.4Z" transform="translate(-34.419 36.677)" fill="#121314"/>
          <path id="Path_1000479" data-name="Path 1000479" d="M46.471,64.058l13.58,40.31a3.061,3.061,0,0,0,3.3,2.059l33-4.336a3.062,3.062,0,0,0,2.493-4.04L84.871,57.8a3.06,3.06,0,0,0-3.291-2.032L48.974,60.046a3.061,3.061,0,0,0-2.5,4.013" transform="translate(-34.635 35.417)" fill="#455157"/>
          <path id="Path_1000480" data-name="Path 1000480" d="M58.792,70.376A3.554,3.554,0,1,0,62.321,66.8a3.553,3.553,0,0,0-3.529,3.579" transform="translate(-27.05 42.138)" fill="#86969c"/>
          <path id="Path_1000481" data-name="Path 1000481" d="M47.423,69.416l3.092,8.339A2.327,2.327,0,0,0,53,79.254a5.151,5.151,0,0,0,4.247-6.636l-.868-2.8A5.15,5.15,0,0,0,51.214,66.2l-1.72.08a2.326,2.326,0,0,0-2.071,3.132" transform="translate(-34.048 41.774)" fill="#edbc9c"/>
          <path id="Path_1000482" data-name="Path 1000482" d="M68.774,28.513l1.64,13.228c.566,4.646,3.641,6.781,8.066,6.188,3.775-.508,7.7-2.855,7.027-6.931l-1.95-20.769Z" transform="translate(-20.984 13.841)" fill="#edbc9c"/>
          <path id="Path_1000483" data-name="Path 1000483" d="M70.233,39.936s14.9-5.408,13.649-18.758c-.375-3.977-15.229,5.976-15.229,5.976Z" transform="translate(-21.058 13.847)" fill="#dea888"/>
          <path id="Path_1000484" data-name="Path 1000484" d="M67.873,35.709l6.429-2.99,11.342.325,6.651.929s2.479,9.963-14.342,10.517c-13.446.444-10.08-8.781-10.08-8.781" transform="translate(-21.76 21.431)" fill="#edbc9c"/>
          <g id="Group_1180366" data-name="Group 1180366" transform="translate(29.732)">
            <g id="Group_1180365" data-name="Group 1180365" clip-path="url(#clip-path)">
              <path id="Path_1000487" data-name="Path 1000487" d="M24.754,23.769S12.685,14.782,18.2,6.458,33.735,5.345,33.735,5.345Z" transform="translate(-16.757 1.235)" fill="#1f2326"/>
              <path id="Path_1000488" data-name="Path 1000488" d="M1.113,3.02s34-4.813,19.034,21.521L16.278,13.858Z" transform="translate(16.568 1.351)" fill="#1f2326"/>
              <path id="Path_1000489" data-name="Path 1000489" d="M23.078,7.681s-5.694,4.759,1.449,15.21l1.9-13.336Z" transform="translate(-15.73 3.879)" fill="#1f2326"/>
              <path id="Path_1000490" data-name="Path 1000490" d="M28.968,21.387a5.172,5.172,0,0,1-4.426,5.791,5.117,5.117,0,0,1-5.623-4.587A5.173,5.173,0,0,1,23.345,16.8a5.118,5.118,0,0,1,5.623,4.587" transform="translate(-15.225 8.467)" fill="#d39d7e"/>
              <path id="Path_1000491" data-name="Path 1000491" d="M19.134,43.183h0c-7.117.361-13.272-5.147-13.771-11.141L4.388,19.5A13.814,13.814,0,0,1,16.269,4.469c7.42-.889,15.452,4.446,16.336,12.11l.643,9.783A15.679,15.679,0,0,1,19.134,43.183" transform="translate(2.385 2.208)" fill="#edbc9c"/>
              <path id="Path_1000492" data-name="Path 1000492" d="M16.969,20.888l-.211,3.538,1.871,0" transform="translate(-1.651 10.549)" fill="none" stroke="#000" stroke-linecap="round" stroke-linejoin="round" stroke-width="0.523"/>
              <path id="Path_1000493" data-name="Path 1000493" d="M13.387,15.176s-3.1-.141-3.085,1.16c0,0,.036.882,2.744.951s3.4-.164,3.617-1-1.823-1.159-3.275-1.111" transform="translate(10.016 7.662)" fill="#1f2326"/>
              <path id="Path_1000494" data-name="Path 1000494" d="M21.726,15.775s2.545-.372,2.8.841c0,0,.154.823-2.075,1.1s-2.969.009-3.207-.65c-.268-.748,1.269-1.221,2.482-1.288" transform="translate(-11.248 7.94)" fill="#1f2326"/>
              <path id="Path_1000495" data-name="Path 1000495" d="M22.287,20.255A1.3,1.3,0,1,1,20.9,19.01a1.326,1.326,0,0,1,1.392,1.245" transform="translate(-9.728 9.599)" fill="#1f2326"/>
              <path id="Path_1000496" data-name="Path 1000496" d="M14.734,19.7a1.3,1.3,0,1,1-1.392-1.245A1.327,1.327,0,0,1,14.734,19.7" transform="translate(9.193 9.319)" fill="#1f2326"/>
              <path id="Path_1000497" data-name="Path 1000497" d="M2.808,17.259s-.47-3.295,6-4.1,14.784-.26,19.391,5.5l.1,9.067,5.772-5.7-3.037-13.5L13.766,2.9,3.434,10.094Z" transform="translate(3.916 1.466)" fill="#1f2326"/>
              <path id="Path_1000498" data-name="Path 1000498" d="M9.987,20.143A5.122,5.122,0,0,1,5.6,25.879,5.068,5.068,0,0,1,.036,21.337,5.123,5.123,0,0,1,4.419,15.6a5.067,5.067,0,0,1,5.569,4.542" transform="translate(32.175 7.861)" fill="#edbc9c"/>
              <path id="Path_1000499" data-name="Path 1000499" d="M2.044,21.351S1.615,17.626,5.13,17.8" transform="translate(34.018 8.986)" fill="none" stroke="#000" stroke-linecap="round" stroke-linejoin="round" stroke-width="0.523"/>
              <path id="Path_1000500" data-name="Path 1000500" d="M4.11,6.99S2.572,3.055,7.99.871c4.66-1.878,9.476-1.078,19.874,5.962Z" transform="translate(8.453 0)" fill="#1f2326"/>
              <path id="Path_1000501" data-name="Path 1000501" d="M4.654,34.093a2.048,2.048,0,0,1,1.24-1.854,20.887,20.887,0,0,1,5.254-1.449c3.128-.489,7.638.5,10.069,1.144a2.3,2.3,0,0,0,2.632-1.18A28.6,28.6,0,0,0,26.175,11.21l3.6,2.605-.47,5.527s-2.807,5.981,1.586,8.638c0,0,.209,12.381-11.262,14.614A17.176,17.176,0,0,1,9.472,41.247a8.358,8.358,0,0,1-4.818-7.154" transform="translate(4.307 5.661)" fill="#1f2326"/>
              <path id="Path_1000502" data-name="Path 1000502" d="M10.994,19.179S3.452,17.418,6.36,10.058s6.451,2,6.451,2Z" transform="translate(20.82 3.654)" fill="#1f2326"/>
            </g>
          </g>
        </g>
      </g>
    </g>
  </g>
</svg>
