<svg xmlns="http://www.w3.org/2000/svg" xmlns:xlink="http://www.w3.org/1999/xlink" width="140" height="320.022" viewBox="0 0 140 320.022">
  <defs>
    <clipPath id="clip-path">
      <rect id="Rectangle_458995" data-name="Rectangle 458995" width="140" height="320.022" fill="none"/>
    </clipPath>
  </defs>
  <g id="img26" transform="translate(-6218 -3580.532)">
    <path id="Path_1031726" data-name="Path 1031726" d="M6330.681,3653.632l10.035,31.715s-17.14,2.783-17.433,2.783-41.457-.513-41.457-.513,8.057-39.406,8.423-39.772,3.882-3.223,4.468-2.783,6.958,11.646,7.178,11.426,9.522-.513,10.987-.659S6330.681,3653.632,6330.681,3653.632Z" fill="#5d714c"/>
    <path id="Path_1031727" data-name="Path 1031727" d="M6325.625,3694.868l4.98-.439,2.2,5.567,3.516,25.782-16.407,30.1-7.544-.439s-8.626,3.284-8.626,2.666-13.616-28.594-13.616-28.594l6.689-33,3.164-2.085Z" fill="#5f6372"/>
    <g id="Group_1185295" data-name="Group 1185295" transform="translate(6218 3580.532)">
      <g id="Group_1185294" data-name="Group 1185294">
        <g id="Group_1185293" data-name="Group 1185293" clip-path="url(#clip-path)">
          <path id="Path_1031595" data-name="Path 1031595" d="M80,237.441h60v82.581H0v-2.581a80,80,0,0,1,80-80" fill="#69d7e5"/>
          <path id="Path_1031668" data-name="Path 1031668" d="M94.9,271.613c-.7,2.478-.339,4.95.048,7.5-3.025,1.4-5.7,3.438-8.8,4.762-.969-.3-8.362,4.128-8.468,3.234a74.594,74.594,0,0,1,1.267-7.435,52.09,52.09,0,0,0,4.808-2.885c1.306-1.44,1.426-3.146,1.455-5.023a26.658,26.658,0,0,0,9.695-.155" fill="#e4aba0"/>
          <path id="Path_1031596" data-name="Path 1031596" d="M9.167,18.47H51.7a2.148,2.148,0,0,0,2.147-2.147V2.153A2.148,2.148,0,0,0,51.7,0H9.167A2.147,2.147,0,0,0,7.02,2.147h0v14.17A2.148,2.148,0,0,0,9.164,18.47Z" fill="#19538d"/>
          <line id="Line_3411" data-name="Line 3411" x1="31.12" transform="translate(14.486 7.082)" fill="none" stroke="#fff" stroke-linecap="round" stroke-linejoin="round" stroke-width="1.076"/>
          <line id="Line_3412" data-name="Line 3412" x1="10.655" transform="translate(14.589 11.989)" fill="none" stroke="#fff" stroke-linecap="round" stroke-linejoin="round" stroke-width="1.076"/>
          <path id="Path_1031597" data-name="Path 1031597" d="M47.268,16.014v8.351L36.621,16.014Z" fill="#19538d"/>
          <path id="Path_1031598" data-name="Path 1031598" d="M113.09,43.143a2.24,2.24,0,0,1-.425.421,1.828,1.828,0,0,0-.387.383.184.184,0,0,1-.14.074,2.141,2.141,0,0,0-.471.375l-.079,0a3.66,3.66,0,0,0-.751.215,12.694,12.694,0,0,1-8.939,1.313c-.313-.078-.726.247-1.18.388-1.588-.312-3.088-.627-4.773-.981,2.5-2.219,3.585-3.914,3.53-5.344-2.532,3.33-2.8,3.591-3.908,3.59a13.046,13.046,0,0,0,4.907-10.823,1.773,1.773,0,0,1,.4,0c3.54,1.076,6.986-1.823,6.73-5.848a4.786,4.786,0,0,0-3.215-4.188A4.3,4.3,0,0,0,99.671,24.3c-.224.28-.432.571-.613.812-3.1-2.4-4.683-5.718-6.285-9.119.174,1.42.347,2.839.546,4.464-2.623.116-5.193.2-7.759.36a1.026,1.026,0,0,1-1.2-.824c-.527-1.755-1.041-3.513-1.625-5.488v6.242c-1.349.3-1.717-.524-2.044-1.318a14.177,14.177,0,0,1-.761-2.32,23.28,23.28,0,0,1-.291-2.383l-.337-.025c-.244,2-.488,4-.746,6.106H75.568c-.038.375-.076.643-.089.913s0,.562,0,.89c2.544-1.17,4.234-.7,4.305,1.257-.479-.061-.932-.134-1.388-.173-.773-.066-1.547-.127-2.321-.158-.59-.024-.859.26-.788.879a62.566,62.566,0,0,0,.877,7.364,11.631,11.631,0,0,0,7,8.59,13.894,13.894,0,0,0,5.361.824,3.313,3.313,0,0,0-.407,1.068c-.052,1.28.4,2.6-.383,3.872a14.879,14.879,0,0,1-9.628-.038,5.417,5.417,0,0,0-1.021-.272A.78.78,0,0,1,76.7,45.6c-.69-.305-1.364-.538-2.029-.775.008,0,.011.014-.034-.035a1.755,1.755,0,0,0-.459-.162.126.126,0,0,1-.1-.138c.166-.9.345-1.719.492-2.538a9.886,9.886,0,0,0,.08-1.106.681.681,0,0,1,.15-.356,12.01,12.01,0,0,0,.677-2.739,21.645,21.645,0,0,0-.5-5.293c-.581-2.965-.626-6.034-.92-9.057-.022-.227-.234-.435-.375-.72a.939.939,0,0,1,.044-.407,8.08,8.08,0,0,0-.107-1.4,3.462,3.462,0,0,1-.39-.258c-.624-.306-1.119-.656-1.207-1.346-.1-.755-.145-1.517-.179-2.345.269-1.095.5-2.121.793-3.19.292-.709.525-1.376.775-2.114a14.321,14.321,0,0,1,.767-1.561c.488-.68.909-1.346,1.389-2.027.162-.136.264-.256.441-.385,1.969-.636,3.864-1.26,5.754-1.9.11-.037.184-.183.337-.318a12.856,12.856,0,0,1,2.123-1.3c1.972-.734,3.989-1.348,5.988-2.01h5.419a3.187,3.187,0,0,1,.869.33,20.46,20.46,0,0,0,1.939.712c1.021.319,2.046.623,3.069.934,0,0-.019.01,0,.07.408.238.792.418,1.176.6,0,0-.011.012.008.07a3.791,3.791,0,0,0,.589.348.265.265,0,0,0,.019.065,2.173,2.173,0,0,0,.456.276s-.019.007.007.054a2.107,2.107,0,0,0,.337.218s0,0,.01.072a9.082,9.082,0,0,0,.874.674.039.039,0,0,0,0,.058,2.173,2.173,0,0,0,.209.152s-.017,0,0,.045a1.167,1.167,0,0,0,.2.159s-.071.05-.043.1c.358.358.688.67,1.017.981.072.013.123.052.177.226a1.322,1.322,0,0,0,.275.347s-.022.008-.016.065a2.723,2.723,0,0,0,.368.383s-.017.008-.01.076c.281.429.555.789.829,1.15,0,0-.017,0-.012.072a6.666,6.666,0,0,0,.488.691s-.018,0-.008.048a1.4,1.4,0,0,0,.133.216s-.007.006,0,.068a4.7,4.7,0,0,0,.347.548.432.432,0,0,1,.064.214,11.534,11.534,0,0,0,.623,1.217s.043.018.03.129a8.211,8.211,0,0,0,1.986,4.364.235.235,0,0,1,.041.169c.6,1.916,1.2,3.715,1.8,5.6a5.614,5.614,0,0,0,.122.682c1.219,4.861,2.3,9.735,1.463,14.864-.118.589-.191,1.117-.264,1.644,0,0-.045-.047-.077-.009-.093.135-.154.233-.216.331,0,0,0,.007-.066.032a2.4,2.4,0,0,0-.295.509.134.134,0,0,1-.059.107,1.077,1.077,0,0,0-.156.248.885.885,0,0,1-.245.335,1.779,1.779,0,0,0-.341.471s-.01-.019-.053.006a2.285,2.285,0,0,0-.217.315" fill="#462217"/>
          <path id="Path_1031599" data-name="Path 1031599" d="M75.705,281.928c1.375-1,2.749-2,4.263-3.005a9.294,9.294,0,0,1,1.964.57c1.846.943,2.127,2.164.973,3.885-.157.233-.289.483-.433.726l.133.192c1.037-.377,2.075-.755,3.189-1.135,3.105-1.324,6.133-2.645,9.226-3.932,1.332,2.092,1.465,4.437,1.662,6.833a4.414,4.414,0,0,0,.849-.322c2.755-1.855,5.53-3.684,8.232-5.615a3.237,3.237,0,0,1,2.365-.809,17,17,0,0,1,1.707.81c1.418.883,1.648,1.9.809,3.354-.2.352-.435.69-.755,1.193a65.69,65.69,0,0,0,12.7-5.066.885.885,0,0,1,.109.251,2.7,2.7,0,0,0,.225.457s-.022-.008-.014.053c.089.227.169.394.248.56,0,0-.038-.009-.033.046.08.226.155.4.23.569,0,0-.035-.005-.031.061.147.579.29,1.091.433,1.6a.546.546,0,0,1-.009.14c-.019,1.449.011,2.8-.055,4.141a1.052,1.052,0,0,1-.624.739,14.63,14.63,0,0,1-1.807.254,88.5,88.5,0,0,0-9.4,1.6,48.8,48.8,0,0,1-15.521,1.635c-1.755-.088-3.5-.374-5.249-.6-1.1-.143-1.26-.438-.88-1.51.139-.392.328-.767.615-1.427-2.945.7-5.662,1.263-8.337,1.986-5.879,1.59-11.824,1.408-17.789.778-1.812-.191-1.8-.259-1.661-2.283,0,0,0,.014.062,0a2.666,2.666,0,0,0,.309-.461s.037.037.066.02a2.38,2.38,0,0,0,.18-.2s-.032.039.018.019a4.883,4.883,0,0,0,.394-.384s0,.01.075,0c.568-.229,1.063-.451,1.558-.674,0,0,0,.041.055.04.225-.079.4-.156.567-.233,0,0-.009.039.045.034.225-.082.4-.16.567-.237,0,0-.01.039.055.036.906-.339,1.746-.674,2.586-1.009,0,0,0,0,.075-.005.23-.086.391-.163.552-.24,0,0-.012.036.044.03.293-.14.528-.274.764-.408,0,0,0,.014.052,0,.157-.08.261-.143.364-.206,0,0-.008.02.054.014a5.122,5.122,0,0,0,.557-.406s0,.01.065,0a5.751,5.751,0,0,0,.541-.265s-.029.043.02.028a4.377,4.377,0,0,0,.392-.384s0,.014.063.006a4.908,4.908,0,0,0,.551-.4s0,.005.067,0a4.478,4.478,0,0,0,.539-.418s0,.014.058,0a3.52,3.52,0,0,0,.356-.242s-.025.043.022.026a4.618,4.618,0,0,0,.384-.386s0,.009.06-.008a3.187,3.187,0,0,0,.352-.243s.007.048.027.019c.069-.081.118-.132.167-.184" fill="#5f3428"/>
          <path id="Path_1031600" data-name="Path 1031600" d="M62.984,288.708c-.085,1.979-.092,2.047,1.719,2.239,5.965.629,11.91.811,17.79-.779,2.674-.723,5.391-1.29,8.336-1.985-.287.659-.476,1.034-.615,1.426-.38,1.072-.22,1.367.881,1.51,1.746.227,3.493.514,5.248.6a48.773,48.773,0,0,0,15.521-1.635,88.539,88.539,0,0,1,9.4-1.6,14.63,14.63,0,0,0,1.807-.254,1.05,1.05,0,0,0,.624-.739c.067-1.344.036-2.692.036-4.137a7.073,7.073,0,0,1,.337,1.571c.044,2.1.033,4.2.024,6.3,0,.872-.337,1.362-1.347,1.359-2.21-.006-4.421.095-6.631.149-.364.009-.729,0-1.134,0-.048-.627-.088-1.149-.145-1.883a36.684,36.684,0,0,1-13.659,2.5c-4.561-.181-9.112-.6-13.728-.923-.035-.7-.061-1.234-.1-1.918-.829.247-1.6.451-2.351.7-6.718,2.264-13.582,2.152-20.48,1.2-2.518-.348-2.554-.515-1.9-2.911a3.884,3.884,0,0,1,.362-.8" fill="#30211d"/>
          <path id="Path_1031601" data-name="Path 1031601" d="M122.592,279.535a61.7,61.7,0,0,1-12.7,5.137c.319-.5.55-.84.754-1.193.84-1.45.609-2.471-.809-3.353-.511-.319-1.1-.522-1.679-.866a20.849,20.849,0,0,1,2.108-1.966c1.8-1.442,1.934-3.294,1.46-5.338a1.641,1.641,0,0,1,.437.022,18.762,18.762,0,0,0,9.594-.041c.234.009.39.013.546.018a11.694,11.694,0,0,0-.2,1.993c.118,1.841.325,3.677.494,5.587" fill="#e3aba1"/>
          <path id="Path_1031602" data-name="Path 1031602" d="M122.356,271.932a1.226,1.226,0,0,1-.565-.055c1.887-.836,1.693-2.52,1.726-4.125.046-2.206.141-4.411.193-6.617.079-3.362.178-6.724.2-10.086q.051-7.909,0-15.819a36.331,36.331,0,0,0-.325-3.847c-.2-1.739-.444-3.474-.676-5.21-.295-2.215-.465-4.457-.924-6.638-.929-4.416-1.829-8.814-1.545-13.371.2-3.284.287-6.575.435-9.863.063-1.389.126-2.779.24-4.164.239-2.9.523-5.8.767-8.7.168-1.993.286-3.989.451-5.982.318-3.849.677-7.695.973-11.545.188-2.434.239-4.879.447-7.31a67.321,67.321,0,0,0-.374-14.823c-.414-3.042-1.395-6.007-2.1-9.01-.217-.919-.379-1.851-.52-2.72.272.7.51,1.333.723,1.978,2.873,8.714,3.282,17.663,2.563,26.722-.519,6.541-1.045,13.082-1.524,19.626q-.82,11.188-1.56,22.382a45.2,45.2,0,0,0,.613,12.884,107.315,107.315,0,0,1,2.831,23.239,3.478,3.478,0,0,0,.214.841.356.356,0,0,0-.027.119q-.283,14.981-.577,29.875c-.033,1.665-.049,1.664-1.652,2.224" fill="#5f6372"/>
          <path id="Path_1031603" data-name="Path 1031603" d="M80.25,239.793a3.3,3.3,0,0,1,.159-.368c-.194-2.454-.379-4.761-.613-7.062-.482-4.738-.939-9.48-1.5-14.208-1.1-9.289-2.329-18.563-3.4-27.855-.688-5.982-1.229-11.981-1.756-17.98-.36-4.1-.581-8.211-.821-12.318a.2.2,0,0,1,.179.069c.216,2.4.388,4.73.556,7.06.1,1.42.17,2.842.3,4.259.219,2.362.479,4.719.716,7.078.368,3.674.715,7.35,1.1,11.022.362,3.436.765,6.868,1.152,10.3.311,2.76.612,5.521.939,8.279.284,2.389.605,4.773.9,7.161.434,3.531.877,7.061,1.281,10.6.285,2.49.5,4.988.763,7.48.235,2.221.491,4.44.738,6.66.161,1.449.345,2.895.481,4.345.238,2.53.44,5.063.671,7.594.246,2.7.533,5.393.755,8.093.244,2.973.411,5.952.663,8.923.072.851.106,1.8,1.17,2.163.113.039.155.284.157.438-.218,0-.363,0-.509-.006-1.222-.1-1.261-1.034-1.335-1.928-.362-4.368-.7-8.738-1.081-13.105-.449-5.18-.925-10.357-1.4-15.535a6.984,6.984,0,0,0-.269-1.155" fill="#5f6372"/>
          <path id="Path_1031604" data-name="Path 1031604" d="M69.5,285.621c-.764.328-1.6.662-2.529.995.761-.331,1.607-.659,2.529-.995" fill="#30211d"/>
          <path id="Path_1031605" data-name="Path 1031605" d="M65.624,286.982a14.148,14.148,0,0,1-1.482.673,14.263,14.263,0,0,1,1.482-.673" fill="#30211d"/>
          <path id="Path_1031606" data-name="Path 1031606" d="M123.76,283.12c-.147-.426-.29-.938-.434-1.534.145.427.292.937.434,1.534" fill="#30211d"/>
          <path id="Path_1031607" data-name="Path 1031607" d="M70.945,285a3.382,3.382,0,0,1-.712.4,3.407,3.407,0,0,1,.712-.4" fill="#30211d"/>
          <path id="Path_1031608" data-name="Path 1031608" d="M71.977,284.4a1.828,1.828,0,0,1-.5.391,1.825,1.825,0,0,1,.5-.391" fill="#30211d"/>
          <path id="Path_1031609" data-name="Path 1031609" d="M73.61,283.381a1.853,1.853,0,0,1-.494.393,1.869,1.869,0,0,1,.494-.393" fill="#30211d"/>
          <path id="Path_1031610" data-name="Path 1031610" d="M74.217,282.962a1.854,1.854,0,0,1-.479.4,1.855,1.855,0,0,1,.479-.4" fill="#30211d"/>
          <path id="Path_1031611" data-name="Path 1031611" d="M63.353,288.22a.975.975,0,0,1-.256.438.947.947,0,0,1,.256-.438" fill="#30211d"/>
          <path id="Path_1031612" data-name="Path 1031612" d="M64.01,287.67a1.038,1.038,0,0,1-.351.353,1.037,1.037,0,0,1,.351-.353" fill="#30211d"/>
          <path id="Path_1031613" data-name="Path 1031613" d="M73,283.782a.967.967,0,0,1-.351.356.968.968,0,0,1,.351-.356" fill="#30211d"/>
          <path id="Path_1031614" data-name="Path 1031614" d="M75.039,282.36a1.04,1.04,0,0,1-.345.357,1.022,1.022,0,0,1,.345-.357" fill="#30211d"/>
          <path id="Path_1031615" data-name="Path 1031615" d="M123.162,280.855a1.587,1.587,0,0,1-.249-.5,1.566,1.566,0,0,1,.249.5" fill="#30211d"/>
          <path id="Path_1031616" data-name="Path 1031616" d="M123.363,281.469a1.5,1.5,0,0,1-.234-.515,1.513,1.513,0,0,1,.234.515" fill="#30211d"/>
          <path id="Path_1031617" data-name="Path 1031617" d="M72.577,284.112a1.3,1.3,0,0,1-.475.276,1.309,1.309,0,0,1,.475-.276" fill="#30211d"/>
          <path id="Path_1031618" data-name="Path 1031618" d="M70.136,285.368a1.646,1.646,0,0,1-.482.238,1.609,1.609,0,0,1,.482-.238" fill="#30211d"/>
          <path id="Path_1031619" data-name="Path 1031619" d="M66.865,286.581a1.56,1.56,0,0,1-.513.238,1.56,1.56,0,0,1,.513-.238" fill="#30211d"/>
          <path id="Path_1031620" data-name="Path 1031620" d="M66.252,286.783a1.575,1.575,0,0,1-.513.24,1.555,1.555,0,0,1,.513-.24" fill="#30211d"/>
          <path id="Path_1031621" data-name="Path 1031621" d="M122.92,280.248a.83.83,0,0,1-.205-.321.842.842,0,0,1,.205.321" fill="#30211d"/>
          <path id="Path_1031622" data-name="Path 1031622" d="M75.446,282.1a.71.71,0,0,1-.291.235.7.7,0,0,1,.291-.235" fill="#30211d"/>
          <path id="Path_1031623" data-name="Path 1031623" d="M74.627,282.7a.682.682,0,0,1-.3.239.7.7,0,0,1,.3-.239" fill="#30211d"/>
          <path id="Path_1031624" data-name="Path 1031624" d="M71.368,284.789a.916.916,0,0,1-.309.2.932.932,0,0,1,.309-.2" fill="#30211d"/>
          <path id="Path_1031625" data-name="Path 1031625" d="M63.589,288.025c.02.055-.031.115-.129.211-.012-.045.023-.125.129-.211" fill="#30211d"/>
          <path id="Path_1031626" data-name="Path 1031626" d="M75.647,281.941c.009.038-.04.09-.133.174,0-.032.035-.1.133-.174" fill="#30211d"/>
          <path id="Path_1031627" data-name="Path 1031627" d="M101.274,49.107a11.828,11.828,0,0,1,4.654,3.862c.194.312.71.46,1.107.6,3.411,1.248,6.831,2.471,10.244,3.715a9.916,9.916,0,0,1,6.176,6.507c1.494,4.508,2.843,9.07,4.1,13.651.738,2.682,1.1,5.466,1.8,8.163a21.59,21.59,0,0,0,1.71,4.438c.989,1.93,1.585,3.778.645,5.931a4.538,4.538,0,0,0-.082,2.384c.317,2.007.752,4,1.142,5.992a1.138,1.138,0,0,0,.131.485c1.058,1.309.6,2.665.032,3.943a19.934,19.934,0,0,1-2.123,3.92c-2.035,2.683-6,2.431-8.289.007.775-.075,1.47-.075,2.417-.075a19.764,19.764,0,0,0-.7-2.474,16.11,16.11,0,0,0-6.272-7.055c-1.135-.734-2.292-1.433-3.444-2.241a21.324,21.324,0,0,1,.26-2.717,1.446,1.446,0,0,1,1.831-1.192c.6.087,1.213.162,1.806.3a29.43,29.43,0,0,1,12.305,6.125,5,5,0,0,0,.928.492l.219-.352c-.669-.531-1.331-1.07-2.007-1.591a28,28,0,0,0-13.249-5.69,1.58,1.58,0,0,1-1.077-.825,40.591,40.591,0,0,1-1.427-4.677c-1-4.371-1.923-8.762-2.889-13.143a8.541,8.541,0,0,0-.406-1.113l-.363.063c0,.655,0,1.31-.05,2.027-.157.73-.284,1.394-.367,2.064-.4,3.26-.858,6.515-1.165,9.784a54.563,54.563,0,0,0-.235,6.568,27.428,27.428,0,0,0,.672,3.352c-2.441-.042-4.787-.1-7.134-.139-5.274-.093-10.548-.177-15.831-.352-.318-2.269-.607-4.455-.938-6.634-.521-3.434-.912-6.852.054-10.29.532-1.894.909-3.832,1.336-5.755a4.007,4.007,0,0,0,.008-.849l-.3-.044c-.12.332-.268.656-.356,1q-.473,1.824-.912,3.657c-.8,3.308-1.469,6.591-.8,10.056.555,2.891.755,5.85,1.042,8.829-1.729.028-3.387,0-5.052-.1-.482-2.013-.956-3.941-1.367-5.893.387-.372.712-.722,1.156-1.2a13.2,13.2,0,0,1-1.635-.526c-.408-1.551-.81-3.022-1.183-4.5-1.04-4.111-2.067-8.224-3.054-12.4.626-2,1.346-3.909,1.778-5.888l-.5-.146c-.511,1.618-1.021,3.235-1.587,4.8a8.527,8.527,0,0,1-.43-1.084c-.933-3.087-1.859-6.176-2.744-9.319a11.6,11.6,0,0,1,3.859-4.335c1.484-.886,2.976-1.758,4.459-2.647,1.915-1.149,4.213-1.8,5.373-4.041.235-.189.411-.358.651-.553.272-.207.48-.387.749-.586.516-.362.969-.705,1.5-1.057a3.688,3.688,0,0,1,.885-.15c-.2.977-.374,1.874-.626,2.775-.311.39-.55.776-.839,1.218a27.3,27.3,0,0,0-1.055,5.634c.029,4.038.392,8.074.645,12.109.073,1.161.234,2.316.355,3.473a31.636,31.636,0,0,0,3.218-3.95c2.416-3.487,4.792-7,7.236-10.547.895-1.648,1.737-3.257,2.614-4.861a.215.215,0,0,0,.145-.027c.092-.155.143-.278.2-.4,0,0-.008,0,.037-.044a1.969,1.969,0,0,0,.15-.455.155.155,0,0,1,.1-.127c1.29-1.4,1.646-3.048.956-4.339-.08-.57-.137-1.061-.195-1.551m.5,45.172a9.652,9.652,0,0,0,4.465-4.983,24.717,24.717,0,0,1-14.557,4.033,10.969,10.969,0,0,0,10.092.95m4.1-40.1a3.414,3.414,0,0,0-.137.578c-.14,2.3-.279,4.607-.4,6.912-.039.772-.3,1.277-1.149,1.408-1.207.187-2.4.474-3.6.663-2.1.328-2.161.326-1.556,2.333a1.815,1.815,0,0,1-.895,2.366c-2.605,1.728-5.144,3.555-7.695,5.363a4.1,4.1,0,0,0-.658.768c.331.168.483.181.578.114,3.054-2.155,6.12-4.294,9.129-6.511a1.857,1.857,0,0,0,.413-1.412,11.266,11.266,0,0,0-.519-2.045c.48-.116.863-.224,1.251-.3,1.365-.269,2.727-.555,4.1-.778a1.251,1.251,0,0,0,1.185-1.286c.146-2.439.292-4.877.4-7.318a1.283,1.283,0,0,0-.448-.855M81.69,67.915A46.571,46.571,0,0,0,85.469,75.1a1.96,1.96,0,0,0-.175-1.113c-.927-1.966-1.85-3.935-2.819-5.881-.667-1.339-.871-2.557.511-3.593a4.808,4.808,0,0,0,.585-.7c.446-.5.32-.834-.281-1.067-.539-.208-1.052-.5-1.6-.652-.766-.213-.982-.572-.654-1.332.66-1.528,1.266-3.08,1.881-4.627.118-.294.177-.612.323-1.137-.338.21-.462.242-.494.314q-1.327,3.025-2.637,6.06c-.238.55.081.808.54,1.006.732.315,1.456.652,2.277,1.022-.9,1.4-2.509,2.513-1.232,4.515m33.277-4.79,2.643-2.948a3.674,3.674,0,0,0-1.461.707,15.832,15.832,0,0,0-4.73,8.13,2.456,2.456,0,0,0,.079.818l.379.068a17,17,0,0,1,3.09-6.775" fill="#5d714c"/>
          <path id="Path_1031628" data-name="Path 1031628" d="M101.262,49.021c.07.577.127,1.066.195,1.709a1.163,1.163,0,0,1-.1.6c-.237.115-.477.181-.558.332-1.034,1.92-2.044,3.851-3.12,5.812-.417.36-.773.69-1.19,1.034-.154.14-.247.266-.4.425a27.636,27.636,0,0,1-3.308,2.573c-2.022,1.132-3.82.237-4.238-2.025-.238-1.286-.243-2.614-.386-3.919-.1-.868-.251-1.73-.379-2.594.178-.9.356-1.794.571-2.854.107-.944.176-1.725.268-2.569,2.613-2.933,5.2-5.806,7.793-8.679l-.2-.283a18.175,18.175,0,0,1-7.635,2.559,13.078,13.078,0,0,1-5.409-.774,11.631,11.631,0,0,1-7-8.59,62.566,62.566,0,0,1-.877-7.364c-.071-.619.2-.9.788-.879.774.031,1.548.092,2.321.157.456.039.909.112,1.388.174-.071-1.963-1.761-2.427-4.305-1.257,0-.328-.011-.611,0-.891s.051-.537.089-.912h2.991c.258-2.11.5-4.108.746-6.106l.337.025a23.28,23.28,0,0,0,.291,2.383,14.146,14.146,0,0,0,.761,2.32c.327.794.695,1.617,2.044,1.318V14.5c.584,1.975,1.1,3.733,1.626,5.488a1.026,1.026,0,0,0,1.2.825c2.566-.156,5.136-.246,7.759-.362-.2-1.625-.372-3.043-.546-4.463,1.6,3.4,3.189,6.723,6.285,9.118.181-.241.389-.531.613-.811a4.3,4.3,0,0,1,4.719-1.573,4.789,4.789,0,0,1,3.215,4.19c.256,4.024-3.19,6.922-6.73,5.847a1.789,1.789,0,0,0-.4,0,13.046,13.046,0,0,1-4.907,10.822c1.112,0,1.376-.261,3.908-3.59.055,1.43-1.031,3.125-3.53,5.344,1.685.354,3.185.669,4.814,1.007a.726.726,0,0,1,.309.093c.061.833.121,1.665.194,2.586M90.538,22.945a8.24,8.24,0,0,0-1.843-1.211,4.058,4.058,0,0,0-4.2.761,1.906,1.906,0,0,0-.381,1.081c-.011.071.431.307.663.306,1.8-.011,3.6-.058,5.4-.1.476-.012.724-.2.361-.834m10.93,3.8a3.825,3.825,0,0,0-1.061,2.834c.524-.7.83-1.521,1.315-2.215.743-1.061,1.514.042,2.276.181l.132-.234c-.395-.335-.789-.672-1.411-1.2h2.766a1.643,1.643,0,0,0-1.044-.693,3.267,3.267,0,0,0-2.973,1.326m-22.96-.726c-.378.123-.992.153-1.085.388a3,3,0,0,0-.094,1.625,1.042,1.042,0,0,0,.819.586,1.177,1.177,0,0,0,.823-.589,1.5,1.5,0,0,0-.463-2.01m9.368,1.049c-.528-.978-1.345-1.2-1.714-.4a3.082,3.082,0,0,0,.016,1.8c.044.2.8.482.881.394a6.859,6.859,0,0,0,.877-1.345c.042-.071-.009-.2-.06-.455m-2.141,8.5a3.811,3.811,0,0,0,2.186-1.954A15.9,15.9,0,0,1,84.9,35.13a12.635,12.635,0,0,1-3,.051,3.94,3.94,0,0,0,3.829.388M80.1,32.755l1.766.542c.042-.126.083-.251.125-.378L80.2,32.094c.3-.755,1.131-1.281.682-2.324a16.849,16.849,0,0,0-1.205,1.964c-.1.227.176.625.417,1.021" fill="#e7aba0"/>
          <path id="Path_1031629" data-name="Path 1031629" d="M114.526,100.958c1.147.715,2.305,1.414,3.439,2.148a16.115,16.115,0,0,1,6.272,7.055,19.82,19.82,0,0,1,.7,2.475c-.948,0-1.643,0-2.44,0-2.493-.068-4.883-.14-7.461-.232-3.178-.153-6.169-.267-9.158-.426-4.144-.221-8.285-.5-12.429-.706-2.234-.11-4.473-.114-6.777-.152-.248.144-.429.275-.679.423a23.781,23.781,0,0,1-8.342,3.107,12.523,12.523,0,0,1-7.857-1.632s0,0-.024-.049c-.084-.135-.143-.223-.234-.363a2.793,2.793,0,0,0-.406-.233,8.212,8.212,0,0,1-.753-.652c0-.045-.015-.133-.024-.191-.069-.156-.128-.254-.193-.42a5.207,5.207,0,0,0-.413-.569.428.428,0,0,1-.016-.194c-.223-1-.45-1.919-.689-2.907a.841.841,0,0,1,.1-.393,9.773,9.773,0,0,0,.032-1.232,5.162,5.162,0,0,1,.23-.815,2.275,2.275,0,0,0,.12-.366c0,.006-.013,0,.085,0,3.971.076,7.843.2,11.716.206q15.463.043,30.927,0a3.489,3.489,0,0,0,1.052-.336.517.517,0,0,1,.216-.1c1.6-.751,1.48-2.055,1.3-3.395.419-.023.755-.059,1.165-.082.228.018.381.023.534.028" fill="#e7aba0"/>
          <path id="Path_1031630" data-name="Path 1031630" d="M86.74,111.11c2.237.052,4.476.055,6.71.165,4.144.2,8.285.485,12.429.706,2.989.159,5.98.274,9.071.424a10.892,10.892,0,0,1-1.071,1.8,1.892,1.892,0,0,1-.45.278,78.711,78.711,0,0,1-24.247,2.307,2.814,2.814,0,0,0-.427-.635,6.453,6.453,0,0,1-2.015-5.049" fill="#60704c"/>
          <path id="Path_1031631" data-name="Path 1031631" d="M113.5,23.522c-.6-1.8-1.208-3.6-1.807-5.478,2.462,4.712,4.662,9.6,5.165,15.052a10.46,10.46,0,0,1-1.988,7.662,6.762,6.762,0,0,1,.271-1.645,14.576,14.576,0,0,0,1.073-3.49c.362-4.269-.969-8.208-2.623-12.059-.01-.023-.06-.028-.091-.042" fill="#39341b"/>
          <path id="Path_1031632" data-name="Path 1031632" d="M101.153,46.428a2.389,2.389,0,0,1-.307-.088c.326-.166.739-.489,1.052-.412a12.7,12.7,0,0,0,8.939-1.313,3.66,3.66,0,0,1,.751-.215c-2.407,1.8-5.268,2.142-8.218,2.12-.711-.005-1.421-.063-2.217-.092" fill="#39341b"/>
          <path id="Path_1031633" data-name="Path 1031633" d="M101.467,4.038c-.976-.259-2-.563-3.022-.882a19.028,19.028,0,0,1-1.866-.685c1.6.459,3.22.987,4.888,1.567" fill="#39341b"/>
          <path id="Path_1031634" data-name="Path 1031634" d="M111.648,17.764a7.812,7.812,0,0,1-1.985-4.266c.665,1.338,1.322,2.765,1.985,4.266" fill="#39341b"/>
          <path id="Path_1031635" data-name="Path 1031635" d="M106.362,7.962a6.982,6.982,0,0,1-.961-.944,6.925,6.925,0,0,1,.961.944" fill="#39341b"/>
          <path id="Path_1031636" data-name="Path 1031636" d="M107.994,10.2a8.072,8.072,0,0,1-.81-1.088,8.072,8.072,0,0,1,.81,1.088" fill="#39341b"/>
          <path id="Path_1031637" data-name="Path 1031637" d="M102.653,4.7a6.3,6.3,0,0,1-1.131-.553,6.232,6.232,0,0,1,1.131.553" fill="#39341b"/>
          <path id="Path_1031638" data-name="Path 1031638" d="M104.962,6.479a4.885,4.885,0,0,1-.839-.62,4.885,4.885,0,0,1,.839.62" fill="#39341b"/>
          <path id="Path_1031639" data-name="Path 1031639" d="M109.63,13.275a7.988,7.988,0,0,1-.611-1.093,8.1,8.1,0,0,1,.611,1.093" fill="#39341b"/>
          <path id="Path_1031640" data-name="Path 1031640" d="M108.467,10.971a2.9,2.9,0,0,1-.465-.633,2.9,2.9,0,0,1,.465.633" fill="#39341b"/>
          <path id="Path_1031641" data-name="Path 1031641" d="M108.942,11.856a1.838,1.838,0,0,1-.335-.492,1.838,1.838,0,0,1,.335.492" fill="#39341b"/>
          <path id="Path_1031642" data-name="Path 1031642" d="M103.257,5.123a1.633,1.633,0,0,1-.553-.3,1.651,1.651,0,0,1,.553.3" fill="#39341b"/>
          <path id="Path_1031643" data-name="Path 1031643" d="M103.734,5.466a.991.991,0,0,1-.422-.226.985.985,0,0,1,.422.226" fill="#39341b"/>
          <path id="Path_1031644" data-name="Path 1031644" d="M113.413,42.792a.977.977,0,0,1,.242-.414.977.977,0,0,1-.242.414" fill="#39341b"/>
          <path id="Path_1031645" data-name="Path 1031645" d="M111.731,44.382a1.115,1.115,0,0,1,.372-.354,1.1,1.1,0,0,1-.372.354" fill="#39341b"/>
          <path id="Path_1031646" data-name="Path 1031646" d="M107.174,8.988a.961.961,0,0,1-.348-.335.97.97,0,0,1,.348.335" fill="#39341b"/>
          <path id="Path_1031647" data-name="Path 1031647" d="M114.214,41.621a1.181,1.181,0,0,1,.239-.47,1.2,1.2,0,0,1-.239.47" fill="#39341b"/>
          <path id="Path_1031648" data-name="Path 1031648" d="M112.331,43.93a.973.973,0,0,1,.276-.342.973.973,0,0,1-.276.342" fill="#39341b"/>
          <path id="Path_1031649" data-name="Path 1031649" d="M106.817,8.543a.653.653,0,0,1-.246-.242.646.646,0,0,1,.246.242" fill="#39341b"/>
          <path id="Path_1031650" data-name="Path 1031650" d="M104.084,5.735a.581.581,0,0,1-.307-.174.584.584,0,0,1,.307.174" fill="#39341b"/>
          <path id="Path_1031651" data-name="Path 1031651" d="M114.572,41.091a.606.606,0,0,1,.191-.283.594.594,0,0,1-.191.283" fill="#39341b"/>
          <path id="Path_1031652" data-name="Path 1031652" d="M113.143,43.121a.542.542,0,0,1,.174-.29.546.546,0,0,1-.174.29" fill="#39341b"/>
          <path id="Path_1031653" data-name="Path 1031653" d="M108.605,11.245c-.038,0-.079-.059-.129-.169.037,0,.081.058.129.169" fill="#39341b"/>
          <path id="Path_1031654" data-name="Path 1031654" d="M105.389,6.9c-.038.011-.1-.028-.177-.118.038-.011.1.029.177.118" fill="#39341b"/>
          <path id="Path_1031655" data-name="Path 1031655" d="M114,41.987c-.019-.036.012-.1.083-.2.015.033-.009.1-.083.2" fill="#39341b"/>
          <path id="Path_1031656" data-name="Path 1031656" d="M105.184,6.7c-.038.011-.1-.028-.178-.118.038-.011.1.029.178.118" fill="#39341b"/>
          <path id="Path_1031657" data-name="Path 1031657" d="M88.526,41.191a18.957,18.957,0,0,0,7.683-2.609l.2.283c-2.59,2.873-5.18,5.746-7.873,8.66-.122-.331-.084-.719-.186-1.067-.048-.166-.363-.254-.557-.378.723-1.223.273-2.541.326-3.821a3.292,3.292,0,0,1,.406-1.068" fill="#301f29"/>
          <path id="Path_1031658" data-name="Path 1031658" d="M73.708,22.744c.124.217.335.425.357.652.295,3.023.34,6.092.92,9.057a21.645,21.645,0,0,1,.5,5.293,10.545,10.545,0,0,1-.675,2.659,16.829,16.829,0,0,0,.239-6.214c-.439,2.714-.885,5.4-2.541,7.754-.114.161-.187.286-.313.435a3.789,3.789,0,0,1-.418.381.728.728,0,0,1-.371-.276,24.42,24.42,0,0,0,1.9-3.543,23.926,23.926,0,0,0,.916-11.648c-.254-1.5-.346-3.033-.512-4.55" fill="#362e19"/>
          <path id="Path_1031659" data-name="Path 1031659" d="M73.237,20.608a3.62,3.62,0,0,1-.963.1c-.209-.018-.281-.033-.379-.122-.311-1.578-.6-3.081-.882-4.584.027-.41.055-.819.115-1.381.181-.8.331-1.446.481-2.093a.386.386,0,0,0,.056-.138,6.4,6.4,0,0,1,.295-.626c1.178-1.362,2.3-2.608,3.452-3.821l.1.1a19.41,19.41,0,0,1-1.4,2.017,7.361,7.361,0,0,0-2.3,6.929c.07.759.119,1.52.215,2.275.087.69.582,1.04,1.206,1.346" fill="#362e19"/>
          <path id="Path_1031660" data-name="Path 1031660" d="M76.266,7.265a.215.215,0,0,0,.108-.02,1.694,1.694,0,0,0,.235-.167h.009C78.376,6.542,80.13,6,81.964,5.465a.356.356,0,0,1-.195.277c-1.889.638-3.784,1.263-5.761,1.89-.084,0-.1-.017-.064-.07a4.348,4.348,0,0,1,.322-.3" fill="#362e19"/>
          <path id="Path_1031661" data-name="Path 1031661" d="M73.714,42.784c.282-.589.564-1.179.893-1.821a3.983,3.983,0,0,1-.032.985c-.147.819-.326,1.633-.557,2.532a.892.892,0,0,1-.584-.161,2.361,2.361,0,0,1-.331-.6,1.173,1.173,0,0,0,.2-.328c-.014,0-.012.028.039,0,.075-.093.1-.161.176-.262a1.94,1.94,0,0,0,.195-.354" fill="#362e19"/>
          <path id="Path_1031662" data-name="Path 1031662" d="M76.7,45.6a15.237,15.237,0,0,1-1.991-.715A15.041,15.041,0,0,1,76.7,45.6" fill="#362e19"/>
          <path id="Path_1031663" data-name="Path 1031663" d="M72.644,13.728a20.89,20.89,0,0,1,.708-1.992,20.888,20.888,0,0,1-.708,1.992" fill="#362e19"/>
          <path id="Path_1031664" data-name="Path 1031664" d="M73.734,22.27A7.878,7.878,0,0,1,73.648,21a7.871,7.871,0,0,1,.086,1.268" fill="#362e19"/>
          <path id="Path_1031665" data-name="Path 1031665" d="M77.266,45.976a1.007,1.007,0,0,0-.086-.121,3.839,3.839,0,0,1,.927.238,2.494,2.494,0,0,1-.692-.109.324.324,0,0,0-.149-.008" fill="#362e19"/>
          <path id="Path_1031666" data-name="Path 1031666" d="M75.932,7.641a2.035,2.035,0,0,1-.357.385.107.107,0,0,1-.118-.124,1.659,1.659,0,0,1,.45-.287l.025.026" fill="#362e19"/>
          <path id="Path_1031667" data-name="Path 1031667" d="M74.64,44.786a.705.705,0,0,1-.377-.111.7.7,0,0,1,.377.111" fill="#362e19"/>
          <path id="Path_1031669" data-name="Path 1031669" d="M94.984,271.59a24.641,24.641,0,0,1-9.773.079.75.75,0,0,1-.263-.126c-.107-.175-.149-.42-.262-.459-1.064-.366-1.1-1.312-1.17-2.163-.252-2.971-.419-5.95-.664-8.922-.222-2.7-.509-5.4-.754-8.094-.231-2.531-.433-5.064-.671-7.594-.137-1.45-.32-2.9-.481-4.345-.247-2.22-.5-4.439-.738-6.66-.263-2.492-.479-4.99-.763-7.48-.4-3.534-.847-7.064-1.281-10.6-.294-2.388-.615-4.772-.9-7.161-.327-2.758-.628-5.519-.939-8.279-.387-3.433-.79-6.865-1.152-10.3-.388-3.672-.734-7.348-1.1-11.022-.237-2.359-.5-4.716-.716-7.078-.131-1.417-.2-2.839-.3-4.259-.168-2.33-.34-4.66-.557-7.156-.055-1.321-.073-2.476-.069-3.632.009-3.013-.3-6.071.112-9.03.785-5.661,1.958-11.271,3.017-16.893.42-2.231.957-4.44,1.454-6.656s1.016-4.429,1.512-6.646c.118-.527.261-.808.945-.719,2.68.352,5.371.628,8.061.9a4.763,4.763,0,0,0,1.124-.215,1.037,1.037,0,0,1,.4.051,2.717,2.717,0,0,0,.756.178c7.677.221,15.3-.106,22.787-2.058a.869.869,0,0,1,.717.418c.464,1.087.823,2.218,1.283,3.307a6.85,6.85,0,0,0,.795,1.166s-.019.01-.023.079a10.255,10.255,0,0,0,.643.935.1.1,0,0,0-.005.066,1.141,1.141,0,0,0,.152.191.206.206,0,0,1,.031.131,2.065,2.065,0,0,0,.215.46s-.015-.011-.019.063c.212.429.428.783.645,1.137,0,0-.012.011-.014.069a1.816,1.816,0,0,0,.21.363s-.021,0-.016.05a2.654,2.654,0,0,0,.212.363s-.018-.005-.021.063a7.2,7.2,0,0,0,.406.755s-.011,0-.01.073c.153.359.306.647.458.934,0,0-.02,0-.017.06a2.659,2.659,0,0,0,.208.392.176.176,0,0,1,.011.117,1.8,1.8,0,0,0,.208.456s-.021-.007-.016.048a2.432,2.432,0,0,0,.207.366s-.017,0-.019.06a3.917,3.917,0,0,0,.26.53s-.016.012-.03.082c.2.5.408.927.62,1.356,0,0-.015.005-.016.061a2.089,2.089,0,0,0,.2.366s-.015,0-.018.073c.283.767.569,1.457.855,2.148,0,0,0,0,0,0,.188.922.35,1.854.567,2.772.709,3,1.69,5.968,2.1,9.011a67.311,67.311,0,0,1,.374,14.822c-.208,2.432-.259,4.876-.447,7.31-.3,3.85-.655,7.7-.973,11.545-.165,1.993-.283,3.99-.451,5.982-.244,2.9-.528,5.8-.767,8.706-.114,1.385-.177,2.775-.24,4.163-.148,3.288-.231,6.579-.435,9.863-.284,4.558.615,8.956,1.545,13.372.459,2.18.629,4.422.924,6.637.232,1.736.476,3.471.676,5.211a36.289,36.289,0,0,1,.325,3.846q.053,7.909,0,15.819c-.022,3.363-.121,6.725-.2,10.087-.052,2.2-.147,4.41-.193,6.616-.034,1.6.161,3.289-1.8,4.121a17.375,17.375,0,0,1-9.577.04c-.963-.635-1.816-1.141-1.888-2.351-.088-1.455-.279-2.9-.424-4.354q-.393-3.947-.784-7.893c-.223-2.294-.423-4.591-.653-6.885-.247-2.462-.472-4.927-.787-7.381-.367-2.859-.824-5.706-1.235-8.56-.691-4.8-1.355-9.6-2.071-14.388-.8-5.331-1.648-10.654-2.457-15.983q-.825-5.432-1.6-10.87c-.839-5.975-1.652-11.954-2.492-18.013-.274-2.064-.526-4.047-.792-6.028-.6-4.466-1.2-8.934-1.83-13.4a1.973,1.973,0,0,0-.566-1.115c-1.746-1.554-3.531-3.064-5.315-4.575a3.3,3.3,0,0,0-.686-.348l-.164.226c.621.74,1.242,1.48,1.868,2.3.393,2.668.795,5.25,1.165,7.836.667,4.669,1.306,9.343,1.975,14.012.63,4.4,1.288,8.8,1.922,13.2.217,1.5.4,3.015.618,4.613-.179,4.473-.354,8.857-.585,13.239a45.64,45.64,0,0,0,.488,10.372,131.262,131.262,0,0,1,2.276,26.281c-.207,6.21-.4,12.42-.63,18.629-.11,2.918-.291,5.833-.469,8.747-.115,1.871-.139,1.87-2.039,2.359m-14.568-150.3a64.351,64.351,0,0,0,13.233,1.473,52.161,52.161,0,0,0,7.924-.4c3.692-.5,7.345-1.295,11.009-1.987a2.458,2.458,0,0,0,.725-.447c-3.86.5-7.6,1.35-11.388,1.708a81.343,81.343,0,0,1-11.6.27c-3.766-.184-7.506-.874-11.258-1.343-.026.1-.052.2-.079.3.423.126.846.252,1.431.423" fill="#5f6372"/>
          <path id="Path_1031670" data-name="Path 1031670" d="M97.765,175.316c.824,5.977,1.636,11.956,2.476,17.931q.764,5.44,1.6,10.871c.809,5.329,1.661,10.651,2.457,15.982.716,4.793,1.38,9.593,2.072,14.389.411,2.853.868,5.7,1.234,8.56.315,2.453.541,4.919.787,7.381.23,2.294.431,4.59.654,6.885q.384,3.947.784,7.893c.144,1.451.336,2.9.423,4.353.073,1.211.925,1.716,1.818,2.316-.073.069-.171.072-.342.079-1.757-.459-1.758-.459-1.926-2.1q-1.308-12.765-2.621-25.528c-.155-1.485-.387-2.961-.578-4.581,0-.187,0-.233.01-.373-.661-5.385-1.238-10.691-2.018-15.966-1.614-10.922-3.349-21.826-5.007-32.741q-1.164-7.659-2.16-15.336l.341-.017" fill="#5f6372"/>
          <path id="Path_1031671" data-name="Path 1031671" d="M88.588,117.077a3.607,3.607,0,0,1-1.058.219c-2.69-.268-5.381-.544-8.061-.9-.683-.09-.827.192-.945.718-.5,2.217-1.015,4.429-1.512,6.646s-1.034,4.426-1.454,6.656c-1.058,5.623-2.232,11.232-3.017,16.894-.41,2.958-.1,6.017-.112,9.03,0,1.155.014,2.311.023,3.562,0,.1-.088.1-.131.1-.149-2.507-.253-5.013-.359-7.52-.044-1.043-.091-2.086-.15-3.216.089-.819.191-1.55.327-2.438,1.423-10.628,4.18-20.822,6.361-31.148.31.045.539.107.772.134,3.035.351,6.071.7,9.149,1.073a1.6,1.6,0,0,1,.167.189" fill="#5f6372"/>
          <path id="Path_1031672" data-name="Path 1031672" d="M19.555,72.152a3.678,3.678,0,0,0,.006-.576.548.548,0,0,0-.21-.247,1.086,1.086,0,0,1,.013-.214c-.442-1.85-1.028-3.555-1.337-5.308-.419-2.377.337-4.12,3.193-4.1l.511,0q9.8.126,19.6.256c4.8.068,9.594.158,14.422.308a2.265,2.265,0,0,0,.875.281q5.426.024,10.851.006a5.962,5.962,0,0,0,.945-.191c.849.412,1.62.831,2.392,1.249q1.392,4.632,2.787,9.264c.105.35.248.69.428,1.166.124.491.195.85.265,1.209q1.55,6.169,3.1,12.336c.373,1.478.775,2.949,1.141,4.552.138.651.3,1.175.457,1.7.474,1.928.948,3.857,1.434,5.944.127.58.27,1,.355,1.424.2,1,.693,2.008-.029,3.035a4.06,4.06,0,0,1-.439.206c-4.319-.061-8.544-.134-12.865-.209-1.662,0-3.228,0-4.87-.038-3.511-.1-6.947-.171-10.383-.222-2.38-.036-4.759-.042-7.222-.068-1.081-.042-2.081-.089-3.081-.108-3.5-.068-7.01-.212-10.511-.158a4.352,4.352,0,0,1-4.448-3.338c-.649-2.366-1.23-4.751-1.834-7.211-1.331-5.263-2.669-10.443-4.017-15.706-.095-.368-.182-.651-.266-.935q-.631-2.154-1.262-4.308m23.263,9.735a7.18,7.18,0,0,0-.617,1.167,3.919,3.919,0,0,0,4.653,5.093,3.9,3.9,0,0,0,2.9-3.442,4.082,4.082,0,0,0-2.321-3.976c-1.614-.732-3.1-.389-4.618,1.158" fill="#465258"/>
          <path id="Path_1031673" data-name="Path 1031673" d="M80.808,104.231c.667-1.012.172-2.017-.026-3.02-.085-.427-.227-.843-.347-1.339,1.654-.052,3.312-.029,5.105-.031a5.725,5.725,0,0,1,.812.095q7.911.132,15.822.265c2.347.041,4.693.1,7.229.147,1.276.044,2.419-.188,3.342.651.261,1.353.381,2.657-1.292,3.366a13.168,13.168,0,0,0-1.459-.12q-14.594-.012-29.186-.014" fill="#22201e"/>
          <path id="Path_1031674" data-name="Path 1031674" d="M112.828,101.012c-1.006-.852-2.149-.619-3.33-.67a12.389,12.389,0,0,1-.862-3.353,54.587,54.587,0,0,1,.235-6.569c.307-3.269.763-6.524,1.165-9.783a11.235,11.235,0,0,1,.427-2.024,35.435,35.435,0,0,1,1.192,3.861q1.609,6.51,3.163,13.033a1.5,1.5,0,0,1-.053.972,8.265,8.265,0,0,0-.847,4.438c-.336.036-.671.072-1.09.1" fill="#41562f"/>
          <path id="Path_1031675" data-name="Path 1031675" d="M97.211,60.947c-2.392,3.5-4.768,7.02-7.184,10.508A31.556,31.556,0,0,1,86.809,75.4c-.121-1.157-.282-2.312-.355-3.473-.252-4.035-.615-8.071-.645-12.109a25.1,25.1,0,0,1,1.061-5.543,11.076,11.076,0,0,0,.952,6.843,3.415,3.415,0,0,0,2.726,2.165,4.87,4.87,0,0,0,3.388-1.154,1.98,1.98,0,0,0,.211-.187,2.866,2.866,0,0,1,.438-.193,3.8,3.8,0,0,0,.532-.4s.008,0,.088-.009c.721-.133,1.364-.264,2.006-.394" fill="#e5ad9f"/>
          <path id="Path_1031676" data-name="Path 1031676" d="M113.993,100.929a7.6,7.6,0,0,1,.772-4.451,1.5,1.5,0,0,0,.053-.971q-1.559-6.524-3.163-13.034c-.322-1.3-.719-2.589-1.142-3.923-.06-.695-.06-1.35-.06-2.005l.362-.063a8.546,8.546,0,0,1,.407,1.113c.966,4.38,1.885,8.771,2.889,13.143a40.515,40.515,0,0,0,1.427,4.676,1.577,1.577,0,0,0,1.077.825,28.024,28.024,0,0,1,13.249,5.69c.676.522,1.338,1.061,2.006,1.591l-.219.353a5.085,5.085,0,0,1-.927-.492,29.443,29.443,0,0,0-12.305-6.126c-.593-.137-1.2-.213-1.807-.3a1.446,1.446,0,0,0-1.83,1.192,20.967,20.967,0,0,0-.26,2.717.846.846,0,0,1-.529.064" fill="#2f441f"/>
          <path id="Path_1031677" data-name="Path 1031677" d="M101.708,94.313a10.955,10.955,0,0,1-10.022-.984A24.721,24.721,0,0,0,106.242,89.3a9.694,9.694,0,0,1-4.534,5.017" fill="#3f552e"/>
          <path id="Path_1031678" data-name="Path 1031678" d="M93.9,62.158a4.8,4.8,0,0,1-3.349,1.129,3.415,3.415,0,0,1-2.726-2.165,10.835,10.835,0,0,1-.9-6.9A6.5,6.5,0,0,1,87.7,52.97a21.455,21.455,0,0,1,.453,2.591c.144,1.305.148,2.633.386,3.919.418,2.261,2.216,3.157,4.239,2.026a31.988,31.988,0,0,0,3.367-2.59,2.114,2.114,0,0,0,.4-.424,11.175,11.175,0,0,1,1.2-1,.878.878,0,0,1,.436.462,24.134,24.134,0,0,1-1.649,2.251,10.284,10.284,0,0,1-1.4,1.138.554.554,0,0,1-.071.015,5.073,5.073,0,0,0-.537.4c-.106.053-.212.107-.41.211a.5.5,0,0,0-.21.189" fill="#5f6372"/>
          <path id="Path_1031679" data-name="Path 1031679" d="M105.95,54.165a1.686,1.686,0,0,1,.374.873c-.11,2.441-.256,4.879-.4,7.318a1.25,1.25,0,0,1-1.185,1.285c-1.373.224-2.735.51-4.1.779-.388.076-.771.184-1.251.3a11.266,11.266,0,0,1,.519,2.045,1.857,1.857,0,0,1-.413,1.412c-3.009,2.217-6.075,4.356-9.129,6.51-.1.068-.247.055-.578-.113a4.1,4.1,0,0,1,.658-.768c2.551-1.808,5.09-3.635,7.695-5.363a1.815,1.815,0,0,0,.895-2.366c-.6-2.007-.546-2.005,1.556-2.333,1.206-.189,2.4-.477,3.6-.663.848-.131,1.11-.636,1.149-1.409.118-2.3.257-4.608.4-6.911a1.381,1.381,0,0,1,.211-.6" fill="#324621"/>
          <path id="Path_1031680" data-name="Path 1031680" d="M86.342,99.85a1.691,1.691,0,0,1-.732-.059c-.422-2.954-.622-5.914-1.177-8.8-.665-3.465.008-6.748.8-10.056q.441-1.833.912-3.657c.088-.34.236-.665.356-1l.3.044a4.008,4.008,0,0,1-.009.849c-.427,1.922-.8,3.861-1.336,5.755-.966,3.437-.574,6.855-.054,10.289.331,2.18.621,4.365.938,6.635" fill="#324621"/>
          <path id="Path_1031681" data-name="Path 1031681" d="M81.665,67.841c-1.252-1.928.353-3.036,1.257-4.441-.821-.37-1.545-.706-2.278-1.022-.458-.2-.777-.456-.539-1.006q1.309-3.035,2.637-6.06c.031-.072.156-.1.494-.314-.147.525-.206.843-.323,1.138-.615,1.547-1.221,3.1-1.881,4.627-.328.76-.112,1.118.654,1.331.552.154,1.065.444,1.6.652.6.233.727.564.28,1.067a4.74,4.74,0,0,1-.584.7c-1.382,1.036-1.178,2.255-.511,3.593.969,1.946,1.892,3.915,2.819,5.881a1.968,1.968,0,0,1,.175,1.113,46.266,46.266,0,0,1-3.8-7.262" fill="#324621"/>
          <path id="Path_1031682" data-name="Path 1031682" d="M114.926,63.186a16.833,16.833,0,0,0-3.049,6.714l-.38-.068a2.479,2.479,0,0,1-.079-.818,15.831,15.831,0,0,1,4.731-8.13,3.684,3.684,0,0,1,1.46-.707c-.881.983-1.762,1.966-2.683,3.009" fill="#324621"/>
          <path id="Path_1031683" data-name="Path 1031683" d="M98.195,57.886a3.354,3.354,0,0,0-.391-.425c.95-1.95,1.96-3.881,2.994-5.8.081-.152.321-.218.573-.249-.25,1.252-.588,2.429-.925,3.605l-.08.154c-.081.209-.116.331-.152.454,0,0,.013,0-.035.029a2.079,2.079,0,0,0-.195.4.647.647,0,0,0-.169.027c-.605.621-1.113,1.215-1.62,1.808" fill="#5f6372"/>
          <path id="Path_1031684" data-name="Path 1031684" d="M98.18,57.956c.522-.664,1.03-1.257,1.6-1.882q-1.168,2.365-2.516,4.833c-.695.17-1.337.3-2.059.434.394-.371.933-.688,1.326-1.134a24.451,24.451,0,0,0,1.649-2.251" fill="#5f6372"/>
          <path id="Path_1031685" data-name="Path 1031685" d="M74.34,75.2a5.5,5.5,0,0,1-.256-1.1c.512-1.7,1.023-3.316,1.534-4.934l.5.146c-.432,1.979-1.152,3.886-1.778,5.888" fill="#324621"/>
          <path id="Path_1031686" data-name="Path 1031686" d="M100.512,55c.271-1.156.608-2.333.93-3.593a4.423,4.423,0,0,1,.037-.593c.679,1.137.324,2.791-.967,4.186" fill="#616e4b"/>
          <path id="Path_1031687" data-name="Path 1031687" d="M79.057,93.82a7.7,7.7,0,0,1-.5-1.6,14.488,14.488,0,0,1,1.657.4c-.444.479-.769.828-1.156,1.2" fill="#41562f"/>
          <path id="Path_1031688" data-name="Path 1031688" d="M100.023,56.019a1,1,0,0,1,.152-.369,1.013,1.013,0,0,1-.152.369" fill="#616e4b"/>
          <path id="Path_1031689" data-name="Path 1031689" d="M100.26,55.579a.791.791,0,0,1,.1-.369.771.771,0,0,1-.1.369" fill="#616e4b"/>
          <path id="Path_1031690" data-name="Path 1031690" d="M90.578,23.007c.323.567.076.759-.4.771-1.8.047-3.6.092-5.4.1-.232,0-.674-.235-.663-.306a1.908,1.908,0,0,1,.38-1.081,4.061,4.061,0,0,1,4.2-.761,7.634,7.634,0,0,1,1.883,1.274" fill="#462217"/>
          <path id="Path_1031691" data-name="Path 1031691" d="M101.517,26.694a3.221,3.221,0,0,1,2.923-1.271,1.638,1.638,0,0,1,1.044.693h-2.765l1.411,1.2-.133.234c-.761-.139-1.532-1.242-2.276-.18-.485.692-.791,1.51-1.314,2.215a3.878,3.878,0,0,1,1.11-2.89" fill="#5f6372"/>
          <path id="Path_1031692" data-name="Path 1031692" d="M78.57,26.063a1.49,1.49,0,0,1,.4,1.969,1.185,1.185,0,0,1-.823.591,1.049,1.049,0,0,1-.819-.586,3.007,3.007,0,0,1,.094-1.626c.093-.235.707-.265,1.147-.348" fill="#301f29"/>
          <path id="Path_1031693" data-name="Path 1031693" d="M87.9,27.15c.029.179.08.306.038.378a6.8,6.8,0,0,1-.876,1.344c-.084.087-.837-.194-.881-.394a3.074,3.074,0,0,1-.016-1.8c.369-.8,1.185-.583,1.735.473" fill="#301f29"/>
          <path id="Path_1031694" data-name="Path 1031694" d="M85.659,35.594a3.889,3.889,0,0,1-3.754-.413,12.59,12.59,0,0,0,3-.052,15.918,15.918,0,0,0,3.017-1.514,3.861,3.861,0,0,1-2.262,1.979" fill="#5f6372"/>
          <path id="Path_1031695" data-name="Path 1031695" d="M80.028,32.718c-.173-.358-.451-.757-.349-.984a16.849,16.849,0,0,1,1.205-1.964c.449,1.043-.384,1.569-.682,2.324l1.785.826-.125.377c-.589-.18-1.177-.361-1.834-.579" fill="#5f6372"/>
          <path id="Path_1031696" data-name="Path 1031696" d="M96.488,58.506a.933.933,0,0,1-.28.375.943.943,0,0,1,.28-.375" fill="#5f6372"/>
          <path id="Path_1031697" data-name="Path 1031697" d="M62.656,104.242c1.566,0,3.131,0,4.784.066a.53.53,0,0,1,.077.325s.01.011-.033.042a1.618,1.618,0,0,0-.112.372c-.065.233-.13.466-.214.845-.032.5-.045.847-.059,1.2a3.9,3.9,0,0,0-.079.436c.228,1.073.468,1.994.708,2.914a.867.867,0,0,0,.025.166,1.985,1.985,0,0,1,.121.584,3.021,3.021,0,0,0-.3.408,12.648,12.648,0,0,1-9.431,3.317,8.374,8.374,0,0,1-6.646-3.775c-.077-.191-.084-.28-.018-.366.588.262,1.09.548,1.618.775a6.774,6.774,0,0,0,9.459-5.078,16.489,16.489,0,0,0,.1-2.228" fill="#5f714d"/>
          <path id="Path_1031698" data-name="Path 1031698" d="M88.378,116.859q-4.554-.521-9.106-1.044a4.868,4.868,0,0,1-.79-.184,1.723,1.723,0,0,1-.252-.181c-.1-.119-.193-.237-.357-.449a1.312,1.312,0,0,1-.126-.348,26.017,26.017,0,0,0,8.262-3.015,8.866,8.866,0,0,0,2.369,5.221" fill="#616e4b"/>
          <path id="Path_1031699" data-name="Path 1031699" d="M111.309,104.506c-6.908.017-13.768,0-20.627-.013-3.362-.007-6.724,0-10.18-.029,0-.083.1-.142.251-.217,9.783-.012,19.512-.01,29.24,0a10.211,10.211,0,0,1,1.389.122c.04.063.008.084-.073.138" fill="#28130e"/>
          <path id="Path_1031700" data-name="Path 1031700" d="M88.421,116.888a8.367,8.367,0,0,1-2.343-5.268,1.826,1.826,0,0,1,.6-.5,6.735,6.735,0,0,0,2.081,5.035,1.69,1.69,0,0,1,.383.662,1.249,1.249,0,0,1-.154.254c-.088,0-.176.008-.33.006a.926.926,0,0,1-.233-.193" fill="#324621"/>
          <path id="Path_1031701" data-name="Path 1031701" d="M89.049,117.132c-.024-.11.017-.164.1-.244,8.2.241,16.285-.213,24.278-2.4.69,1.83,1.3,3.67,1.938,5.582a4.915,4.915,0,0,1-.776-1.092c-.459-1.089-.819-2.221-1.283-3.308a.866.866,0,0,0-.716-.417c-7.484,1.951-15.111,2.278-22.788,2.057a2.655,2.655,0,0,1-.756-.178" fill="#5f6372"/>
          <path id="Path_1031702" data-name="Path 1031702" d="M120.695,131.913c-.28-.613-.566-1.3-.846-2.078.283.611.562,1.306.846,2.078" fill="#5f6372"/>
          <path id="Path_1031703" data-name="Path 1031703" d="M119.676,129.269a9.183,9.183,0,0,1-.612-1.293,9.183,9.183,0,0,1,.612,1.293" fill="#5f6372"/>
          <path id="Path_1031704" data-name="Path 1031704" d="M117.015,123.136a6.742,6.742,0,0,1-.628-1.074,6.819,6.819,0,0,1,.628,1.074" fill="#5f6372"/>
          <path id="Path_1031705" data-name="Path 1031705" d="M116,121.09a4.726,4.726,0,0,1-.628-.877c.092-.009.175.06.305.16a4.55,4.55,0,0,1,.323.717" fill="#5f6372"/>
          <path id="Path_1031706" data-name="Path 1031706" d="M118.244,125.8a4.973,4.973,0,0,1-.448-.868,5.006,5.006,0,0,1,.448.868" fill="#5f6372"/>
          <path id="Path_1031707" data-name="Path 1031707" d="M117.8,124.8a2.989,2.989,0,0,1-.4-.7,3.025,3.025,0,0,1,.4.7" fill="#5f6372"/>
          <path id="Path_1031708" data-name="Path 1031708" d="M119.092,127.835a1.32,1.32,0,0,1-.256-.47,1.346,1.346,0,0,1,.256.47" fill="#5f6372"/>
          <path id="Path_1031709" data-name="Path 1031709" d="M118.655,126.828a.886.886,0,0,1-.216-.371.886.886,0,0,1,.216.371" fill="#5f6372"/>
          <path id="Path_1031710" data-name="Path 1031710" d="M119.862,129.706a.665.665,0,0,1-.2-.311.665.665,0,0,1,.2.311" fill="#5f6372"/>
          <path id="Path_1031711" data-name="Path 1031711" d="M118.438,126.26a.774.774,0,0,1-.205-.334.764.764,0,0,1,.205.334" fill="#5f6372"/>
          <path id="Path_1031712" data-name="Path 1031712" d="M116.4,121.933a.856.856,0,0,1-.217-.364.85.85,0,0,1,.217.364" fill="#5f6372"/>
          <path id="Path_1031713" data-name="Path 1031713" d="M117.414,123.986a.684.684,0,0,1-.2-.309.684.684,0,0,1,.2.309" fill="#5f6372"/>
          <path id="Path_1031714" data-name="Path 1031714" d="M117.217,123.574a.669.669,0,0,1-.21-.306.669.669,0,0,1,.21.306" fill="#5f6372"/>
          <path id="Path_1031715" data-name="Path 1031715" d="M118.849,127.251a.668.668,0,0,1-.2-.312.668.668,0,0,1,.2.312" fill="#5f6372"/>
          <path id="Path_1031716" data-name="Path 1031716" d="M116.146,121.357c-.04.007-.087-.043-.157-.14.034,0,.091.041.157.14" fill="#5f6372"/>
          <path id="Path_1031717" data-name="Path 1031717" d="M62.58,104.206a9.762,9.762,0,0,1-.025,2.264,6.775,6.775,0,0,1-9.46,5.078c-.528-.226-1.03-.512-1.659-.828-.833-.7-1.55-1.351-2.266-2-.6-.642-1.2-1.283-1.855-2.023-.09-.148-.136-.183-.191-.206-.1-.12-.2-.241-.378-.432a.665.665,0,0,0-.232-.19s-.006,0-.027-.041a.342.342,0,0,0-.177-.164s-.006.006-.026-.041a.316.316,0,0,0-.177-.164s-.007.006-.027-.042a.311.311,0,0,0-.177-.163s-.008.007-.028-.04a.35.35,0,0,0-.18-.161s0,0-.029-.061c-.22-.4-.415-.735-.609-1.072,2.38.02,4.76.026,7.14.062,3.436.051,6.871.123,10.383.222" fill="#e5aba1"/>
          <path id="Path_1031718" data-name="Path 1031718" d="M21.092,77.479c1.338,5.179,2.676,10.359,3.935,15.625a.754.754,0,0,1-.368.1s-.008,0-.027-.034a.253.253,0,0,0-.174-.137.6.6,0,0,1-.18-.058.5.5,0,0,0-.226-.138.652.652,0,0,1-.186-.065.476.476,0,0,0-.222-.138.676.676,0,0,1-.185-.065.483.483,0,0,0-.223-.139.594.594,0,0,1-.185-.066c-.114-.1-.164-.134-.227-.146a.592.592,0,0,1-.18-.064.937.937,0,0,0-.236-.167s0,0-.024-.04a.253.253,0,0,0-.173-.138.533.533,0,0,1-.178-.064.9.9,0,0,0-.238-.168s0,0-.025-.042a.337.337,0,0,0-.177-.166s-.005.007-.026-.039a.357.357,0,0,0-.178-.164s0,.006-.025-.036a.267.267,0,0,0-.174-.138,1.516,1.516,0,0,1-.227-.235c-.087-.135-.133-.171-.189-.194-.23-.256-.46-.512-.761-.861-.2-.258-.331-.422-.461-.587a1.447,1.447,0,0,0-.04-.194c-.059-.146-.1-.185-.164-.209,0,0-.007.008-.026-.041a1.033,1.033,0,0,0-.177-.188.741.741,0,0,0-.026-.179.819.819,0,0,0-.174-.237,1.991,1.991,0,0,0-.038-.358c-.068-.162-.114-.207-.172-.24,0,0,0-.091-.009-.2a1.674,1.674,0,0,0-.2-.4c0-.034-.007-.068-.012-.238-.07-1.5-.138-2.872-.207-4.24a.629.629,0,0,1,.062-.206,6.726,6.726,0,0,0,.146-.818.554.554,0,0,1,.063-.193c.225-.543.4-.988.569-1.434,0,0,0,0,.036-.027a.28.28,0,0,0,.126-.176.65.65,0,0,1,.068-.177.547.547,0,0,0,.147-.235.612.612,0,0,1,.059-.176.614.614,0,0,0,.144-.232.589.589,0,0,1,.065-.172.866.866,0,0,0,.162-.242s0,0,.044-.026a.34.34,0,0,0,.164-.175s0-.007.041-.028a.287.287,0,0,0,.148-.179.691.691,0,0,1,.24-.209c.237-.107.368-.159.5-.21" fill="#e2ada1"/>
          <path id="Path_1031719" data-name="Path 1031719" d="M97.111,175c-.1.9-.237,1.8-.295,2.7-.295,4.661-.571,9.324-.873,14.077-.218-1.416-.4-2.927-.618-4.432-.634-4.4-1.292-8.8-1.922-13.2-.668-4.669-1.307-9.342-1.975-14.012-.37-2.586-.772-5.168-1.1-7.815q1.942,1.33,3.753,2.8a1.439,1.439,0,0,1,.418.858q.837,5.834,1.626,11.674c.335,2.447.658,4.9.987,7.344" fill="#474b56"/>
          <path id="Path_1031720" data-name="Path 1031720" d="M80.335,121.271l-1.35-.4c.027-.1.053-.2.079-.3,3.752.468,7.492,1.158,11.258,1.342a81.343,81.343,0,0,0,11.6-.269c3.787-.359,7.528-1.21,11.388-1.708a2.454,2.454,0,0,1-.725.446c-3.664.692-7.317,1.487-11.009,1.987a52.161,52.161,0,0,1-7.924.4,64.194,64.194,0,0,1-13.314-1.495" fill="#474b56"/>
          <path id="Path_1031721" data-name="Path 1031721" d="M97.122,175.055c-.339-2.5-.662-4.95-1-7.4q-.8-5.84-1.625-11.675a1.44,1.44,0,0,0-.419-.858c-1.209-.982-2.458-1.914-3.757-2.886-.685-.761-1.306-1.5-1.927-2.241l.164-.226a3.322,3.322,0,0,1,.686.348c1.783,1.511,3.569,3.021,5.314,4.575a1.968,1.968,0,0,1,.567,1.115c.633,4.462,1.23,8.929,1.83,13.4.266,1.981.518,3.964.792,6.028-.075.086-.165.09-.324.1a.707.707,0,0,1-.3-.277" fill="#5f6372"/>
          <path id="Path_1031722" data-name="Path 1031722" d="M42.866,81.83c1.472-1.49,2.956-1.833,4.57-1.1a4.084,4.084,0,0,1,2.322,3.977,3.906,3.906,0,0,1-2.9,3.441A3.92,3.92,0,0,1,42.2,83.054a6.886,6.886,0,0,1,.666-1.224" fill="#818f95"/>
          <path id="Path_1031723" data-name="Path 1031723" d="M55.752,62.274c1.192-.074,2.416-.078,3.735-.1,2.954.04,5.815.1,8.766.179a2.012,2.012,0,0,1-.776.209q-5.425.016-10.85-.006a2.26,2.26,0,0,1-.875-.281" fill="#3f552e"/>
          <path id="Path_1031724" data-name="Path 1031724" d="M94.585,61.753a1.659,1.659,0,0,1,.468-.391,1.674,1.674,0,0,1-.468.391" fill="#5f6372"/>
          <path id="Path_1031725" data-name="Path 1031725" d="M93.936,62.133c-.009-.03.03-.076.119-.137.007.029-.032.074-.119.137" fill="#5f6372"/>
        </g>
      </g>
    </g>
  </g>
</svg>
