<svg xmlns="http://www.w3.org/2000/svg" xmlns:xlink="http://www.w3.org/1999/xlink" width="292.289" height="317" viewBox="0 0 292.289 317">
  <defs>
    <clipPath id="clip-path">
      <rect id="Rectangle_458646" data-name="Rectangle 458646" width="292" height="295.102" fill="none"/>
    </clipPath>
    <clipPath id="clip-path-2">
      <rect id="Rectangle_458645" data-name="Rectangle 458645" width="318.882" height="295.102" transform="translate(0 1.774)" fill="none"/>
    </clipPath>
    <clipPath id="clip-path-3">
      <rect id="Rectangle_458563" data-name="Rectangle 458563" width="34.458" height="26.154" fill="none"/>
    </clipPath>
    <clipPath id="clip-path-4">
      <rect id="Rectangle_458564" data-name="Rectangle 458564" width="22.182" height="13.444" fill="none"/>
    </clipPath>
    <clipPath id="clip-path-5">
      <rect id="Rectangle_458566" data-name="Rectangle 458566" width="21.434" height="1.784" fill="none"/>
    </clipPath>
    <clipPath id="clip-path-7">
      <rect id="Rectangle_458570" data-name="Rectangle 458570" width="21.434" height="1.783" fill="none"/>
    </clipPath>
    <clipPath id="clip-path-21">
      <rect id="Rectangle_458598" data-name="Rectangle 458598" width="18.755" height="1.783" fill="none"/>
    </clipPath>
    <clipPath id="clip-path-23">
      <rect id="Rectangle_458602" data-name="Rectangle 458602" width="18.757" height="1.784" fill="none"/>
    </clipPath>
    <clipPath id="clip-path-24">
      <rect id="Rectangle_458604" data-name="Rectangle 458604" width="18.757" height="1.783" fill="none"/>
    </clipPath>
    <clipPath id="clip-path-27">
      <rect id="Rectangle_458610" data-name="Rectangle 458610" width="18.756" height="1.783" fill="none"/>
    </clipPath>
    <clipPath id="clip-path-29">
      <rect id="Rectangle_458614" data-name="Rectangle 458614" width="12.82" height="1.784" fill="none"/>
    </clipPath>
    <clipPath id="clip-path-31">
      <rect id="Rectangle_458618" data-name="Rectangle 458618" width="7.498" height="1.784" fill="none"/>
    </clipPath>
    <clipPath id="clip-path-32">
      <rect id="Rectangle_458620" data-name="Rectangle 458620" width="13.157" height="1.783" fill="none"/>
    </clipPath>
    <clipPath id="clip-path-39">
      <rect id="Rectangle_458634" data-name="Rectangle 458634" width="7.497" height="1.784" fill="none"/>
    </clipPath>
    <clipPath id="clip-path-41">
      <rect id="Rectangle_458637" data-name="Rectangle 458637" width="21.021" height="15.225" fill="none"/>
    </clipPath>
    <clipPath id="clip-path-42">
      <rect id="Rectangle_458638" data-name="Rectangle 458638" width="37.797" height="101.439" fill="none"/>
    </clipPath>
    <clipPath id="clip-path-43">
      <rect id="Rectangle_458639" data-name="Rectangle 458639" width="12.252" height="37.043" fill="none"/>
    </clipPath>
    <clipPath id="clip-path-44">
      <rect id="Rectangle_458640" data-name="Rectangle 458640" width="11.385" height="21.81" fill="none"/>
    </clipPath>
    <clipPath id="clip-path-45">
      <rect id="Rectangle_458641" data-name="Rectangle 458641" width="16.307" height="9.835" fill="none"/>
    </clipPath>
    <clipPath id="clip-path-46">
      <rect id="Rectangle_458642" data-name="Rectangle 458642" width="6.866" height="13.271" fill="none"/>
    </clipPath>
    <clipPath id="clip-path-47">
      <rect id="Rectangle_458643" data-name="Rectangle 458643" width="50.326" height="41.766" fill="none"/>
    </clipPath>
    <clipPath id="clip-path-48">
      <rect id="Rectangle_458644" data-name="Rectangle 458644" width="2.203" height="4.131" fill="none"/>
    </clipPath>
  </defs>
  <g id="img23" transform="translate(-185.711 -10604)">
    <path id="Path_1030835" data-name="Path 1030835" d="M146,0A146,146,0,0,1,292,146v25A146,146,0,0,1,0,171V146A146,146,0,0,1,146,0Z" transform="translate(185.711 10604)" fill="#a4e7f0"/>
    <g id="Group_1185009" data-name="Group 1185009" transform="translate(186 10614.949)">
      <g id="Group_1185008" data-name="Group 1185008" clip-path="url(#clip-path)">
        <g id="Group_1185007" data-name="Group 1185007">
          <g id="Group_1185006" data-name="Group 1185006" clip-path="url(#clip-path-2)">
            <path id="Path_1030766" data-name="Path 1030766" d="M192.955,190.292c-2.007,5.838-5.75,10.627-12.517,11.5-19.108,2.45-30.476-5.447-28.628-36.308h42.7s2.122,14.147-1.553,24.812" transform="translate(39.283 72.216)" fill="#92b4ef"/>
            <g id="Group_1184870" data-name="Group 1184870" transform="translate(199.939 237.696)" opacity="0.7">
              <g id="Group_1184869" data-name="Group 1184869">
                <g id="Group_1184868" data-name="Group 1184868" clip-path="url(#clip-path-3)">
                  <path id="Path_1030767" data-name="Path 1030767" d="M192.251,178.886a43.444,43.444,0,0,1-2.044,11.406,14.518,14.518,0,0,1-3.592.925c-16.708,2.145-27.5-3.625-28.707-25.737h33.853a71.9,71.9,0,0,1,.49,13.406" transform="translate(-157.909 -165.48)" fill="#aecfff"/>
                </g>
              </g>
            </g>
            <g id="Group_1184873" data-name="Group 1184873" transform="translate(212.215 237.696)" opacity="0.7">
              <g id="Group_1184872" data-name="Group 1184872">
                <g id="Group_1184871" data-name="Group 1184871" clip-path="url(#clip-path-4)">
                  <path id="Path_1030768" data-name="Path 1030768" d="M188.522,178.886c-10.644.451-18.386-3.13-22.068-13.406h21.578a71.9,71.9,0,0,1,.49,13.406" transform="translate(-166.455 -165.48)" fill="#aecfff"/>
                </g>
              </g>
            </g>
            <path id="Path_1030769" data-name="Path 1030769" d="M224.082,65.392c-.121-.345-9.111-1.01-10.437,12.762s0,18.636,0,18.636-3.979-13.932-15.031-4.756-2.652,35.133-2.652,35.133-6-30.844-21.469-15.372,5.3,41.831,5.3,41.831-10.158-17.076-23.419-6.908,6,29.181,16.162,30.084c0,0-11.052-4.421-20.776,3.536s-.516,33.6,28.033,29.617c0,0,64.585-86.236,44.292-144.564" transform="translate(37.714 28.48)" fill="#45bece"/>
            <path id="Path_1030770" data-name="Path 1030770" d="M170.868,210.4s-9.735-30.84,9.983-51.9,38.9-51.916,34.039-77.811,10.167-15.94,12.377-5.667S224.614,99,224.614,99s9.726-11.052,18.125-1.327-4.42,33.766-23.429,39.649c0,0,12.82-2.958,15.473,7.209s-6.225,17.682-27.869,19.893c0,0,16.375,2.211,12.4,15.029s-27.256,5.728-27.256,5.728,13.922,19.469-21.186,25.216" transform="translate(46.637 28.038)" fill="#36a0ae"/>
            <path id="Path_1030771" data-name="Path 1030771" d="M115.911,128.386,87.964,225.238s.908,4.993,4.085,0,35.4-96.852,35.4-96.852Z" transform="translate(38.388 56.028)" fill="#58616d"/>
            <path id="Path_1030772" data-name="Path 1030772" d="M155.031,128.386l24.6,96.852s-.908,4.993-4.084,0-32.059-96.852-32.059-96.852Z" transform="translate(62.621 56.028)" fill="#58616d"/>
            <path id="Path_1030773" data-name="Path 1030773" d="M109.257,12.441,83.2,174.434H233.9L232.2,12.441Z" transform="translate(36.307 5.429)" fill="#e5c098"/>
            <path id="Path_1030774" data-name="Path 1030774" d="M79.252,134.32H235.618v-9.1H82.326Z" transform="translate(34.586 54.646)" fill="#6a8bba"/>
            <path id="Path_1030775" data-name="Path 1030775" d="M106.155,12.441,80.094,174.434h150.7l-1.7-161.993Z" transform="translate(34.954 5.429)" fill="#f4dfc3"/>
            <path id="Path_1030776" data-name="Path 1030776" d="M76.15,134.32H232.516v-9.1H79.224Z" transform="translate(33.232 54.646)" fill="#94aad3"/>
            <path id="Path_1030777" data-name="Path 1030777" d="M104.244,28.709l-3.35,25.914h28.994l1.586-25.914Z" transform="translate(44.031 12.529)" fill="#c7dbff"/>
            <g id="Group_1184876" data-name="Group 1184876" transform="translate(150.514 47.233)" opacity="0.44">
              <g id="Group_1184875" data-name="Group 1184875">
                <g id="Group_1184874" data-name="Group 1184874" clip-path="url(#clip-path-5)">
                  <rect id="Rectangle_458565" data-name="Rectangle 458565" width="21.434" height="1.783" fill="#3b7ae0"/>
                </g>
              </g>
            </g>
            <g id="Group_1184879" data-name="Group 1184879" transform="translate(149.498 51.37)" opacity="0.44">
              <g id="Group_1184878" data-name="Group 1184878">
                <g id="Group_1184877" data-name="Group 1184877" clip-path="url(#clip-path-5)">
                  <rect id="Rectangle_458567" data-name="Rectangle 458567" width="21.434" height="1.784" fill="#3b7ae0"/>
                </g>
              </g>
            </g>
            <g id="Group_1184882" data-name="Group 1184882" transform="translate(149.498 59.436)" opacity="0.44">
              <g id="Group_1184881" data-name="Group 1184881">
                <g id="Group_1184880" data-name="Group 1184880" clip-path="url(#clip-path-7)">
                  <rect id="Rectangle_458569" data-name="Rectangle 458569" width="21.434" height="1.783" fill="#3b7ae0"/>
                </g>
              </g>
            </g>
            <g id="Group_1184885" data-name="Group 1184885" transform="translate(150.581 55.507)" opacity="0.44">
              <g id="Group_1184884" data-name="Group 1184884">
                <g id="Group_1184883" data-name="Group 1184883" clip-path="url(#clip-path-5)">
                  <rect id="Rectangle_458571" data-name="Rectangle 458571" width="21.434" height="1.783" fill="#3b7ae0"/>
                </g>
              </g>
            </g>
            <path id="Path_1030778" data-name="Path 1030778" d="M111.864,26.19c-.108.524-.886,6.692-.886,6.692h2.708l1.072-6.692Z" transform="translate(48.431 11.429)" fill="#dceaff"/>
            <path id="Path_1030779" data-name="Path 1030779" d="M127.6,60.039l-3.35,25.914h28.994l1.586-25.914Z" transform="translate(54.224 26.201)" fill="#c7dbff"/>
            <g id="Group_1184888" data-name="Group 1184888" transform="translate(184.084 92.206)" opacity="0.44">
              <g id="Group_1184887" data-name="Group 1184887">
                <g id="Group_1184886" data-name="Group 1184886" clip-path="url(#clip-path-7)">
                  <rect id="Rectangle_458573" data-name="Rectangle 458573" width="21.434" height="1.783" fill="#85a4d6"/>
                </g>
              </g>
            </g>
            <g id="Group_1184891" data-name="Group 1184891" transform="translate(183.068 96.343)" opacity="0.44">
              <g id="Group_1184890" data-name="Group 1184890">
                <g id="Group_1184889" data-name="Group 1184889" clip-path="url(#clip-path-7)">
                  <rect id="Rectangle_458575" data-name="Rectangle 458575" width="21.434" height="1.783" fill="#85a4d6"/>
                </g>
              </g>
            </g>
            <g id="Group_1184894" data-name="Group 1184894" transform="translate(183.068 104.407)" opacity="0.44">
              <g id="Group_1184893" data-name="Group 1184893">
                <g id="Group_1184892" data-name="Group 1184892" clip-path="url(#clip-path-5)">
                  <rect id="Rectangle_458577" data-name="Rectangle 458577" width="21.434" height="1.783" fill="#85a4d6"/>
                </g>
              </g>
            </g>
            <g id="Group_1184897" data-name="Group 1184897" transform="translate(184.151 100.479)" opacity="0.44">
              <g id="Group_1184896" data-name="Group 1184896">
                <g id="Group_1184895" data-name="Group 1184895" clip-path="url(#clip-path-7)">
                  <rect id="Rectangle_458579" data-name="Rectangle 458579" width="21.434" height="1.783" fill="#85a4d6"/>
                </g>
              </g>
            </g>
            <path id="Path_1030780" data-name="Path 1030780" d="M135.224,57.71c-.108.524-.886,6.692-.886,6.692h2.708l1.072-6.692Z" transform="translate(58.626 25.185)" fill="#dceaff"/>
            <path id="Path_1030781" data-name="Path 1030781" d="M151.848,92.842l-3.35,25.914h28.994l1.586-25.914Z" transform="translate(64.805 40.517)" fill="#c7dbff"/>
            <g id="Group_1184900" data-name="Group 1184900" transform="translate(219.236 139.771)" opacity="0.44">
              <g id="Group_1184899" data-name="Group 1184899">
                <g id="Group_1184898" data-name="Group 1184898" clip-path="url(#clip-path-7)">
                  <rect id="Rectangle_458581" data-name="Rectangle 458581" width="21.434" height="1.783" fill="#85a4d6"/>
                </g>
              </g>
            </g>
            <g id="Group_1184903" data-name="Group 1184903" transform="translate(218.221 143.908)" opacity="0.44">
              <g id="Group_1184902" data-name="Group 1184902">
                <g id="Group_1184901" data-name="Group 1184901" clip-path="url(#clip-path-7)">
                  <rect id="Rectangle_458583" data-name="Rectangle 458583" width="21.434" height="1.783" fill="#85a4d6"/>
                </g>
              </g>
            </g>
            <g id="Group_1184906" data-name="Group 1184906" transform="translate(217.217 151.972)" opacity="0.44">
              <g id="Group_1184905" data-name="Group 1184905">
                <g id="Group_1184904" data-name="Group 1184904" clip-path="url(#clip-path-7)">
                  <rect id="Rectangle_458585" data-name="Rectangle 458585" width="21.434" height="1.783" transform="translate(0 0)" fill="#85a4d6"/>
                </g>
              </g>
            </g>
            <g id="Group_1184909" data-name="Group 1184909" transform="translate(218.3 148.044)" opacity="0.44">
              <g id="Group_1184908" data-name="Group 1184908">
                <g id="Group_1184907" data-name="Group 1184907" clip-path="url(#clip-path-7)">
                  <rect id="Rectangle_458587" data-name="Rectangle 458587" width="21.434" height="1.783" fill="#85a4d6"/>
                </g>
              </g>
            </g>
            <path id="Path_1030782" data-name="Path 1030782" d="M159.331,91.247c-.108.524-.886,6.692-.886,6.692h2.708l1.072-6.692Z" transform="translate(69.146 39.821)" fill="#dceaff"/>
            <path id="Path_1030783" data-name="Path 1030783" d="M157.427,28.709l-3.35,25.914h28.994l1.586-25.914Z" transform="translate(67.24 12.529)" fill="#c7dbff"/>
            <g id="Group_1184912" data-name="Group 1184912" transform="translate(226.837 47.203)" opacity="0.44">
              <g id="Group_1184911" data-name="Group 1184911">
                <g id="Group_1184910" data-name="Group 1184910" clip-path="url(#clip-path-7)">
                  <rect id="Rectangle_458589" data-name="Rectangle 458589" width="21.434" height="1.783" fill="#3b7ae0"/>
                </g>
              </g>
            </g>
            <g id="Group_1184915" data-name="Group 1184915" transform="translate(225.823 51.34)" opacity="0.44">
              <g id="Group_1184914" data-name="Group 1184914">
                <g id="Group_1184913" data-name="Group 1184913" clip-path="url(#clip-path-7)">
                  <rect id="Rectangle_458591" data-name="Rectangle 458591" width="21.434" height="1.784" fill="#3b7ae0"/>
                </g>
              </g>
            </g>
            <g id="Group_1184918" data-name="Group 1184918" transform="translate(225.823 59.404)" opacity="0.44">
              <g id="Group_1184917" data-name="Group 1184917">
                <g id="Group_1184916" data-name="Group 1184916" clip-path="url(#clip-path-5)">
                  <rect id="Rectangle_458593" data-name="Rectangle 458593" width="21.434" height="1.783" fill="#3b7ae0"/>
                </g>
              </g>
            </g>
            <g id="Group_1184921" data-name="Group 1184921" transform="translate(226.906 55.477)" opacity="0.44">
              <g id="Group_1184920" data-name="Group 1184920">
                <g id="Group_1184919" data-name="Group 1184919" clip-path="url(#clip-path-7)">
                  <rect id="Rectangle_458595" data-name="Rectangle 458595" width="21.434" height="1.783" fill="#3b7ae0"/>
                </g>
              </g>
            </g>
            <path id="Path_1030784" data-name="Path 1030784" d="M165.022,26.38c-.108.524-.886,6.692-.886,6.692h2.708l1.072-6.692Z" transform="translate(71.63 11.512)" fill="#dceaff"/>
            <path id="Path_1030785" data-name="Path 1030785" d="M154.95,60.039,151.6,85.953h28.994l1.586-25.914Z" transform="translate(66.159 26.201)" fill="#c7dbff"/>
            <g id="Group_1184924" data-name="Group 1184924" transform="translate(224.499 92.206)" opacity="0.44">
              <g id="Group_1184923" data-name="Group 1184923">
                <g id="Group_1184922" data-name="Group 1184922" clip-path="url(#clip-path-21)">
                  <rect id="Rectangle_458597" data-name="Rectangle 458597" width="18.757" height="1.783" fill="#3a7de8"/>
                </g>
              </g>
            </g>
            <g id="Group_1184927" data-name="Group 1184927" transform="translate(224.499 99.587)" opacity="0.44">
              <g id="Group_1184926" data-name="Group 1184926">
                <g id="Group_1184925" data-name="Group 1184925" clip-path="url(#clip-path-21)">
                  <rect id="Rectangle_458599" data-name="Rectangle 458599" width="18.757" height="1.783" fill="#3a7de8"/>
                </g>
              </g>
            </g>
            <g id="Group_1184930" data-name="Group 1184930" transform="translate(222.608 103.515)" opacity="0.44">
              <g id="Group_1184929" data-name="Group 1184929">
                <g id="Group_1184928" data-name="Group 1184928" clip-path="url(#clip-path-23)">
                  <rect id="Rectangle_458601" data-name="Rectangle 458601" width="18.757" height="1.783" fill="#3a7de8"/>
                </g>
              </g>
            </g>
            <g id="Group_1184933" data-name="Group 1184933" transform="translate(223.495 96.343)" opacity="0.44">
              <g id="Group_1184932" data-name="Group 1184932">
                <g id="Group_1184931" data-name="Group 1184931" clip-path="url(#clip-path-24)">
                  <rect id="Rectangle_458603" data-name="Rectangle 458603" width="18.757" height="1.783" fill="#3a7de8"/>
                </g>
              </g>
            </g>
            <path id="Path_1030786" data-name="Path 1030786" d="M162.391,57.71c-.106.524-.886,6.692-.886,6.692h2.708l1.072-6.692Z" transform="translate(70.482 25.185)" fill="#dceaff"/>
            <path id="Path_1030787" data-name="Path 1030787" d="M98.665,92.842l-3.35,25.914h28.994L125.9,92.842Z" transform="translate(41.596 40.517)" fill="#c7dbff"/>
            <g id="Group_1184936" data-name="Group 1184936" transform="translate(143.768 139.769)" opacity="0.44">
              <g id="Group_1184935" data-name="Group 1184935">
                <g id="Group_1184934" data-name="Group 1184934" clip-path="url(#clip-path-24)">
                  <rect id="Rectangle_458605" data-name="Rectangle 458605" width="18.757" height="1.783" fill="#5c84ea"/>
                </g>
              </g>
            </g>
            <g id="Group_1184939" data-name="Group 1184939" transform="translate(143.768 147.151)" opacity="0.44">
              <g id="Group_1184938" data-name="Group 1184938">
                <g id="Group_1184937" data-name="Group 1184937" clip-path="url(#clip-path-23)">
                  <rect id="Rectangle_458607" data-name="Rectangle 458607" width="18.757" height="1.783" fill="#5c84ea"/>
                </g>
              </g>
            </g>
            <g id="Group_1184942" data-name="Group 1184942" transform="translate(141.879 151.08)" opacity="0.44">
              <g id="Group_1184941" data-name="Group 1184941">
                <g id="Group_1184940" data-name="Group 1184940" clip-path="url(#clip-path-27)">
                  <rect id="Rectangle_458609" data-name="Rectangle 458609" width="18.757" height="1.783" transform="translate(-0.001)" fill="#5c84ea"/>
                </g>
              </g>
            </g>
            <g id="Group_1184945" data-name="Group 1184945" transform="translate(142.764 143.906)" opacity="0.44">
              <g id="Group_1184944" data-name="Group 1184944">
                <g id="Group_1184943" data-name="Group 1184943" clip-path="url(#clip-path-27)">
                  <rect id="Rectangle_458611" data-name="Rectangle 458611" width="18.757" height="1.784" transform="translate(0)" fill="#5c84ea"/>
                </g>
              </g>
            </g>
            <path id="Path_1030788" data-name="Path 1030788" d="M106.285,91.247c-.109.524-.888,6.692-.888,6.692h2.709l1.072-6.692Z" transform="translate(45.996 39.821)" fill="#dceaff"/>
            <path id="Path_1030789" data-name="Path 1030789" d="M124.5,92.842l-3.35,25.914h28.994l1.586-25.914Z" transform="translate(52.87 40.517)" fill="#c7dbff"/>
            <g id="Group_1184948" data-name="Group 1184948" transform="translate(181.788 140.159)" opacity="0.44">
              <g id="Group_1184947" data-name="Group 1184947">
                <g id="Group_1184946" data-name="Group 1184946" clip-path="url(#clip-path-29)">
                  <rect id="Rectangle_458613" data-name="Rectangle 458613" width="12.82" height="1.784" fill="#5688d8"/>
                </g>
              </g>
            </g>
            <g id="Group_1184951" data-name="Group 1184951" transform="translate(180.728 143.877)" opacity="0.44">
              <g id="Group_1184950" data-name="Group 1184950">
                <g id="Group_1184949" data-name="Group 1184949" clip-path="url(#clip-path-24)">
                  <rect id="Rectangle_458615" data-name="Rectangle 458615" width="18.757" height="1.784" fill="#5688d8"/>
                </g>
              </g>
            </g>
            <g id="Group_1184954" data-name="Group 1184954" transform="translate(180.728 148.432)" opacity="0.44">
              <g id="Group_1184953" data-name="Group 1184953">
                <g id="Group_1184952" data-name="Group 1184952" clip-path="url(#clip-path-31)">
                  <rect id="Rectangle_458617" data-name="Rectangle 458617" width="7.498" height="1.783" fill="#5688d8"/>
                </g>
              </g>
            </g>
            <g id="Group_1184957" data-name="Group 1184957" transform="translate(179.538 152.361)" opacity="0.44">
              <g id="Group_1184956" data-name="Group 1184956">
                <g id="Group_1184955" data-name="Group 1184955" clip-path="url(#clip-path-32)">
                  <rect id="Rectangle_458619" data-name="Rectangle 458619" width="13.157" height="1.784" transform="translate(0 0)" fill="#5688d8"/>
                </g>
              </g>
            </g>
            <path id="Path_1030790" data-name="Path 1030790" d="M132.122,91.247c-.106.524-.886,6.692-.886,6.692h2.708l1.072-6.692Z" transform="translate(57.272 39.821)" fill="#dceaff"/>
            <path id="Path_1030791" data-name="Path 1030791" d="M101.767,60.039l-3.35,25.914h28.994L129,60.039Z" transform="translate(42.95 26.201)" fill="#c7dbff"/>
            <g id="Group_1184960" data-name="Group 1184960" transform="translate(148.672 92.321)" opacity="0.44">
              <g id="Group_1184959" data-name="Group 1184959">
                <g id="Group_1184958" data-name="Group 1184958" clip-path="url(#clip-path-21)">
                  <rect id="Rectangle_458621" data-name="Rectangle 458621" width="18.757" height="1.784" fill="#4c82d8"/>
                </g>
              </g>
            </g>
            <g id="Group_1184963" data-name="Group 1184963" transform="translate(148.672 99.702)" opacity="0.44">
              <g id="Group_1184962" data-name="Group 1184962">
                <g id="Group_1184961" data-name="Group 1184961" clip-path="url(#clip-path-21)">
                  <rect id="Rectangle_458623" data-name="Rectangle 458623" width="18.757" height="1.783" fill="#4c82d8"/>
                </g>
              </g>
            </g>
            <g id="Group_1184966" data-name="Group 1184966" transform="translate(146.782 103.631)" opacity="0.44">
              <g id="Group_1184965" data-name="Group 1184965">
                <g id="Group_1184964" data-name="Group 1184964" clip-path="url(#clip-path-24)">
                  <rect id="Rectangle_458625" data-name="Rectangle 458625" width="18.757" height="1.784" fill="#4c82d8"/>
                </g>
              </g>
            </g>
            <g id="Group_1184969" data-name="Group 1184969" transform="translate(147.668 96.457)" opacity="0.44">
              <g id="Group_1184968" data-name="Group 1184968">
                <g id="Group_1184967" data-name="Group 1184967" clip-path="url(#clip-path-21)">
                  <rect id="Rectangle_458627" data-name="Rectangle 458627" width="18.757" height="1.783" fill="#4c82d8"/>
                </g>
              </g>
            </g>
            <path id="Path_1030792" data-name="Path 1030792" d="M109.233,57.71c-.108.524-.886,6.692-.886,6.692h2.708l1.072-6.692Z" transform="translate(47.283 25.185)" fill="#dceaff"/>
            <path id="Path_1030793" data-name="Path 1030793" d="M130.078,28.709l-3.35,25.914h28.994l1.586-25.914Z" transform="translate(55.305 12.529)" fill="#c7dbff"/>
            <g id="Group_1184972" data-name="Group 1184972" transform="translate(189.478 47.233)" opacity="0.44">
              <g id="Group_1184971" data-name="Group 1184971">
                <g id="Group_1184970" data-name="Group 1184970" clip-path="url(#clip-path-29)">
                  <rect id="Rectangle_458629" data-name="Rectangle 458629" width="12.82" height="1.783" fill="#94aad3"/>
                </g>
              </g>
            </g>
            <g id="Group_1184975" data-name="Group 1184975" transform="translate(188.419 50.952)" opacity="0.44">
              <g id="Group_1184974" data-name="Group 1184974">
                <g id="Group_1184973" data-name="Group 1184973" clip-path="url(#clip-path-21)">
                  <rect id="Rectangle_458631" data-name="Rectangle 458631" width="18.757" height="1.783" fill="#94aad3"/>
                </g>
              </g>
            </g>
            <g id="Group_1184978" data-name="Group 1184978" transform="translate(188.419 55.507)" opacity="0.44">
              <g id="Group_1184977" data-name="Group 1184977">
                <g id="Group_1184976" data-name="Group 1184976" clip-path="url(#clip-path-39)">
                  <rect id="Rectangle_458633" data-name="Rectangle 458633" width="7.498" height="1.783" fill="#94aad3"/>
                </g>
              </g>
            </g>
            <g id="Group_1184981" data-name="Group 1184981" transform="translate(187.227 59.436)" opacity="0.44">
              <g id="Group_1184980" data-name="Group 1184980">
                <g id="Group_1184979" data-name="Group 1184979" clip-path="url(#clip-path-32)">
                  <rect id="Rectangle_458635" data-name="Rectangle 458635" width="13.157" height="1.783" fill="#94aad3"/>
                </g>
              </g>
            </g>
            <path id="Path_1030794" data-name="Path 1030794" d="M137.76,26.19c-.108.524-.886,6.692-.886,6.692h2.708l1.072-6.692Z" transform="translate(59.732 11.429)" fill="#dceaff"/>
            <path id="Path_1030795" data-name="Path 1030795" d="M134.754,8.926l-1.847,11.559h27.977l2.433-11.559Z" transform="translate(58.001 3.895)" fill="#7b98c6"/>
            <path id="Path_1030796" data-name="Path 1030796" d="M132.427,8.926,130.58,20.485h27.977L160.99,8.926Z" transform="translate(56.986 3.895)" fill="#94aad3"/>
            <path id="Path_1030797" data-name="Path 1030797" d="M91.808,120.811l-3.225,6.33h29.988l1.781-6.33Z" transform="translate(38.658 52.723)" fill="#4f555e"/>
            <path id="Path_1030798" data-name="Path 1030798" d="M22.649,183.6s-4.276,19.173-9.219,22.368-8.531.4-6.362,6.034c1.775,4.605,12.839,3.549,16.713,0s5.295-10.648,5.295-10.648-.71,9.227,0,9.584S35.8,183.18,35.8,183.18Z" transform="translate(2.803 79.941)" fill="#42474f"/>
            <path id="Path_1030799" data-name="Path 1030799" d="M44.8,150.255S43.545,155.23,41.69,162.4c-2.914,11.3-7.285,28.1-10.509,39.391a39.843,39.843,0,0,1-6.493,12.484c-2.236,2.914-8.067,5.122-7.64-3.062.075-1.472.428-4.71.972-9.009,1.339-10.657,3.8-27.881,5.756-41.423.766-5.24,1.457-9.936,1.972-13.469.619-4.18,1-6.757,1-6.757l12.573,6.757Z" transform="translate(7.43 61.338)" fill="#f89e8c"/>
            <g id="Group_1184984" data-name="Group 1184984" transform="translate(31.206 208.648)" opacity="0.72">
              <g id="Group_1184983" data-name="Group 1184983">
                <g id="Group_1184982" data-name="Group 1184982" clip-path="url(#clip-path-41)">
                  <path id="Path_1030800" data-name="Path 1030800" d="M23.7,145.257H37.27l5.476,2.945s-1.251,4.974-3.106,12.143c-6.007.619-14.986-1.03-17.915-1.619Z" transform="translate(-21.725 -145.257)" fill="#f48371"/>
                </g>
              </g>
            </g>
            <path id="Path_1030801" data-name="Path 1030801" d="M63.746,132.17V151.2s-.987,5.445-2.37,13.248c-3.341,18.695-8.979,50.977-8.818,54.48.237,4.976-11.187-.575-11.187-.575l4.2-54.568.691-9.054v-.014L48,132.17Z" transform="translate(18.054 57.68)" fill="#f89e8c"/>
            <path id="Path_1030802" data-name="Path 1030802" d="M42.014,186.865S39.5,206.453,39.96,209.642s5.295-8.656,5.295-8.656a10.8,10.8,0,0,0,6.378,10.706c6.991,3.452,14.3,1.293,14.756-.022s1.056-4.433-6.461-7.393-5.172-5.49-6.059-14.473c.129,5.917-8.893,11.733-11.855-2.939" transform="translate(17.415 81.549)" fill="#42474f"/>
            <path id="Path_1030803" data-name="Path 1030803" d="M62.471,132.17V151.2s-.589,3.21-1.972,11.011c-4.7,2.12-13.9,2.271-16.207,1.574l.691-9.054v-.014l7.125-18.313,6.771-4.239Z" transform="translate(19.329 57.68)" fill="#f48371"/>
            <path id="Path_1030804" data-name="Path 1030804" d="M89.6,130.41c-.651,30.6-6.187,48.825-6.187,48.825l-11.714,1.3,2.667-21.122-7.176,22.227s-24.9,3.627-45.833,1.561c-3.209-.315-6.365-.76-9.378-1.365,0,0,6.336-67.113,21.958-91.171a26.675,26.675,0,0,1,9.052-8.9c15.365-8.789,34.207,4.852,34.207,4.852,1.336-1.125,13.054,13.2,12.4,43.8" transform="translate(5.227 34.393)" fill="#94aad3"/>
            <g id="Group_1184987" data-name="Group 1184987" transform="translate(17.204 116.156)" opacity="0.46">
              <g id="Group_1184986" data-name="Group 1184986">
                <g id="Group_1184985" data-name="Group 1184985" clip-path="url(#clip-path-42)">
                  <path id="Path_1030805" data-name="Path 1030805" d="M49.775,89.77s-26.644,25.1-28.419,92.535a94.646,94.646,0,0,1-9.378-1.363s6.336-67.113,21.958-91.171a26.661,26.661,0,0,1,9.052-8.9Z" transform="translate(-11.977 -80.866)" fill="#7b7ba8"/>
                </g>
              </g>
            </g>
            <path id="Path_1030806" data-name="Path 1030806" d="M63.972,45.442A42.791,42.791,0,0,1,49.5,51.78L44.7,48.508l-9.383-6.419L32.451,19.94l-.5-3.9,4-1.6,3.374-1.357L56.657,6.135,66.4,17.862c.01.463,4.578,22.7-2.428,27.58" transform="translate(13.942 2.677)" fill="#f89e8c"/>
            <g id="Group_1184990" data-name="Group 1184990" transform="translate(46.393 14.141)" opacity="0.69">
              <g id="Group_1184989" data-name="Group 1184989">
                <g id="Group_1184988" data-name="Group 1184988" clip-path="url(#clip-path-43)">
                  <path id="Path_1030807" data-name="Path 1030807" d="M44.55,46.89l-9.383-6.419L32.3,18.321l3.5-5.5,1.893-2.973,1.481,1.616,2.716,7.787S32.3,26.062,44.55,46.89" transform="translate(-32.298 -9.845)" fill="#f48371"/>
                </g>
              </g>
            </g>
            <path id="Path_1030808" data-name="Path 1030808" d="M44.03,20.1c0,.842-.473,1.524-1.056,1.524S41.92,20.943,41.92,20.1s.473-1.524,1.054-1.524,1.056.682,1.056,1.524" transform="translate(18.294 8.107)" fill="#382522"/>
            <path id="Path_1030809" data-name="Path 1030809" d="M52.928,20.1c0,.842-.473,1.524-1.056,1.524s-1.054-.682-1.054-1.524.473-1.524,1.054-1.524,1.056.682,1.056,1.524" transform="translate(22.177 8.107)" fill="#382522"/>
            <path id="Path_1030810" data-name="Path 1030810" d="M47.52,19.638c.2.319,1.373,6.181,3.015,8.526a14.9,14.9,0,0,1-3.636.82Z" transform="translate(20.467 8.57)" fill="#f46e60"/>
            <path id="Path_1030811" data-name="Path 1030811" d="M52.255,28.841a17.13,17.13,0,0,1-7.649-.586c-3.49-1.29-1.207,3.575,4.634,3.048,6.5-.586,3.015-2.462,3.015-2.462" transform="translate(18.746 12.235)" fill="#9e1a00"/>
            <path id="Path_1030812" data-name="Path 1030812" d="M44.674,30.157c.878-.807,4.417-.983,4.976.362a8.822,8.822,0,0,1-4.976-.362" transform="translate(19.496 12.887)" fill="#f76652"/>
            <path id="Path_1030813" data-name="Path 1030813" d="M65.076,45.049l-9.783,9.161A108.311,108.311,0,0,1,43.756,50.94h-.006c-5.856-2.09-11.095-4.908-7.711-7.632,2.956-2.38,2.551-5.862,1.215-8.962a20.776,20.776,0,0,0-1.615-3.014,28.641,28.641,0,0,0,2.214,1.839A48.771,48.771,0,0,0,42.232,36.1c.286.172.566.332.845.48,8.591,4.6,15.133-.48,15.133-.48-.835,6.662,3.327,4.789,3.327,4.789Z" transform="translate(15.263 13.674)" fill="#f48371"/>
            <g id="Group_1184993" data-name="Group 1184993" transform="translate(50.236 43.012)" opacity="0.72">
              <g id="Group_1184992" data-name="Group 1184992">
                <g id="Group_1184991" data-name="Group 1184991" clip-path="url(#clip-path-44)">
                  <path id="Path_1030814" data-name="Path 1030814" d="M43.757,51.547h-.006c-5.856-2.089-11.1-4.908-7.711-7.632,2.956-2.38,2.551-5.862,1.215-8.96.205-.4,1.9-4.628,2.09-5.012,1.176.891,1.123,5.707,2.887,6.763.286.172.565.332.845.48-.639,3.852-1.553,10.04,2.466,13.265,1.718,1.376.524,1.513-1.787,1.1" transform="translate(-34.973 -29.944)" fill="#ef6d62"/>
                </g>
              </g>
            </g>
            <path id="Path_1030815" data-name="Path 1030815" d="M60.553,37.985s2.706,7.494-6.037,9.783-17.287-8.426-17.287-8.426l7.087,28.826,17.694,1.25L66.174,48.81,63.468,37.985Z" transform="translate(16.247 16.577)" fill="#f4dfc3"/>
            <path id="Path_1030816" data-name="Path 1030816" d="M37.3,112.488c-1.4-.47-.447-7.232-1.472-7.192,0,0-.812,18.525-3.574,19.633,0,0-1.018-4.256.826-15.135,0,0-3.206,14.286-4.5,14.286s1.074-14.2,1.074-14.2-2.639,10.186-4.3,8.9,4.943-13.508-.781-19.752c-1.284-1.4-2.654-2.814-4.013-4.178-3.4-3.4-6.707-6.432-8.288-7.859-.616-.554-.97-.868-.97-.868l3.019-.269,9.515-.839s2.1,1.729,4.743,4.212a60.166,60.166,0,0,1,8.716,9.8c4.058,6.273,1.235,13.88,0,13.465" transform="translate(4.932 37.099)" fill="#f89e8c"/>
            <g id="Group_1184996" data-name="Group 1184996" transform="translate(17.204 122.109)" opacity="0.72">
              <g id="Group_1184995" data-name="Group 1184995">
                <g id="Group_1184994" data-name="Group 1184994" clip-path="url(#clip-path-45)">
                  <path id="Path_1030817" data-name="Path 1030817" d="M28.285,89.223a16.777,16.777,0,0,1-8.019,5.622c-3.4-3.4-6.707-6.432-8.288-7.86.674-.382,1.359-.758,2.05-1.135l9.515-.84s2.1,1.729,4.743,4.213" transform="translate(-11.977 -85.01)" fill="#f48371"/>
                </g>
              </g>
            </g>
            <path id="Path_1030818" data-name="Path 1030818" d="M102.886,79.049c-1.245,1.1-2.007,1.76-2.007,1.76L96.024,68.854s.668-.546,1.594-1.317c1.431-1.214,3.488-2.952,4.516-3.96,1.688-1.636,3.9-8.117,5.668-10.03s2.5-1.307,1.174.967a10.679,10.679,0,0,0-1.174,5.216s11.348-9.855,12.016-9.423c1.533,1-5.339,7.366-6.2,8.167.935-.688,8.8-6.481,9.855-5.955,1.81.885-6.378,8.6-6.842,9.042.381-.3,7.15-5.411,8.7-4.414,1.327.855-16.378,16.573-22.447,21.9" transform="translate(41.905 21.948)" fill="#f89e8c"/>
            <g id="Group_1184999" data-name="Group 1184999" transform="translate(137.929 89.485)" opacity="0.72">
              <g id="Group_1184998" data-name="Group 1184998">
                <g id="Group_1184997" data-name="Group 1184997" clip-path="url(#clip-path-46)">
                  <path id="Path_1030819" data-name="Path 1030819" d="M102.886,73.809c-1.245,1.1-2.007,1.76-2.007,1.76L96.024,63.615s.668-.546,1.594-1.317a10.141,10.141,0,0,1,4.773,6.481,22.015,22.015,0,0,1,.494,5.03" transform="translate(-96.024 -62.298)" fill="#f48371"/>
                </g>
              </g>
            </g>
            <path id="Path_1030820" data-name="Path 1030820" d="M114.891,87.066l-.052.274a14.02,14.02,0,0,1-5.958,8.664c-12.107,8.676-36.039,6.958-42.74-16.655a62.194,62.194,0,0,1-1.576-7.067c-3.213-19.7,2.613-32.661,2.613-32.661s9.605,3.933,12.836,20.88,10.4,17.274,14.341,16.091c2.728-.819,6.661-7.624,12.511-5.8,4.092,1.273,9.373,8.864,8.025,16.279" transform="translate(27.754 17.291)" fill="#f2b761"/>
            <g id="Group_1185002" data-name="Group 1185002" transform="translate(92.319 76.326)" opacity="0.47">
              <g id="Group_1185001" data-name="Group 1185001">
                <g id="Group_1185000" data-name="Group 1185000" clip-path="url(#clip-path-47)">
                  <path id="Path_1030821" data-name="Path 1030821" d="M114.6,81.168l-.052.274a14.02,14.02,0,0,1-5.958,8.664c-12.107,8.676-36.039,6.958-42.74-16.655a62.194,62.194,0,0,1-1.576-7.067l6.847-13.248c-.228,1-4.039,26.125,14.255,32.9S114.6,81.168,114.6,81.168" transform="translate(-64.271 -53.137)" fill="#dd9331"/>
                </g>
              </g>
            </g>
            <path id="Path_1030822" data-name="Path 1030822" d="M100.559,52.624c0,4.24-6.248,34.367-7.863,40.828s-7.061,12.507-10.9,13.317c-2.284.48-15.525,3.037-26.793,2.169l0-.006c-7.642-.587-15.207-4.507-17.708-9.683C33.51,91.427,31.36,73.275,31.36,73.275c-10.492,11.9-2.827,19.772-.2,24.413,2.574,4.555,3.983,13.578-9.315,16.586-.251.052-.508.109-.77.161C6.948,117.26-3.14,96.878.9,83.561S20.264,49.867,32.569,42s20.6-3.671,20.6-3.671c5.039,13.317,18.373,21.56,18.373,21.56C82.974,48.64,78.169,38.5,78.169,38.5s-2.022-3.432,10.688-.07,11.7,9.954,11.7,14.19" transform="translate(0 16.128)" fill="#f2b761"/>
            <path id="Path_1030823" data-name="Path 1030823" d="M45.474,99.117c-7.643-.587-14.2-3.2-16.881-8.291-3.381-6.422-6.761-27.366-6.761-27.366l5.7-4.01S27.214,92.8,45.474,99.117" transform="translate(9.528 25.944)" fill="#eaa43f"/>
            <path id="Path_1030824" data-name="Path 1030824" d="M53.169,38.253C29.487,36.266,11.682,65.366,8.709,85.624,5.7,106.14,17.974,112.114,21.845,114.2c-.251.052-.508.109-.771.159C6.947,117.182-3.138,96.8.9,83.484S20.263,49.79,32.569,41.924s20.6-3.671,20.6-3.671" transform="translate(0 16.205)" fill="#eaa43f"/>
            <path id="Path_1030825" data-name="Path 1030825" d="M37.239,21.663s-.322-5.05-5.692-2.129S30.5,34.48,36.961,27.555Z" transform="translate(12.708 8.128)" fill="#f48371"/>
            <g id="Group_1185005" data-name="Group 1185005" transform="translate(45.88 30.21)" opacity="0.22">
              <g id="Group_1185004" data-name="Group 1185004">
                <g id="Group_1185003" data-name="Group 1185003" clip-path="url(#clip-path-48)">
                  <path id="Path_1030826" data-name="Path 1030826" d="M34.133,23.181c-.086,1.141-.645,2.027-1.247,1.981s-1.02-1.005-.934-2.146.644-2.027,1.245-1.981,1.021,1.005.935,2.146" transform="translate(-31.941 -21.032)" fill="#b72700"/>
                </g>
              </g>
            </g>
            <path id="Path_1030827" data-name="Path 1030827" d="M37.492,23.107s-.642-4.788,3.529-7.077-11.856,1.665-11.856,1.665c-2.384,13.926,2.587,2.673,6,3.055a2.635,2.635,0,0,1,2.327,2.357" transform="translate(12.455 6.684)" fill="#7a4542"/>
            <path id="Path_1030828" data-name="Path 1030828" d="M81.277,48.624c-2.738,2.782-7.375,4.549-14.985,3.548l.073-2.4a13.876,13.876,0,0,0,5.343-4.533,8.637,8.637,0,0,0,1.324-3.577,27.135,27.135,0,0,0,.118-3.091v-.016c0-.705-.029-1.457-.059-2.236a.518.518,0,0,0-.014-.148q-.022-.948-.089-1.943c-.014-.014-.014-.029,0-.059-.382-5.872-1.207-12.291-1.207-12.291s-8.111,3.416-8.61-9.052c0,1.31-.664,7.507-14.3,10.716-14.983,3.548-12.3,9.966-11.187,11.85a2.272,2.272,0,0,0,1.089.957h.014c.016,0,.016.014.03,0a1.451,1.451,0,0,0,.441.148.194.194,0,0,1,.089.014,3.28,3.28,0,0,0,3.282-1.31c.677-1.192,14.117,12.541,1.1,18.754a12.811,12.811,0,0,1-1.576.839c-.22.073-.457.147-.707.205C32.436,57.221,8.1,48.27,19.055,24.129c2.663-4.548,5.345-6.609,13.382-11.408C41.96,7.038,44.094.974,56.989.09a.044.044,0,0,1,.029-.014c.339-.014.678-.045,1.031-.045C74.8-.734,79.761,12.721,79.687,17.932c-.118,8.817,3.475,12.056,4.755,16.428.781,2.708,1.222,9.8-3.164,14.264" transform="translate(7.102 0)" fill="#9b5b54"/>
            <path id="Path_1030829" data-name="Path 1030829" d="M56.992.061C56.5.13,47.517,1.411,42.1,8.786c-5.595,7.62-13.952,9.443-18.672,19.808S19.9,54.9,42.151,54.771h.017c-8.384,2.893-34.36-5.862-23.116-30.663,2.238-4.12,5.348-6.62,13.384-11.415C41.968,7.013,44.093.946,56.992.061" transform="translate(7.102 0.027)" fill="#8c524d"/>
            <path id="Path_1030830" data-name="Path 1030830" d="M66.087,34.877c-2.745,2.791-7.375,4.555-14.989,3.551l.075-2.4a13.925,13.925,0,0,0,5.336-4.538c2.369,7.163,9.578,3.384,9.578,3.384" transform="translate(22.299 13.744)" fill="#8c524d"/>
            <path id="Path_1030831" data-name="Path 1030831" d="M56.129,27.529c-.381-5.873-1.214-12.294-1.214-12.294a3.166,3.166,0,0,1,3.539,2.726c.534,2.85-2.429,2.511-2.326,9.568" transform="translate(23.965 6.641)" fill="#8c524d"/>
            <path id="Path_1030832" data-name="Path 1030832" d="M38.993,18.767s1.284-2.39,7.317-2.428l1.258.045-.126,1.2s-5.661-.972-8.449,1.186" transform="translate(17.017 7.13)" fill="#9b5b54"/>
            <path id="Path_1030833" data-name="Path 1030833" d="M49.528,16.419l-.171,1.214s2.517-1.33,6.7,0c0,0-2.126-2.146-6.524-1.214" transform="translate(21.54 7.063)" fill="#9b5b54"/>
            <path id="Path_1030834" data-name="Path 1030834" d="M52.724,36.087s-6.8,2.305-12.023-1.1l-.284,1.864s6.333,2.656,12.307-.763" transform="translate(17.638 15.268)" fill="#ef6d62"/>
          </g>
        </g>
      </g>
    </g>
  </g>
</svg>
