<svg xmlns="http://www.w3.org/2000/svg" width="82" height="82" viewBox="0 0 82 82">
  <g id="img22" transform="translate(-318.711 -8657)">
    <rect id="Rectangle_458822" data-name="Rectangle 458822" width="82" height="82" transform="translate(318.711 8657)" fill="#ffd453"/>
    <g id="javascript" transform="translate(287.188 8667.323)">
      <path id="Línea_3383" data-name="Línea 3383" d="M-8.8,10.059a1.2,1.2,0,0,1-1.2-1.2V-8.8A1.2,1.2,0,0,1-8.8-10,1.2,1.2,0,0,1-7.6-8.8V8.861A1.2,1.2,0,0,1-8.8,10.059Z" transform="translate(101.857 26.302)"/>
      <path id="Trazado_1031296" data-name="Trazado 1031296" d="M90.659,61.353H51.139a3.6,3.6,0,0,1-3.595-3.595V12.051A1.2,1.2,0,0,1,47.9,11.2L58.749.351A1.2,1.2,0,0,1,59.6,0H90.659a3.6,3.6,0,0,1,3.595,3.595V6.582a1.2,1.2,0,0,1-2.4,0V3.595a1.2,1.2,0,0,0-1.2-1.2H60.093L49.941,12.548v45.21a1.2,1.2,0,0,0,1.2,1.2h39.52a1.2,1.2,0,0,0,1.2-1.2V53.171a1.2,1.2,0,1,1,2.4,0v4.587A3.6,3.6,0,0,1,90.659,61.353Z" transform="translate(0 0)"/>
      <path id="Trazado_1031297" data-name="Trazado 1031297" d="M59.6,0a1.2,1.2,0,0,1,1.2,1.2V9.654A3.6,3.6,0,0,1,57.2,13.249H48.742a1.2,1.2,0,0,1-.847-2.046L58.749.351A1.2,1.2,0,0,1,59.6,0ZM57.2,10.852a1.2,1.2,0,0,0,1.2-1.2V4.091l-6.762,6.762Z" transform="translate(0)"/>
      <path id="Trazado_1031298" data-name="Trazado 1031298" d="M174.83,304.606H140.519a2.4,2.4,0,0,1-2.4-2.4V286.838a2.4,2.4,0,0,1,2.4-2.4H174.83a2.4,2.4,0,0,1,2.4,2.4v15.372A2.4,2.4,0,0,1,174.83,304.606Zm-34.311-17.768v15.372h34.313V286.838Z" transform="translate(-79.724 -250.357)"/>
      <path id="Línea_3384" data-name="Línea 3384" d="M-8.8,1.358a1.193,1.193,0,0,1-.639-.186A1.2,1.2,0,0,1-9.816-.481l5.669-8.962a1.2,1.2,0,0,1,1.653-.372,1.2,1.2,0,0,1,.372,1.653L-7.79.8A1.2,1.2,0,0,1-8.8,1.358Z" transform="translate(76.698 27.062)"/>
      <path id="Trazado_1031299" data-name="Trazado 1031299" d="M134.866,153.735a1.2,1.2,0,0,1-.863-.367l-4.32-4.481a1.2,1.2,0,0,1,0-1.663l4.32-4.481a1.2,1.2,0,0,1,1.726,1.663l-3.518,3.65,3.518,3.65a1.2,1.2,0,0,1-.863,2.03Z" transform="translate(-72.002 -125.315)"/>
      <path id="Trazado_1031300" data-name="Trazado 1031300" d="M300.69,153.735a1.2,1.2,0,0,1-.863-2.03l3.518-3.65-3.518-3.65a1.2,1.2,0,0,1,1.725-1.663l4.32,4.481a1.2,1.2,0,0,1,0,1.663l-4.32,4.481A1.2,1.2,0,0,1,300.69,153.735Z" transform="translate(-221.757 -125.315)"/>
      <g id="Group_1185229" data-name="Group 1185229" transform="translate(69.176 38.425)">
        <path id="Trazado_1031301" data-name="Trazado 1031301" d="M230.741,332.152a3.442,3.442,0,0,1-2.324-1,1.2,1.2,0,0,1,1.69-1.7c.035.033.484.443.845.243a.642.642,0,0,0,.318-.567v-7.263a1.2,1.2,0,1,1,2.4,0v7.263a3.039,3.039,0,0,1-1.551,2.662A2.8,2.8,0,0,1,230.741,332.152Z" transform="translate(-228.069 -320.663)"/>
      </g>
      <g id="Group_1185230" data-name="Group 1185230" transform="translate(77.23 38.425)">
        <path id="Trazado_1031302" data-name="Trazado 1031302" d="M299.642,332.149a5.457,5.457,0,0,1-4.055-1.741,1.2,1.2,0,0,1,1.776-1.609,3.1,3.1,0,0,0,2.279.953,1.471,1.471,0,0,0,1.526-.982c.115-.647-.852-1.057-1.152-1.168-1.411-.521-2.664-1.078-2.717-1.1a1.194,1.194,0,0,1-.166-.091,2.95,2.95,0,0,1-1.316-2.92,3.258,3.258,0,0,1,2.36-2.631,5.362,5.362,0,0,1,4.67,1.021,1.2,1.2,0,0,1-1.535,1.84,2.965,2.965,0,0,0-2.443-.567.853.853,0,0,0-.679.677.57.57,0,0,0,.194.529c.327.143,1.357.587,2.463.995,2.329.859,2.912,2.546,2.681,3.837A3.81,3.81,0,0,1,299.642,332.149Z" transform="translate(-295.277 -320.665)"/>
      </g>
      <path id="Línea_3385" data-name="Línea 3385" transform="translate(93.055 12.051)"/>
    </g>
  </g>
</svg>
