<svg xmlns="http://www.w3.org/2000/svg" xmlns:xlink="http://www.w3.org/1999/xlink" width="150" height="150" viewBox="0 0 150 150">
  <defs>
    <clipPath id="clip-path">
      <rect id="Rectangle_454829" data-name="Rectangle 454829" width="150" height="150" fill="#1e535a"/>
    </clipPath>
  </defs>
  <g id="img22" transform="translate(0 0)">
    <g id="Group_1177591" data-name="Group 1177591" transform="translate(0 0)">
      <g id="Group_1177589" data-name="Group 1177589" transform="translate(0 0)">
        <g id="Group_1177587" data-name="Group 1177587" clip-path="url(#clip-path)">
          <path id="Path_997422" data-name="Path 997422" d="M143.876,66.392A68.963,68.963,0,0,0,128.3,30.506a7.931,7.931,0,0,0-11.16-10.685A68.861,68.861,0,0,0,81.486,5.891,7.933,7.933,0,0,0,66.079,6.2,68.956,68.956,0,0,0,31.872,20.827,7.935,7.935,0,0,0,20.859,31.915,68.9,68.9,0,0,0,6.425,66.324a7.938,7.938,0,0,0-.19,15.546,68.878,68.878,0,0,0,13.982,35.106A7.934,7.934,0,0,0,31,128.179,68.951,68.951,0,0,0,66.016,143.5a7.935,7.935,0,0,0,15.546.313,68.892,68.892,0,0,0,35.914-14.188,7.933,7.933,0,0,0,11.1-10.74A68.98,68.98,0,0,0,144.062,81.8a7.935,7.935,0,0,0-.186-15.4M121.469,34.413a7.89,7.89,0,0,0,4.394-1.33,65.489,65.489,0,0,1,14.453,33.289,7.946,7.946,0,0,0-5.071,3.674l-20.281-7.6c.016-.222.032-.447.032-.677a7.935,7.935,0,0,0-3.361-6.484l8.871-20.93a8.6,8.6,0,0,0,.962.063m-4.287-1.263-8.816,20.791a7.853,7.853,0,0,0-8.741,5.047L62.936,50.537a7.72,7.72,0,0,0-.166-1.58l52.065-18.131a7.961,7.961,0,0,0,2.348,2.324M73.822,15.882a7.941,7.941,0,0,0,7.795-6.441,65.381,65.381,0,0,1,33.059,12.929,7.9,7.9,0,0,0-1.148,4.1,8.337,8.337,0,0,0,.075,1.049L61.277,45.739A7.965,7.965,0,0,0,59.84,44.3L73.565,15.87c.087,0,.17.012.257.012M66.1,9.754a7.943,7.943,0,0,0,3.994,5.2L56.637,42.817A7.963,7.963,0,0,0,55,42.647a7.883,7.883,0,0,0-4.525,1.421L34.524,30.747a7.894,7.894,0,0,0-.269-7.308A65.433,65.433,0,0,1,66.1,9.754M15.688,72.393,48.676,55.378a7.912,7.912,0,0,0,6.259,3.147L66.241,94.665a8.071,8.071,0,0,0-1.75,1.936l-48.9-20.376a7.888,7.888,0,0,0,.293-2.106,7.98,7.98,0,0,0-.194-1.726m7.791-38.111a7.935,7.935,0,0,0,8.864-.756L48.091,46.677a7.919,7.919,0,0,0-.875,5.487L14.172,69.2a7.939,7.939,0,0,0-4.2-2.755A65.4,65.4,0,0,1,23.479,34.282m3.286,79.246a7.918,7.918,0,0,0-3.943,1.053A65.346,65.346,0,0,1,9.786,81.835a7.948,7.948,0,0,0,4.121-2.486L63.3,99.926a8.514,8.514,0,0,0-.063.954,7.939,7.939,0,0,0,.475,2.684L33.839,117.875a7.94,7.94,0,0,0-7.074-4.347M66.17,139.96a65.5,65.5,0,0,1-32.675-14.295,7.858,7.858,0,0,0,1.211-4.2l0-.091,30.926-14.821a7.941,7.941,0,0,0,2.8,1.77l1.853,26.63a7.941,7.941,0,0,0-4.113,5m3.29-46.828L58.4,57.758a7.952,7.952,0,0,0,3.773-3.773L99.154,62.5a7.894,7.894,0,0,0,1.263,3.61L75.049,93.952a7.843,7.843,0,0,0-5.59-.819m12.094,47.136a7.938,7.938,0,0,0-7.731-6.152l-.059,0L72,108.782a7.927,7.927,0,0,0,4.853-2.355l36.978,16.31c0,.071-.012.135-.012.206A7.9,7.9,0,0,0,115,127.083a65.377,65.377,0,0,1-33.443,13.186m33.17-21-36.016-15.89a7.894,7.894,0,0,0-1.041-7.062l25.292-27.762a7.894,7.894,0,0,0,4.1,1.148,8.74,8.74,0,0,0,.974-.063l9.453,46.618a7.923,7.923,0,0,0-2.759,3.013m11.393-2.969a7.893,7.893,0,0,0-5.277-1.247l-9.457-46.638a7.973,7.973,0,0,0,2.5-2.613l20.269,7.6a7.042,7.042,0,0,0-.036.713A7.938,7.938,0,0,0,140.5,81.9a65.431,65.431,0,0,1-14.382,34.4" transform="translate(0 0.002)" fill="#1e535a"/>
        </g>
      </g>
    </g>
    <g id="Ellipse_13614" data-name="Ellipse 13614" transform="translate(24.273 24.268)" fill="#fff" stroke="#1e535a" stroke-width="3">
      <ellipse cx="50.732" cy="50.733" rx="50.732" ry="50.733" stroke="none"/>
      <ellipse cx="50.732" cy="50.733" rx="49.232" ry="49.233" fill="none"/>
    </g>
    <g id="precios" transform="translate(45.647 48.023)">
      <path id="Path_1030472" data-name="Path 1030472" d="M19.379,242.253a.955.955,0,0,0,1.35,0l4.774-4.774-1.35-1.35-4.1,4.1L2.307,222.48,13.091,211.7l-1.35-1.35L.282,221.805a.955.955,0,0,0,0,1.35Zm0,0" transform="translate(-0.002 -185.237)" fill="#1e535a"/>
      <path id="Path_1030473" data-name="Path 1030473" d="M277.749,19.953,275.84,2.766A.955.955,0,0,0,275,1.921L257.808.012a.965.965,0,0,0-.78.274L250.344,6.97l1.35,1.35,6.36-6.36,15.978,1.774,1.774,15.973-3.747,3.747-1.815-12.2a2.878,2.878,0,1,0-1.92.073l1.477,9.93L256.468,7.925a.954.954,0,0,0-1.35,0L250.344,12.7l1.35,1.35,4.1-4.1,12.018,12.018-2.189,2.189,1.35,1.35,2.865-2.865a.927.927,0,0,0,.136-.2l.4,2.7-1.887,1.887,1.35,1.35.886-.886.607,4.07a3.226,3.226,0,1,0,6.36-1.046l-1.757-8.234,1.543-1.543a.955.955,0,0,0,.274-.78ZM269.161,7.645a.955.955,0,1,1-.955.955A.955.955,0,0,1,269.161,7.645ZM275.82,30.9a1.316,1.316,0,1,1-2.6.4l-.813-5.491,1.92-1.92Zm0,0" transform="translate(-220.463 -0.002)" fill="#1e535a"/>
      <path id="Path_1030474" data-name="Path 1030474" d="M58.352,265.358l6.206-6.206,1.35,1.35L59.7,266.708Zm0,0" transform="translate(-51.387 -228.217)" fill="#1e535a"/>
      <path id="Path_1030475" data-name="Path 1030475" d="M83.137,290.155l6.206-6.206,1.351,1.35-6.207,6.206Zm0,0" transform="translate(-73.214 -250.054)" fill="#1e535a"/>
      <path id="Path_1030476" data-name="Path 1030476" d="M107.941,333.972l3.628-3.628,1.351,1.35-3.629,3.628Zm0,0" transform="translate(-95.057 -290.911)" fill="#1e535a"/>
      <path id="Path_1030477" data-name="Path 1030477" d="M132.742,366.524l2.579-2.578,1.35,1.35-2.578,2.579Zm0,0" transform="translate(-116.898 -320.502)" fill="#1e535a"/>
      <path id="Path_1030478" data-name="Path 1030478" d="M157.543,396.261l1.91-1.909,1.35,1.35-1.909,1.909Zm0,0" transform="translate(-138.739 -347.279)" fill="#1e535a"/>
      <path id="Path_1030479" data-name="Path 1030479" d="M175.263,214.781A15.179,15.179,0,0,0,184.3,211.8l6.886,6.886a2.98,2.98,0,0,0,4.215-4.215l-7.046-7.046-.122.122a15.262,15.262,0,1,0-12.966,7.237Zm18.784,1.037a1.071,1.071,0,0,1-1.514,1.514l-6.766-6.765a15.383,15.383,0,0,0,1.45-1.578Zm-18.784-29.683A13.368,13.368,0,1,1,161.894,199.5,13.368,13.368,0,0,1,175.263,186.135Zm0,0" transform="translate(-140.887 -162.259)" fill="#1e535a"/>
      <path id="Path_1030480" data-name="Path 1030480" d="M203.458,238.921A11.458,11.458,0,1,0,192,227.462,11.458,11.458,0,0,0,203.458,238.921Zm0-21.007a9.549,9.549,0,1,1-9.549,9.549A9.549,9.549,0,0,1,203.458,217.914Zm0,0" transform="translate(-169.083 -190.219)" fill="#1e535a"/>
      <path id="Path_1030481" data-name="Path 1030481" d="M260.774,259.462h-1.91a.955.955,0,0,1-.955-.955H256a2.865,2.865,0,0,0,2.865,2.865v1.91h1.91v-1.91a2.865,2.865,0,0,0,2.865-2.865v-.955a2.865,2.865,0,0,0-2.865-2.865h-1.91a.955.955,0,0,1-.955-.955v-.955a.955.955,0,0,1,.955-.955h1.91a.955.955,0,0,1,.955.955h1.91a2.865,2.865,0,0,0-2.865-2.865V248h-1.91v1.91A2.865,2.865,0,0,0,256,252.778v.955a2.865,2.865,0,0,0,2.865,2.865h1.91a.955.955,0,0,1,.955.955v.955A.955.955,0,0,1,260.774,259.462Zm0,0" transform="translate(-225.444 -218.399)" fill="#1e535a"/>
      <path id="Path_1030482" data-name="Path 1030482" d="M4.774,22.921h6.379l6.435,4.6a.952.952,0,0,0,.555.179.965.965,0,0,0,.518-.153.954.954,0,0,0,.417-.993l-.725-3.628h5.519a4.78,4.78,0,0,0,4.774-4.774V4.778A4.78,4.78,0,0,0,23.872,0H4.774A4.78,4.78,0,0,0,0,4.778V18.146a4.78,4.78,0,0,0,4.774,4.774ZM1.91,4.778A2.865,2.865,0,0,1,4.774,1.914h19.1a2.865,2.865,0,0,1,2.865,2.865V18.146a2.865,2.865,0,0,1-2.865,2.865H17.188a.954.954,0,0,0-.936,1.146l.477,2.407-4.719-3.37a.948.948,0,0,0-.552-.182H4.774A2.865,2.865,0,0,1,1.91,18.146Zm0,0" fill="#1e535a"/>
      <path id="Path_1030483" data-name="Path 1030483" d="M32.955,54.327H53.007v-1.91H33.91V49.871l1.91-2.546,2.1,2.8a1.016,1.016,0,0,0,.789.382.955.955,0,0,0,.769-.425l3.11-4.665,3.955,4.748a.961.961,0,0,0,.734.343.723.723,0,0,0,.09,0,.954.954,0,0,0,.745-.487l4.774-8.594L51.218,40.5l-4.1,7.375-3.881-4.66a.938.938,0,0,0-.786-.347.955.955,0,0,0-.743.424L38.638,47.9,36.583,45.16a.989.989,0,0,0-1.527,0L33.91,46.688V40H32V53.372a.955.955,0,0,0,.955.955Zm0,0" transform="translate(-28.18 -35.226)" fill="#1e535a"/>
    </g>
  </g>
</svg>
