<svg xmlns="http://www.w3.org/2000/svg" xmlns:xlink="http://www.w3.org/1999/xlink" width="152" height="152" viewBox="0 0 152 152">
  <defs>
    <clipPath id="clip-path">
      <rect id="Rectangle_458662" data-name="Rectangle 458662" width="152" height="152" transform="translate(-0.227 -0.227)" fill="none"/>
    </clipPath>
  </defs>
  <g id="img3" transform="translate(0.227 0.227)">
    <g id="Group_1185036" data-name="Group 1185036" clip-path="url(#clip-path)">
      <path id="Path_1030928" data-name="Path 1030928" d="M152.122,0,152.1,152.1,0,152.122V0ZM131.676,136.521c6.19-3.663,9.006-10.4,8.7-17.441a18.976,18.976,0,0,0-8.247-15.4c-7.686-5.364-14.434-6.669-19.868-10.2a6.352,6.352,0,0,1-3.193-5.7,5.891,5.891,0,0,1,3.192-5.329,9.011,9.011,0,0,1,7.877-.006,13.051,13.051,0,0,1,4.944,5.263l11-7.082A20.281,20.281,0,0,0,119.151,69.2c-5.232-.434-10.5.1-14.994,2.76a17.65,17.65,0,0,0-7.105,7.17,20.629,20.629,0,0,0,.837,20.079c5.769,9.521,21.91,11.931,26.293,16.669A6.327,6.327,0,0,1,126,121.394c-.869,5.642-8.13,7.06-13.035,5.956a16.109,16.109,0,0,1-10.639-8.466l-11.582,6.769a23.746,23.746,0,0,0,10.293,10.867c8.646,4.934,21.937,5.154,30.644,0m-91.242-8.78c5.1,11.443,18.145,14.662,29.387,11.447,8.715-2.492,12.738-10.115,13.1-18.895V69.886l-14.428,0,0,48.8a12.324,12.324,0,0,1-1.151,5.84c-1.076,2.051-3.174,2.809-5.387,2.931-5.713.315-7.561-2.862-10.2-7.232l-9.97,5.916c-.441.262-1.606.945-1.357,1.6" fill="#f6df1d"/>
      <path id="Path_1030929" data-name="Path 1030929" d="M323.076,282.2c-8.707,5.153-22,4.933-30.644,0a23.746,23.746,0,0,1-10.293-10.867l11.582-6.769a16.109,16.109,0,0,0,10.639,8.466c4.9,1.1,12.166-.314,13.035-5.956a6.327,6.327,0,0,0-1.814-5.517c-4.383-4.738-20.524-7.148-26.293-16.669a20.629,20.629,0,0,1-.837-20.079,17.648,17.648,0,0,1,7.105-7.17c4.5-2.658,9.763-3.195,14.994-2.76a20.281,20.281,0,0,1,16.932,11.423l-11,7.083a13.056,13.056,0,0,0-4.944-5.263,9.01,9.01,0,0,0-7.877.006,5.891,5.891,0,0,0-3.192,5.329,6.352,6.352,0,0,0,3.193,5.7c5.434,3.53,12.182,4.835,19.868,10.2a18.975,18.975,0,0,1,8.247,15.4c.3,7.045-2.511,13.778-8.7,17.441" transform="translate(-191.4 -145.684)" fill="#040301"/>
      <path id="Path_1030930" data-name="Path 1030930" d="M125.65,275.155c-.249-.651.916-1.334,1.357-1.6l9.97-5.916c2.64,4.369,4.488,7.546,10.2,7.232,2.213-.122,4.311-.88,5.387-2.93a12.324,12.324,0,0,0,1.151-5.84l0-48.8,14.428,0v50.408c-.365,8.78-4.389,16.4-13.1,18.895-11.242,3.215-24.284,0-29.387-11.447" transform="translate(-85.216 -147.414)" fill="#040301"/>
    </g>
  </g>
</svg>
