<svg xmlns="http://www.w3.org/2000/svg" width="100" height="100" viewBox="0 0 100 100">
  <g id="img38" transform="translate(-601.711 -17766)">
    <rect id="Rectangle_458745" data-name="Rectangle 458745" width="100" height="100" transform="translate(601.711 17766)" fill="#ffd453"/>
    <g id="web_1_" data-name="web (1)" transform="translate(613.441 17779.154)">
      <path id="Path_1031105" data-name="Path 1031105" d="M152.819,167.433a1.242,1.242,0,0,0-1.131-1.179.615.615,0,0,0-.354.094l-6.2,4.054a1.221,1.221,0,0,0-.518.966,1.181,1.181,0,0,0,.518.943l6.2,4.054a.615.615,0,0,0,.354.094,1.219,1.219,0,0,0,1.131-1.155.766.766,0,0,0-.354-.683l-4.949-3.252,4.949-3.252a.825.825,0,0,0,.354-.683Zm0,0" transform="translate(-123.218 -141.228)"/>
      <path id="Path_1031106" data-name="Path 1031106" d="M226.787,122.721l-8.673,17.322a.953.953,0,0,0-.071.354.911.911,0,0,0,.919.872.855.855,0,0,0,.778-.447l8.649-17.251a.694.694,0,0,0,.094-.377.961.961,0,0,0-.99-.9.717.717,0,0,0-.707.424Zm0,0" transform="translate(-185.779 -103.775)"/>
      <path id="Path_1031107" data-name="Path 1031107" d="M306.6,175.3a1.2,1.2,0,0,0,1.131,1.155.541.541,0,0,0,.329-.094l6.2-4.054a1.121,1.121,0,0,0,.518-.943,1.221,1.221,0,0,0-.518-.966l-6.2-4.054a.542.542,0,0,0-.33-.094,1.224,1.224,0,0,0-1.131,1.179.874.874,0,0,0,.33.684l4.973,3.252-4.973,3.252a.8.8,0,0,0-.33.683Zm0,0" transform="translate(-261.234 -141.227)"/>
      <path id="Path_1031108" data-name="Path 1031108" d="M71.793.5H3.969A3.972,3.972,0,0,0,0,4.468V54.715a3.972,3.972,0,0,0,3.968,3.967H30.36a30.645,30.645,0,0,1-3.338,7.307H24.755A5.621,5.621,0,0,0,19.141,71.6a2.526,2.526,0,0,0,2.524,2.524H54.1A2.526,2.526,0,0,0,56.621,71.6a5.621,5.621,0,0,0-5.615-5.614H48.739A30.645,30.645,0,0,1,45.4,58.682H71.793a3.972,3.972,0,0,0,3.968-3.967V4.468A3.972,3.972,0,0,0,71.793.5ZM3.969,2.72H71.793a1.75,1.75,0,0,1,1.748,1.748v43.75H2.22V4.468A1.75,1.75,0,0,1,3.969,2.72ZM54.4,71.6a.3.3,0,0,1-.3.3H21.664a.3.3,0,0,1-.3-.3,3.4,3.4,0,0,1,3.4-3.4H51.006a3.4,3.4,0,0,1,3.4,3.4Zm-8.249-5.615H29.609a33.085,33.085,0,0,0,3.066-7.307H43.086A33.084,33.084,0,0,0,46.152,65.989Zm25.641-9.527H3.969A1.75,1.75,0,0,1,2.22,54.715V50.438H73.541v4.277a1.75,1.75,0,0,1-1.748,1.748Zm0,0"/>
      <path id="Path_1031109" data-name="Path 1031109" d="M29.11,195.736H94.364a1.11,1.11,0,0,0,1.11-1.11V177.352a1.11,1.11,0,0,0-2.22,0v16.165H30.22V177.352a1.11,1.11,0,0,0-2.22,0v17.275A1.11,1.11,0,0,0,29.11,195.736Zm0,0" transform="translate(-23.856 -149.738)"/>
      <path id="Path_1031110" data-name="Path 1031110" d="M29.11,48.994a1.11,1.11,0,0,0,1.11-1.11v-8.9H93.255v8.9a1.11,1.11,0,1,0,2.22,0V30.61a1.11,1.11,0,0,0-1.11-1.11H29.11A1.11,1.11,0,0,0,28,30.61V47.885A1.11,1.11,0,0,0,29.11,48.994ZM93.255,31.72v5.043H30.22V31.72Zm0,0" transform="translate(-23.856 -24.709)"/>
      <path id="Path_1031111" data-name="Path 1031111" d="M347.6,56.62a1.034,1.034,0,1,1,1.035-1.035A1.036,1.036,0,0,1,347.6,56.62Zm0,0" transform="translate(-295.282 -46.053)"/>
      <path id="Path_1031112" data-name="Path 1031112" d="M385.9,56.62a1.034,1.034,0,1,1,1.035-1.035A1.036,1.036,0,0,1,385.9,56.62Zm0,0" transform="translate(-327.921 -46.053)"/>
      <path id="Path_1031113" data-name="Path 1031113" d="M424.21,56.62a1.034,1.034,0,1,1,1.034-1.035A1.036,1.036,0,0,1,424.21,56.62Zm0,0" transform="translate(-360.558 -46.053)"/>
    </g>
  </g>
</svg>
