<svg xmlns="http://www.w3.org/2000/svg" xmlns:xlink="http://www.w3.org/1999/xlink" width="96" height="96" viewBox="0 0 96 96">
  <defs>
    <clipPath id="clip-path">
      <rect id="Rectangle_454829" data-name="Rectangle 454829" width="96" height="96" fill="#1e535a"/>
    </clipPath>
    <clipPath id="clip-path-2">
      <rect id="Rectangle_454905" data-name="Rectangle 454905" width="36.059" height="36.014" fill="#1e535a"/>
    </clipPath>
  </defs>
  <g id="img4" transform="translate(-1481 -8562.5)">
    <g id="Group_1177591" data-name="Group 1177591" transform="translate(1481 8562.5)">
      <g id="Group_1177589" data-name="Group 1177589" transform="translate(0 0)">
        <g id="Group_1177587" data-name="Group 1177587" clip-path="url(#clip-path)">
          <path id="Path_997422" data-name="Path 997422" d="M92.081,42.491a44.136,44.136,0,0,0-9.97-22.967,5.076,5.076,0,0,0-7.142-6.838A44.071,44.071,0,0,0,52.151,3.77a5.077,5.077,0,0,0-9.861.2A44.132,44.132,0,0,0,20.4,13.329a5.079,5.079,0,0,0-7.048,7.1A44.1,44.1,0,0,0,4.112,42.448,5.08,5.08,0,0,0,3.99,52.4a44.082,44.082,0,0,0,8.949,22.468,5.078,5.078,0,0,0,6.9,7.17,44.128,44.128,0,0,0,22.412,9.8,5.078,5.078,0,0,0,9.949.2,44.091,44.091,0,0,0,22.985-9.08,5.077,5.077,0,0,0,7.107-6.874A44.147,44.147,0,0,0,92.2,52.349a5.078,5.078,0,0,0-.119-9.858M77.74,22.024a5.05,5.05,0,0,0,2.812-.851,41.913,41.913,0,0,1,9.25,21.3,5.086,5.086,0,0,0-3.246,2.351l-12.98-4.867c.01-.142.02-.286.02-.433a5.079,5.079,0,0,0-2.151-4.15l5.678-13.4a5.5,5.5,0,0,0,.616.041M75,21.216,69.354,34.523a5.026,5.026,0,0,0-5.594,3.23L40.279,32.344a4.941,4.941,0,0,0-.106-1.011l33.322-11.6A5.1,5.1,0,0,0,75,21.216M47.246,10.165a5.083,5.083,0,0,0,4.989-4.122,41.844,41.844,0,0,1,21.158,8.275,5.054,5.054,0,0,0-.735,2.625,5.335,5.335,0,0,0,.048.671L39.217,29.273a5.1,5.1,0,0,0-.92-.92l8.784-18.2c.056,0,.109.008.165.008M42.3,6.243A5.083,5.083,0,0,0,44.86,9.569L36.248,27.4a5.1,5.1,0,0,0-1.049-.109,5.045,5.045,0,0,0-2.9.91L22.1,19.678A5.052,5.052,0,0,0,21.923,15,41.877,41.877,0,0,1,42.3,6.243M10.041,46.332,31.153,35.442a5.064,5.064,0,0,0,4.006,2.014l7.236,23.129a5.166,5.166,0,0,0-1.12,1.239l-31.3-13.04a5.048,5.048,0,0,0,.187-1.348,5.107,5.107,0,0,0-.124-1.1m4.986-24.391a5.079,5.079,0,0,0,5.673-.484l10.079,8.417a5.068,5.068,0,0,0-.56,3.512L9.07,44.29A5.081,5.081,0,0,0,6.38,42.526a41.859,41.859,0,0,1,8.647-20.585m2.1,50.717a5.067,5.067,0,0,0-2.523.674A41.822,41.822,0,0,1,6.263,52.374,5.087,5.087,0,0,0,8.9,50.783l31.609,13.17a5.45,5.45,0,0,0-.041.611,5.081,5.081,0,0,0,.3,1.718L21.657,75.44a5.081,5.081,0,0,0-4.528-2.782M42.349,89.575a41.919,41.919,0,0,1-20.912-9.149,5.029,5.029,0,0,0,.775-2.686l0-.058L42,68.2A5.082,5.082,0,0,0,43.8,69.329l1.186,17.043a5.082,5.082,0,0,0-2.632,3.2m2.105-29.97-7.081-22.64a5.089,5.089,0,0,0,2.415-2.415L63.459,40a5.052,5.052,0,0,0,.808,2.311L48.032,60.13a5.019,5.019,0,0,0-3.577-.524m7.74,30.167a5.081,5.081,0,0,0-4.948-3.937l-.038,0L46.081,69.62a5.073,5.073,0,0,0,3.106-1.507L72.853,78.551c0,.046-.008.086-.008.132a5.057,5.057,0,0,0,.752,2.65,41.841,41.841,0,0,1-21.4,8.439M73.423,76.334,50.373,66.165a5.052,5.052,0,0,0-.666-4.52L65.893,43.877a5.052,5.052,0,0,0,2.622.735,5.594,5.594,0,0,0,.623-.041l6.05,29.836a5.071,5.071,0,0,0-1.766,1.928m7.292-1.9a5.051,5.051,0,0,0-3.377-.8L71.285,43.788a5.1,5.1,0,0,0,1.6-1.672L85.858,46.98a4.506,4.506,0,0,0-.023.456,5.08,5.08,0,0,0,4.084,4.981,41.876,41.876,0,0,1-9.2,22.017" transform="translate(0 0.001)" fill="#1e535a"/>
        </g>
      </g>
    </g>
    <g id="Ellipse_13614" data-name="Ellipse 13614" transform="translate(1497.766 8579.268)" fill="#d5f4f8" stroke="#1e535a" stroke-width="3">
      <ellipse cx="31.232" cy="31.233" rx="31.232" ry="31.233" stroke="none"/>
      <ellipse cx="31.232" cy="31.233" rx="29.732" ry="29.733" fill="none"/>
    </g>
    <g id="Group_1177811" data-name="Group 1177811" transform="translate(1510.969 8592.493)">
      <g id="Group_1177777" data-name="Group 1177777" clip-path="url(#clip-path-2)">
        <path id="Path_997467" data-name="Path 997467" d="M28.989,21.99,7.147,22A7.393,7.393,0,0,1,.076,15.421,7.5,7.5,0,0,1,5.517,7.277,7.593,7.593,0,0,1,9.844.7c2.874-1.388,5.881-.572,8.27,1.139a9.652,9.652,0,0,1,8.039-.207A10.089,10.089,0,0,1,30.815,7.2c3.3,1.457,5.7,4.42,5.2,8.242-.438,3.344-3.258,6.542-7.022,6.543" transform="translate(-0.019 0.001)" fill="#1e535a"/>
        <path id="Path_997468" data-name="Path 997468" d="M130.6,218.492a3.862,3.862,0,1,1-2.087,0l.024-4.233a16.807,16.807,0,0,1,2.049-.019Z" transform="translate(-111.539 -190.082)" fill="#1e535a"/>
        <path id="Path_997469" data-name="Path 997469" d="M13.4,208.035c.027,1.069.034,2.114,0,3.222a1,1,0,0,1-1.012.9l-4.8.01a3.867,3.867,0,1,1,0-2.13l3.757,0,.017-1.967c.636-.08,1.225-.018,2.038-.035" transform="translate(0 -183.89)" fill="#1e535a"/>
        <path id="Path_997470" data-name="Path 997470" d="M200.811,208.055l2.039-.016.035,1.994,3.74.025a3.887,3.887,0,1,1,.014,2.109l-4.8-.014a.981.981,0,0,1-1.009-.9Z" transform="translate(-178.185 -183.891)" fill="#1e535a"/>
      </g>
    </g>
  </g>
</svg>
