<svg xmlns="http://www.w3.org/2000/svg" xmlns:xlink="http://www.w3.org/1999/xlink" width="130" height="130" viewBox="0 0 130 130">
  <defs>
    <clipPath id="clip-path">
      <rect id="Rectangle_454829" data-name="Rectangle 454829" width="130" height="130" fill="#1e535a"/>
    </clipPath>
  </defs>
  <g id="img5" transform="translate(-186 -4323.945)">
    <g id="Group_1177591" data-name="Group 1177591" transform="translate(186 4323.945)">
      <g id="Group_1177589" data-name="Group 1177589" transform="translate(0 0)">
        <g id="Group_1177587" data-name="Group 1177587" clip-path="url(#clip-path)">
          <path id="Path_997422" data-name="Path 997422" d="M124.692,57.54a59.768,59.768,0,0,0-13.5-31.1,6.874,6.874,0,0,0-9.672-9.26,59.68,59.68,0,0,0-30.9-12.073,6.875,6.875,0,0,0-13.353.271A59.762,59.762,0,0,0,27.622,18.05a6.877,6.877,0,0,0-9.545,9.61A59.712,59.712,0,0,0,5.568,57.481,6.88,6.88,0,0,0,5.4,70.954,59.7,59.7,0,0,0,17.522,101.38a6.876,6.876,0,0,0,9.342,9.709,59.757,59.757,0,0,0,30.35,13.274,6.877,6.877,0,0,0,13.473.271,59.706,59.706,0,0,0,31.125-12.3,6.875,6.875,0,0,0,9.624-9.308,59.783,59.783,0,0,0,13.418-32.141,6.877,6.877,0,0,0-.161-13.35M105.274,29.825a6.838,6.838,0,0,0,3.808-1.153,56.758,56.758,0,0,1,12.526,28.85,6.887,6.887,0,0,0-4.395,3.184L99.637,54.116c.014-.192.027-.388.027-.587a6.877,6.877,0,0,0-2.913-5.62L104.44,29.77a7.449,7.449,0,0,0,.834.055m-3.716-1.094L93.917,46.749a6.806,6.806,0,0,0-7.575,4.374L54.544,43.8A6.691,6.691,0,0,0,54.4,42.43L99.523,26.716a6.9,6.9,0,0,0,2.035,2.014M63.979,13.765a6.883,6.883,0,0,0,6.755-5.582A56.663,56.663,0,0,1,99.386,19.388a6.844,6.844,0,0,0-.995,3.554,7.226,7.226,0,0,0,.065.909L53.107,39.641A6.9,6.9,0,0,0,51.861,38.4L63.756,13.754c.075,0,.148.01.223.01M57.286,8.454a6.884,6.884,0,0,0,3.462,4.5L49.086,37.109a6.9,6.9,0,0,0-1.42-.148,6.832,6.832,0,0,0-3.922,1.232L29.921,26.648a6.842,6.842,0,0,0-.233-6.333,56.709,56.709,0,0,1,27.6-11.861M13.6,62.741l28.59-14.746a6.857,6.857,0,0,0,5.424,2.728l9.8,31.321a7,7,0,0,0-1.516,1.678L13.511,66.062a6.836,6.836,0,0,0,.254-1.825,6.916,6.916,0,0,0-.168-1.5m6.752-33.029a6.877,6.877,0,0,0,7.682-.655l13.648,11.4a6.863,6.863,0,0,0-.758,4.755L12.283,59.976a6.88,6.88,0,0,0-3.644-2.388,56.684,56.684,0,0,1,11.71-27.876M23.2,98.391a6.862,6.862,0,0,0-3.417.913,56.633,56.633,0,0,1-11.3-28.38,6.888,6.888,0,0,0,3.572-2.155L54.857,86.6a7.38,7.38,0,0,0-.055.827,6.881,6.881,0,0,0,.412,2.326l-25.886,12.4A6.881,6.881,0,0,0,23.2,98.391M57.347,121.3A56.765,56.765,0,0,1,29.029,108.91a6.81,6.81,0,0,0,1.05-3.637l0-.079,26.8-12.845a6.882,6.882,0,0,0,2.429,1.534l1.606,23.08a6.882,6.882,0,0,0-3.565,4.337M60.2,80.715,50.609,50.057a6.892,6.892,0,0,0,3.27-3.27l32.055,7.38A6.842,6.842,0,0,0,87.028,57.3L65.043,81.426a6.8,6.8,0,0,0-4.844-.71M70.68,121.567a6.88,6.88,0,0,0-6.7-5.332l-.051,0L62.4,94.278a6.87,6.87,0,0,0,4.206-2.041l32.048,14.135c0,.062-.01.117-.01.178a6.848,6.848,0,0,0,1.019,3.589A56.66,56.66,0,0,1,70.68,121.567m28.747-18.2L68.213,89.6a6.842,6.842,0,0,0-.9-6.121l21.92-24.061a6.841,6.841,0,0,0,3.551.995,7.576,7.576,0,0,0,.844-.055l8.193,40.4a6.867,6.867,0,0,0-2.391,2.611M109.3,100.8a6.84,6.84,0,0,0-4.573-1.081L96.532,59.3A6.91,6.91,0,0,0,98.7,57.032l17.566,6.587a6.1,6.1,0,0,0-.031.618,6.88,6.88,0,0,0,5.531,6.745A56.707,56.707,0,0,1,109.3,100.8" transform="translate(0 0.001)" fill="#1e535a"/>
        </g>
      </g>
    </g>
    <g id="Ellipse_13614" data-name="Ellipse 13614" transform="translate(210.273 4348.213)" fill="#fff" stroke="#1e535a" stroke-width="3">
      <ellipse cx="40.732" cy="40.733" rx="40.732" ry="40.733" stroke="none"/>
      <ellipse cx="40.732" cy="40.733" rx="39.232" ry="39.233" fill="none"/>
    </g>
    <g id="_x31_3" transform="translate(223.688 4363.634)">
      <path id="Path_1030338" data-name="Path 1030338" d="M36.586,15.6h-5.4V13.8a1.8,1.8,0,1,0-3.6,0v1.8h-7.2V13.8a1.8,1.8,0,1,0-3.6,0v1.8H11.4A5.4,5.4,0,0,0,6,21V33.59a5.4,5.4,0,0,0,5.4,5.4h10.8v1.8h-1.8a1.8,1.8,0,1,0,0,3.6h7.2a1.8,1.8,0,1,0,0-3.6h-1.8v-1.8h10.8a5.4,5.4,0,0,0,5.4-5.4V21A5.4,5.4,0,0,0,36.586,15.6ZM18.331,32.054a.9.9,0,1,1-1.272,1.272l-5.4-5.4a.9.9,0,0,1,0-1.272l5.4-5.4a.9.9,0,0,1,1.272,1.272l-4.761,4.761ZM27.495,22.3l-5.4,10.8a.9.9,0,0,1-.806.5.889.889,0,0,1-.4-.095.9.9,0,0,1-.4-1.207l5.4-10.8a.9.9,0,0,1,1.609.8Zm8.828,5.63-5.4,5.4a.9.9,0,1,1-1.272-1.272l4.761-4.761-4.761-4.761a.9.9,0,0,1,1.272-1.272l5.4,5.4a.9.9,0,0,1,0,1.272Z" transform="translate(3.197 7.992)" fill="#1e535a"/>
      <path id="Path_1030339" data-name="Path 1030339" d="M28,2V5.6h3.6Z" transform="translate(20.779 0)" fill="#1e535a"/>
      <path id="Path_1030340" data-name="Path 1030340" d="M34.193,5.6V2H27a1.8,1.8,0,0,0-1.8,1.8V11H19.8A1.8,1.8,0,0,0,18,12.8v3.6a1.8,1.8,0,0,0,3.6,0v-1.8h3.6v5.4a1.8,1.8,0,0,0,1.8,1.8h10.8a1.8,1.8,0,0,0,1.8-1.8V7.4h-3.6A1.8,1.8,0,0,1,34.193,5.6Zm2.7,12.594h-9a.9.9,0,1,1,0-1.8h9a.9.9,0,1,1,0,1.8Zm0-3.6h-9a.9.9,0,1,1,0-1.8h9a.9.9,0,1,1,0,1.8Zm.9-4.5a.9.9,0,0,1-.9.9h-9a.9.9,0,1,1,0-1.8h9A.9.9,0,0,1,37.791,10.1Z" transform="translate(12.787 0)" fill="#1e535a"/>
      <path id="Path_1030341" data-name="Path 1030341" d="M5.6,2,2,5.6H5.6Z" transform="translate(0 0)" fill="#1e535a"/>
      <path id="Path_1030342" data-name="Path 1030342" d="M16.393,19.992v-5.4h3.6v1.8a1.8,1.8,0,0,0,3.6,0V12.8a1.8,1.8,0,0,0-1.8-1.8h-5.4V3.8a1.8,1.8,0,0,0-1.8-1.8H7.4V5.6A1.8,1.8,0,0,1,5.6,7.4H2V19.992a1.8,1.8,0,0,0,1.8,1.8h10.8A1.8,1.8,0,0,0,16.393,19.992ZM4.7,9.2h9a.9.9,0,0,1,0,1.8h-9a.9.9,0,0,1,0-1.8Zm0,3.6h9a.9.9,0,0,1,0,1.8h-9a.9.9,0,1,1,0-1.8Zm9,5.4h-9a.9.9,0,1,1,0-1.8h9a.9.9,0,0,1,0,1.8Z" transform="translate(0 0)" fill="#1e535a"/>
    </g>
  </g>
</svg>
