<svg xmlns="http://www.w3.org/2000/svg" xmlns:xlink="http://www.w3.org/1999/xlink" width="128" height="128" viewBox="0 0 128 128">
  <defs>
    <clipPath id="clip-path">
      <rect id="Rectangle_454829" data-name="Rectangle 454829" width="128" height="128" fill="#1e535a"/>
    </clipPath>
  </defs>
  <g id="img9" transform="translate(-381.734 -3554.641)">
    <g id="Group_1184728" data-name="Group 1184728" transform="translate(195.734 -769.305)">
      <g id="Group_1177591" data-name="Group 1177591" transform="translate(186 4323.945)">
        <g id="Group_1177589" data-name="Group 1177589" transform="translate(0 0)">
          <g id="Group_1177587" data-name="Group 1177587" clip-path="url(#clip-path)">
            <path id="Path_997422" data-name="Path 997422" d="M122.774,56.654a58.848,58.848,0,0,0-13.293-30.623,6.768,6.768,0,0,0-9.523-9.118A58.761,58.761,0,0,0,69.535,5.027a6.769,6.769,0,0,0-13.148.267A58.842,58.842,0,0,0,27.2,17.772a6.771,6.771,0,0,0-9.4,9.462A58.794,58.794,0,0,0,5.483,56.6a6.774,6.774,0,0,0-.162,13.266A58.776,58.776,0,0,0,17.252,99.82a6.771,6.771,0,0,0,9.2,9.56,58.838,58.838,0,0,0,29.883,13.07,6.771,6.771,0,0,0,13.266.267,58.788,58.788,0,0,0,30.646-12.107,6.769,6.769,0,0,0,9.476-9.165A58.863,58.863,0,0,0,122.933,69.8a6.771,6.771,0,0,0-.159-13.144m-19.12-27.288a6.733,6.733,0,0,0,3.75-1.135,55.884,55.884,0,0,1,12.333,28.407,6.781,6.781,0,0,0-4.327,3.135L98.1,53.283c.013-.189.027-.382.027-.578a6.772,6.772,0,0,0-2.868-5.533l7.57-17.86a7.335,7.335,0,0,0,.821.054M100,28.288,92.472,46.03a6.7,6.7,0,0,0-7.459,4.307L53.705,43.125a6.588,6.588,0,0,0-.142-1.348L97.992,26.305a6.793,6.793,0,0,0,2,1.983M63,13.553a6.777,6.777,0,0,0,6.651-5.5A55.792,55.792,0,0,1,97.857,19.09a6.739,6.739,0,0,0-.98,3.5,7.114,7.114,0,0,0,.064.9L52.29,39.031A6.8,6.8,0,0,0,51.064,37.8L62.775,13.543c.074,0,.145.01.22.01M56.4,8.324a6.778,6.778,0,0,0,3.409,4.435L48.331,36.538a6.8,6.8,0,0,0-1.4-.145,6.727,6.727,0,0,0-3.861,1.213L29.461,26.238A6.736,6.736,0,0,0,29.231,20,55.836,55.836,0,0,1,56.4,8.324M13.387,61.776l28.15-14.519a6.751,6.751,0,0,0,5.341,2.686l9.648,30.839a6.887,6.887,0,0,0-1.493,1.652L13.3,65.046a6.731,6.731,0,0,0,.25-1.8,6.81,6.81,0,0,0-.166-1.473m6.648-32.521a6.771,6.771,0,0,0,7.564-.645L41.037,39.831a6.758,6.758,0,0,0-.747,4.682l-28.2,14.539A6.774,6.774,0,0,0,8.506,56.7,55.812,55.812,0,0,1,20.036,29.254m2.8,67.623a6.756,6.756,0,0,0-3.365.9A55.762,55.762,0,0,1,8.351,69.832a6.783,6.783,0,0,0,3.517-2.121L54.013,85.27a7.266,7.266,0,0,0-.054.814,6.775,6.775,0,0,0,.405,2.29L28.876,100.587a6.775,6.775,0,0,0-6.037-3.709m33.626,22.556a55.892,55.892,0,0,1-27.883-12.2,6.705,6.705,0,0,0,1.034-3.581l0-.078L56,90.929a6.776,6.776,0,0,0,2.392,1.51l1.581,22.725a6.776,6.776,0,0,0-3.51,4.27m2.807-39.96L49.831,49.287a6.786,6.786,0,0,0,3.219-3.219l31.562,7.266a6.736,6.736,0,0,0,1.078,3.081L64.042,80.173a6.692,6.692,0,0,0-4.77-.7M69.592,119.7a6.774,6.774,0,0,0-6.6-5.25l-.051,0-1.5-21.623a6.764,6.764,0,0,0,4.142-2.01l31.555,13.918c0,.061-.01.115-.01.176a6.743,6.743,0,0,0,1,3.534A55.789,55.789,0,0,1,69.592,119.7M97.9,101.779,67.164,88.22a6.736,6.736,0,0,0-.888-6.027L87.858,58.5a6.736,6.736,0,0,0,3.5.98,7.46,7.46,0,0,0,.831-.054l8.067,39.781a6.761,6.761,0,0,0-2.355,2.571m9.722-2.534a6.735,6.735,0,0,0-4.5-1.064l-8.07-39.8a6.8,6.8,0,0,0,2.135-2.23l17.3,6.486a6.009,6.009,0,0,0-.03.608,6.774,6.774,0,0,0,5.445,6.641A55.835,55.835,0,0,1,107.62,99.246" transform="translate(0 0.001)" fill="#1e535a"/>
          </g>
        </g>
      </g>
      <g id="Ellipse_13614" data-name="Ellipse 13614" transform="translate(210.273 4348.213)" fill="#fff" stroke="#1e535a" stroke-width="3">
        <ellipse cx="39.732" cy="39.733" rx="39.732" ry="39.733" stroke="none"/>
        <ellipse cx="39.732" cy="39.733" rx="38.232" ry="38.233" fill="none"/>
      </g>
      <path id="Path_1030555" data-name="Path 1030555" d="M137.511,26.82v-.5a35.087,35.087,0,0,1,1.021-8.786,28.793,28.793,0,0,1,2.707-6.939,22.355,22.355,0,0,1,3.682-4.967,13.571,13.571,0,0,1,3.969-2.845l1.262,3.487a12.72,12.72,0,0,0-2.569,2.65,19.3,19.3,0,0,0-2.283,4.129,28.7,28.7,0,0,0-1.64,5.735,40.771,40.771,0,0,0-.619,7.49v.6a40.771,40.771,0,0,0,.619,7.49,29.249,29.249,0,0,0,1.64,5.758,19.419,19.419,0,0,0,2.283,4.164,13.161,13.161,0,0,0,2.569,2.684l-1.262,3.4a13.658,13.658,0,0,1-3.969-2.833,22.1,22.1,0,0,1-3.682-4.955,28.762,28.762,0,0,1-2.707-6.951A35.224,35.224,0,0,1,137.511,26.82Zm39.394-.5v.5a33.19,33.19,0,0,1-1.055,8.614,29.44,29.44,0,0,1-2.787,6.974,23.025,23.025,0,0,1-3.785,5.058,13.557,13.557,0,0,1-4.095,2.89l-1.285-3.4a12.4,12.4,0,0,0,2.558-2.661,20.111,20.111,0,0,0,2.283-4.164,28.218,28.218,0,0,0,1.64-5.769,41.713,41.713,0,0,0,.608-7.5v-.6a40.958,40.958,0,0,0-.619-7.5A28.165,28.165,0,0,0,168.7,13a20.161,20.161,0,0,0-2.294-4.152A13.184,13.184,0,0,0,163.9,6.2l1.285-3.418a13.476,13.476,0,0,1,4.095,2.9,23.394,23.394,0,0,1,3.785,5.058,29.217,29.217,0,0,1,2.787,6.962A33.19,33.19,0,0,1,176.9,26.316Z" transform="translate(92.792 4361.377)" fill="#12263f"/>
    </g>
  </g>
</svg>
